<svg xmlns="http://www.w3.org/2000/svg" xmlns:xlink="http://www.w3.org/1999/xlink" width="98" height="97.999" viewBox="0 0 98 97.999">
  <defs>
    <clipPath id="clip-path">
      <rect id="Rectangle_412417" data-name="Rectangle 412417" width="56" height="54" transform="translate(772.269 2269.5)" fill="#fff"/>
    </clipPath>
  </defs>
  <g id="Group_1206383" data-name="Group 1206383" transform="translate(-751 -2247.05)">
    <g id="Group_1204142" data-name="Group 1204142" transform="translate(-120.113 1969.886)">
      <g id="Group_1188789" data-name="Group 1188789" transform="translate(871.113 277.164)">
        <path id="Path_1243039" data-name="Path 1243039" d="M41.05,0h0a41.05,41.05,0,0,1,0,82.1h0a41.05,41.05,0,0,1,0-82.1Z" transform="translate(7.951 7.949)" fill="#ffa724"/>
        <rect id="Rectangle_400907" data-name="Rectangle 400907" width="88.438" height="88.437" rx="44.218" transform="translate(4.782 4.781)" fill="none"/>
        <g id="Group_1098742" data-name="Group 1098742" transform="translate(0)">
          <g id="Rectangle_400898" data-name="Rectangle 400898" transform="translate(0)" fill="none" stroke="#fff" stroke-width="2" opacity="0.859">
            <rect width="98" height="97.999" rx="48.999" stroke="none"/>
            <rect x="1" y="1" width="96" height="95.999" rx="47.999" fill="none"/>
          </g>
          <g id="Rectangle_400907-2" data-name="Rectangle 400907" transform="translate(0)" fill="none" stroke="#0f1f33" stroke-linecap="round" stroke-width="2">
            <rect width="98" height="97.999" rx="48.999" stroke="none"/>
            <rect x="1" y="1" width="96" height="95.999" rx="47.999" fill="none"/>
          </g>
        </g>
      </g>
    </g>
    <g id="Mask_Group_1099605" data-name="Mask Group 1099605" clip-path="url(#clip-path)">
      <g id="offer_17226461" transform="translate(772.295 2268.619)">
        <path id="Path_1276833" data-name="Path 1276833" d="M10.148,35.644a1.03,1.03,0,0,0-1.37-.09L6.636,36.791l3.621,6.272.524.9a.761.761,0,0,1-.66,1.15.759.759,0,0,1-.66-.378l-.527-.9L5.309,37.557c-.2.118-.4.233-.6.347l-1.553.9a1.418,1.418,0,0,0-.608.679.664.664,0,0,0,.006.555l7.533,13.021a.589.589,0,0,0,.375.26,1.349,1.349,0,0,0,.992-.171L17.077,49.9c.58-.335.781-.918.6-1.231l-7.53-13.021Z" fill="#a79ba7"/>
        <path id="Path_1276834" data-name="Path 1276834" d="M51.709,33.155a2.323,2.323,0,0,0-1.783.229l-1.175.682c-.028.016-.053.031-.084.046l-11.1,6.417c-1.33.772-1.907.967-2.92.7l-1.389-.363a.177.177,0,0,0-.037-.012l-8.68-2.294a.765.765,0,1,1,.391-1.479l8.749,2.31h0a1.91,1.91,0,0,0,2.337-1.349,1.984,1.984,0,0,0-1.4-2.415l-11.6-3.1c-.016,0-.028-.009-.043-.012a2.643,2.643,0,0,0-2.006.2l-8.063,4.66L17.558,45.4l1.163-.673a3.138,3.138,0,0,1,2.651-.295l.034.009,11.564,3.091a3.23,3.23,0,0,0,2.468-.332l16.846-9.738a2.35,2.35,0,0,0-.574-4.309Z" fill="#ffddcf"/>
        <path id="Path_1276835" data-name="Path 1276835" d="M37.15,35.781a3.606,3.606,0,0,1,.285.62L41.4,32.432a1.779,1.779,0,0,0-.127-.139,2.365,2.365,0,0,0-3.326,0l-2.155,2.155a3.483,3.483,0,0,1,1.361,1.33Z" fill="#ffddcf"/>
        <path id="Path_1276836" data-name="Path 1276836" d="M37.352,38.89l10.054-5.819a2.282,2.282,0,0,0-.471-.679,2.36,2.36,0,0,0-3.33,0l-6.126,6.135a3.647,3.647,0,0,1-.127.366Z" fill="#ffddcf"/>
        <path id="Path_1276837" data-name="Path 1276837" d="M11.571,8.161a1.859,1.859,0,1,1-1.857,1.854,1.858,1.858,0,0,1,1.857-1.854Zm4.728.462a.766.766,0,1,1,1.085,1.082l-5.7,5.7A.766.766,0,1,1,10.6,14.321l5.7-5.7ZM17.709,15.3a1.86,1.86,0,1,1,0-2.629,1.862,1.862,0,0,1,0,2.629Zm-3.717,2.164a5.455,5.455,0,1,0-5.453-5.453A5.464,5.464,0,0,0,13.992,17.468Z" fill="#e8ecf9"/>
        <path id="Path_1276838" data-name="Path 1276838" d="M9.829,27.376l1.445-4.312a1.933,1.933,0,0,1-.543.081,1.888,1.888,0,0,1-1.668-1.008L7.845,19.843a.322.322,0,0,0-.208-.174l-.756-.248L4.472,25.4l3.274-.629,2.083,2.6Z" fill="#fd7a6e"/>
        <path id="Path_1276839" data-name="Path 1276839" d="M13.992,5.027a6.985,6.985,0,1,1-6.985,6.988,7,7,0,0,1,6.985-6.988ZM5.634,17.406l2.474.806a1.836,1.836,0,0,1,1.088.911l1.222,2.3a.359.359,0,0,0,.453.164l2.412-.973a1.856,1.856,0,0,1,1.423,0l2.409.97a.354.354,0,0,0,.453-.158l1.225-2.3a1.851,1.851,0,0,1,1.088-.915l2.471-.8a.355.355,0,0,0,.245-.419l-.543-2.545a1.861,1.861,0,0,1,.251-1.4l1.373-2.2a.358.358,0,0,0-.081-.481l-2.052-1.6a1.874,1.874,0,0,1-.71-1.225l-.363-2.579a.359.359,0,0,0-.372-.31L17.5,4.736a1.886,1.886,0,0,1-1.339-.493L14.237,2.507a.358.358,0,0,0-.487,0L11.816,4.246a1.856,1.856,0,0,1-1.33.49l-2.6-.093s-.006,0-.012,0a.36.36,0,0,0-.353.313L7.15,7.529a1.867,1.867,0,0,1-.713,1.234l-2.046,1.6a.359.359,0,0,0-.084.477l1.376,2.207a1.856,1.856,0,0,1,.251,1.4l-.546,2.548a.361.361,0,0,0,.245.419Z" fill="#ffe177"/>
        <path id="Path_1276840" data-name="Path 1276840" d="M11.571,10.347a.332.332,0,0,0,.329-.332.327.327,0,1,0-.329.332Z" fill="#e8ecf9"/>
        <path id="Path_1276841" data-name="Path 1276841" d="M35.154,9.69h4.911v5.971H35.154Z" fill="#00e499"/>
        <path id="Path_1276842" data-name="Path 1276842" d="M16.162,14.225a.331.331,0,0,0,.465-.006.328.328,0,0,0-.465-.462A.335.335,0,0,0,16.162,14.225Z" fill="#e8ecf9"/>
        <path id="Path_1276843" data-name="Path 1276843" d="M20.351,19.666a.341.341,0,0,0-.208.174l-1.222,2.3a1.883,1.883,0,0,1-2.21.924l1.448,4.312,2.083-2.6,3.274.629-2.409-5.983-.756.245Z" fill="#fd7a6e"/>
        <path id="Path_1276844" data-name="Path 1276844" d="M39.841,22.893H35.377a.764.764,0,1,1,0-1.528h4.464a.764.764,0,1,1,0,1.528ZM41.6,16.181A1.016,1.016,0,0,1,40.582,17.2H34.636a1.016,1.016,0,0,1-1.014-1.014V9.69h-4.48V26.623H46.076V9.69H41.6v6.492Z" fill="#ecba78"/>
        <g id="Group_1206380" data-name="Group 1206380">
          <path id="Path_1276845" data-name="Path 1276845" d="M11.571,9.693a.328.328,0,0,1,.329.322.327.327,0,1,1-.654,0A.325.325,0,0,1,11.571,9.693Zm0,2.186a1.859,1.859,0,1,0-1.857-1.863,1.864,1.864,0,0,0,1.857,1.863Z" fill="#030403"/>
          <path id="Path_1276846" data-name="Path 1276846" d="M46.076,26.623H29.143V9.69h4.48v6.492A1.016,1.016,0,0,0,34.636,17.2h5.946A1.016,1.016,0,0,0,41.6,16.181V9.69h4.48ZM35.154,9.69h4.911v5.971H35.154ZM29.087,8.158a1.475,1.475,0,0,0-1.476,1.476V26.675a1.48,1.48,0,0,0,1.476,1.479H46.132a1.482,1.482,0,0,0,1.476-1.479V9.634a1.477,1.477,0,0,0-1.476-1.476H29.087Z" fill="#030403"/>
          <path id="Path_1276847" data-name="Path 1276847" d="M10.6,15.4a.764.764,0,0,0,1.085,0l5.7-5.7A.766.766,0,1,0,16.3,8.623l-5.7,5.7a.767.767,0,0,0,0,1.082Z" fill="#030403"/>
          <path id="Path_1276848" data-name="Path 1276848" d="M39.841,21.365H35.377a.764.764,0,1,0,0,1.528h4.464a.764.764,0,1,0,0-1.528Z" fill="#030403"/>
          <path id="Path_1276849" data-name="Path 1276849" d="M16.624,13.757a.325.325,0,0,1,0,.462.331.331,0,0,1-.465.006.335.335,0,0,1,0-.468.328.328,0,0,1,.462,0Zm-1.547-1.082a1.86,1.86,0,1,0,2.632,0,1.872,1.872,0,0,0-2.632,0Z" fill="#030403"/>
          <path id="Path_1276850" data-name="Path 1276850" d="M52.282,37.464,35.436,47.2a3.23,3.23,0,0,1-2.468.332L21.4,44.442l-.034-.009a3.138,3.138,0,0,0-2.651.295l-1.163.673L12.92,37.377l8.063-4.66a2.643,2.643,0,0,1,2.006-.2c.016,0,.028.009.043.012l11.6,3.1a1.984,1.984,0,0,1,1.4,2.415,1.91,1.91,0,0,1-2.337,1.349h0l-8.749-2.31a.765.765,0,1,0-.391,1.479l8.68,2.294a.171.171,0,0,1,.037.012l1.389.363c1.014.27,1.59.074,2.92-.7l11.1-6.417c.031-.016.056-.031.084-.046l1.175-.682a2.368,2.368,0,0,1,3.215.862,2.356,2.356,0,0,1-.859,3.218ZM17.077,49.9l-5.621,3.249a1.349,1.349,0,0,1-.992.171.589.589,0,0,1-.375-.26L2.556,40.034a.664.664,0,0,1-.006-.555,1.418,1.418,0,0,1,.608-.679l1.553-.9c.2-.115.4-.229.6-.347l3.624,6.275.527.9a.759.759,0,0,0,.66.378.761.761,0,0,0,.66-1.15l-.524-.9L6.635,36.791l2.142-1.237a1.03,1.03,0,0,1,1.37.09l7.53,13.021c.18.313-.022.9-.6,1.231ZM37.944,32.3a2.365,2.365,0,0,1,3.326,0,1.78,1.78,0,0,1,.127.139L37.436,36.4a3.606,3.606,0,0,0-.285-.62,3.483,3.483,0,0,0-1.361-1.33L37.944,32.3Zm5.661.093a2.36,2.36,0,0,1,3.33,0,2.284,2.284,0,0,1,.471.679L37.352,38.89a3.618,3.618,0,0,0,.127-.366L43.6,32.389Zm8.5-.713a3.856,3.856,0,0,0-2.948.384l-.422.245a3.82,3.82,0,0,0-.722-1,3.892,3.892,0,0,0-5.493,0l-.04.04c-.04-.046-.081-.093-.124-.136a3.864,3.864,0,0,0-2.747-1.132h0a3.859,3.859,0,0,0-2.747,1.135l-2.7,2.7L23.448,31.053a4.178,4.178,0,0,0-3.23.338l-8.063,4.663-.679-1.175a2.513,2.513,0,0,0-3.463-.651Q5.98,35.4,3.945,36.577l-1.553.9a2.912,2.912,0,0,0-1.268,1.448,2.313,2.313,0,0,0-.164.84v.022a2.057,2.057,0,0,0,.27,1.014L8.762,53.82a2.107,2.107,0,0,0,1.308.973,2.5,2.5,0,0,0,.663.087,3,3,0,0,0,1.491-.409q2.809-1.623,5.621-3.252a2.506,2.506,0,0,0,1.16-3.32l-.679-1.175,1.16-.673a1.681,1.681,0,0,1,1.541-.124l11.545,3.085a4.828,4.828,0,0,0,1.237.164,4.78,4.78,0,0,0,2.4-.648l16.846-9.741a3.881,3.881,0,0,0-.946-7.112Z" fill="#030403"/>
          <path id="Path_1276851" data-name="Path 1276851" d="M13.992,6.558a5.455,5.455,0,1,1-5.453,5.456,5.462,5.462,0,0,1,5.453-5.456Zm0,12.438a6.985,6.985,0,1,0-6.985-6.982A6.992,6.992,0,0,0,13.992,19Z" fill="#030403"/>
          <path id="Path_1276852" data-name="Path 1276852" d="M6.88,19.421l.756.248a.322.322,0,0,1,.208.174l1.218,2.294a1.888,1.888,0,0,0,1.668,1.008,1.933,1.933,0,0,0,.543-.081L9.829,27.376l-2.083-2.6L4.472,25.4,6.88,19.421ZM5.389,16.987l.546-2.548a1.856,1.856,0,0,0-.251-1.4L4.307,10.837a.359.359,0,0,1,.084-.477l2.046-1.6A1.867,1.867,0,0,0,7.15,7.529l.366-2.576a.36.36,0,0,1,.353-.313c.006,0,.009,0,.012,0l2.6.093a1.855,1.855,0,0,0,1.33-.49L13.75,2.507a.358.358,0,0,1,.487,0l1.928,1.736a1.885,1.885,0,0,0,1.339.493L20.1,4.643a.359.359,0,0,1,.372.31l.363,2.579a1.874,1.874,0,0,0,.71,1.225l2.052,1.6a.358.358,0,0,1,.081.481l-1.373,2.2a1.86,1.86,0,0,0-.251,1.4l.543,2.545a.355.355,0,0,1-.245.419l-2.471.8a1.852,1.852,0,0,0-1.088.915l-1.225,2.3a.354.354,0,0,1-.453.158l-2.409-.97a1.856,1.856,0,0,0-1.423,0l-2.412.973a.359.359,0,0,1-.453-.164L9.2,19.123a1.835,1.835,0,0,0-1.088-.911l-2.474-.806a.36.36,0,0,1-.245-.419ZM23.516,25.4l-3.274-.629-2.083,2.6-1.448-4.312a1.883,1.883,0,0,0,2.21-.924l1.222-2.3a.341.341,0,0,1,.208-.174l.756-.245L23.516,25.4ZM2.94,26.675a1.159,1.159,0,0,0,1.141.363l3.044-.586,1.941,2.424a1.2,1.2,0,0,0,.924.477,1.213,1.213,0,0,0,.183-.016,1.182,1.182,0,0,0,.89-.828L13.14,22.32l.719-.291a.328.328,0,0,1,.27,0l.719.288,2.077,6.191A1.106,1.106,0,0,0,18,29.354a1.2,1.2,0,0,0,.924-.477l1.941-2.424,3.041.586a1.163,1.163,0,0,0,1.144-.363,1.183,1.183,0,0,0,.143-1.212l-2.623-6.516.257-.087a1.884,1.884,0,0,0,1.268-2.192l-.539-2.542a.34.34,0,0,1,.046-.273l1.38-2.2a1.894,1.894,0,0,0-.44-2.5l-2.052-1.6a.317.317,0,0,1-.133-.236L21.99,4.739a1.9,1.9,0,0,0-1.944-1.628L17.452,3.2a.321.321,0,0,1-.257-.1L15.26,1.369a1.886,1.886,0,0,0-2.533,0L10.786,3.111a.309.309,0,0,1-.248.093l-2.6-.093A1.893,1.893,0,0,0,6,4.739L5.634,7.312a.318.318,0,0,1-.136.239l-2.049,1.6a1.888,1.888,0,0,0-.44,2.5l1.38,2.207a.326.326,0,0,1,.046.267l-.543,2.545A1.889,1.889,0,0,0,5.159,18.86l.26.087L2.8,25.463a1.176,1.176,0,0,0,.143,1.212Z" fill="#030403"/>
        </g>
      </g>
    </g>
  </g>
</svg>
