<svg xmlns="http://www.w3.org/2000/svg" xmlns:xlink="http://www.w3.org/1999/xlink" width="98" height="97.998" viewBox="0 0 98 97.998">
  <defs>
    <clipPath id="clip-path">
      <rect id="Rectangle_412456" data-name="Rectangle 412456" width="56" height="54" transform="translate(1678.269 -9347.454)" fill="#fff"/>
    </clipPath>
  </defs>
  <g id="Group_1206387" data-name="Group 1206387" transform="translate(-1657 9369.904)">
    <g id="Group_1205964" data-name="Group 1205964" transform="translate(785.887 -9647.068)">
      <g id="Group_1188789" data-name="Group 1188789" transform="translate(871.113 277.164)">
        <path id="Path_1243039" data-name="Path 1243039" d="M41.05,0h0a41.05,41.05,0,0,1,0,82.1h0a41.05,41.05,0,0,1,0-82.1Z" transform="translate(7.951 7.949)" fill="#ffa724"/>
        <rect id="Rectangle_400907" data-name="Rectangle 400907" width="88.438" height="88.437" rx="44.218" transform="translate(4.782 4.781)" fill="none"/>
        <g id="Group_1098742" data-name="Group 1098742" transform="translate(0)">
          <g id="Rectangle_400898" data-name="Rectangle 400898" transform="translate(0)" fill="none" stroke="#fff" stroke-width="2" opacity="0.859">
            <rect width="98" height="97.999" rx="48.999" stroke="none"/>
            <rect x="1" y="1" width="96" height="95.999" rx="47.999" fill="none"/>
          </g>
          <g id="Rectangle_400907-2" data-name="Rectangle 400907" transform="translate(0)" fill="none" stroke="#0f1f33" stroke-linecap="round" stroke-width="2">
            <rect width="98" height="97.999" rx="48.999" stroke="none"/>
            <rect x="1" y="1" width="96" height="95.999" rx="47.999" fill="none"/>
          </g>
        </g>
      </g>
    </g>
    <g id="Mask_Group_1099602" data-name="Mask Group 1099602" clip-path="url(#clip-path)">
      <g id="information_11000511" transform="translate(1678.398 -9348.325)">
        <g id="Group_1206376" data-name="Group 1206376">
          <g id="Group_1206369" data-name="Group 1206369">
            <path id="Path_1276769" data-name="Path 1276769" d="M4.526,16.028,9.588,10.95A4.391,4.391,0,0,1,12.9,9.3a43.626,43.626,0,0,0,6.412.233A1.724,1.724,0,0,1,21,11.218,1.668,1.668,0,0,1,19.315,12.9l.837-.087A3.868,3.868,0,0,0,22.6,11.682l4.863-4.9c3.78-3.809,5.513.028,4.27,1.344L23,17.366a3.97,3.97,0,0,1-2.988,1.27H11.884L9.51,21.01a1.174,1.174,0,0,1-1.658,0L4.527,17.685a1.174,1.174,0,0,1,0-1.656Z" fill="#f6dccd" fill-rule="evenodd"/>
            <path id="Path_1276770" data-name="Path 1276770" d="M20.96,11.613A1.7,1.7,0,0,1,19.315,12.9c-1.33,0-2.662,0-3.992,0a.645.645,0,0,1,0-1.291Z" fill="#f1cbbc" fill-rule="evenodd"/>
            <path id="Path_1276771" data-name="Path 1276771" d="M4.526,16.028,9.589,10.95A4.391,4.391,0,0,1,12.9,9.3c.8.042,1.892.163,3.1.236L6.19,19.348,4.527,17.685A1.174,1.174,0,0,1,4.526,16.028Z" fill="#f1cbbc" fill-rule="evenodd"/>
            <path id="Path_1276772" data-name="Path 1276772" d="M4.617,13.977l7,7.125a.881.881,0,0,1-.011,1.242l-1.372,1.348A.881.881,0,0,1,9,23.681l-7-7.125A.881.881,0,0,1,2,15.315l1.371-1.348a.881.881,0,0,1,1.242.011Z" fill="#d1d1d6" fill-rule="evenodd"/>
            <path id="Path_1276773" data-name="Path 1276773" d="M8.662,19.078,9.9,20.339l1.226,1.247a.881.881,0,0,1-.009,1.24l.49-.482A.881.881,0,0,0,11.62,21.1l-1.23-1.251L7.92,17.338,5.448,14.823l-.831-.846a.882.882,0,0,0-1.093-.128l1.44,1.464,2.47,2.512,1.23,1.251Z" fill="#b1b1b5" fill-rule="evenodd"/>
          </g>
          <g id="Group_1206372" data-name="Group 1206372">
            <g id="Group_1206370" data-name="Group 1206370">
              <path id="Path_1276774" data-name="Path 1276774" d="M20.511,23.766h15.81a1.143,1.143,0,0,1,1.14,1.14v9.911a1.143,1.143,0,0,1-1.14,1.14H20.511a1.143,1.143,0,0,1-1.14-1.14V24.906A1.143,1.143,0,0,1,20.511,23.766Z" fill="#ffe177" fill-rule="evenodd"/>
              <path id="Path_1276775" data-name="Path 1276775" d="M35.338,23.766h.982a1.143,1.143,0,0,1,1.14,1.14v9.911a1.143,1.143,0,0,1-1.14,1.14h-.982a1.143,1.143,0,0,0,1.14-1.14V24.906A1.143,1.143,0,0,0,35.338,23.766Z" fill="#ffd064" fill-rule="evenodd"/>
              <path id="Path_1276776" data-name="Path 1276776" d="M37.086,35.659a1.135,1.135,0,0,1-.766.3H20.511a1.135,1.135,0,0,1-.766-.3l8.67-6.892Z" fill="#ffd064" fill-rule="evenodd"/>
              <path id="Path_1276777" data-name="Path 1276777" d="M37.086,35.659l0,0-.016.014-.005,0-.015.013-.005,0-.016.013-.005,0L37,35.727l-.005,0-.016.012-.005,0-.017.011-.006,0-.017.011-.007,0-.019.012,0,0-.02.012,0,0-.019.011-.006,0-.019.01,0,0-.02.01-.006,0-.019.009,0,0-.021.009h0l-.023.009h0l-.022.008,0,0-.022.008h0l-.022.007h0l-.021.006-.006,0-.021.006h0l-.023.006h0l-.025.005h0l-.055.01h0l-.025,0h-.005l-.024,0h0l-.025,0h0l-.025,0H35.339a1.144,1.144,0,0,0,1.093-.818Z" fill="#f5b829" fill-rule="evenodd"/>
              <path id="Path_1276778" data-name="Path 1276778" d="M20.511,23.766h15.81a1.135,1.135,0,0,1,.783.314l-8.3,7.311a.586.586,0,0,1-.778,0l-8.3-7.311A1.135,1.135,0,0,1,20.511,23.766Z" fill="#ffc338" fill-rule="evenodd"/>
            </g>
            <g id="Group_1206371" data-name="Group 1206371">
              <path id="Path_1276779" data-name="Path 1276779" d="M35.338,23.766h1.044l.025,0h0l.026,0h0l.025,0h0l.024,0h0l.025,0h0l.023,0h.007l.022,0h0l.023.006h0l.022.006h0l.022.007h0l.024.008h0l.023.008h.005l.02.008.007,0,.019.008.007,0,.019.008.006,0,.019.009.006,0,.019.009.006,0,.018.009.007,0,.017.009.007,0,.017.01.006,0,.017.011.007,0,.015.01.009.006.013.009.01.007.014.01.006,0,.016.012.008.006.014.011.008.006.014.012.008.007.012.011.008.007.013.012,0,0-.654.576a1.143,1.143,0,0,0-1.111-.89Zm.982,0h0Z" fill="#f5b829" fill-rule="evenodd"/>
            </g>
          </g>
          <g id="Group_1206375" data-name="Group 1206375">
            <g id="Group_1206373" data-name="Group 1206373">
              <circle id="Ellipse_12489" data-name="Ellipse 12489" cx="7.293" cy="7.293" r="7.293" transform="translate(20.947 53.798) rotate(-88.396)" fill="#8ac9fe"/>
              <path id="Path_1276780" data-name="Path 1276780" d="M28.416,39.421a7.29,7.29,0,0,1,0,14.58c-.231,0-.459-.011-.684-.032a7.29,7.29,0,0,0,0-14.516C27.957,39.433,28.185,39.421,28.416,39.421Z" fill="#60b7ff" fill-rule="evenodd"/>
            </g>
            <g id="Group_1206374" data-name="Group 1206374">
              <circle id="Ellipse_12490" data-name="Ellipse 12490" cx="7.02" cy="7.02" r="7.02" transform="translate(39.961 7.17)" fill="#6cf5c2"/>
              <path id="Path_1276781" data-name="Path 1276781" d="M46.98,7.17a7.02,7.02,0,1,1,0,14.039c-.225,0-.447-.011-.666-.032a7.02,7.02,0,0,0,0-13.976c.219-.021.441-.032.666-.032Z" fill="#00e499" fill-rule="evenodd"/>
            </g>
          </g>
        </g>
        <path id="Path_1276782" data-name="Path 1276782" d="M18.743,46.083a.87.87,0,0,1-1.17.385A24.084,24.084,0,0,1,4.332,24.957a.871.871,0,1,1,1.742,0A22.255,22.255,0,0,0,18.359,44.914a.871.871,0,0,1,.384,1.17ZM52.5,24.957a24.08,24.08,0,0,1-13.24,21.512.871.871,0,1,1-.785-1.555A22.255,22.255,0,0,0,50.761,24.957a.871.871,0,0,1,1.742,0ZM14.168,6.609a.87.87,0,0,1,.2-1.215A24.1,24.1,0,0,1,41.7,4.86a.871.871,0,0,1-.962,1.452,22.355,22.355,0,0,0-25.354.5.87.87,0,0,1-1.215-.2ZM31.545,30.138l5.047-4.445V34.15Zm-4.926,1.17-4.75,3.775h13.1l-4.75-3.775-1.224,1.077a.871.871,0,0,1-1.152,0Zm-1.328-1.17L20.245,34.15V25.693Zm3.127.433,6.738-5.936H21.68ZM38.334,24.9a2.014,2.014,0,0,0-2.011-2.011H20.514A2.013,2.013,0,0,0,18.5,24.9v9.911a2.013,2.013,0,0,0,2.011,2.011H36.323a2.014,2.014,0,0,0,2.011-2.011Zm5.932-11.572a2.049,2.049,0,1,1,2.048,2.048A2.05,2.05,0,0,1,44.265,13.332Zm6.921,3.641-1.65-1.65a3.789,3.789,0,1,0-1.23,1.231l1.65,1.651a.871.871,0,0,0,1.23-1.232Zm-4.2,3.363a6.148,6.148,0,1,0-6.149-6.148A6.158,6.158,0,0,0,46.983,20.336Zm0-14.039a7.891,7.891,0,1,0,7.888,7.891A7.9,7.9,0,0,0,46.983,6.3ZM4.651,15.838a.6.6,0,1,1-.785-.313A.6.6,0,0,1,4.651,15.838ZM4,14.583,2.615,15.932l7,7.135L11,21.72,4,14.584s0,0,0,0ZM10.2,11.566l-3.39,3.4,3.723,3.787.732-.731a.869.869,0,0,1,.615-.255h8.131a3.117,3.117,0,0,0,2.354-1L31.1,7.528a1.055,1.055,0,0,0-.154-1.305c-.534-.519-1.633-.069-2.866,1.172l-4.863,4.9a4.71,4.71,0,0,1-2.976,1.389l-.749.075h-.017l-.017,0c-.522.031-1.025.041-1.531.041-.422,0-.846-.008-1.281-.014s-.875-.014-1.325-.014a.871.871,0,1,1,0-1.742c.464,0,.916.006,1.353.014.9.015,1.76.029,2.635-.022.818-.126.819-.621.819-.808a.847.847,0,0,0-.811-.813,31.253,31.253,0,0,1-5.138-.136c-.509-.044-.949-.08-1.324-.1-.853-.043-1.619.361-2.654,1.4Zm-.6,13.244h.016a1.742,1.742,0,0,0,1.225-.5l1.372-1.349a1.751,1.751,0,0,0,.022-2.474L11.759,20l.486-.487h7.77a4.862,4.862,0,0,0,3.62-1.543l8.733-9.241a2.756,2.756,0,0,0-.208-3.754c-.493-.478-2.334-1.8-5.313,1.2l-4.863,4.9c-.037.037-.074.073-.111.107a2.6,2.6,0,0,0-2.512-2.513.907.907,0,0,0-.118,0,29.582,29.582,0,0,1-4.913-.131c-.5-.044-.977-.084-1.382-.1a5.227,5.227,0,0,0-3.976,1.906L5.594,13.723l-.354-.36a1.753,1.753,0,0,0-2.475-.021L1.393,14.69a1.752,1.752,0,0,0-.02,2.474l7,7.126a1.735,1.735,0,0,0,1.232.521ZM30.825,50.7a.759.759,0,0,1-.76.76H26.77a.759.759,0,1,1,0-1.519h.893L27.6,45.537h-.622a.759.759,0,1,1,0-1.517h1.368a.758.758,0,0,1,.758.759l.074,5.165h.888a.759.759,0,0,1,.76.759Zm-3.361-8.325a.909.909,0,1,1,.909.909.909.909,0,0,1-.909-.909Zm.954,10.752A6.419,6.419,0,1,0,22,46.711,6.426,6.426,0,0,0,28.418,53.129Zm0-14.58a8.161,8.161,0,1,0,8.161,8.161A8.171,8.171,0,0,0,28.418,38.549Z" fill="#242222" fill-rule="evenodd"/>
      </g>
    </g>
  </g>
</svg>
