<svg xmlns="http://www.w3.org/2000/svg" xmlns:xlink="http://www.w3.org/1999/xlink" width="98" height="97.999" viewBox="0 0 98 97.999">
  <defs>
    <clipPath id="clip-path">
      <rect id="Rectangle_412451" data-name="Rectangle 412451" width="56" height="54" transform="translate(411.269 2269.5)" fill="#fff"/>
    </clipPath>
  </defs>
  <g id="Group_1206382" data-name="Group 1206382" transform="translate(-390 -2247.05)">
    <g id="Group_1206381" data-name="Group 1206381">
      <g id="Group_1205962" data-name="Group 1205962" transform="translate(-481.113 1969.886)">
        <g id="Group_1188789" data-name="Group 1188789" transform="translate(871.113 277.164)">
          <path id="Path_1243039" data-name="Path 1243039" d="M41.05,0h0a41.05,41.05,0,0,1,0,82.1h0a41.05,41.05,0,0,1,0-82.1Z" transform="translate(7.951 7.949)" fill="#ffa724"/>
          <rect id="Rectangle_400907" data-name="Rectangle 400907" width="88.438" height="88.437" rx="44.218" transform="translate(4.782 4.781)" fill="none"/>
          <g id="Group_1098742" data-name="Group 1098742" transform="translate(0)">
            <g id="Rectangle_400898" data-name="Rectangle 400898" transform="translate(0)" fill="none" stroke="#fff" stroke-width="2" opacity="0.859">
              <rect width="98" height="97.999" rx="48.999" stroke="none"/>
              <rect x="1" y="1" width="96" height="95.999" rx="47.999" fill="none"/>
            </g>
            <g id="Rectangle_400907-2" data-name="Rectangle 400907" transform="translate(0)" fill="none" stroke="#0f1f33" stroke-linecap="round" stroke-width="2">
              <rect width="98" height="97.999" rx="48.999" stroke="none"/>
              <rect x="1" y="1" width="96" height="95.999" rx="47.999" fill="none"/>
            </g>
          </g>
        </g>
      </g>
      <g id="Mask_Group_1099606" data-name="Mask Group 1099606" clip-path="url(#clip-path)">
        <g id="vision_4726274" transform="translate(410.467 2267.7)">
          <g id="Color">
            <path id="Path_1276853" data-name="Path 1276853" d="M9,17.1H48.6a3.6,3.6,0,0,1,3.6,3.6V49.5H5.4V20.7A3.6,3.6,0,0,1,9,17.1Z" fill="#ade8f4"/>
            <path id="Path_1276854" data-name="Path 1276854" d="M52.2,40.5v9H5.4V20.7A3.6,3.6,0,0,1,9,17.1h6.3v5.4a18,18,0,0,0,18,18Z" fill="#48cae4"/>
            <path id="Path_1276855" data-name="Path 1276855" d="M52.2,20.7a3.583,3.583,0,0,0-.313-1.457c-.411-.47-.925-1.037-1.53-1.665A3.563,3.563,0,0,0,48.6,17.1H9a3.6,3.6,0,0,0-3.6,3.6v4.881C10.1,30.06,18.017,36,27,36c12.06,0,22.207-10.71,25.2-14.206Z" fill="#48cae4"/>
            <path id="Path_1276856" data-name="Path 1276856" d="M34.2,47.7v1.8H23.4V47.7H2.7v3.6a3.6,3.6,0,0,0,3.6,3.6h45a3.6,3.6,0,0,0,3.6-3.6V47.7Z" fill="#e9f1f2"/>
            <path id="Path_1276857" data-name="Path 1276857" d="M54.81,52.11A3.6,3.6,0,0,1,51.3,54.9H6.3a3.6,3.6,0,0,1-3.6-3.6V47.7H5.4v.9A3.6,3.6,0,0,0,9,52.2H54a3.988,3.988,0,0,0,.81-.09Z" fill="#d0d8da"/>
            <path id="Path_1276858" data-name="Path 1276858" d="M54.9,18S43.214,33.3,28.8,33.3,2.7,18,2.7,18,14.386,2.7,28.8,2.7,54.9,18,54.9,18Z" fill="#e9f1f2"/>
            <path id="Path_1276859" data-name="Path 1276859" d="M34.2,27.9c7.866,0,14.931-4.563,19.71-8.7-3.1,3.609-13.167,14.1-25.11,14.1C14.382,33.3,2.7,18,2.7,18S14.382,2.7,28.8,2.7c14.193,0,25.731,14.823,26.091,15.291C54.513,17.649,42.984,7.2,28.8,7.2c-7.02,0-13.392,2.565-18.081,5.193a7.153,7.153,0,0,0,2.268,5.454C17.73,22.275,25.461,27.9,34.2,27.9Z" fill="#d0d8da"/>
            <circle id="Ellipse_12497" data-name="Ellipse 12497" cx="15.3" cy="15.3" r="15.3" transform="translate(13.5 2.7)" fill="#edb88e"/>
            <path id="Path_1276860" data-name="Path 1276860" d="M28.8,7.2A34.514,34.514,0,0,1,41.778,9.924a15.269,15.269,0,0,0-25.956,0A34.5,34.5,0,0,1,28.8,7.2Z" fill="#da9367"/>
            <path id="Path_1276861" data-name="Path 1276861" d="M34.2,27.9c-8.426,0-15.911-5.225-20.683-9.57a15.286,15.286,0,0,0,27.875,8.351A22.811,22.811,0,0,1,34.2,27.9Z" fill="#da9367"/>
            <circle id="Ellipse_12498" data-name="Ellipse 12498" cx="9.9" cy="9.9" r="9.9" transform="translate(18.9 8.1)" fill="#93999a"/>
            <path id="Path_1276862" data-name="Path 1276862" d="M28.7,24.775a1.813,1.813,0,0,1-2.182-1.26L25.2,18.9h3.6l1.181,3.543a1.813,1.813,0,0,1-1.28,2.332Z" fill="#d0d8da"/>
            <path id="Path_1276863" data-name="Path 1276863" d="M29.6,22.975a1.813,1.813,0,0,1-2.183-1.26l-.279-.975a15.12,15.12,0,0,1,2.4.365L28.8,18.9H25.2l1.319,4.614a1.811,1.811,0,0,0,3.538-.73,1.8,1.8,0,0,1-.455.191Z" fill="#b8bebf"/>
            <path id="Path_1276864" data-name="Path 1276864" d="M25.2,14.4h.9v5.4h-.9a2.7,2.7,0,0,1,0-5.4Z" fill="#ef5350"/>
            <path id="Path_1276865" data-name="Path 1276865" d="M26.1,19.8a15.245,15.245,0,0,1,6.822,1.611l.378.189v-9l-.38.19A15.243,15.243,0,0,1,26.1,14.4Z" fill="#e9f1f2"/>
            <path id="Path_1276866" data-name="Path 1276866" d="M26.1,18v1.8h-.9a2.7,2.7,0,0,1-1.908-4.608.725.725,0,0,1,.126-.108.877.877,0,0,0-.018.216A2.7,2.7,0,0,0,26.1,18Z" fill="#e53935"/>
            <path id="Path_1276867" data-name="Path 1276867" d="M33.3,19.368V21.6l-.378-.189A15.238,15.238,0,0,0,26.1,19.8V18H27A15.066,15.066,0,0,1,33.3,19.368Z" fill="#d0d8da"/>
            <circle id="Ellipse_12499" data-name="Ellipse 12499" cx="2.25" cy="2.25" r="2.25" transform="translate(21.6 7.2)" fill="#e9f1f2"/>
            <path id="Path_1276868" data-name="Path 1276868" d="M28.8,27.9a9.922,9.922,0,0,0,2.19-.251,28.552,28.552,0,0,1-10.223-3.878A9.877,9.877,0,0,0,28.8,27.9Z" fill="#656b76"/>
            <path id="Path_1276869" data-name="Path 1276869" d="M24.892,7.47a2.206,2.206,0,0,0-2.694.464C23.079,7.74,23.979,7.587,24.892,7.47Z" fill="#b8bebf"/>
          </g>
          <g id="Outline_copy" data-name="Outline copy">
            <path id="Path_1276870" data-name="Path 1276870" d="M54.9,46.8H53.1V21.459c1.5-1.6,2.389-2.746,2.52-2.912a.9.9,0,0,0,0-1.094,48.5,48.5,0,0,0-4.95-5.323.9.9,0,0,0-1.23,1.314A51.01,51.01,0,0,1,53.744,18,49.23,49.23,0,0,1,40.6,29.056a16.11,16.11,0,0,0,0-22.111,41.049,41.049,0,0,1,6.159,4.17.9.9,0,1,0,1.14-1.4C41.534,4.538,34.929,1.8,28.8,1.8,14.109,1.8,2.473,16.815,1.984,17.454a.9.9,0,0,0,0,1.093C2.473,19.185,14.109,34.2,28.8,34.2c9.517,0,17.747-6.3,22.5-10.911V46.8H34.2a.9.9,0,0,0-.9.9v.9h-9v-.9a.9.9,0,0,0-.9-.9H6.3V25.581a.9.9,0,0,0-1.8,0V46.8H2.7a.9.9,0,0,0-.9.9v3.6a4.505,4.505,0,0,0,4.5,4.5H34.2a.9.9,0,0,0,0-1.8H6.3a2.7,2.7,0,0,1-2.7-2.7V48.6H22.5v.9a.9.9,0,0,0,.9.9H34.2a.9.9,0,0,0,.9-.9v-.9H54v2.7A2.7,2.7,0,0,1,51.3,54H37.8a.9.9,0,0,0,0,1.8H51.3a4.505,4.505,0,0,0,4.5-4.5V47.7a.9.9,0,0,0-.9-.9ZM3.857,18A49.23,49.23,0,0,1,16.991,6.945,16.124,16.124,0,0,0,12.6,18a16.324,16.324,0,0,0,.284,2.975.9.9,0,1,0,1.77-.329,14.407,14.407,0,1,1,1.011,3.232.9.9,0,1,0-1.642.737,16.161,16.161,0,0,0,2.96,4.433A49.236,49.236,0,0,1,3.857,18Z"/>
            <circle id="Ellipse_12500" data-name="Ellipse 12500" cx="0.9" cy="0.9" r="0.9" transform="translate(45.9 50.4)" fill="#323232"/>
            <circle id="Ellipse_12501" data-name="Ellipse 12501" cx="0.9" cy="0.9" r="0.9" transform="translate(49.5 50.4)" fill="#323232"/>
            <circle id="Ellipse_12502" data-name="Ellipse 12502" cx="0.9" cy="0.9" r="0.9" transform="translate(6.3 50.4)" fill="#323232"/>
            <circle id="Ellipse_12503" data-name="Ellipse 12503" cx="0.9" cy="0.9" r="0.9" transform="translate(9.9 50.4)" fill="#323232"/>
            <path id="Path_1276871" data-name="Path 1276871" d="M28.8,28.8a10.8,10.8,0,0,0,.99-21.555.9.9,0,0,0-.163,1.793,9.041,9.041,0,1,1-7.56,3.01,3.172,3.172,0,1,0-1.139-1.416A10.689,10.689,0,0,0,18,18,10.812,10.812,0,0,0,28.8,28.8ZM23.85,8.1A1.35,1.35,0,1,1,22.5,9.45,1.35,1.35,0,0,1,23.85,8.1Z"/>
            <path id="Path_1276872" data-name="Path 1276872" d="M32.9,22.41a.9.9,0,0,0,1.3-.81v-9a.9.9,0,0,0-1.3-.806l-.381.19A14.406,14.406,0,0,1,26.1,13.5h-.9a3.591,3.591,0,0,0-.435,7.156l.885,3.1a2.7,2.7,0,0,0,2.6,1.968,2.748,2.748,0,0,0,.667-.082,2.714,2.714,0,0,0,1.916-3.49l-.239-.72a14.256,14.256,0,0,1,1.922.773ZM23.4,17.1a1.8,1.8,0,0,1,1.8-1.8v3.6A1.8,1.8,0,0,1,23.4,17.1Zm5.727,5.628a.913.913,0,1,1-1.743.54l-.72-2.534a14.331,14.331,0,0,1,1.869.2ZM32.4,20.18A16.273,16.273,0,0,0,27,18.925v-3.65a16.273,16.273,0,0,0,5.4-1.255Z" fill="#010000"/>
            <path id="Path_1276873" data-name="Path 1276873" d="M19.8,43.2a.9.9,0,0,0,.707-1.456l-9.9-12.6a.9.9,0,1,0-1.415,1.112l9.9,12.6a.9.9,0,0,0,.707.344Z"/>
            <path id="Path_1276874" data-name="Path 1276874" d="M29.7,42.3V36.9a.9.9,0,0,0-1.8,0v5.4a.9.9,0,0,0,1.8,0Z"/>
            <path id="Path_1276875" data-name="Path 1276875" d="M46.993,29.144l-9.9,12.6a.9.9,0,1,0,1.415,1.112l9.9-12.6a.9.9,0,1,0-1.415-1.112Z"/>
            <path id="Path_1276876" data-name="Path 1276876" d="M33.3,43.2a.9.9,0,0,0,.827-.545l2.7-6.3a.9.9,0,1,0-1.654-.709l-2.7,6.3A.9.9,0,0,0,33.3,43.2Z"/>
            <path id="Path_1276877" data-name="Path 1276877" d="M24.3,43.2a.9.9,0,0,0,.827-1.255l-2.7-6.3a.9.9,0,1,0-1.654.709l2.7,6.3a.9.9,0,0,0,.827.545Z"/>
            <path id="Path_1276878" data-name="Path 1276878" d="M47.064,37.164l-4.5,4.5a.9.9,0,1,0,1.273,1.273l4.5-4.5a.9.9,0,1,0-1.273-1.273Z"/>
            <path id="Path_1276879" data-name="Path 1276879" d="M10.164,38.064a.9.9,0,0,0,0,1.273l3.6,3.6a.9.9,0,1,0,1.273-1.273l-3.6-3.6a.9.9,0,0,0-1.273,0Z"/>
          </g>
        </g>
      </g>
    </g>
  </g>
</svg>
