<svg xmlns="http://www.w3.org/2000/svg" xmlns:xlink="http://www.w3.org/1999/xlink" width="98" height="97.998" viewBox="0 0 98 97.998">
  <defs>
    <clipPath id="clip-path">
      <rect id="Rectangle_412455" data-name="Rectangle 412455" width="56" height="54" transform="translate(1317.269 -9347.454)" fill="#fff"/>
    </clipPath>
  </defs>
  <g id="Group_1206400" data-name="Group 1206400" transform="translate(-1296 9369.904)">
    <g id="Group_1206386" data-name="Group 1206386">
      <g id="Group_1205963" data-name="Group 1205963" transform="translate(424.887 -9647.068)">
        <g id="Group_1188789" data-name="Group 1188789" transform="translate(871.113 277.164)">
          <path id="Path_1243039" data-name="Path 1243039" d="M41.05,0h0a41.05,41.05,0,0,1,0,82.1h0a41.05,41.05,0,0,1,0-82.1Z" transform="translate(7.951 7.949)" fill="#ffa724"/>
          <rect id="Rectangle_400907" data-name="Rectangle 400907" width="88.438" height="88.437" rx="44.218" transform="translate(4.782 4.781)" fill="none"/>
          <g id="Group_1098742" data-name="Group 1098742" transform="translate(0)">
            <g id="Rectangle_400898" data-name="Rectangle 400898" transform="translate(0)" fill="none" stroke="#fff" stroke-width="2" opacity="0.859">
              <rect width="98" height="97.999" rx="48.999" stroke="none"/>
              <rect x="1" y="1" width="96" height="95.999" rx="47.999" fill="none"/>
            </g>
            <g id="Rectangle_400907-2" data-name="Rectangle 400907" transform="translate(0)" fill="none" stroke="#0f1f33" stroke-linecap="round" stroke-width="2">
              <rect width="98" height="97.999" rx="48.999" stroke="none"/>
              <rect x="1" y="1" width="96" height="95.999" rx="47.999" fill="none"/>
            </g>
          </g>
        </g>
      </g>
      <g id="Mask_Group_1099603" data-name="Mask Group 1099603" clip-path="url(#clip-path)">
        <g id="social-network_13351123" transform="translate(1318.268 -9347.456)">
          <g id="Group_1206378" data-name="Group 1206378">
            <path id="Path_1276783" data-name="Path 1276783" d="M13.867.845h26.27a3.228,3.228,0,0,1,3.22,3.221V49.94a3.228,3.228,0,0,1-3.22,3.218H13.867a3.228,3.228,0,0,1-3.218-3.218V4.066A3.228,3.228,0,0,1,13.867.845Z" fill="#aae6fa" fill-rule="evenodd"/>
            <path id="Path_1276784" data-name="Path 1276784" d="M13.867.845h1.561A3.228,3.228,0,0,0,12.21,4.066V49.94a3.228,3.228,0,0,0,3.218,3.218H13.867a3.228,3.228,0,0,1-3.218-3.218V4.066A3.228,3.228,0,0,1,13.867.845Z" fill="#99cfe1" fill-rule="evenodd"/>
            <path id="Path_1276785" data-name="Path 1276785" d="M18.42.845H35.583L34.7,4.176a1.042,1.042,0,0,1-1.02.782H20.326a1.042,1.042,0,0,1-1.02-.782Z" fill="#2f5274" fill-rule="evenodd"/>
            <path id="Path_1276786" data-name="Path 1276786" d="M27,38.274A11.271,11.271,0,1,0,15.733,27,11.293,11.293,0,0,0,27,38.274Z" fill="#0593fc" fill-rule="evenodd"/>
            <g id="Group_1206377" data-name="Group 1206377">
              <path id="Path_1276787" data-name="Path 1276787" d="M21.745,36.973a11.326,11.326,0,0,1-5.1-5.517A18.575,18.575,0,0,1,18.7,27.989c1.092-1.413,1.654,1.642,4.194,1.8,5.1.449,3.464,3.409.33,5.416a3.651,3.651,0,0,0-1.482,1.764Z" fill="#70da40" fill-rule="evenodd"/>
              <path id="Path_1276788" data-name="Path 1276788" d="M36.878,21.565a11.275,11.275,0,0,1-2.343,13.821,26.3,26.3,0,0,1-1.271-5.332c-.42-3.4-1.4-.075-2.178.214-.987.368-5.5-2.83-3.212-4.078.373-.2,1.408-.223,1.393-1.495-.015-1.567,2.372-1.989,4.029-2.4Z" fill="#70da40" fill-rule="evenodd"/>
              <path id="Path_1276789" data-name="Path 1276789" d="M27,15.733a11.253,11.253,0,0,1,2.54.287,13.464,13.464,0,0,1-5.957,4.962c-3.693,1.6-3.122,4.127-4.9,4.408a6.342,6.342,0,0,1-2.8-.22A11.274,11.274,0,0,1,27,15.733Z" fill="#70da40" fill-rule="evenodd"/>
            </g>
            <path id="Path_1276790" data-name="Path 1276790" d="M43.357,33.5a7.425,7.425,0,1,1-7.426,7.423A7.425,7.425,0,0,1,43.357,33.5Z" fill="#ebf5fc" fill-rule="evenodd"/>
            <path id="Path_1276791" data-name="Path 1276791" d="M48.515,46.262a3.678,3.678,0,0,0-3.585-2.913H41.785A3.681,3.681,0,0,0,38.2,46.262a7.425,7.425,0,0,0,10.319,0Z" fill="#0593fc" fill-rule="evenodd"/>
            <path id="Path_1276792" data-name="Path 1276792" d="M43.357,37.179a2.586,2.586,0,1,1-2.586,2.586A2.587,2.587,0,0,1,43.357,37.179Z" fill="#fbbd80" fill-rule="evenodd"/>
            <path id="Path_1276793" data-name="Path 1276793" d="M38.509,45.373a7.427,7.427,0,0,1,5.4-11.855c-.182-.015-.365-.02-.547-.02A7.426,7.426,0,0,0,38.2,46.262,3.692,3.692,0,0,1,38.509,45.373Z" fill="#d4dde3" fill-rule="evenodd"/>
            <path id="Path_1276794" data-name="Path 1276794" d="M38.509,45.373a3.755,3.755,0,0,0-.313.889,7.405,7.405,0,0,0,5.161,2.085c.182,0,.365-.005.547-.02a7.414,7.414,0,0,1-5.4-2.954Z" fill="#0584e3" fill-rule="evenodd"/>
            <path id="Path_1276795" data-name="Path 1276795" d="M43.357,5.659a7.425,7.425,0,1,1-7.426,7.423A7.424,7.424,0,0,1,43.357,5.659Z" fill="#ebf5fc" fill-rule="evenodd"/>
            <path id="Path_1276796" data-name="Path 1276796" d="M48.515,18.423A3.678,3.678,0,0,0,44.93,15.51H41.785A3.681,3.681,0,0,0,38.2,18.423a7.425,7.425,0,0,0,10.319,0Z" fill="#0593fc" fill-rule="evenodd"/>
            <path id="Path_1276797" data-name="Path 1276797" d="M43.357,9.34a2.586,2.586,0,1,1-2.586,2.586A2.587,2.587,0,0,1,43.357,9.34Z" fill="#fbbd80" fill-rule="evenodd"/>
            <path id="Path_1276798" data-name="Path 1276798" d="M38.509,17.533A7.427,7.427,0,0,1,43.9,5.678c-.182-.015-.365-.02-.547-.02A7.426,7.426,0,0,0,38.2,18.422a3.725,3.725,0,0,1,.313-.889Z" fill="#d4dde3" fill-rule="evenodd"/>
            <path id="Path_1276799" data-name="Path 1276799" d="M38.509,17.533a3.755,3.755,0,0,0-.313.889,7.419,7.419,0,0,0,5.161,2.085c.182,0,.365-.008.547-.02a7.414,7.414,0,0,1-5.4-2.954Z" fill="#0584e3" fill-rule="evenodd"/>
            <path id="Path_1276800" data-name="Path 1276800" d="M10.649,33.5a7.425,7.425,0,1,1-7.426,7.423A7.423,7.423,0,0,1,10.649,33.5Z" fill="#ebf5fc" fill-rule="evenodd"/>
            <path id="Path_1276801" data-name="Path 1276801" d="M15.808,46.262a3.676,3.676,0,0,0-3.585-2.913H9.076a3.675,3.675,0,0,0-3.585,2.913,7.423,7.423,0,0,0,10.317,0Z" fill="#0593fc" fill-rule="evenodd"/>
            <path id="Path_1276802" data-name="Path 1276802" d="M10.649,37.179a2.586,2.586,0,1,1-2.586,2.586,2.587,2.587,0,0,1,2.586-2.586Z" fill="#fbbd80" fill-rule="evenodd"/>
            <path id="Path_1276803" data-name="Path 1276803" d="M5.8,45.373a7.427,7.427,0,0,1,5.4-11.855c-.179-.015-.365-.02-.547-.02A7.424,7.424,0,0,0,5.491,46.262a3.555,3.555,0,0,1,.31-.889Z" fill="#d4dde3" fill-rule="evenodd"/>
            <path id="Path_1276804" data-name="Path 1276804" d="M5.8,45.373a3.612,3.612,0,0,0-.31.889,7.392,7.392,0,0,0,5.159,2.085c.182,0,.368-.005.547-.02a7.42,7.42,0,0,1-5.4-2.954Z" fill="#0584e3" fill-rule="evenodd"/>
            <path id="Path_1276805" data-name="Path 1276805" d="M10.649,5.659a7.425,7.425,0,1,1-7.426,7.423A7.422,7.422,0,0,1,10.649,5.659Z" fill="#ebf5fc" fill-rule="evenodd"/>
            <path id="Path_1276806" data-name="Path 1276806" d="M15.808,18.423a3.676,3.676,0,0,0-3.585-2.913H9.076a3.675,3.675,0,0,0-3.585,2.913,7.423,7.423,0,0,0,10.317,0Z" fill="#0593fc" fill-rule="evenodd"/>
            <path id="Path_1276807" data-name="Path 1276807" d="M10.649,9.34a2.586,2.586,0,1,1-2.586,2.586A2.587,2.587,0,0,1,10.649,9.34Z" fill="#fbbd80" fill-rule="evenodd"/>
            <path id="Path_1276808" data-name="Path 1276808" d="M5.8,17.533A7.427,7.427,0,0,1,11.2,5.678c-.179-.015-.365-.02-.547-.02A7.424,7.424,0,0,0,5.491,18.422a3.584,3.584,0,0,1,.31-.889Z" fill="#d4dde3" fill-rule="evenodd"/>
            <path id="Path_1276809" data-name="Path 1276809" d="M5.8,17.533a3.612,3.612,0,0,0-.31.889,7.406,7.406,0,0,0,5.159,2.085c.182,0,.368-.008.547-.02a7.42,7.42,0,0,1-5.4-2.954Z" fill="#0584e3" fill-rule="evenodd"/>
          </g>
          <path id="Path_1276810" data-name="Path 1276810" d="M29.126,48.73a.842.842,0,0,1-.843.843H25.718a.843.843,0,1,1,0-1.685h2.565A.842.842,0,0,1,29.126,48.73Zm-7.747-11a.777.777,0,0,1-.1-.058A12.192,12.192,0,0,1,15.9,31.852a.856.856,0,0,1-.054-.123,12.127,12.127,0,0,1-.8-6.709s0-.005,0-.007a12.122,12.122,0,0,1,14.62-9.827.888.888,0,0,1,.114.026,12.153,12.153,0,0,1,7.783,5.871.861.861,0,0,1,.082.147,12.1,12.1,0,0,1-2.482,14.712.9.9,0,0,1-.149.134,12.093,12.093,0,0,1-13.6,1.678l-.043-.018ZM37.429,27a10.355,10.355,0,0,0-1.014-4.481l-2.936.6-.418.1c-1.178.28-2.96.7-2.951,1.465a2.14,2.14,0,0,1-1.684,2.194c-.055.018-.13.042-.157.055-.218.12-.206.17-.18.269.217.864,2.018,2.1,2.7,2.236.111-.13.27-.366.373-.52.419-.622.941-1.4,1.769-1.2.851.2,1.051,1.259,1.171,2.232a23.9,23.9,0,0,0,.814,3.834A10.4,10.4,0,0,0,37.429,27ZM29.865,16.975a13.741,13.741,0,0,1-5.948,4.778,5.738,5.738,0,0,0-2.986,2.691,2.99,2.99,0,0,1-2.125,1.775,6.65,6.65,0,0,1-1.034.08,7.061,7.061,0,0,1-1.171-.1c-.02.265-.031.533-.031.8a10.407,10.407,0,0,0,.253,2.287,16.72,16.72,0,0,1,1.212-1.813,1.59,1.59,0,0,1,1.161-.7,2.268,2.268,0,0,1,1.677.951,3.223,3.223,0,0,0,2.077,1.224h.021c2.331.207,3.669.949,3.979,2.21.353,1.44-.868,3.218-3.269,4.758l-.063.037a1.994,1.994,0,0,0-.691.643,10.416,10.416,0,0,0,10.628-1.5,26.452,26.452,0,0,1-1.131-4.946c0-.03-.007-.058-.011-.085a2.38,2.38,0,0,1-1.036.982c-.781.292-1.868-.256-2.642-.769a6.186,6.186,0,0,1-2.127-2.234,1.884,1.884,0,0,1,.86-2.6,2.56,2.56,0,0,1,.43-.172c.446-.147.529-.187.526-.574A2.513,2.513,0,0,1,30.085,22.4a12.535,12.535,0,0,1,2.588-.817c.145-.035.286-.068.422-.1l.032-.007,2.387-.488a10.479,10.479,0,0,0-5.648-4.006Zm-13,7.556a5.167,5.167,0,0,0,1.679.021c.357-.056.522-.285.942-.981a7.352,7.352,0,0,1,3.76-3.367,11.518,11.518,0,0,0,4.736-3.583q-.486-.046-.984-.046A10.444,10.444,0,0,0,16.868,24.531Zm4.559,11.279A3.858,3.858,0,0,1,22.8,34.483c1.811-1.169,2.647-2.373,2.513-2.917-.082-.335-.782-.779-2.48-.931a4.786,4.786,0,0,1-3.163-1.726c-.108-.11-.238-.244-.346-.342a17.1,17.1,0,0,0-1.749,2.9A10.511,10.511,0,0,0,21.426,35.811Zm30.2,5.11a8.244,8.244,0,0,1-2.469,5.888.873.873,0,0,1-.123.118A8.238,8.238,0,0,1,44.2,49.148v.793A4.066,4.066,0,0,1,40.135,54H13.866A4.066,4.066,0,0,1,9.8,49.941v-.793a8.237,8.237,0,0,1-4.835-2.226.856.856,0,0,1-.114-.109A8.263,8.263,0,0,1,9.8,32.7V21.307a8.241,8.241,0,0,1-4.84-2.23.846.846,0,0,1-.1-.1A8.264,8.264,0,0,1,9.8,4.855V4.062A4.065,4.065,0,0,1,13.865,0H40.133A4.066,4.066,0,0,1,44.2,4.062v.793a8.263,8.263,0,0,1,4.952,14.117.808.808,0,0,1-.115.11A8.245,8.245,0,0,1,44.2,21.307V32.7A8.279,8.279,0,0,1,51.625,40.921Zm-6.527-29a1.744,1.744,0,1,0-1.744,1.744A1.745,1.745,0,0,0,45.1,11.925Zm-3.316,4.426a2.834,2.834,0,0,0-2.625,1.8,6.567,6.567,0,0,0,8.4,0,2.838,2.838,0,0,0-2.627-1.8ZM43.354,6.5a6.578,6.578,0,0,0-5.413,10.32,4.537,4.537,0,0,1,3.385-2.131,3.428,3.428,0,1,1,4.057,0,4.538,4.538,0,0,1,3.386,2.132A6.579,6.579,0,0,0,43.354,6.5ZM19.516,1.689l.6,2.268a.2.2,0,0,0,.2.157H33.679a.2.2,0,0,0,.2-.158l.6-2.267ZM4.065,13.082a6.543,6.543,0,0,0,1.168,3.736,4.537,4.537,0,0,1,3.385-2.131,3.431,3.431,0,1,1,4.058,0A4.542,4.542,0,0,1,16.06,16.82,6.58,6.58,0,1,0,4.065,13.082Zm10.781,5.064a2.838,2.838,0,0,0-2.627-1.8H9.073a2.834,2.834,0,0,0-2.625,1.8,6.571,6.571,0,0,0,8.4,0Zm-2.454-6.221a1.745,1.745,0,1,0-1.746,1.744A1.747,1.747,0,0,0,12.391,11.925Zm-8.326,29a6.547,6.547,0,0,0,1.168,3.738,4.536,4.536,0,0,1,3.385-2.13,3.431,3.431,0,1,1,4.058,0,4.543,4.543,0,0,1,3.385,2.131,6.58,6.58,0,1,0-11.995-3.74Zm10.781,5.065a2.84,2.84,0,0,0-2.627-1.8H9.073a2.832,2.832,0,0,0-2.625,1.8,6.567,6.567,0,0,0,8.4,0Zm-2.454-6.22a1.745,1.745,0,1,0-1.746,1.743A1.748,1.748,0,0,0,12.391,39.766Zm30.12,10.175v-.793a8.237,8.237,0,0,1-4.835-2.226.808.808,0,0,1-.115-.11A8.263,8.263,0,0,1,42.511,32.7V21.307a8.236,8.236,0,0,1-4.839-2.229.8.8,0,0,1-.105-.1A8.264,8.264,0,0,1,42.511,4.855V4.062a2.379,2.379,0,0,0-2.377-2.374h-3.9l-.718,2.7A1.879,1.879,0,0,1,33.678,5.8H20.324a1.9,1.9,0,0,1-1.835-1.413l-.717-2.7H13.866a2.379,2.379,0,0,0-2.377,2.374v.793A8.263,8.263,0,0,1,16.44,18.973a.808.808,0,0,1-.115.11,8.245,8.245,0,0,1-4.838,2.226V32.7A8.263,8.263,0,0,1,16.445,46.81a.873.873,0,0,1-.123.118,8.238,8.238,0,0,1-4.834,2.221v.793a2.379,2.379,0,0,0,2.377,2.374H40.133A2.381,2.381,0,0,0,42.512,49.941ZM45.1,39.766a1.744,1.744,0,1,0-1.743,1.743A1.746,1.746,0,0,0,45.1,39.766Zm-3.316,4.426a2.832,2.832,0,0,0-2.625,1.8,6.567,6.567,0,0,0,8.4,0,2.84,2.84,0,0,0-2.627-1.8Zm8.156-3.271a6.582,6.582,0,1,0-12,3.738,4.536,4.536,0,0,1,3.385-2.13,3.429,3.429,0,1,1,4.057,0,4.54,4.54,0,0,1,3.386,2.131A6.539,6.539,0,0,0,49.938,40.921Z"/>
        </g>
      </g>
    </g>
  </g>
</svg>
