<svg xmlns="http://www.w3.org/2000/svg" xmlns:xlink="http://www.w3.org/1999/xlink" width="98" height="97.998" viewBox="0 0 98 97.998">
  <defs>
    <clipPath id="clip-path">
      <rect id="Rectangle_412492" data-name="Rectangle 412492" width="56" height="54" transform="translate(8581.454 -9131.216)" fill="#fff"/>
    </clipPath>
  </defs>
  <g id="Group_1206397" data-name="Group 1206397" transform="translate(-8560.185 9153.666)">
    <g id="Group_1206114" data-name="Group 1206114" transform="translate(7689.072 -9430.83)">
      <g id="Group_1188789" data-name="Group 1188789" transform="translate(871.113 277.164)">
        <path id="Path_1243039" data-name="Path 1243039" d="M41.05,0h0a41.05,41.05,0,0,1,0,82.1h0a41.05,41.05,0,0,1,0-82.1Z" transform="translate(7.951 7.949)" fill="#ffa724"/>
        <rect id="Rectangle_400907" data-name="Rectangle 400907" width="88.438" height="88.437" rx="44.218" transform="translate(4.782 4.781)" fill="none"/>
        <g id="Group_1098742" data-name="Group 1098742" transform="translate(0)">
          <g id="Rectangle_400898" data-name="Rectangle 400898" transform="translate(0)" fill="none" stroke="#fff" stroke-width="2" opacity="0.859">
            <rect width="98" height="97.999" rx="48.999" stroke="none"/>
            <rect x="1" y="1" width="96" height="95.999" rx="47.999" fill="none"/>
          </g>
          <g id="Rectangle_400907-2" data-name="Rectangle 400907" transform="translate(0)" fill="none" stroke="#0f1f33" stroke-linecap="round" stroke-width="2">
            <rect width="98" height="97.999" rx="48.999" stroke="none"/>
            <rect x="1" y="1" width="96" height="95.999" rx="47.999" fill="none"/>
          </g>
        </g>
      </g>
    </g>
    <g id="Mask_Group_1099607" data-name="Mask Group 1099607" clip-path="url(#clip-path)">
      <g id="like_15422446" transform="translate(8581.583 -9132.087)">
        <circle id="Ellipse_12504" data-name="Ellipse 12504" cx="11.323" cy="11.323" r="11.323" transform="translate(31.355 1.742)" fill="#ccdcff"/>
        <circle id="Ellipse_12505" data-name="Ellipse 12505" cx="9.581" cy="9.581" r="9.581" transform="translate(20.032 17.419)" fill="#ffda73"/>
        <circle id="Ellipse_12506" data-name="Ellipse 12506" cx="7.839" cy="7.839" r="7.839" transform="translate(10.452 30.484)" fill="#e66d67"/>
        <circle id="Ellipse_12507" data-name="Ellipse 12507" cx="6.532" cy="6.532" r="6.532" transform="translate(1.742 40.935)" fill="#36b385"/>
        <path id="Path_1276880" data-name="Path 1276880" d="M36.624,10.26h3.484v6.968H36.624Z" fill="#4575ba"/>
        <path id="Path_1276881" data-name="Path 1276881" d="M40.108,15.486l2.177,1.742h4.921a.87.87,0,0,0,.862-.732l.636-3.824a1.338,1.338,0,0,0-1.315-1.55H45.325L46,8.44a1.032,1.032,0,0,0-1.96-.636l-.888,2.221a1.742,1.742,0,0,1-1.62,1.1H40.091" fill="#ffc9b9"/>
        <path id="Path_1276882" data-name="Path 1276882" d="M21.548,39.525l-3.257,3.3-3.257-3.3-.549-.549a2.361,2.361,0,0,1,0-3.3,2.277,2.277,0,0,1,3.257,0l.54.549.54-.549a2.287,2.287,0,0,1,3.266,0,2.361,2.361,0,0,1,0,3.3Z" fill="#ffc9b9"/>
        <circle id="Ellipse_12508" data-name="Ellipse 12508" cx="1.28" cy="1.28" r="1.28" transform="translate(24.5 23.168)"/>
        <circle id="Ellipse_12509" data-name="Ellipse 12509" cx="1.28" cy="1.28" r="1.28" transform="translate(32.165 23.168)"/>
        <circle id="Ellipse_12510" data-name="Ellipse 12510" cx="2.613" cy="2.613" r="2.613" transform="translate(11.323 6.968)" fill="#ffc9b9"/>
        <path id="Path_1276883" data-name="Path 1276883" d="M10.452,13.935h6.968L14.432,27.871Z" fill="#647da6"/>
        <path id="Path_1276884" data-name="Path 1276884" d="M42.677.871A12.207,12.207,0,0,0,30.484,13.065a12.668,12.668,0,0,0,.322,2.813l1.7-.4a10.622,10.622,0,0,1-.279-2.413A10.452,10.452,0,1,1,42.677,23.516a11.057,11.057,0,0,1-1.611-.122L40.8,25.119A12.2,12.2,0,1,0,42.677.871Z"/>
        <path id="Path_1276885" data-name="Path 1276885" d="M27,38.323a8.71,8.71,0,1,0-17.367.967l1.733-.192a7.565,7.565,0,0,1-.044-.775A6.968,6.968,0,1,1,18.29,45.29a7.109,7.109,0,0,1-1.55-.174l-.383,1.7a9.013,9.013,0,0,0,1.934.218A8.724,8.724,0,0,0,27,38.323Z"/>
        <path id="Path_1276886" data-name="Path 1276886" d="M8.274,54.871a7.4,7.4,0,1,0-7.4-7.4A7.408,7.408,0,0,0,8.274,54.871Zm0-13.065a5.661,5.661,0,1,1-5.661,5.661A5.672,5.672,0,0,1,8.274,41.806Z"/>
        <path id="Path_1276887" data-name="Path 1276887" d="M7.4,50.952H9.145V48.339h2.613V46.6H9.145V43.984H7.4V46.6H4.79v1.742H7.4Z"/>
        <path id="Path_1276888" data-name="Path 1276888" d="M19.161,27a10.619,10.619,0,0,0,.174,1.9l1.716-.314a8.708,8.708,0,1,1,8.562,7.125,9.66,9.66,0,0,1-1.585-.139l-.314,1.716a10.619,10.619,0,0,0,1.9.174A10.452,10.452,0,1,0,19.161,27.009Z"/>
        <path id="Path_1276889" data-name="Path 1276889" d="M34.316,28.28H32.574c0,1.28-1.333,2.325-2.961,2.325s-2.961-1.045-2.961-2.325H24.91c0,2.238,2.108,4.067,4.7,4.067S34.316,30.527,34.316,28.28Z"/>
        <path id="Path_1276890" data-name="Path 1276890" d="M17.419,9.581a3.484,3.484,0,1,0-3.484,3.484A3.483,3.483,0,0,0,17.419,9.581Zm-3.484,1.742a1.742,1.742,0,1,1,1.742-1.742A1.747,1.747,0,0,1,13.935,11.323Z"/>
        <path id="Path_1276891" data-name="Path 1276891" d="M9.755,13.413a.863.863,0,0,0-.139.766L13.6,28.115a.875.875,0,0,0,.836.636h.026a.864.864,0,0,0,.819-.688l2.987-13.935a.855.855,0,0,0-.174-.732.89.89,0,0,0-.679-.322H10.452a.883.883,0,0,0-.7.348Zm6.585,1.394L14.31,24.274,11.6,14.806Z"/>
        <path id="Path_1276892" data-name="Path 1276892" d="M45.856,6.5a1.934,1.934,0,0,0-1.524-.078A1.885,1.885,0,0,0,43.244,7.49l-.888,2.221a.871.871,0,0,1-.81.549h-.566a.874.874,0,0,0-.871-.871H36.624a.874.874,0,0,0-.871.871v6.968a.874.874,0,0,0,.871.871h3.484a.866.866,0,0,0,.862-.81l.775.618a.888.888,0,0,0,.54.192h4.921a1.732,1.732,0,0,0,1.716-1.455l.636-3.824A2.194,2.194,0,0,0,47.4,10.26h-.949l.4-1.6a1.889,1.889,0,0,0-.993-2.16Zm-6.619,9.859H37.5V11.131h1.742ZM47.4,12a.457.457,0,0,1,.453.531l-.636,3.824H42.6l-1.611-1.289V12h.566a2.608,2.608,0,0,0,2.43-1.646l.888-2.221a.141.141,0,0,1,.087-.087.218.218,0,0,1,.131,0,.164.164,0,0,1,.087.183l-.671,2.683a.884.884,0,0,0,.157.749.863.863,0,0,0,.688.331h2.064Z"/>
        <path id="Path_1276893" data-name="Path 1276893" d="M18.29,43.7a.87.87,0,0,0,.618-.261l3.266-3.3h0l.54-.549a3.234,3.234,0,0,0,0-4.52A3.156,3.156,0,0,0,18.29,35a3.145,3.145,0,0,0-4.4.052l-.017.017a3.234,3.234,0,0,0,0,4.52l.54.549.044.044,3.214,3.257A.87.87,0,0,0,18.29,43.7Zm-2.683-4.825-.505-.505a1.483,1.483,0,0,1-.009-2.064l.017-.017a1.424,1.424,0,0,1,1.01-.427,1.389,1.389,0,0,1,1.01.427l.54.549a.894.894,0,0,0,1.237,0l.54-.549a1.424,1.424,0,0,1,1.01-.427,1.389,1.389,0,0,1,1.01.427,1.488,1.488,0,0,1,0,2.082l-3.188,3.223-2.639-2.674a.2.2,0,0,1-.044-.044Z"/>
      </g>
    </g>
  </g>
</svg>
