<svg xmlns="http://www.w3.org/2000/svg" xmlns:xlink="http://www.w3.org/1999/xlink" width="98" height="97.999" viewBox="0 0 98 97.999">
  <defs>
    <clipPath id="clip-path">
      <rect id="Rectangle_412524" data-name="Rectangle 412524" width="56" height="54" transform="translate(1139.903 3926.008)" fill="#fff"/>
    </clipPath>
  </defs>
  <g id="Group_1206430" data-name="Group 1206430" transform="translate(-1118.634 -3903.558)">
    <g id="Group_1206203" data-name="Group 1206203" transform="translate(247.521 3626.394)">
      <g id="Group_1188789" data-name="Group 1188789" transform="translate(871.113 277.164)">
        <path id="Path_1243039" data-name="Path 1243039" d="M41.05,0h0a41.05,41.05,0,0,1,0,82.1h0a41.05,41.05,0,0,1,0-82.1Z" transform="translate(7.951 7.949)" fill="#ffa724"/>
        <rect id="Rectangle_400907" data-name="Rectangle 400907" width="88.438" height="88.437" rx="44.218" transform="translate(4.782 4.781)" fill="none"/>
        <g id="Group_1098742" data-name="Group 1098742" transform="translate(0)">
          <g id="Rectangle_400898" data-name="Rectangle 400898" transform="translate(0)" fill="none" stroke="#fff" stroke-width="2" opacity="0.859">
            <rect width="98" height="97.999" rx="48.999" stroke="none"/>
            <rect x="1" y="1" width="96" height="95.999" rx="47.999" fill="none"/>
          </g>
          <g id="Rectangle_400907-2" data-name="Rectangle 400907" transform="translate(0)" fill="none" stroke="#0f1f33" stroke-linecap="round" stroke-width="2">
            <rect width="98" height="97.999" rx="48.999" stroke="none"/>
            <rect x="1" y="1" width="96" height="95.999" rx="47.999" fill="none"/>
          </g>
        </g>
      </g>
    </g>
    <g id="Mask_Group_1099615" data-name="Mask Group 1099615" clip-path="url(#clip-path)">
      <g id="referral_2329303" transform="translate(1140.032 3925.137)">
        <g id="Group_1206428" data-name="Group 1206428">
          <g id="Group_1206413" data-name="Group 1206413">
            <path id="Path_1277052" data-name="Path 1277052" d="M50.516,1.742H10.452A3.483,3.483,0,0,0,6.968,5.226v20.9h20.9a3.483,3.483,0,0,1,3.484,3.484h6.1l5.557,4.764a1.932,1.932,0,0,0,1.245.462,1.9,1.9,0,0,0,1.907-1.907V29.613h4.355A3.483,3.483,0,0,0,54,26.129V5.226A3.483,3.483,0,0,0,50.516,1.742Z" fill="#e6e9ed"/>
          </g>
          <g id="Group_1206414" data-name="Group 1206414">
            <path id="Path_1277053" data-name="Path 1277053" d="M21.722,14.719a7.832,7.832,0,0,1,2.665,2.125l.009.009a7.745,7.745,0,0,0-1.751,4.921v4.355H10.452V21.774a7.822,7.822,0,0,1,5.226-7.386v.418a2.613,2.613,0,0,0,5.226,0V14.38Z" fill="#b4dd7f"/>
          </g>
          <g id="Group_1206415" data-name="Group 1206415">
            <path id="Path_1277054" data-name="Path 1277054" d="M40.065,14.388v.418a2.613,2.613,0,0,0,5.226,0v-.418a7.72,7.72,0,0,1,2.926,1.846,7.8,7.8,0,0,1,2.3,5.539v4.355H38.323V21.774a7.745,7.745,0,0,0-1.751-4.921l.009-.009a7.846,7.846,0,0,1,3.484-2.465Z" fill="#b4dd7f"/>
          </g>
          <g id="Group_1206416" data-name="Group 1206416">
            <path id="Path_1277055" data-name="Path 1277055" d="M30.484,23.516l1.742-1.742-.775-7.769V14c2.865.845,3.8,1.463,4.573,2.238a6.184,6.184,0,0,1,.549.618,7.745,7.745,0,0,1,1.751,4.921v4.355H22.645V21.774A7.868,7.868,0,0,1,29.517,14v.009l-.775,7.769Z" fill="#ffeaa7"/>
          </g>
          <g id="Group_1206417" data-name="Group 1206417">
            <path id="Path_1277056" data-name="Path 1277056" d="M31.451,14.005l.775,7.769-1.742,1.742-1.742-1.742.775-7.769V14a7.027,7.027,0,0,1,.967-.061l.967.061Z" fill="#fcd770"/>
          </g>
          <g id="Group_1206418" data-name="Group 1206418">
            <path id="Path_1277057" data-name="Path 1277057" d="M18.29,13.935a13.672,13.672,0,0,1,2.613.444v.427a2.613,2.613,0,1,1-5.226,0v-.418a7.664,7.664,0,0,1,2.613-.453Z" fill="#f0d0b4"/>
          </g>
          <g id="Group_1206419" data-name="Group 1206419">
            <path id="Path_1277058" data-name="Path 1277058" d="M42.677,13.935l2.613.453v.418a2.613,2.613,0,1,1-5.226,0V14.38a7.8,7.8,0,0,1,2.613-.444Z" fill="#f0d0b4"/>
          </g>
          <g id="Group_1206420" data-name="Group 1206420">
            <circle id="Ellipse_12538" data-name="Ellipse 12538" cx="4.355" cy="4.355" r="4.355" transform="translate(38.323 5.226)" fill="#f0d0b4"/>
          </g>
          <g id="Group_1206421" data-name="Group 1206421">
            <circle id="Ellipse_12539" data-name="Ellipse 12539" cx="4.355" cy="4.355" r="4.355" transform="translate(26.129 5.226)" fill="#f0d0b4"/>
          </g>
          <g id="Group_1206422" data-name="Group 1206422">
            <circle id="Ellipse_12540" data-name="Ellipse 12540" cx="4.355" cy="4.355" r="4.355" transform="translate(13.935 5.226)" fill="#f0d0b4"/>
          </g>
          <g id="Group_1206423" data-name="Group 1206423">
            <path id="Path_1277059" data-name="Path 1277059" d="M31.355,29.613V45.29a3.483,3.483,0,0,1-3.484,3.484H25.258v3.318A1.9,1.9,0,0,1,23.351,54a1.932,1.932,0,0,1-1.245-.462l-5.557-4.764H5.226A3.483,3.483,0,0,1,1.742,45.29V29.613a3.483,3.483,0,0,1,3.484-3.484H27.871A3.483,3.483,0,0,1,31.355,29.613Z" fill="#f0d0b4"/>
          </g>
          <g id="Group_1206424" data-name="Group 1206424">
            <path id="Path_1277060" data-name="Path 1277060" d="M13.935,39.472v4.076a1.755,1.755,0,0,1-1.742,1.742,1.747,1.747,0,0,1-1.742-1.742V39.194h.871a13.1,13.1,0,0,1,2.613.261Z" fill="#b27946"/>
          </g>
          <g id="Group_1206425" data-name="Group 1206425">
            <path id="Path_1277061" data-name="Path 1277061" d="M19.161,29.613V41.806a13.009,13.009,0,0,0-7.839-2.613H8.71a1.747,1.747,0,0,1-1.742-1.742V33.968A1.747,1.747,0,0,1,8.71,32.226h2.613A13.048,13.048,0,0,0,19.161,29.613Z" fill="#e6e9ed"/>
          </g>
          <g id="Group_1206426" data-name="Group 1206426">
            <path id="Path_1277062" data-name="Path 1277062" d="M22.645,39.194v2.613H19.161V29.613h3.484v9.581Z" fill="#ff826e"/>
          </g>
          <g id="Group_1206427" data-name="Group 1206427">
            <path id="Path_1277063" data-name="Path 1277063" d="M22.645,32.226a3.484,3.484,0,0,1,0,6.968Z" fill="#fcd770"/>
          </g>
        </g>
        <g id="Group_1206429" data-name="Group 1206429">
          <path id="Path_1277064" data-name="Path 1277064" d="M50.516.871H10.452A4.36,4.36,0,0,0,6.1,5.226V25.258H5.226A4.36,4.36,0,0,0,.871,29.613V45.29a4.36,4.36,0,0,0,4.355,4.355h11L21.543,54.2a2.778,2.778,0,0,0,4.587-2.108V49.645h1.742a4.36,4.36,0,0,0,4.355-4.355V30.484h4.9l5.316,4.556a2.778,2.778,0,0,0,4.587-2.108V30.484h3.484a4.36,4.36,0,0,0,4.355-4.355V5.226A4.36,4.36,0,0,0,50.516.871ZM30.484,45.29A2.616,2.616,0,0,1,27.871,47.9H24.387v4.19a1.037,1.037,0,0,1-1.711.786L16.871,47.9H5.226A2.616,2.616,0,0,1,2.613,45.29V29.613A2.616,2.616,0,0,1,5.226,27H27.871a2.616,2.616,0,0,1,2.613,2.613ZM14.806,9.581a3.484,3.484,0,1,1,3.484,3.484A3.487,3.487,0,0,1,14.806,9.581Zm3.484,5.226a6.98,6.98,0,0,1,1.719.221,1.732,1.732,0,0,1-3.439,0A6.917,6.917,0,0,1,18.29,14.806Zm-3.361.868a3.467,3.467,0,0,0,6.721,0A6.958,6.958,0,0,1,23.267,16.9a8.654,8.654,0,0,0-1.493,4.87v3.484H11.323V21.774a6.971,6.971,0,0,1,3.607-6.1ZM27,9.581a3.484,3.484,0,1,1,3.484,3.484A3.487,3.487,0,0,1,27,9.581Zm4.318,11.87-.834.834-.834-.834.664-6.635c.057,0,.113-.009.171-.009s.113.007.171.009Zm-.834,3.3L33.133,22.1l-.7-7.01a6.978,6.978,0,0,1,5.019,6.686v3.484H23.516V21.774a6.976,6.976,0,0,1,5.019-6.685l-.7,7.01Zm8.71-15.167a3.484,3.484,0,1,1,3.484,3.484A3.487,3.487,0,0,1,39.194,9.581Zm3.484,5.226a6.917,6.917,0,0,1,1.719.224,1.732,1.732,0,0,1-3.439,0A6.98,6.98,0,0,1,42.677,14.806Zm-3.359.873a3.467,3.467,0,0,0,6.72,0,6.971,6.971,0,0,1,3.607,6.1v3.484H39.194V21.774A8.66,8.66,0,0,0,37.7,16.9a6.94,6.94,0,0,1,1.617-1.225Zm13.811,10.45a2.616,2.616,0,0,1-2.613,2.613H45.29v4.19a1.037,1.037,0,0,1-1.711.786l-5.806-4.977H32.138a4.324,4.324,0,0,0-.8-1.742H51.387V21.774A8.718,8.718,0,0,0,45.9,13.689a5.226,5.226,0,1,0-6.436,0,8.654,8.654,0,0,0-2.886,1.87A8.714,8.714,0,0,0,33.7,13.69a5.226,5.226,0,1,0-6.438,0,8.742,8.742,0,0,0-2.872,1.871,8.659,8.659,0,0,0-2.886-1.87,5.225,5.225,0,1,0-6.436,0,8.718,8.718,0,0,0-5.491,8.085v3.484H7.839V5.226a2.616,2.616,0,0,1,2.613-2.613H50.516a2.616,2.616,0,0,1,2.613,2.613Z"/>
          <path id="Path_1277065" data-name="Path 1277065" d="M27,35.71a4.363,4.363,0,0,0-3.484-4.267v-2.7H18.871l-.233.174a12.269,12.269,0,0,1-7.316,2.439H8.71A2.616,2.616,0,0,0,6.1,33.968v3.484A2.616,2.616,0,0,0,8.71,40.065h.871v3.484a2.613,2.613,0,0,0,5.226,0V40.587A12.226,12.226,0,0,1,18.639,42.5l.233.174h4.645v-2.7A4.363,4.363,0,0,0,27,35.71ZM7.839,37.452V33.968A.871.871,0,0,1,8.71,33.1h2.613a14.024,14.024,0,0,0,6.968-1.879V40.2a14.024,14.024,0,0,0-6.968-1.879H8.71a.871.871,0,0,1-.871-.871Zm5.226,6.1a.871.871,0,0,1-1.742,0V40.065a12.018,12.018,0,0,1,1.742.134Zm8.71-2.613H20.032V30.484h1.742Zm1.742-2.773v-4.9a2.6,2.6,0,0,1,0,4.9Z"/>
          <path id="Path_1277066" data-name="Path 1277066" d="M9.581,13.065h1.742v1.742H9.581Z"/>
          <path id="Path_1277067" data-name="Path 1277067" d="M9.581,6.1v5.226h1.742V6.1h1.742V4.355H11.323A1.744,1.744,0,0,0,9.581,6.1Z"/>
          <path id="Path_1277068" data-name="Path 1277068" d="M49.645,7.839h1.742V9.581H49.645Z"/>
          <path id="Path_1277069" data-name="Path 1277069" d="M49.645,4.355h1.742V6.1H49.645Z"/>
          <path id="Path_1277070" data-name="Path 1277070" d="M49.645,11.323h1.742v1.742H49.645Z"/>
          <path id="Path_1277071" data-name="Path 1277071" d="M27,44.419H25.258v1.742H27a1.744,1.744,0,0,0,1.742-1.742V39.194H27Z"/>
        </g>
      </g>
    </g>
  </g>
</svg>
