<svg xmlns="http://www.w3.org/2000/svg" xmlns:xlink="http://www.w3.org/1999/xlink" width="98" height="97.999" viewBox="0 0 98 97.999">
  <defs>
    <clipPath id="clip-path">
      <rect id="Rectangle_412525" data-name="Rectangle 412525" width="56" height="54" transform="translate(825.302 3926.008)" fill="#fff"/>
    </clipPath>
  </defs>
  <g id="Group_1206605" data-name="Group 1206605" transform="translate(-803.898 -3980.558)">
    <g id="Group_1206204" data-name="Group 1206204" transform="translate(-67.215 3703.394)">
      <g id="Group_1188789" data-name="Group 1188789" transform="translate(871.113 277.164)">
        <rect id="Rectangle_400907" data-name="Rectangle 400907" width="88.438" height="88.437" rx="44.218" transform="translate(4.782 4.781)" fill="none"/>
        <g id="Group_1098742" data-name="Group 1098742" transform="translate(0)">
          <g id="Rectangle_400898" data-name="Rectangle 400898" transform="translate(0)" fill="none" stroke="#fff" stroke-width="2" opacity="0.859">
            <rect width="98" height="97.999" rx="48.999" stroke="none"/>
            <rect x="1" y="1" width="96" height="95.999" rx="47.999" fill="none"/>
          </g>
          <g id="Rectangle_400907-2" data-name="Rectangle 400907" transform="translate(0)" fill="none" stroke="#0f1f33" stroke-linecap="round" stroke-width="2">
            <rect width="98" height="97.999" rx="48.999" stroke="none"/>
            <rect x="1" y="1" width="96" height="95.999" rx="47.999" fill="none"/>
          </g>
        </g>
      </g>
    </g>
    <g id="Group_1206434" data-name="Group 1206434" transform="translate(-0.135 77)">
      <path id="Path_1243039" data-name="Path 1243039" d="M41.05,0h0a41.05,41.05,0,0,1,0,82.1h0a41.05,41.05,0,0,1,0-82.1Z" transform="translate(811.983 3911.507)" fill="#ffa724"/>
      <g id="Mask_Group_1099616" data-name="Mask Group 1099616" clip-path="url(#clip-path)">
        <g id="brand-awareness_12822632" transform="translate(824.513 3924.219)">
          <g id="Group_1206433" data-name="Group 1206433">
            <g id="Group_1206431" data-name="Group 1206431">
              <path id="Path_1277072" data-name="Path 1277072" d="M26.9,31.863l-8.3,3.37,6.536,14.038a.314.314,0,0,0,.556.027l2.44-4.19,4.773.833a.316.316,0,0,0,.338-.445Z" fill="#fe646f" fill-rule="evenodd"/>
              <path id="Path_1277073" data-name="Path 1277073" d="M24.868,48.7l2.2-3.776,1.064.186-2.44,4.19a.314.314,0,0,1-.556-.027Zm7.187-2.906a.3.3,0,0,0,.015-.3L25.912,32.263l.986-.4L33.242,45.5a.316.316,0,0,1-.338.445Z" fill="#fd4755" fill-rule="evenodd"/>
              <path id="Path_1277074" data-name="Path 1277074" d="M10.055,31.863l8.3,3.37L11.818,49.271a.3.3,0,0,1-.272.183.307.307,0,0,1-.285-.156l-2.435-4.19-4.777.833A.316.316,0,0,1,3.71,45.5Z" fill="#fe646f" fill-rule="evenodd"/>
              <path id="Path_1277075" data-name="Path 1277075" d="M4.9,45.793l-.849.148A.316.316,0,0,1,3.71,45.5l6.345-13.633.986.4L4.882,45.5A.3.3,0,0,0,4.9,45.793ZM12.084,48.7l-.267.573a.3.3,0,0,1-.272.183.307.307,0,0,1-.285-.156l-2.435-4.19,1.064-.185Z" fill="#fd4755" fill-rule="evenodd"/>
              <path id="Path_1277076" data-name="Path 1277076" d="M20.6,8.675l2.133,1.6a3.383,3.383,0,0,0,1.923.7l2.658.147a3.5,3.5,0,0,1,3.246,2.725l.61,2.6a3.368,3.368,0,0,0,1.024,1.772l1.941,1.821a3.493,3.493,0,0,1,.735,4.176l-1.2,2.378a3.4,3.4,0,0,0-.352,2.017l.316,2.645a3.5,3.5,0,0,1-2.124,3.673l-2.444,1.046a3.39,3.39,0,0,0-1.572,1.318l-1.456,2.226a3.5,3.5,0,0,1-3.985,1.451l-2.551-.77a3.337,3.337,0,0,0-2.044,0l-2.551.77a3.5,3.5,0,0,1-3.985-1.451L9.462,37.286a3.389,3.389,0,0,0-1.572-1.318L5.446,34.921a3.5,3.5,0,0,1-2.124-3.673L3.639,28.6a3.4,3.4,0,0,0-.352-2.017l-1.2-2.378a3.493,3.493,0,0,1,.735-4.176l1.941-1.821A3.368,3.368,0,0,0,5.785,16.44l.61-2.6A3.5,3.5,0,0,1,9.64,11.119l2.658-.147a3.371,3.371,0,0,0,1.923-.7l2.133-1.6a3.507,3.507,0,0,1,4.243,0Z" fill="#ffe177" fill-rule="evenodd"/>
              <path id="Path_1277077" data-name="Path 1277077" d="M17.89,8.01a3.515,3.515,0,0,1,2.708.665l2.133,1.6a3.383,3.383,0,0,0,1.923.7l2.658.147a3.5,3.5,0,0,1,3.246,2.725l.61,2.6a3.368,3.368,0,0,0,1.024,1.772l1.941,1.821a3.493,3.493,0,0,1,.735,4.176l-1.2,2.378a3.4,3.4,0,0,0-.352,2.017l.316,2.645a3.5,3.5,0,0,1-2.124,3.673l-2.444,1.046a3.39,3.39,0,0,0-1.572,1.318l-1.456,2.226a3.488,3.488,0,0,1-3.525,1.558,3.5,3.5,0,0,0,2.353-1.558l1.456-2.226a3.389,3.389,0,0,1,1.572-1.318l2.444-1.046a3.5,3.5,0,0,0,2.124-3.673L32.141,28.6a3.4,3.4,0,0,1,.352-2.017l1.2-2.378a3.493,3.493,0,0,0-.735-4.176l-1.941-1.821A3.368,3.368,0,0,1,30,16.44l-.61-2.6a3.5,3.5,0,0,0-3.246-2.725l-2.658-.147a3.383,3.383,0,0,1-1.923-.7l-2.133-1.6A3.577,3.577,0,0,0,17.89,8.01Zm0,32.076a3.738,3.738,0,0,0-.436.107l-2.551.77a3.584,3.584,0,0,1-1.632.107,3.719,3.719,0,0,0,.46-.107l2.551-.77A3.32,3.32,0,0,1,17.89,40.086Z" fill="#ffd064" fill-rule="evenodd"/>
              <path id="Path_1277078" data-name="Path 1277078" d="M18.479,36.21A11.671,11.671,0,1,0,6.808,24.539,11.694,11.694,0,0,0,18.479,36.21Z" fill="#eceff1" fill-rule="evenodd"/>
              <path id="Path_1277079" data-name="Path 1277079" d="M19.065,12.882a11.671,11.671,0,0,0,0,23.313q-.291.015-.586.015a11.671,11.671,0,0,1,0-23.343q.295,0,.586.015Z" fill="#d1d1d6" fill-rule="evenodd"/>
              <path id="Path_1277080" data-name="Path 1277080" d="M17.66,17.9a.858.858,0,0,1,1.632,0l1.2,3.684a.858.858,0,0,0,.816.593h3.873a.858.858,0,0,1,.5,1.553L22.55,26a.858.858,0,0,0-.312.96l1.2,3.684a.858.858,0,0,1-1.321.96l-3.134-2.277a.858.858,0,0,0-1.009,0l-3.134,2.277a.858.858,0,0,1-1.321-.96l1.2-3.684A.858.858,0,0,0,14.4,26l-3.134-2.277a.858.858,0,0,1,.5-1.553h3.873a.858.858,0,0,0,.816-.593l1.2-3.684Z" fill="#ffe177" fill-rule="evenodd"/>
              <path id="Path_1277081" data-name="Path 1277081" d="M18.108,17.388a.858.858,0,0,1,1.184.51l1.2,3.684a.858.858,0,0,0,.816.593H20.57a.858.858,0,0,1-.816-.593l-1.2-3.684a.858.858,0,0,0-.448-.51Zm6.335,4.787h.736a.858.858,0,0,1,.5,1.553L22.55,26a.858.858,0,0,0-.312.96l1.2,3.684a.858.858,0,0,1-1.184,1.041.859.859,0,0,0,.448-1.041l-1.2-3.684a.858.858,0,0,1,.312-.96l3.134-2.277a.858.858,0,0,0-.5-1.553ZM18.108,29.25a.864.864,0,0,0-.137.081l-3.134,2.277a.859.859,0,0,1-.872.081.854.854,0,0,0,.137-.081l3.134-2.277A.858.858,0,0,1,18.108,29.25Z" fill="#ffd064" fill-rule="evenodd"/>
            </g>
            <g id="Group_1206432" data-name="Group 1206432">
              <path id="Path_1277082" data-name="Path 1277082" d="M35.177,49.255V41.112H32.108v6.234a2.277,2.277,0,0,0,2.274,2.274h.429A.366.366,0,0,0,35.177,49.255Z" fill="#685e68" fill-rule="evenodd"/>
              <path id="Path_1277083" data-name="Path 1277083" d="M35.177,49.255V41.112h-.429v8.143a.367.367,0,0,1-.365.366h.429A.366.366,0,0,0,35.177,49.255Z" fill="#544854" fill-rule="evenodd"/>
              <path id="Path_1277084" data-name="Path 1277084" d="M49.785,37.987a2.445,2.445,0,0,0-2.445-2.445c-.04,0-.369,0-.409,0v4.884c.04,0,.369,0,.409,0A2.445,2.445,0,0,0,49.785,37.987Z" fill="#685e68" fill-rule="evenodd"/>
              <path id="Path_1277085" data-name="Path 1277085" d="M49.785,37.987a2.445,2.445,0,0,0-2.445-2.445c-.04,0-.369,0-.409,0v.564c.04,0,.369,0,.409,0a2.446,2.446,0,0,1,2.429,2.164A2.529,2.529,0,0,0,49.785,37.987Z" fill="#544854" fill-rule="evenodd"/>
              <path id="Path_1277086" data-name="Path 1277086" d="M35.177,42.071H30.829a4.138,4.138,0,0,1,0-8.276h4.348c3.695-.76,7.2-3.033,10.172-4.705a1.256,1.256,0,0,1,1.872,1.095V45.516a1.256,1.256,0,0,1-1.929,1.062C42.244,44.647,38.991,42.71,35.177,42.071Z" fill="#ffe177" fill-rule="evenodd"/>
              <path id="Path_1277087" data-name="Path 1277087" d="M26.741,38.568a4.065,4.065,0,0,1-.05-.636A4.149,4.149,0,0,1,30.829,33.8h4.348c3.695-.76,7.2-3.033,10.172-4.705a1.256,1.256,0,0,1,1.872,1.095v1.272a1.256,1.256,0,0,0-1.872-1.095c-2.974,1.672-6.477,3.943-10.172,4.7H30.829a4.154,4.154,0,0,0-4.088,3.5Z" fill="#ffd064" fill-rule="evenodd"/>
              <path id="Path_1277088" data-name="Path 1277088" d="M47.222,45.516V30.185a1.256,1.256,0,0,0-1.872-1.095c-.488.274-.991.566-1.507.864v15.72c.49.3.972.6,1.45.9a1.256,1.256,0,0,0,1.929-1.062Z" fill="#837683" fill-rule="evenodd"/>
              <path id="Path_1277089" data-name="Path 1277089" d="M47.222,31.456V30.185a1.256,1.256,0,0,0-1.872-1.095c-.488.274-.991.566-1.507.864v1.271c.515-.3,1.019-.588,1.507-.862a1.256,1.256,0,0,1,1.872,1.093Z" fill="#685e68" fill-rule="evenodd"/>
              <path id="Path_1277090" data-name="Path 1277090" d="M35.177,42.071V33.8H30.829a4.138,4.138,0,0,0,0,8.276Z" fill="#837683" fill-rule="evenodd"/>
              <path id="Path_1277091" data-name="Path 1277091" d="M35.177,35.066V33.8H30.829a4.149,4.149,0,0,0-4.138,4.136,4.065,4.065,0,0,0,.05.636,4.154,4.154,0,0,1,4.088-3.5Z" fill="#685e68" fill-rule="evenodd"/>
            </g>
          </g>
          <path id="Path_1277092" data-name="Path 1277092" d="M6.89,36.41l-1.8-.77a4.4,4.4,0,0,1-2.665-4.609h0l.316-2.644v0a2.531,2.531,0,0,0-.262-1.5l-1.2-2.373A4.386,4.386,0,0,1,2.2,19.265l1.941-1.821,0,0a2.5,2.5,0,0,0,.76-1.316v0l.609-2.593A4.387,4.387,0,0,1,9.59,10.11h0l2.658-.147a2.5,2.5,0,0,0,1.429-.518l0,0,2.132-1.6h0a4.4,4.4,0,0,1,5.322,0h0l2.132,1.6a2.518,2.518,0,0,0,1.431.52l2.658.147h0a4.387,4.387,0,0,1,4.074,3.419l.61,2.6v0a2.5,2.5,0,0,0,.76,1.316l0,0,1.941,1.821a4.385,4.385,0,0,1,.922,5.242l-1.2,2.375a2.532,2.532,0,0,0-.262,1.5v0l.316,2.644h0a4.5,4.5,0,0,1-.1,1.634h.841a30.081,30.081,0,0,0,8.44-3.771c.015-.01,1.592-.914,1.592-.914a2.187,2.187,0,0,1,3.259,1.905V34.4a3.4,3.4,0,0,1,0,6.617v4.517A2.187,2.187,0,0,1,45.2,47.384h0l-.815-.513a27.458,27.458,0,0,0-8.123-3.747v6.6a.9.9,0,0,1-.9.9h-.813a3.233,3.233,0,0,1-3.225-3.225v-.938l-2.724-.475-2.119,3.638a1.2,1.2,0,0,1-1.1.611,1.183,1.183,0,0,1-1.052-.694l0-.01-3.825-8.215-1.253-.378h0a2.468,2.468,0,0,0-1.512,0h0l-1.253.378L12.64,49.53a1.217,1.217,0,0,1-2.162.105L8.361,45.993l-4.154.724A1.22,1.22,0,0,1,2.893,45Zm25.623-3.745a2.658,2.658,0,0,0,.216-1.422L32.412,28.6a4.263,4.263,0,0,1,.441-2.528l0,0,1.2-2.377h0a2.6,2.6,0,0,0-.547-3.108l-1.94-1.82a4.232,4.232,0,0,1-1.285-2.224l-.61-2.6v0a2.6,2.6,0,0,0-2.416-2.027L24.6,11.767a4.247,4.247,0,0,1-2.415-.877h0l-2.131-1.6h0a2.613,2.613,0,0,0-3.16,0l-2.131,1.6a4.237,4.237,0,0,1-2.415.878l-2.657.147a2.6,2.6,0,0,0-2.416,2.027v0l-.61,2.6a4.232,4.232,0,0,1-1.285,2.224l-1.94,1.82a2.6,2.6,0,0,0-.547,3.108h0l1.2,2.377,0,0A4.263,4.263,0,0,1,4.536,28.6L4.22,31.244A2.611,2.611,0,0,0,5.8,33.98l2.441,1.045q.132.056.257.118a4.252,4.252,0,0,1,1.717,1.536h0l1.456,2.226a2.6,2.6,0,0,0,2.968,1.08l2.548-.769a4.2,4.2,0,0,1,2.569,0l2.548.769a2.6,2.6,0,0,0,2.968-1.08l.52-.8q-.01-.157-.01-.316a5.129,5.129,0,0,1,5.129-5.129Zm-6.051,7.667A4.359,4.359,0,0,1,22.748,41.9l2.727,5.858,1.872-3.215a.9.9,0,0,1,.936-.435l3.033.529V42.923h-.4a5.14,5.14,0,0,1-4.452-2.59ZM14.2,41.9a4.376,4.376,0,0,1-4.039-2L8.707,37.669a2.892,2.892,0,0,0-.255-.335L5,44.744l3.667-.639a.9.9,0,0,1,.936.436l1.868,3.213Zm20.25-7.425H30.914a3.323,3.323,0,0,0-3.322,3.322,3.29,3.29,0,0,0,.272,1.311l.01.023a3.336,3.336,0,0,0,3.04,1.988h3.536ZM43.3,31.2a29.849,29.849,0,0,1-7.039,3.086v6.986A24.7,24.7,0,0,1,43.3,44.119Zm3.449,14.335V29.885a.38.38,0,0,0-.568-.33h0c-.349.2-.709.4-1.074.614V45.192l.466.291.591.372h0a.374.374,0,0,0,.389.012A.37.37,0,0,0,46.746,45.536ZM48.552,39.1a1.593,1.593,0,0,0,0-2.775Zm-15.43,3.825v4.483a1.422,1.422,0,0,0,1.328,1.416v-5.9ZM18.477,37A12.573,12.573,0,1,1,31.044,24.429,12.6,12.6,0,0,1,18.477,37Zm0-1.806A10.766,10.766,0,1,0,7.711,24.429,10.787,10.787,0,0,0,18.477,35.2ZM15.613,21.163,16.8,17.511a1.761,1.761,0,0,1,3.35,0l1.187,3.652h3.84a1.761,1.761,0,0,1,1.035,3.186L23.1,26.606l1.187,3.652a1.761,1.761,0,0,1-2.71,1.969L18.474,29.97l-3.107,2.257a1.761,1.761,0,0,1-2.71-1.969l1.187-3.652-3.107-2.257a1.761,1.761,0,0,1,1.035-3.186Zm-3.7,1.806,3.021,2.195a1.761,1.761,0,0,1,.64,1.969l-1.154,3.551,3.021-2.195a1.761,1.761,0,0,1,2.071,0l3.021,2.195-1.154-3.551a1.761,1.761,0,0,1,.64-1.969l3.021-2.195H21.3a1.761,1.761,0,0,1-1.675-1.217L18.474,18.2,17.32,21.752a1.761,1.761,0,0,1-1.675,1.217Zm40.5,11.275a.9.9,0,0,1-1.277-1.277l1.71-1.71a.9.9,0,0,1,1.277,1.277ZM51.115,42.47a.9.9,0,1,1,1.279-1.276l1.71,1.713a.9.9,0,0,1-1.279,1.276Zm2.349-3.843a.9.9,0,1,1,0-1.806h2.422a.9.9,0,1,1,0,1.806Z" fill-rule="evenodd"/>
        </g>
      </g>
    </g>
  </g>
</svg>
