<svg xmlns="http://www.w3.org/2000/svg" xmlns:xlink="http://www.w3.org/1999/xlink" width="98" height="97.999" viewBox="0 0 98 97.999">
  <defs>
    <clipPath id="clip-path">
      <rect id="Rectangle_412489" data-name="Rectangle 412489" width="56" height="54" transform="translate(13233.121 -7743.965)" fill="#fff"/>
    </clipPath>
  </defs>
  <g id="Group_1206410" data-name="Group 1206410" transform="translate(-13211.852 7766.415)">
    <g id="Group_1206112" data-name="Group 1206112" transform="translate(12340.739 -8043.579)">
      <g id="Group_1188789" data-name="Group 1188789" transform="translate(871.113 277.164)">
        <path id="Path_1243039" data-name="Path 1243039" d="M41.05,0h0a41.05,41.05,0,0,1,0,82.1h0a41.05,41.05,0,0,1,0-82.1Z" transform="translate(7.951 7.949)" fill="#ffa724"/>
        <rect id="Rectangle_400907" data-name="Rectangle 400907" width="88.438" height="88.437" rx="44.218" transform="translate(4.782 4.781)" fill="none"/>
        <g id="Group_1098742" data-name="Group 1098742" transform="translate(0)">
          <g id="Rectangle_400898" data-name="Rectangle 400898" transform="translate(0)" fill="none" stroke="#fff" stroke-width="2" opacity="0.859">
            <rect width="98" height="97.999" rx="48.999" stroke="none"/>
            <rect x="1" y="1" width="96" height="95.999" rx="47.999" fill="none"/>
          </g>
          <g id="Rectangle_400907-2" data-name="Rectangle 400907" transform="translate(0)" fill="none" stroke="#0f1f33" stroke-linecap="round" stroke-width="2">
            <rect width="98" height="97.999" rx="48.999" stroke="none"/>
            <rect x="1" y="1" width="96" height="95.999" rx="47.999" fill="none"/>
          </g>
        </g>
      </g>
    </g>
    <g id="Mask_Group_1099613" data-name="Mask Group 1099613" clip-path="url(#clip-path)">
      <g id="sales_6633320" transform="translate(13233.121 -7744.965)">
        <g id="Group_1206402" data-name="Group 1206402">
          <path id="Path_1277006" data-name="Path 1277006" d="M54.633,19.258H32.407a.547.547,0,0,0-.547.547V43.122H55.18V19.8A.547.547,0,0,0,54.633,19.258Z" fill="#ffe177"/>
          <path id="Path_1277007" data-name="Path 1277007" d="M37.056,19.258H32.407a.547.547,0,0,0-.547.547V43.122h4.648V19.8A.547.547,0,0,1,37.056,19.258Z" fill="#ffd15b"/>
          <path id="Path_1277008" data-name="Path 1277008" d="M55.18,44.953V19.8a.547.547,0,0,0-.547-.547H32.407a.547.547,0,0,0-.547.547V44.953" fill="none" stroke="#000" stroke-linecap="round" stroke-linejoin="round" stroke-miterlimit="10" stroke-width="1.641"/>
          <path id="Path_1277009" data-name="Path 1277009" d="M32.954,47.531H54.086a1.094,1.094,0,0,0,1.094-1.094V43.122H31.86v3.315A1.094,1.094,0,0,0,32.954,47.531Z" fill="#ffd15b"/>
          <path id="Path_1277010" data-name="Path 1277010" d="M36.509,46.437V43.122H31.86v3.315a1.094,1.094,0,0,0,1.094,1.094H37.6A1.094,1.094,0,0,1,36.509,46.437Z" fill="#ffc344"/>
          <path id="Path_1277011" data-name="Path 1277011" d="M47.687,43.122H31.86v3.315a1.094,1.094,0,0,0,1.094,1.094H54.086a1.094,1.094,0,0,0,1.094-1.094V43.122H51.516" fill="none" stroke="#000" stroke-linecap="round" stroke-linejoin="round" stroke-miterlimit="10" stroke-width="1.641"/>
          <path id="Path_1277012" data-name="Path 1277012" d="M50.085,21.621V17.211a6.565,6.565,0,0,0-6.565-6.565h0a6.565,6.565,0,0,0-6.565,6.565v4.409" fill="none" stroke="#000" stroke-linecap="round" stroke-linejoin="round" stroke-miterlimit="10" stroke-width="1.641"/>
        </g>
        <path id="Path_1277013" data-name="Path 1277013" d="M41.83,30.979l-6.193-5.908a.328.328,0,0,0-.555.237v2.16a.328.328,0,0,1-.328.328H25.612a11.328,11.328,0,0,1-15.159.826v5.684a.328.328,0,0,0,.328.328H34.754a.328.328,0,0,1,.328.328v2.16a.328.328,0,0,0,.555.237l6.193-5.908A.328.328,0,0,0,41.83,30.979Z" fill="#05e39c"/>
        <g id="Group_1206403" data-name="Group 1206403">
          <path id="Path_1277014" data-name="Path 1277014" d="M15.094,34.308V30.87a11.292,11.292,0,0,1-4.641-2.246v5.684a.328.328,0,0,0,.328.328h4.641A.328.328,0,0,1,15.094,34.308Z" fill="#0ed290"/>
        </g>
        <path id="Path_1277015" data-name="Path 1277015" d="M41.83,30.979l-6.193-5.908a.328.328,0,0,0-.555.237v2.16a.328.328,0,0,1-.328.328H25.612a11.328,11.328,0,0,1-15.159.826v5.684a.328.328,0,0,0,.328.328H34.754a.328.328,0,0,1,.328.328v2.16a.328.328,0,0,0,.555.237l6.193-5.908A.328.328,0,0,0,41.83,30.979Z" fill="none" stroke="#000" stroke-linecap="round" stroke-linejoin="round" stroke-miterlimit="10" stroke-width="1.641"/>
        <path id="Path_1277016" data-name="Path 1277016" d="M8,44.7H28.166a.328.328,0,0,0,.328-.328V38.19a.328.328,0,0,0-.328-.328H8a.328.328,0,0,1-.328-.328v-2.16a.328.328,0,0,0-.555-.237L.922,41.043a.328.328,0,0,0,0,.475l6.193,5.908a.328.328,0,0,0,.555-.237v-2.16A.328.328,0,0,1,8,44.7Z" fill="#fea95c"/>
        <path id="Path_1277017" data-name="Path 1277017" d="M28.166,42H8a.328.328,0,0,0-.328.328v1.2a.328.328,0,0,1-.555.237L2.59,39.452.922,41.043a.328.328,0,0,0,0,.475l6.193,5.908a.328.328,0,0,0,.555-.237v-2.16A.328.328,0,0,1,8,44.7H28.166a.328.328,0,0,0,.328-.328v-2.7A.328.328,0,0,1,28.166,42Z" fill="#fe9738"/>
        <path id="Path_1277018" data-name="Path 1277018" d="M11.922,37.861H8a.328.328,0,0,1-.328-.328v-2.16a.328.328,0,0,0-.555-.237L.922,41.043a.328.328,0,0,0,0,.475l6.193,5.908a.328.328,0,0,0,.555-.237v-2.16A.328.328,0,0,1,8,44.7H28.166a.328.328,0,0,0,.328-.328V38.19a.328.328,0,0,0-.328-.328H15.75" fill="none" stroke="#000" stroke-linecap="round" stroke-linejoin="round" stroke-miterlimit="10" stroke-width="1.641"/>
        <g id="Group_1206409" data-name="Group 1206409">
          <g id="Group_1206407" data-name="Group 1206407">
            <circle id="Ellipse_12529" data-name="Ellipse 12529" cx="11.33" cy="11.33" r="11.33" transform="translate(6.245 8.484)" fill="#fff0ad"/>
            <path id="Path_1277019" data-name="Path 1277019" d="M28.731,17.828a11.332,11.332,0,1,0,.024,3.828" fill="none" stroke="#000" stroke-linecap="round" stroke-linejoin="round" stroke-miterlimit="10" stroke-width="1.641"/>
            <circle id="Ellipse_12530" data-name="Ellipse 12530" cx="7.874" cy="7.874" r="7.874" transform="translate(9.7 11.939)" fill="#ffe177"/>
            <path id="Path_1277020" data-name="Path 1277020" d="M14.328,19.813a7.888,7.888,0,0,1,5.561-7.527,7.874,7.874,0,1,0,0,15.054A7.888,7.888,0,0,1,14.328,19.813Z" fill="#ffd15b"/>
            <circle id="Ellipse_12531" data-name="Ellipse 12531" cx="7.874" cy="7.874" r="7.874" transform="translate(9.7 11.939)" fill="none" stroke="#000" stroke-linecap="round" stroke-linejoin="round" stroke-miterlimit="10" stroke-width="1.641"/>
            <g id="Group_1206406" data-name="Group 1206406">
              <g id="Group_1206405" data-name="Group 1206405">
                <path id="Path_1277021" data-name="Path 1277021" d="M20.162,16.1H16.55a1.855,1.855,0,0,0-1.855,1.855h0a1.855,1.855,0,0,0,1.855,1.855H18.6a1.855,1.855,0,0,1,1.855,1.855h0A1.855,1.855,0,0,1,18.6,23.524H14.987" fill="none" stroke="#000" stroke-linecap="round" stroke-linejoin="round" stroke-miterlimit="10" stroke-width="1.641"/>
                <g id="Group_1206404" data-name="Group 1206404">
                  <line id="Line_5055" data-name="Line 5055" y2="1.758" transform="translate(17.575 14.199)" fill="none" stroke="#000" stroke-linecap="round" stroke-linejoin="round" stroke-miterlimit="10" stroke-width="1.641"/>
                  <line id="Line_5056" data-name="Line 5056" y2="1.758" transform="translate(17.575 23.67)" fill="none" stroke="#000" stroke-linecap="round" stroke-linejoin="round" stroke-miterlimit="10" stroke-width="1.641"/>
                </g>
              </g>
            </g>
          </g>
          <path id="Path_1277022" data-name="Path 1277022" d="M23.71,8.754l-1.155,2.112a.547.547,0,0,1-.217.217l-2.112,1.155a.547.547,0,0,0,0,.96l2.112,1.155a.547.547,0,0,1,.217.217l1.155,2.112a.547.547,0,0,0,.96,0l1.155-2.112a.547.547,0,0,1,.217-.217L28.153,13.2a.547.547,0,0,0,0-.96l-2.112-1.155a.547.547,0,0,1-.217-.217L24.669,8.754A.547.547,0,0,0,23.71,8.754Z" fill="#fea95c"/>
          <g id="Group_1206408" data-name="Group 1206408">
            <path id="Path_1277023" data-name="Path 1277023" d="M25.466,14.925l-1.155-2.112a.547.547,0,0,0-.217-.217l-2.112-1.155a.551.551,0,0,1-.127-.095l-1.629.891a.547.547,0,0,0,0,.96l2.112,1.155a.547.547,0,0,1,.217.217l1.155,2.112a.547.547,0,0,0,.96,0l.891-1.629A.557.557,0,0,1,25.466,14.925Z" fill="#fe9738"/>
          </g>
          <path id="Path_1277024" data-name="Path 1277024" d="M23.71,8.754l-1.155,2.112a.547.547,0,0,1-.217.217l-2.112,1.155a.547.547,0,0,0,0,.96l2.112,1.155a.547.547,0,0,1,.217.217l1.155,2.112a.547.547,0,0,0,.96,0l1.155-2.112a.547.547,0,0,1,.217-.217L28.153,13.2a.547.547,0,0,0,0-.96l-2.112-1.155a.547.547,0,0,1-.217-.217L24.669,8.754A.547.547,0,0,0,23.71,8.754Z" fill="none" stroke="#000" stroke-linecap="round" stroke-linejoin="round" stroke-miterlimit="10" stroke-width="1.641"/>
        </g>
      </g>
    </g>
  </g>
</svg>
