<svg xmlns="http://www.w3.org/2000/svg" xmlns:xlink="http://www.w3.org/1999/xlink" width="98" height="97.998" viewBox="0 0 98 97.998">
  <defs>
    <clipPath id="clip-path">
      <rect id="Rectangle_412637" data-name="Rectangle 412637" width="56" height="54" transform="translate(674.672 -8272.992)" fill="#fff"/>
    </clipPath>
  </defs>
  <g id="Group_1206665" data-name="Group 1206665" transform="translate(-653.403 8295.442)">
    <g id="Group_1206310" data-name="Group 1206310" transform="translate(-217.71 -8572.606)">
      <g id="Group_1188789" data-name="Group 1188789" transform="translate(871.113 277.164)">
        <path id="Path_1243039" data-name="Path 1243039" d="M41.05,0h0a41.05,41.05,0,0,1,0,82.1h0a41.05,41.05,0,0,1,0-82.1Z" transform="translate(7.951 7.949)" fill="#ffa724"/>
        <rect id="Rectangle_400907" data-name="Rectangle 400907" width="88.438" height="88.437" rx="44.218" transform="translate(4.782 4.781)" fill="none"/>
        <g id="Group_1098742" data-name="Group 1098742" transform="translate(0)">
          <g id="Rectangle_400898" data-name="Rectangle 400898" transform="translate(0)" fill="none" stroke="#fff" stroke-width="2" opacity="0.859">
            <rect width="98" height="97.999" rx="48.999" stroke="none"/>
            <rect x="1" y="1" width="96" height="95.999" rx="47.999" fill="none"/>
          </g>
          <g id="Rectangle_400907-2" data-name="Rectangle 400907" transform="translate(0)" fill="none" stroke="#0f1f33" stroke-linecap="round" stroke-width="2">
            <rect width="98" height="97.999" rx="48.999" stroke="none"/>
            <rect x="1" y="1" width="96" height="95.999" rx="47.999" fill="none"/>
          </g>
        </g>
      </g>
    </g>
    <g id="Mask_Group_1099516" data-name="Mask Group 1099516" clip-path="url(#clip-path)">
      <g id="recommendation_17728395" transform="translate(672.864 -8276.138)">
        <g id="Group_1206645" data-name="Group 1206645">
          <path id="Path_1277770" data-name="Path 1277770" d="M13.2,4.077H50.617V52.413H13.2Z" fill="#d1e7fe" fill-rule="evenodd"/>
          <path id="Path_1277771" data-name="Path 1277771" d="M8.053,54h2.664c4.147,0,3.83,1.85,7.925,1.85h8.145c2.28,0,3.52-2.752,1.266-4.1a2.07,2.07,0,0,0,.625-3.893,2.16,2.16,0,0,0,0-3.889,2.161,2.161,0,0,0-.935-4.1H21.032c-.11-1.675.575-3.351.466-5.026-.254-3.81-4.164-4.93-5.215-.31-1.448,6.362-.8,7.723-7.641,7.723H8.055V54Z" fill="#fbd1a2" fill-rule="evenodd"/>
          <path id="Path_1277772" data-name="Path 1277772" d="M4.723,39.506H8.609a1.15,1.15,0,0,1,1.147,1.147V55.068a1.15,1.15,0,0,1-1.147,1.147H4.723a1.149,1.149,0,0,1-1.144-1.147V40.653a1.149,1.149,0,0,1,1.144-1.147Z" fill="#cc4242" fill-rule="evenodd"/>
          <path id="Path_1277773" data-name="Path 1277773" d="M23.449,8.373H40.368v7.284H23.449Z" fill="#9c3" fill-rule="evenodd"/>
          <path id="Path_1277774" data-name="Path 1277774" d="M40.3,20.409H54.711a1.331,1.331,0,0,1,1.329,1.326V32.477A1.332,1.332,0,0,1,54.711,33.8H40.3a1.331,1.331,0,0,1-1.326-1.326V21.734A1.331,1.331,0,0,1,40.3,20.409Z" fill="#fbb13c" fill-rule="evenodd"/>
          <path id="Path_1277775" data-name="Path 1277775" d="M51.754,27.1l-3.185,1.96L45.382,31.02V23.191l3.186,1.956Z" fill="#cc4242" fill-rule="evenodd"/>
          <path id="Path_1277776" data-name="Path 1277776" d="M36.037,38.084h10.5v10.5h-10.5Z" fill="#9c3" fill-rule="evenodd"/>
        </g>
        <path id="Path_1277777" data-name="Path 1277777" d="M25.823,30.57a.931.931,0,1,1,0-1.863h9.237a.931.931,0,0,1,0,1.863Zm0,3.817a.931.931,0,1,1,0-1.863h9.237a.931.931,0,1,1,0,1.863Zm10.215,2.766h10.5a.933.933,0,0,1,.935.931v10.5a.936.936,0,0,1-.935.935h-10.5a.933.933,0,0,1-.931-.935v-10.5A.929.929,0,0,1,36.037,37.153ZM45.6,39.021H36.972v8.628H45.6Zm6.629-11.114-6.358,3.909a.934.934,0,0,1-1.421-.8V23.191a.932.932,0,0,1,1.444-.78l6.348,3.9a.932.932,0,0,1-.013,1.6Zm-4.147.364L49.976,27.1l-3.662-2.248v4.5ZM40.3,19.477h9.385V5.008H14.137V39.383a15.8,15.8,0,0,0,.789-2.977c.126-.614.268-1.3.45-2.088a4.945,4.945,0,0,1,2.095-3.361,2.871,2.871,0,0,1,3.291.281,4.83,4.83,0,0,1,1.662,3.536,25.159,25.159,0,0,1-.449,4.15h5.766a3.107,3.107,0,0,1,2.409,5.047,3.112,3.112,0,0,1-.027,3.909,3.131,3.131,0,0,1,.072,3.6H49.683V34.734H40.3a2.262,2.262,0,0,1-2.257-2.257V21.734A2.264,2.264,0,0,1,40.3,19.477Zm11.249,0h3.163a2.263,2.263,0,0,1,2.26,2.257V32.477a2.263,2.263,0,0,1-2.26,2.257H51.548V52.413a.93.93,0,0,1-.931.931H30.162a3.277,3.277,0,0,1-3.374,3.437H18.641c-4.368,0-4.026-1.848-7.954-1.848a2.088,2.088,0,0,1-2.079,2.212H4.723a2.082,2.082,0,0,1-2.079-2.079V40.653a2.082,2.082,0,0,1,2.079-2.079H8.609a2.082,2.082,0,0,1,2.079,2.079v.6a7.747,7.747,0,0,0,1.583-.261V4.077a.93.93,0,0,1,.931-.931H50.618a.93.93,0,0,1,.931.931v15.4Zm3.163,1.863H40.3a.4.4,0,0,0-.393.393V32.476a.4.4,0,0,0,.393.393H54.711a.4.4,0,0,0,.393-.393V21.733a.4.4,0,0,0-.393-.393ZM17.236,25.108a.933.933,0,0,1,0-1.866H35.058a.933.933,0,0,1,0,1.866Zm0-4.406a.933.933,0,0,1,0-1.866H35.058a.933.933,0,0,1,0,1.866ZM23.449,7.441H40.368a.933.933,0,0,1,.931.931v7.284a.933.933,0,0,1-.931.931H23.449a.933.933,0,0,1-.931-.931V8.373a.933.933,0,0,1,.931-.931ZM39.434,9.305H24.385v5.42H39.434ZM10.687,43.121v9.947c4.458,0,4.127,1.85,7.954,1.85h8.145c1.252,0,1.873-1.2,1.326-1.9a1.666,1.666,0,0,0-.337-.34H22.653a.933.933,0,0,1,0-1.866h5.341a1.048,1.048,0,0,0,.628-.328,1.222,1.222,0,0,0,.155-1.232,1.109,1.109,0,0,0-.35-.466H22.654a.931.931,0,0,1,0-1.863h5.784a1.165,1.165,0,0,0,.407-.466,1.291,1.291,0,0,0,0-1.094,1.189,1.189,0,0,0-.407-.466H22.654a.931.931,0,0,1,0-1.863H28.44a1.123,1.123,0,0,0,.472-.628,1.228,1.228,0,0,0-1.169-1.612H21.031a.932.932,0,0,1-.931-.935c-.083-1.91.565-3.464.466-4.966-.175-2.67-2.554-3.767-3.374-.166-.169.73-.31,1.428-.443,2.062-.954,4.579-1.26,6.051-6.062,6.334ZM8.608,40.438H4.723a.216.216,0,0,0-.211.215V55.068a.216.216,0,0,0,.211.215H8.609a.216.216,0,0,0,.211-.215V40.653a.217.217,0,0,0-.212-.215Z"/>
      </g>
    </g>
  </g>
</svg>
