<svg xmlns="http://www.w3.org/2000/svg" xmlns:xlink="http://www.w3.org/1999/xlink" width="98" height="97.999" viewBox="0 0 98 97.999">
  <defs>
    <clipPath id="clip-path">
      <rect id="Rectangle_412417" data-name="Rectangle 412417" width="56" height="54" transform="translate(821.27 4440.45)" fill="#fff"/>
    </clipPath>
  </defs>
  <g id="Group_1206356" data-name="Group 1206356" transform="translate(-800 -4418)">
    <g id="Group_1204142" data-name="Group 1204142" transform="translate(-71.112 4140.836)">
      <g id="Group_1188789" data-name="Group 1188789" transform="translate(871.113 277.164)">
        <path id="Path_1243039" data-name="Path 1243039" d="M41.05,0h0a41.05,41.05,0,0,1,0,82.1h0a41.05,41.05,0,0,1,0-82.1Z" transform="translate(7.951 7.949)" fill="#ffa724"/>
        <rect id="Rectangle_400907" data-name="Rectangle 400907" width="88.438" height="88.437" rx="44.218" transform="translate(4.782 4.781)" fill="none"/>
        <g id="Group_1098742" data-name="Group 1098742" transform="translate(0)">
          <g id="Rectangle_400898" data-name="Rectangle 400898" transform="translate(0)" fill="none" stroke="#fff" stroke-width="2" opacity="0.859">
            <rect width="98" height="97.999" rx="48.999" stroke="none"/>
            <rect x="1" y="1" width="96" height="95.999" rx="47.999" fill="none"/>
          </g>
          <g id="Rectangle_400907-2" data-name="Rectangle 400907" transform="translate(0)" fill="none" stroke="#0f1f33" stroke-linecap="round" stroke-width="2">
            <rect width="98" height="97.999" rx="48.999" stroke="none"/>
            <rect x="1" y="1" width="96" height="95.999" rx="47.999" fill="none"/>
          </g>
        </g>
      </g>
    </g>
    <g id="Mask_Group_1099600" data-name="Mask Group 1099600" clip-path="url(#clip-path)">
      <g id="advertising_3505054" transform="translate(821.398 4439.579)">
        <g id="Group_1206351" data-name="Group 1206351">
          <g id="Group_1206333" data-name="Group 1206333">
            <path id="Path_1276721" data-name="Path 1276721" d="M45.29,1.742H3.484A1.747,1.747,0,0,0,1.742,3.484V8.71h45.29V3.484A1.747,1.747,0,0,0,45.29,1.742Z" fill="#5cd6b3"/>
          </g>
          <g id="Group_1206334" data-name="Group 1206334">
            <path id="Path_1276722" data-name="Path 1276722" d="M1.742,8.71V40.065a1.747,1.747,0,0,0,1.742,1.742H47.032V8.71Z" fill="#f0d0b4"/>
          </g>
          <g id="Group_1206335" data-name="Group 1206335">
            <path id="Path_1276723" data-name="Path 1276723" d="M29.613,44.463V54H26.129L22.9,44.419H28.28c.444,0,.888.009,1.333.017Z" fill="#ccd1d9"/>
          </g>
          <g id="Group_1206336" data-name="Group 1206336">
            <path id="Path_1276724" data-name="Path 1276724" d="M5.226,12.194H29.613V34.839H5.226Z" fill="#ffeaa7"/>
          </g>
          <g id="Group_1206337" data-name="Group 1206337">
            <path id="Path_1276725" data-name="Path 1276725" d="M48.774,25.258V49.645a42.855,42.855,0,0,0-13.935-4.721,43.649,43.649,0,0,0-5.226-.488c-.444-.009-.888-.017-1.333-.017H26.129V30.484H28.28c.444,0,.888-.009,1.333-.017a42.751,42.751,0,0,0,17.419-4.311c.584-.287,1.167-.584,1.742-.9Z" fill="#e6e9ed"/>
          </g>
          <g id="Group_1206338" data-name="Group 1206338">
            <path id="Path_1276726" data-name="Path 1276726" d="M54,26.129V48.774a3.483,3.483,0,0,1-3.484,3.484,1.747,1.747,0,0,1-1.742-1.742V24.387a1.747,1.747,0,0,1,1.742-1.742A3.479,3.479,0,0,1,54,26.129Z" fill="#ef7385"/>
          </g>
          <g id="Group_1206339" data-name="Group 1206339">
            <path id="Path_1276727" data-name="Path 1276727" d="M17.419,33.968A3.49,3.49,0,0,1,18.6,31.355a3.653,3.653,0,0,1,1.228-.7,2.651,2.651,0,0,1,.453-.113,2.946,2.946,0,0,1,.627-.061h5.226V44.419H20.9a3.477,3.477,0,0,1-3.371-2.613,3.185,3.185,0,0,1-.113-.871V33.968Z" fill="#ef7385"/>
          </g>
          <g id="Group_1206340" data-name="Group 1206340">
            <path id="Path_1276728" data-name="Path 1276728" d="M14.806,15.677h5.226v3.484H14.806Z" fill="#3bafda"/>
          </g>
          <g id="Group_1206341" data-name="Group 1206341">
            <path id="Path_1276729" data-name="Path 1276729" d="M17.419,22.645l2.4,8.013a3.653,3.653,0,0,0-1.228.7H14.806Z" fill="#69d6f4"/>
          </g>
          <g id="Group_1206342" data-name="Group 1206342">
            <path id="Path_1276730" data-name="Path 1276730" d="M20.032,19.161l2.613,3.484H17.419Z" fill="#69d6f4"/>
          </g>
          <g id="Group_1206343" data-name="Group 1206343">
            <path id="Path_1276731" data-name="Path 1276731" d="M14.806,19.161l2.613,3.484H12.194Z" fill="#69d6f4"/>
          </g>
          <g id="Group_1206344" data-name="Group 1206344">
            <path id="Path_1276732" data-name="Path 1276732" d="M22.645,22.645l-2.369,7.891v.009a2.65,2.65,0,0,0-.453.113l-2.4-8.013Z" fill="#4fc1e9"/>
          </g>
          <g id="Group_1206345" data-name="Group 1206345">
            <path id="Path_1276733" data-name="Path 1276733" d="M17.419,22.645l-2.613,8.71-2.613-8.71Z" fill="#4fc1e9"/>
          </g>
          <g id="Group_1206346" data-name="Group 1206346">
            <path id="Path_1276734" data-name="Path 1276734" d="M20.032,19.161l-2.613,3.484-2.613-3.484Z" fill="#4fc1e9"/>
          </g>
          <g id="Group_1206347" data-name="Group 1206347">
            <path id="Path_1276735" data-name="Path 1276735" d="M19.161,5.226h3.484V8.71H19.161Z" fill="#ffeaa7"/>
          </g>
          <g id="Group_1206348" data-name="Group 1206348">
            <path id="Path_1276736" data-name="Path 1276736" d="M12.194,5.226h3.484V8.71H12.194Z" fill="#ffeaa7"/>
          </g>
          <g id="Group_1206349" data-name="Group 1206349">
            <path id="Path_1276737" data-name="Path 1276737" d="M5.226,5.226H8.71V8.71H5.226Z" fill="#ffeaa7"/>
          </g>
          <g id="Group_1206350" data-name="Group 1206350">
            <path id="Path_1276738" data-name="Path 1276738" d="M43.209,16.548l.34.854L41.04,20.2l1.1,3.667-.7.523-3.118-2.4-3.118,2.4-.7-.523,1.1-3.667L33.1,17.4l.34-.854L36.6,16.54l1.2-4.346h1.045l1.219,4.355Z" fill="#fcd770"/>
          </g>
        </g>
        <g id="Group_1206355" data-name="Group 1206355">
          <g id="Group_1206353" data-name="Group 1206353">
            <g id="Group_1206352" data-name="Group 1206352">
              <path id="Path_1276739" data-name="Path 1276739" d="M41.428,25.48l-3.106-2.4-3.106,2.4L33.5,24.2l1.137-3.787-2.548-2.835.759-1.9,3.088-.008,1.2-4.35h2.373l1.218,4.355,3.072,0,.761,1.9-2.548,2.836L43.148,24.2Zm-3.106-4.6,2.616,2.02-.877-2.921,2.3-2.559H39.4L38.324,13.56l-1.062,3.852-2.977.008,2.3,2.559L35.707,22.9Z"/>
            </g>
          </g>
          <g id="Group_1206354" data-name="Group 1206354">
            <path id="Path_1276740" data-name="Path 1276740" d="M50.516,21.774A2.616,2.616,0,0,0,47.9,24.387V3.484A2.616,2.616,0,0,0,45.29.871H3.484A2.616,2.616,0,0,0,.871,3.484V40.065a2.616,2.616,0,0,0,2.613,2.613H16.918A4.357,4.357,0,0,0,20.9,45.29h1.366L25.5,54.871h4.98v-4.6L35.71,48.53V45.967A42.005,42.005,0,0,1,47.9,50.18v.336a2.616,2.616,0,0,0,2.613,2.613,4.36,4.36,0,0,0,4.355-4.355V26.129A4.36,4.36,0,0,0,50.516,21.774ZM3.484,2.613H45.29a.872.872,0,0,1,.871.871V7.839H23.516V4.355H18.29V7.839H16.548V4.355H11.323V7.839H9.581V4.355H4.355V7.839H2.613V3.484A.872.872,0,0,1,3.484,2.613Zm18.29,5.226H20.032V6.1h1.742Zm-6.968,0H13.065V6.1h1.742Zm-6.968,0H6.1V6.1H7.839Zm-4.355,33.1a.872.872,0,0,1-.871-.871V9.581H46.161V25.6a42.059,42.059,0,0,1-15.677,3.94V11.323H4.355V35.71H16.548v5.226Zm17.98-11.323,2.142-7.138-2.7-3.6V14.806H13.935v4.065l-2.7,3.6,2.926,9.752h2.759a4.312,4.312,0,0,0-.369,1.742H6.1v-20.9H28.742V29.6c-.154,0-.307.015-.462.015Zm-3.147.871h-2.34l1.442-4.807,1.354,4.516A4.3,4.3,0,0,0,18.317,30.484Zm1.715-2.16L18.59,23.516h2.885Zm-.871-6.55.871-1.162.871,1.162Zm0-3.484H15.677V16.548h3.484Zm-.871,1.742-.871,1.162-.871-1.162Zm-3.484.58.871,1.162H13.935Zm1.442,2.9-1.442,4.808-1.442-4.808Zm2.2,18.29h3.324V40.065H18.29V38.323h3.484V36.581H18.29V34.839h3.484V33.1H18.451A2.609,2.609,0,0,1,20.9,31.355h4.355V43.548H20.9A2.609,2.609,0,0,1,18.451,41.806Zm8.3,11.323L24.108,45.29h4.174c.154,0,.307.013.462.015v7.824Zm7.213-5.854-3.484,1.162V45.36q1.749.093,3.484.333ZM28.28,43.548H27V31.355h1.28A43.792,43.792,0,0,0,47.9,26.673V48.23A43.789,43.789,0,0,0,28.28,43.548Zm24.849,5.226a2.616,2.616,0,0,1-2.613,2.613.872.872,0,0,1-.871-.871V24.387a.872.872,0,0,1,.871-.871,2.616,2.616,0,0,1,2.613,2.613Z"/>
            <path id="Path_1276741" data-name="Path 1276741" d="M11.323,37.452h1.742v1.742H11.323Z"/>
            <path id="Path_1276742" data-name="Path 1276742" d="M7.839,37.452H9.581v1.742H7.839Z"/>
            <path id="Path_1276743" data-name="Path 1276743" d="M4.355,37.452H6.1v1.742H4.355Z"/>
          </g>
        </g>
      </g>
    </g>
  </g>
</svg>
