<svg xmlns="http://www.w3.org/2000/svg" xmlns:xlink="http://www.w3.org/1999/xlink" width="98" height="97.999" viewBox="0 0 98 97.999">
  <defs>
    <clipPath id="clip-path">
      <rect id="Rectangle_412424" data-name="Rectangle 412424" width="56" height="54" transform="translate(-5889.647 -7195.5)" fill="#fff"/>
    </clipPath>
  </defs>
  <g id="Group_1206361" data-name="Group 1206361" transform="translate(5910.917 7217.951)">
    <g id="Group_1205871" data-name="Group 1205871" transform="translate(-6782.029 -7495.115)">
      <g id="Group_1188789" data-name="Group 1188789" transform="translate(871.113 277.164)">
        <path id="Path_1243039" data-name="Path 1243039" d="M41.05,0h0a41.05,41.05,0,0,1,0,82.1h0a41.05,41.05,0,0,1,0-82.1Z" transform="translate(7.951 7.949)" fill="#ffa724"/>
        <rect id="Rectangle_400907" data-name="Rectangle 400907" width="88.438" height="88.437" rx="44.218" transform="translate(4.782 4.781)" fill="none"/>
        <g id="Group_1098742" data-name="Group 1098742" transform="translate(0)">
          <g id="Rectangle_400898" data-name="Rectangle 400898" transform="translate(0)" fill="none" stroke="#fff" stroke-width="2" opacity="0.859">
            <rect width="98" height="97.999" rx="48.999" stroke="none"/>
            <rect x="1" y="1" width="96" height="95.999" rx="47.999" fill="none"/>
          </g>
          <g id="Rectangle_400907-2" data-name="Rectangle 400907" transform="translate(0)" fill="none" stroke="#0f1f33" stroke-linecap="round" stroke-width="2">
            <rect width="98" height="97.999" rx="48.999" stroke="none"/>
            <rect x="1" y="1" width="96" height="95.999" rx="47.999" fill="none"/>
          </g>
        </g>
      </g>
    </g>
    <g id="Mask_Group_1099596" data-name="Mask Group 1099596" clip-path="url(#clip-path)">
      <g id="investment_11677768" transform="translate(-5888.647 -7195.5)">
        <path id="Path_1276648" data-name="Path 1276648" d="M.844,49.78H53.155v3.375H.844Z" fill="#694f3d"/>
        <path id="Path_1276649" data-name="Path 1276649" d="M45.562,12.656h5.062V46.405H45.562Z" fill="#f24b52"/>
        <path id="Path_1276650" data-name="Path 1276650" d="M37.124,17.718h5.062V46.405H37.124Z" fill="#5ab66a"/>
        <path id="Path_1276651" data-name="Path 1276651" d="M28.687,22.781h5.062V46.405H28.687Z" fill="#fcc447"/>
        <path id="Path_1276652" data-name="Path 1276652" d="M20.25,27.843h5.062V46.405H20.25Z" fill="#694f3d"/>
        <path id="Path_1276653" data-name="Path 1276653" d="M11.812,32.906h5.062v13.5H11.812Z" fill="#6bd4fa"/>
        <path id="Path_1276654" data-name="Path 1276654" d="M3.375,37.968H8.437v8.437H3.375Z" fill="#ddf8ea"/>
        <path id="Path_1276655" data-name="Path 1276655" d="M7.172,11.812a2.953,2.953,0,1,1,2.953-2.953,1.687,1.687,0,1,0,3.375,0A6.334,6.334,0,0,0,8.859,2.767V2.531a1.687,1.687,0,1,0-3.375,0v.235A6.328,6.328,0,0,0,7.172,15.187,2.953,2.953,0,1,1,4.219,18.14a1.687,1.687,0,1,0-3.375,0,6.334,6.334,0,0,0,4.641,6.093v.235a1.687,1.687,0,1,0,3.375,0v-.235A6.328,6.328,0,0,0,7.172,11.812Z" fill="#fcc447"/>
        <path id="Path_1276656" data-name="Path 1276656" d="M53.155,48.937H.844A.844.844,0,0,0,0,49.78v3.375A.844.844,0,0,0,.844,54H53.155A.844.844,0,0,0,54,53.155V49.78A.844.844,0,0,0,53.155,48.937Zm-.844,3.375H1.687V50.624H52.312Z"/>
        <path id="Path_1276657" data-name="Path 1276657" d="M45.562,47.249h5.062a.844.844,0,0,0,.844-.844V12.656a.844.844,0,0,0-.844-.844H45.562a.844.844,0,0,0-.844.844V46.405A.844.844,0,0,0,45.562,47.249ZM46.405,13.5H49.78V45.562H46.405Z"/>
        <path id="Path_1276658" data-name="Path 1276658" d="M36.281,17.718V46.405a.844.844,0,0,0,.844.844h5.062a.844.844,0,0,0,.844-.844V17.718a.844.844,0,0,0-.844-.844H37.124A.844.844,0,0,0,36.281,17.718Zm1.687.844h3.375v27H37.968Z"/>
        <path id="Path_1276659" data-name="Path 1276659" d="M28.687,21.937a.844.844,0,0,0-.844.844V46.405a.844.844,0,0,0,.844.844h5.062a.844.844,0,0,0,.844-.844V22.781a.844.844,0,0,0-.844-.844Zm4.219,23.625H29.531V23.625h3.375Z"/>
        <path id="Path_1276660" data-name="Path 1276660" d="M20.25,27a.844.844,0,0,0-.844.844V46.405a.844.844,0,0,0,.844.844h5.062a.844.844,0,0,0,.844-.844V27.843A.844.844,0,0,0,25.312,27Zm4.219,18.562H21.093V28.687h3.375Z"/>
        <path id="Path_1276661" data-name="Path 1276661" d="M10.969,32.906v13.5a.844.844,0,0,0,.844.844h5.062a.844.844,0,0,0,.844-.844v-13.5a.844.844,0,0,0-.844-.844H11.812A.844.844,0,0,0,10.969,32.906Zm1.687.844h3.375V45.562H12.656Z"/>
        <path id="Path_1276662" data-name="Path 1276662" d="M3.375,37.124a.844.844,0,0,0-.844.844v8.437a.844.844,0,0,0,.844.844H8.437a.844.844,0,0,0,.844-.844V37.968a.844.844,0,0,0-.844-.844Zm4.219,8.437H4.219v-6.75H7.594Z"/>
        <path id="Path_1276663" data-name="Path 1276663" d="M7.172,20.25A2.109,2.109,0,0,1,5.062,18.14,2.531,2.531,0,1,0,0,18.14a7.192,7.192,0,0,0,4.67,6.714,2.531,2.531,0,0,0,5,0,7.172,7.172,0,0,0-2.5-13.886A2.109,2.109,0,1,1,9.281,8.859a2.531,2.531,0,1,0,5.062,0,7.192,7.192,0,0,0-4.67-6.714,2.531,2.531,0,0,0-5,0,7.172,7.172,0,0,0,2.5,13.886,2.109,2.109,0,1,1,0,4.219Zm0-5.906A5.484,5.484,0,0,1,5.71,3.58a.844.844,0,0,0,.618-.813V2.531a.844.844,0,0,1,1.687,0v.235a.844.844,0,0,0,.618.813,5.5,5.5,0,0,1,4.023,5.279.844.844,0,1,1-1.687,0,3.8,3.8,0,1,0-3.8,3.8A5.484,5.484,0,0,1,8.633,23.42a.844.844,0,0,0-.618.813v.235a.844.844,0,1,1-1.687,0v-.235a.844.844,0,0,0-.618-.813A5.5,5.5,0,0,1,1.687,18.14a.844.844,0,1,1,1.687,0,3.8,3.8,0,1,0,3.8-3.8Z"/>
        <path id="Path_1276664" data-name="Path 1276664" d="M20,21.69,38.812,2.881V5.906a.844.844,0,1,0,1.687,0V.844A.844.844,0,0,0,39.656,0H34.593a.844.844,0,0,0,0,1.687h3.026L18.809,20.5A.844.844,0,1,0,20,21.69Z"/>
      </g>
    </g>
  </g>
</svg>
