<svg xmlns="http://www.w3.org/2000/svg" xmlns:xlink="http://www.w3.org/1999/xlink" width="98" height="97.999" viewBox="0 0 98 97.999">
  <defs>
    <clipPath id="clip-path">
      <rect id="Rectangle_412659" data-name="Rectangle 412659" width="56" height="54" transform="translate(562.27 2211.739)" fill="#fff"/>
    </clipPath>
  </defs>
  <g id="Group_1206584" data-name="Group 1206584" transform="translate(-541 -2189.289)">
    <g id="Group_1206323" data-name="Group 1206323" transform="translate(-330.112 1912.125)">
      <g id="Group_1188789" data-name="Group 1188789" transform="translate(871.113 277.164)">
        <path id="Path_1243039" data-name="Path 1243039" d="M41.05,0h0a41.05,41.05,0,0,1,0,82.1h0a41.05,41.05,0,0,1,0-82.1Z" transform="translate(7.951 7.949)" fill="#ffa724"/>
        <rect id="Rectangle_400907" data-name="Rectangle 400907" width="88.438" height="88.437" rx="44.218" transform="translate(4.782 4.781)" fill="none"/>
        <g id="Group_1098742" data-name="Group 1098742" transform="translate(0)">
          <g id="Rectangle_400898" data-name="Rectangle 400898" transform="translate(0)" fill="none" stroke="#fff" stroke-width="2" opacity="0.859">
            <rect width="98" height="97.999" rx="48.999" stroke="none"/>
            <rect x="1" y="1" width="96" height="95.999" rx="47.999" fill="none"/>
          </g>
          <g id="Rectangle_400907-2" data-name="Rectangle 400907" transform="translate(0)" fill="none" stroke="#0f1f33" stroke-linecap="round" stroke-width="2">
            <rect width="98" height="97.999" rx="48.999" stroke="none"/>
            <rect x="1" y="1" width="96" height="95.999" rx="47.999" fill="none"/>
          </g>
        </g>
      </g>
    </g>
    <g id="Mask_Group_1099507" data-name="Mask Group 1099507" clip-path="url(#clip-path)">
      <g id="branding_12774867" transform="translate(563.164 2211.634)">
        <g id="Group_1206583" data-name="Group 1206583">
          <g id="Group_1206581" data-name="Group 1206581">
            <path id="Path_1277610" data-name="Path 1277610" d="M27.106,35.641,17.088,52.992a.531.531,0,0,1-.96-.085l-2.7-7.478-7.824,1.4a.531.531,0,0,1-.554-.789l11.4-19.74,12.4,4.2,7.523-6.6L49.159,46.043a.531.531,0,0,1-.554.789l-7.824-1.4-2.7,7.478a.531.531,0,0,1-.96.085Z" fill="#ffda2d" fill-rule="evenodd"/>
            <path id="Path_1277611" data-name="Path 1277611" d="M27.106,35.641,17.088,52.992a.531.531,0,0,1-.96-.085l-2.7-7.478-7.824,1.4a.531.531,0,0,1-.554-.789L6.931,42.79l6.5-1.166,2.7,7.478a.531.531,0,0,0,.96.085L27.106,31.837,37.123,49.187a.531.531,0,0,0,.96-.085l2.7-7.478,6.5,1.166,1.878,3.253a.531.531,0,0,1-.554.789l-7.824-1.4-2.7,7.478a.531.531,0,0,1-.96.085Z" fill="#ffc700" stroke="#ffda2d" stroke-miterlimit="22.926" stroke-width="0.023" fill-rule="evenodd"/>
            <path id="Path_1277612" data-name="Path 1277612" d="M43.738,31.577a5.557,5.557,0,0,0,2.6-8.013,3.133,3.133,0,0,1,0-3.642,5.557,5.557,0,0,0-2.6-8.013A3.133,3.133,0,0,1,41.6,8.964a5.557,5.557,0,0,0-6.816-4.952,3.133,3.133,0,0,1-3.464-1.125,5.557,5.557,0,0,0-8.425,0A3.133,3.133,0,0,1,19.43,4.012a5.557,5.557,0,0,0-6.816,4.952,3.133,3.133,0,0,1-2.14,2.946,5.557,5.557,0,0,0-2.6,8.013,3.133,3.133,0,0,1,0,3.642,5.557,5.557,0,0,0,2.6,8.013,3.133,3.133,0,0,1,2.141,2.946,5.557,5.557,0,0,0,6.816,4.952A3.133,3.133,0,0,1,22.893,40.6a5.556,5.556,0,0,0,8.425,0,3.133,3.133,0,0,1,3.463-1.125A5.556,5.556,0,0,0,41.6,34.523a3.134,3.134,0,0,1,2.141-2.946Z" fill="#fc685b" fill-rule="evenodd"/>
            <path id="Path_1277613" data-name="Path 1277613" d="M43.738,31.577a5.557,5.557,0,0,0,2.6-8.013,3.133,3.133,0,0,1,0-3.642,5.613,5.613,0,0,0-1.85-7.668,5.425,5.425,0,0,1-.162,5.5,3.133,3.133,0,0,0,0,3.642,5.557,5.557,0,0,1-2.6,8.013,3.133,3.133,0,0,0-2.141,2.946A5.557,5.557,0,0,1,32.77,37.31a3.133,3.133,0,0,0-3.463,1.125,5.556,5.556,0,0,1-8.425,0,3.133,3.133,0,0,0-3.464-1.125,5.167,5.167,0,0,1-4.257-.716,5.609,5.609,0,0,0,6.268,2.881A3.133,3.133,0,0,1,22.893,40.6a5.556,5.556,0,0,0,8.425,0,3.133,3.133,0,0,1,3.463-1.125A5.557,5.557,0,0,0,41.6,34.523a3.133,3.133,0,0,1,2.141-2.946ZM41.7,9.737a3.3,3.3,0,0,1-.106-.773,5.312,5.312,0,0,0-2.559-4.236A4.644,4.644,0,0,1,39.586,6.8,3.132,3.132,0,0,0,41.7,9.737Zm-34,19.331a5.025,5.025,0,0,0,2.765,2.509l.023.008a3.126,3.126,0,0,0-2.035-2.173,4.4,4.4,0,0,1-.753-.344Z" fill="#f35244" fill-rule="evenodd"/>
            <circle id="Ellipse_12466" data-name="Ellipse 12466" cx="14.102" cy="14.102" r="14.102" transform="translate(13.004 7.642)" fill="#eff4f7"/>
            <g id="Group_1206580" data-name="Group 1206580">
              <path id="Path_1277614" data-name="Path 1277614" d="M27.106,7.642a14.047,14.047,0,0,1,9.229,3.439A14.1,14.1,0,0,0,20.112,33.991a14.1,14.1,0,0,1,6.993-26.35Z" fill="#e2e3e3" fill-rule="evenodd"/>
              <path id="Path_1277615" data-name="Path 1277615" d="M23.75,26.993l1.31,4.891a.571.571,0,0,0,.7.4l1.145-.307a.571.571,0,0,0,.4-.7L26,26.392l.638-.171,7.708.344a1.355,1.355,0,0,0,2.59-.792l-.859-3.2a2.625,2.625,0,0,0-1.356-5.061l-.859-3.2a1.355,1.355,0,0,0-2.639.609l-6.5,4.152-3.278.878a1.185,1.185,0,0,0-.836,1.448l.016.058-.335.09a2.463,2.463,0,1,0,1.275,4.757l.335-.09.016.058a1.185,1.185,0,0,0,1.448.836Z" fill="#e2e3e3" fill-rule="evenodd"/>
            </g>
          </g>
          <g id="Group_1206582" data-name="Group 1206582">
            <path id="Path_1277616" data-name="Path 1277616" d="M24.724,24.537l-2.246.6L24,30.826a.571.571,0,0,0,.7.4l1.145-.307a.571.571,0,0,0,.4-.7Z" fill="#b4d2d7" fill-rule="evenodd"/>
            <path id="Path_1277617" data-name="Path 1277617" d="M24.724,24.537l-.75.2L25.3,29.675a.571.571,0,0,1-.4.7l-.946.253.053.2a.571.571,0,0,0,.7.4l1.145-.307a.571.571,0,0,0,.4-.7Z" fill="#9bb9c3" fill-rule="evenodd"/>
            <path id="Path_1277618" data-name="Path 1277618" d="M27.493,20.812a2.47,2.47,0,0,1-1.741,3.016L20.5,25.236a2.463,2.463,0,0,1-1.275-4.757l5.252-1.407a2.47,2.47,0,0,1,3.016,1.741Z" fill="#64b5f6" fill-rule="evenodd"/>
            <path id="Path_1277619" data-name="Path 1277619" d="M27.466,22.174a2.466,2.466,0,0,1-1.714,1.655L20.5,25.235a2.461,2.461,0,0,1-2.44-4.053,2.442,2.442,0,0,0-.027,1.361,2.47,2.47,0,0,0,3.016,1.741L26.3,22.878a2.443,2.443,0,0,0,1.165-.7Z" fill="#42a5f5" fill-rule="evenodd"/>
            <ellipse id="Ellipse_12467" data-name="Ellipse 12467" cx="2.624" cy="2.624" rx="2.624" ry="2.624" transform="matrix(0.471, -0.882, 0.882, 0.471, 30.638, 20.107)" fill="#64b5f6"/>
            <path id="Path_1277620" data-name="Path 1277620" d="M35,16.522a2.624,2.624,0,1,1-2.569,4.444q.064.021.13.038A2.625,2.625,0,0,0,35,16.522Z" fill="#42a5f5" fill-rule="evenodd"/>
            <path id="Path_1277621" data-name="Path 1277621" d="M23.657,18l-3.278.878a1.185,1.185,0,0,0-.836,1.448L20.85,25.2a1.185,1.185,0,0,0,1.448.836l3.278-.878,9.392.419a.788.788,0,0,0,.734-.992L32.713,13.437a.788.788,0,0,0-1.131-.492Z" fill="#64b5f6" fill-rule="evenodd"/>
            <path id="Path_1277622" data-name="Path 1277622" d="M19.543,20.329v0L20.85,25.2a1.185,1.185,0,0,0,1.448.836l3.278-.878,9.392.419a.788.788,0,0,0,.734-.992l-.2-.746a.788.788,0,0,1-.735.988l-9.392-.419L22.1,25.29a1.185,1.185,0,0,1-1.448-.836Z" fill="#42a5f5" fill-rule="evenodd"/>
            <path id="Path_1277623" data-name="Path 1277623" d="M25.254,23.962,23.979,19.2,23.657,18l-3.278.878a1.185,1.185,0,0,0-.836,1.448l.016.058,1.275,4.758.016.058a1.185,1.185,0,0,0,1.448.836l.394-.105,2.246-.6.638-.171-.322-1.2Z" fill="#ffda2d" fill-rule="evenodd"/>
            <path id="Path_1277624" data-name="Path 1277624" d="M20.053,19.025a1.186,1.186,0,0,0-.509,1.3l.016.058,1.275,4.758.016.058a1.185,1.185,0,0,0,1.448.836l.394-.105,2.246-.6.638-.171-.2-.749-2.528.677a1.185,1.185,0,0,1-1.448-.836L20.092,19.38a1.182,1.182,0,0,1-.039-.355Z" fill="#ffc700" fill-rule="evenodd"/>
            <path id="Path_1277625" data-name="Path 1277625" d="M31.14,12.285a1.359,1.359,0,0,1,1.66.958l3.074,11.471a1.359,1.359,0,0,1-.958,1.66h0a1.359,1.359,0,0,1-1.66-.958L30.182,13.944A1.359,1.359,0,0,1,31.14,12.285Z" fill="#ffda2d" fill-rule="evenodd"/>
            <path id="Path_1277626" data-name="Path 1277626" d="M31.14,12.285a1.341,1.341,0,0,1,.395-.045,1.36,1.36,0,0,0-.594,1.5l3.074,11.471a1.361,1.361,0,0,0,1.265,1,1.354,1.354,0,0,1-2.024-.8L30.182,13.944a1.359,1.359,0,0,1,.958-1.66Z" fill="#ffc700" fill-rule="evenodd"/>
          </g>
        </g>
        <path id="Path_1277627" data-name="Path 1277627" d="M35,25.318a.508.508,0,0,1-.93-.122L31,13.725a.512.512,0,0,1,.359-.622h0a.492.492,0,0,1,.129-.017.509.509,0,0,1,.255.069.5.5,0,0,1,.237.307l3.074,11.471a.5.5,0,0,1-.052.385ZM24.748,30.339l-1.019-3.805.61-.163,1.02,3.805Zm-3.081-5.354-1.306-4.874A.337.337,0,0,1,20.6,19.7l2.46-.659,1.48,5.522-2.46.659a.338.338,0,0,1-.411-.237ZM18.3,23.275a1.625,1.625,0,0,1,.68-1.771l.794,2.964A1.625,1.625,0,0,1,18.3,23.275Zm6.335-4.891,1.6,5.959,5.93.265L29.638,15.19Zm11.267.174a1.777,1.777,0,0,0-1.128-1.215l.759,2.832a1.777,1.777,0,0,0,.369-1.617Zm.112,3.411a3.471,3.471,0,0,0-1.72-6.42l-.677-2.527A2.2,2.2,0,0,0,29.3,13.4l-5.988,3.823-3.152.844a2.035,2.035,0,0,0-1.488,1.7,3.307,3.307,0,0,0,1.7,6.357,2.039,2.039,0,0,0,1.615.8l.09,0,1.1,4.12A1.419,1.419,0,0,0,24.551,32.1a1.477,1.477,0,0,0,.369-.048l1.145-.307a1.419,1.419,0,0,0,1-1.736L26,26.028l6.764.3a2.2,2.2,0,0,0,3.927-1.836ZM27.106,35A13.255,13.255,0,1,0,13.851,21.743,13.269,13.269,0,0,0,27.106,35ZM42.054,21.743A14.948,14.948,0,1,0,27.106,36.692,14.966,14.966,0,0,0,42.054,21.743ZM40.929,44.6a.846.846,0,0,0-.945.546l-2.467,6.837L31.542,41.63a5.306,5.306,0,0,0,.452-.519,2.285,2.285,0,0,1,2.541-.826,6.1,6.1,0,0,0,5.288-1.037,6.365,6.365,0,0,0,2.44-3.455l5.822,10.085ZM27.106,41.686a4.4,4.4,0,0,0,3.537-1.6,3.993,3.993,0,0,1,4.386-1.425,4.715,4.715,0,0,0,5.723-4.158,3.991,3.991,0,0,1,2.711-3.73,4.4,4.4,0,0,0,2.612-2.871,4.4,4.4,0,0,0-.426-3.857,3.993,3.993,0,0,1,0-4.611,4.4,4.4,0,0,0,.426-3.857,4.4,4.4,0,0,0-2.612-2.87,3.993,3.993,0,0,1-2.711-3.73,4.4,4.4,0,0,0-1.923-3.371,4.4,4.4,0,0,0-3.8-.787A3.993,3.993,0,0,1,30.642,3.4a4.4,4.4,0,0,0-3.536-1.6,4.4,4.4,0,0,0-3.537,1.6,3.994,3.994,0,0,1-4.385,1.425,4.4,4.4,0,0,0-3.8.787,4.4,4.4,0,0,0-1.923,3.37A3.993,3.993,0,0,1,10.75,12.71a4.4,4.4,0,0,0-2.612,2.87,4.4,4.4,0,0,0,.426,3.857,4,4,0,0,1,0,4.611,4.4,4.4,0,0,0-.426,3.857,4.4,4.4,0,0,0,2.612,2.871,3.991,3.991,0,0,1,2.711,3.73,4.4,4.4,0,0,0,1.923,3.37,4.4,4.4,0,0,0,3.8.788,4.091,4.091,0,0,1,1.191-.179,3.99,3.99,0,0,1,3.194,1.6,4.4,4.4,0,0,0,3.537,1.6ZM16.694,51.979l-2.466-6.839a.849.849,0,0,0-.946-.546L6.126,45.879l5.822-10.084a6.367,6.367,0,0,0,2.44,3.454,6.1,6.1,0,0,0,5.288,1.037,2.285,2.285,0,0,1,2.541.826,5.294,5.294,0,0,0,.452.519Zm33.2-6.36-7.1-12.29a2.313,2.313,0,0,1,1.219-.952,6.1,6.1,0,0,0,3.668-3.948,6.094,6.094,0,0,0-.647-5.35,2.287,2.287,0,0,1,0-2.673,6.1,6.1,0,0,0,.648-5.35,6.1,6.1,0,0,0-3.668-3.948,2.285,2.285,0,0,1-1.571-2.162,6.1,6.1,0,0,0-2.621-4.709A6.1,6.1,0,0,0,34.535,3.2a2.285,2.285,0,0,1-2.541-.826A6.1,6.1,0,0,0,27.106.106h0a6.1,6.1,0,0,0-4.888,2.269,2.286,2.286,0,0,1-2.542.826,6.1,6.1,0,0,0-5.288,1.037,6.1,6.1,0,0,0-2.621,4.709A2.286,2.286,0,0,1,10.2,11.109a6.1,6.1,0,0,0-3.669,3.948,6.1,6.1,0,0,0,.648,5.35,2.287,2.287,0,0,1,0,2.673,6.094,6.094,0,0,0-.648,5.35A6.1,6.1,0,0,0,10.2,32.377a2.306,2.306,0,0,1,1.218.953l-7.1,12.288a1.379,1.379,0,0,0,1.437,2.047l7.121-1.277,2.454,6.805a1.364,1.364,0,0,0,1.175.905,1.181,1.181,0,0,0,.126.006,1.364,1.364,0,0,0,1.19-.691l6.221-10.774a6.709,6.709,0,0,0,6.126,0l6.22,10.774a1.365,1.365,0,0,0,1.191.691,1.214,1.214,0,0,0,.126-.006,1.366,1.366,0,0,0,1.175-.905l2.454-6.805,7.121,1.277a1.379,1.379,0,0,0,1.437-2.047Z" fill-rule="evenodd"/>
      </g>
    </g>
  </g>
</svg>
