<svg xmlns="http://www.w3.org/2000/svg" xmlns:xlink="http://www.w3.org/1999/xlink" width="98" height="97.999" viewBox="0 0 98 97.999">
  <defs>
    <clipPath id="clip-path">
      <rect id="Rectangle_412664" data-name="Rectangle 412664" width="56" height="54" transform="translate(614.77 2701.05)" fill="#fff"/>
    </clipPath>
  </defs>
  <g id="Group_1206602" data-name="Group 1206602" transform="translate(-593.5 -2678.6)">
    <g id="Group_1206326" data-name="Group 1206326" transform="translate(-277.612 2401.436)">
      <g id="Group_1188789" data-name="Group 1188789" transform="translate(871.113 277.164)">
        <path id="Path_1243039" data-name="Path 1243039" d="M41.05,0h0a41.05,41.05,0,0,1,0,82.1h0a41.05,41.05,0,0,1,0-82.1Z" transform="translate(7.951 7.949)" fill="#ffa724"/>
        <rect id="Rectangle_400907" data-name="Rectangle 400907" width="88.438" height="88.437" rx="44.218" transform="translate(4.782 4.781)" fill="none"/>
        <g id="Group_1098742" data-name="Group 1098742" transform="translate(0)">
          <g id="Rectangle_400898" data-name="Rectangle 400898" transform="translate(0)" fill="none" stroke="#fff" stroke-width="2" opacity="0.859">
            <rect width="98" height="97.999" rx="48.999" stroke="none"/>
            <rect x="1" y="1" width="96" height="95.999" rx="47.999" fill="none"/>
          </g>
          <g id="Rectangle_400907-2" data-name="Rectangle 400907" transform="translate(0)" fill="none" stroke="#0f1f33" stroke-linecap="round" stroke-width="2">
            <rect width="98" height="97.999" rx="48.999" stroke="none"/>
            <rect x="1" y="1" width="96" height="95.999" rx="47.999" fill="none"/>
          </g>
        </g>
      </g>
    </g>
    <g id="Mask_Group_1099511" data-name="Mask Group 1099511" clip-path="url(#clip-path)">
      <g id="laptop_909864" transform="translate(615.765 2701.045)">
        <g id="Group_1206600" data-name="Group 1206600" transform="translate(0.105 0.105)">
          <path id="Path_1277677" data-name="Path 1277677" d="M51.2,12.492V45.8H2.595V12.492a1.806,1.806,0,0,1,1.8-1.8H49.4A1.806,1.806,0,0,1,51.2,12.492Z" fill="#37474f"/>
          <path id="Path_1277678" data-name="Path 1277678" d="M48.5,12.492V45.8H2.595V12.492a1.806,1.806,0,0,1,1.8-1.8H46.7A1.806,1.806,0,0,1,48.5,12.492Z" fill="#607d8b"/>
          <path id="Path_1277679" data-name="Path 1277679" d="M47.6,15.192V44.9H6.2V15.192a.9.9,0,0,1,.9-.9H46.7A.9.9,0,0,1,47.6,15.192Z" fill="#00838f"/>
          <path id="Path_1277680" data-name="Path 1277680" d="M44.9,15.192V44.9H6.2V15.192a.9.9,0,0,1,.9-.9H44A.9.9,0,0,1,44.9,15.192Z" fill="#00bcd4"/>
          <path id="Path_1277681" data-name="Path 1277681" d="M53,45.8v3.6A3.6,3.6,0,0,1,49.4,53H4.4a3.6,3.6,0,0,1-3.6-3.6V45.8a.9.9,0,0,1,.9-.9H52.1A.9.9,0,0,1,53,45.8Z" fill="#37474f"/>
          <path id="Path_1277682" data-name="Path 1277682" d="M50.3,45.8v3.6A3.6,3.6,0,0,1,46.7,53H4.4a3.6,3.6,0,0,1-3.6-3.6V45.8a.9.9,0,0,1,.9-.9H49.4A.9.9,0,0,1,50.3,45.8Z" fill="#607d8b"/>
          <path id="Path_1277683" data-name="Path 1277683" d="M32.988,48.5H20.811a1.8,1.8,0,0,1-1.61-1L17.9,44.9h18L34.6,47.5A1.8,1.8,0,0,1,32.988,48.5Z" fill="#cfd8dc"/>
          <path id="Path_1277684" data-name="Path 1277684" d="M18.8,31.4v9H11.6v-9a1.806,1.806,0,0,1,1.8-1.8H17A1.806,1.806,0,0,1,18.8,31.4Z" fill="#ad1457"/>
          <path id="Path_1277685" data-name="Path 1277685" d="M16.1,31.4v9H11.6v-9a1.806,1.806,0,0,1,1.8-1.8h.9A1.806,1.806,0,0,1,16.1,31.4Z" fill="#e91e63"/>
          <path id="Path_1277686" data-name="Path 1277686" d="M30.5,23.294V40.4H23.3v-17.1a1.806,1.806,0,0,1,1.8-1.8h3.6A1.806,1.806,0,0,1,30.5,23.294Z" fill="#283593"/>
          <path id="Path_1277687" data-name="Path 1277687" d="M27.8,23.294V40.4H23.3v-17.1a1.806,1.806,0,0,1,1.8-1.8H26A1.806,1.806,0,0,1,27.8,23.294Z" fill="#3f51b5"/>
          <path id="Path_1277688" data-name="Path 1277688" d="M45.8,7.091H42.2V40.4H35V7.091H31.4l5.851-5.122L38.6.79Z" fill="#fdd834"/>
          <path id="Path_1277689" data-name="Path 1277689" d="M44.9,7.091H39.5V40.4H35V7.091H31.4L38.6.79l2.7,2.7Z" fill="#ffeb3a"/>
        </g>
        <g id="Group_1206601" data-name="Group 1206601">
          <path id="Path_1277690" data-name="Path 1277690" d="M52.209,44.1V12.6a2.7,2.7,0,0,0-2.7-2.7h-6.3V8.1h2.7A.9.9,0,0,0,46.5,6.519L39.3.218a.851.851,0,0,0-.106-.06.871.871,0,0,0-.154-.088.865.865,0,0,0-.161-.043.676.676,0,0,0-.337,0,.862.862,0,0,0-.172.045.881.881,0,0,0-.15.086.859.859,0,0,0-.107.061l-7.2,6.3A.9.9,0,0,0,31.505,8.1h2.7V9.9H4.5a2.7,2.7,0,0,0-2.7,2.7V44.1A1.8,1.8,0,0,0,0,45.9v3.6A4.506,4.506,0,0,0,4.5,54H49.508a4.506,4.506,0,0,0,4.5-4.5V45.9A1.8,1.8,0,0,0,52.209,44.1ZM49.508,11.7a.9.9,0,0,1,.9.9V44.1h-1.8V15.3a1.8,1.8,0,0,0-1.8-1.8h-3.6V11.7ZM33.9,6.3l4.805-4.2,4.805,4.2h-1.2a.9.9,0,0,0-.9.9V39.6h-5.4V7.2a.9.9,0,0,0-.9-.9Zm1.2,35.106h9a.9.9,0,1,0,0-1.8h-.9V15.3h3.6V44.1H7.2V15.3h27V39.6h-2.7V23.4a2.7,2.7,0,0,0-2.7-2.7H25.2a2.7,2.7,0,0,0-2.7,2.7V39.6H19.8V31.5a2.7,2.7,0,0,0-2.7-2.7H13.5a2.7,2.7,0,0,0-2.7,2.7v8.1H9.9a.9.9,0,1,0,0,1.8h25.2Zm-.556,4.5-.651,1.3a.9.9,0,0,1-.8.5H20.916a.9.9,0,0,1-.8-.5l-.651-1.3ZM29.705,23.4V39.6H24.3V23.4a.9.9,0,0,1,.9-.9h3.6A.9.9,0,0,1,29.705,23.4ZM18,31.5v8.1H12.6V31.5a.9.9,0,0,1,.9-.9h3.6A.9.9,0,0,1,18,31.5ZM3.6,12.6a.9.9,0,0,1,.9-.9H34.206v1.8H7.2a1.8,1.8,0,0,0-1.8,1.8V44.1H3.6ZM52.209,47.7h-9.9a.9.9,0,0,0,0,1.8h9.9a2.7,2.7,0,0,1-2.7,2.7H4.5a2.7,2.7,0,0,1-2.7-2.7h9.9a.9.9,0,0,0,0-1.8H1.8V45.9H17.447L18.5,48.011A2.686,2.686,0,0,0,20.916,49.5H33.093a2.686,2.686,0,0,0,2.415-1.493L36.563,45.9H52.209v1.8Z"/>
          <path id="Path_1277691" data-name="Path 1277691" d="M16.2,47.7h-.9a.9.9,0,0,0,0,1.8h.9a.9.9,0,1,0,0-1.8Z"/>
          <path id="Path_1277692" data-name="Path 1277692" d="M38.707,47.7h-.9a.9.9,0,0,0,0,1.8h.9a.9.9,0,0,0,0-1.8Z"/>
        </g>
      </g>
    </g>
  </g>
</svg>
