<svg xmlns="http://www.w3.org/2000/svg" xmlns:xlink="http://www.w3.org/1999/xlink" width="98" height="97.999" viewBox="0 0 98 97.999">
  <defs>
    <clipPath id="clip-path">
      <rect id="Rectangle_412668" data-name="Rectangle 412668" width="56" height="54" transform="translate(1244.77 2705.008)" fill="#fff"/>
    </clipPath>
  </defs>
  <g id="Group_1206597" data-name="Group 1206597" transform="translate(-1223.5 -2682.558)">
    <g id="Group_1206328" data-name="Group 1206328" transform="translate(352.388 2405.394)">
      <g id="Group_1188789" data-name="Group 1188789" transform="translate(871.113 277.164)">
        <path id="Path_1243039" data-name="Path 1243039" d="M41.05,0h0a41.05,41.05,0,0,1,0,82.1h0a41.05,41.05,0,0,1,0-82.1Z" transform="translate(7.951 7.949)" fill="#ffa724"/>
        <rect id="Rectangle_400907" data-name="Rectangle 400907" width="88.438" height="88.437" rx="44.218" transform="translate(4.782 4.781)" fill="none"/>
        <g id="Group_1098742" data-name="Group 1098742" transform="translate(0)">
          <g id="Rectangle_400898" data-name="Rectangle 400898" transform="translate(0)" fill="none" stroke="#fff" stroke-width="2" opacity="0.859">
            <rect width="98" height="97.999" rx="48.999" stroke="none"/>
            <rect x="1" y="1" width="96" height="95.999" rx="47.999" fill="none"/>
          </g>
          <g id="Rectangle_400907-2" data-name="Rectangle 400907" transform="translate(0)" fill="none" stroke="#0f1f33" stroke-linecap="round" stroke-width="2">
            <rect width="98" height="97.999" rx="48.999" stroke="none"/>
            <rect x="1" y="1" width="96" height="95.999" rx="47.999" fill="none"/>
          </g>
        </g>
      </g>
    </g>
    <g id="Mask_Group_1099509" data-name="Mask Group 1099509" clip-path="url(#clip-path)">
      <g id="Layer_x0020_1" transform="translate(1244.77 2704.008)">
        <path id="Path_1277648" data-name="Path 1277648" d="M21.324,30.018c-3.149,0-2-2.231-1.017-1.509.426.3,2.329.394,2.723-.689.361-1.115-.1-1.411-1.608-1.968-1.279-.492-3.215-1.214-2.395-3.609.951-2.69,5.938-1.837,4.888-.394-.492.656-.984-.131-2.1-.066-.3.033-1.279.131-1.542.919-.394,1.083.066,1.345,1.607,1.9,1.279.492,3.215,1.214,2.362,3.641A2.908,2.908,0,0,1,21.324,30.018Z" fill-rule="evenodd"/>
        <path id="Path_1277649" data-name="Path 1277649" d="M21.652,31.559c-.886,0-.656-1.214-.656-2.231a.656.656,0,0,1,1.312,0C22.308,30.346,22.538,31.559,21.652,31.559Zm0-9.776c-.886,0-.656-1.181-.656-2.2a.656.656,0,0,1,1.312,0C22.308,20.6,22.538,21.783,21.652,21.783Z" fill-rule="evenodd"/>
        <path id="Path_1277650" data-name="Path 1277650" d="M21.652,34.217a8.972,8.972,0,1,1,8.956-8.989A8.975,8.975,0,0,1,21.652,34.217Zm0-16.633A7.644,7.644,0,1,0,29.3,25.228,7.651,7.651,0,0,0,21.652,17.584Z" fill-rule="evenodd"/>
        <path id="Path_1277651" data-name="Path 1277651" d="M21.652,37.1A11.859,11.859,0,1,1,33.5,25.228,11.866,11.866,0,0,1,21.652,37.1Zm0-22.407A10.547,10.547,0,1,0,32.183,25.228,10.543,10.543,0,0,0,21.652,14.7Z" fill-rule="evenodd"/>
        <path id="Path_1277652" data-name="Path 1277652" d="M39.827,29.624H32.216a.656.656,0,1,1,0-1.312h7.611A.656.656,0,1,1,39.827,29.624Z" fill-rule="evenodd"/>
        <path id="Path_1277653" data-name="Path 1277653" d="M35.923,26.934H32.806a.656.656,0,1,1,0-1.312h2.821c.525-.558,1.115-1.378,1.575-1.378H42.91a.656.656,0,1,1,0,1.312H37.5C36.972,26.114,36.382,26.934,35.923,26.934Z" fill-rule="evenodd"/>
        <path id="Path_1277654" data-name="Path 1277654" d="M42.91,33.725H37.2c-.459,0-1.083-.853-1.575-1.378H30.8a.656.656,0,0,1,0-1.312H35.89c.459,0,1.083.82,1.575,1.378H42.91A.656.656,0,0,1,42.91,33.725Z" fill-rule="evenodd"/>
        <path id="Path_1277655" data-name="Path 1277655" d="M39.827,21.914H32.117a.656.656,0,0,1,0-1.312h7.709A.656.656,0,0,1,39.827,21.914Z" fill-rule="evenodd"/>
        <path id="Path_1277656" data-name="Path 1277656" d="M35.923,19.454H30.8a.656.656,0,0,1,0-1.312h4.822c.525-.558,1.115-1.378,1.575-1.378H42.91a.656.656,0,1,1,0,1.312H37.5C36.972,18.634,36.382,19.454,35.923,19.454Z" fill-rule="evenodd"/>
        <path id="Path_1277657" data-name="Path 1277657" d="M41.172,30.969a1.985,1.985,0,0,1,0-3.97A1.985,1.985,0,0,1,41.172,30.969Zm0-2.657a.673.673,0,0,0,0,1.345A.673.673,0,0,0,41.172,28.312Z" fill-rule="evenodd"/>
        <path id="Path_1277658" data-name="Path 1277658" d="M44.255,26.9a1.985,1.985,0,0,1,0-3.97A1.985,1.985,0,0,1,44.255,26.9Zm0-2.657a.673.673,0,0,0,0,1.345A.673.673,0,0,0,44.255,24.244Z" fill-rule="evenodd"/>
        <path id="Path_1277659" data-name="Path 1277659" d="M44.255,35.037a1.985,1.985,0,0,1,0-3.97A1.985,1.985,0,0,1,44.255,35.037Zm0-2.657a.673.673,0,0,0,0,1.345A.673.673,0,0,0,44.255,32.38Z" fill-rule="evenodd"/>
        <path id="Path_1277660" data-name="Path 1277660" d="M41.172,23.26a1.985,1.985,0,0,1,0-3.97A1.985,1.985,0,0,1,41.172,23.26Zm0-2.657a.673.673,0,0,0,0,1.345A.673.673,0,0,0,41.172,20.6Z" fill-rule="evenodd"/>
        <path id="Path_1277661" data-name="Path 1277661" d="M44.255,19.421a1.985,1.985,0,0,1,0-3.97A1.985,1.985,0,0,1,44.255,19.421Zm0-2.657a.673.673,0,0,0,0,1.345A.673.673,0,0,0,44.255,16.764Z" fill-rule="evenodd"/>
        <path id="Path_1277662" data-name="Path 1277662" d="M51.571,40.844H4.429a.638.638,0,0,1-.656-.656V10.268A3.36,3.36,0,0,1,7.119,6.922H48.848a3.367,3.367,0,0,1,3.379,3.346V40.187A.658.658,0,0,1,51.571,40.844ZM5.085,39.531h45.83V10.268a2.051,2.051,0,0,0-2.067-2.034H7.119a2.044,2.044,0,0,0-2.034,2.034Z" fill-rule="evenodd"/>
        <path id="Path_1277663" data-name="Path 1277663" d="M48.848,40.844a.638.638,0,0,1-.656-.656V10.957H7.808v29.23a.656.656,0,0,1-1.312,0V10.3a.658.658,0,0,1,.656-.656h41.7a.658.658,0,0,1,.656.656V40.187A.658.658,0,0,1,48.848,40.844Z" fill-rule="evenodd"/>
        <path id="Path_1277664" data-name="Path 1277664" d="M51.21,49.078H4.79A4.774,4.774,0,0,1,0,44.288v-4.1a.658.658,0,0,1,.656-.656H55.344a.658.658,0,0,1,.656.656v4.1A4.8,4.8,0,0,1,51.21,49.078Zm-49.9-8.234v3.445A3.458,3.458,0,0,0,4.79,47.766H51.21a3.479,3.479,0,0,0,3.477-3.477V40.844Z" fill-rule="evenodd"/>
        <path id="Path_1277665" data-name="Path 1277665" d="M31.822,45.24H24.178a2.856,2.856,0,0,1-2.854-2.854c0-1.411-.3-2.887.656-2.887H34.02c.919,0,.656,1.476.656,2.887A2.856,2.856,0,0,1,31.822,45.24Zm-9.186-4.4c0,1.083-.3,3.084,1.542,3.084h7.644c1.8,0,1.542-2,1.542-3.084Z" fill-rule="evenodd"/>
        <path id="Path_1277666" data-name="Path 1277666" d="M21.652,32.872a7.644,7.644,0,1,0-7.644-7.644A7.651,7.651,0,0,0,21.652,32.872Zm.23-8.267c1.279.492,3.215,1.214,2.362,3.641a2.622,2.622,0,0,1-1.936,1.64c.033.853.066,1.673-.656,1.673-.689,0-.722-.755-.689-1.542-2.723-.164-1.607-2.2-.656-1.509.426.3,2.329.394,2.723-.689.361-1.115-.1-1.411-1.608-1.968-1.279-.492-3.215-1.214-2.395-3.609a2.712,2.712,0,0,1,1.936-1.64c0-.328.033-.689.033-1.017a.656.656,0,0,1,1.312,0,8.6,8.6,0,0,0,.033.919c1.181.1,2.067.656,1.575,1.345-.492.656-.984-.131-2.1-.066-.3.033-1.279.131-1.542.919C19.88,23.784,20.34,24.047,21.882,24.6Z" fill="#ffa725" fill-rule="evenodd"/>
        <path id="Path_1277667" data-name="Path 1277667" d="M30.608,25.228a8.956,8.956,0,1,1-8.956-8.956A9,9,0,0,1,30.608,25.228Zm-.3,6a10.134,10.134,0,1,0-.066.1C30.28,31.3,30.28,31.264,30.313,31.231Z" fill="#fc0" fill-rule="evenodd"/>
        <path id="Path_1277668" data-name="Path 1277668" d="M33.5,25.228v.394h2.132c.525-.558,1.115-1.378,1.575-1.378h5.183a1.856,1.856,0,0,1,1.87-1.312,1.985,1.985,0,0,1,0,3.97,1.881,1.881,0,0,1-1.87-1.345H37.5c-1.607,1.706-.787,1.378-4.1,1.378-.1.492-.164.951-.3,1.378h6.2A1.856,1.856,0,0,1,41.172,27a1.985,1.985,0,0,1,0,3.97,1.845,1.845,0,0,1-1.87-1.345h-6.66a7.847,7.847,0,0,1-.656,1.411h3.9c.459,0,1.083.82,1.575,1.378h4.921a1.845,1.845,0,0,1,1.87-1.345,1.985,1.985,0,0,1,0,3.97,1.856,1.856,0,0,1-1.87-1.312H37.2c-.459,0-1.083-.853-1.575-1.378H31.133a11.859,11.859,0,1,1,0-14.205h4.494c.525-.558,1.115-1.378,1.575-1.378h5.183a1.856,1.856,0,0,1,1.87-1.312,1.985,1.985,0,0,1,0,3.97,1.881,1.881,0,0,1-1.87-1.345H37.5c-.525.558-1.115,1.378-1.575,1.378H31.986a9.532,9.532,0,0,1,.591,1.148H39.3a1.856,1.856,0,0,1,1.87-1.312,1.985,1.985,0,0,1,0,3.97,1.845,1.845,0,0,1-1.87-1.345H33.036A12.246,12.246,0,0,1,33.5,25.228Zm.591,14.3H48.192V10.957H7.808V39.531Z" fill="#85bcfe" fill-rule="evenodd"/>
        <path id="Path_1277669" data-name="Path 1277669" d="M41.172,20.6a.673.673,0,0,0,0,1.345A.673.673,0,0,0,41.172,20.6Z" fill="#187d96" fill-rule="evenodd"/>
        <path id="Path_1277670" data-name="Path 1277670" d="M44.255,16.764a.673.673,0,0,0,0,1.345A.673.673,0,0,0,44.255,16.764Z" fill="#fa3c48" fill-rule="evenodd"/>
        <path id="Path_1277671" data-name="Path 1277671" d="M44.255,24.244a.673.673,0,0,0,0,1.345A.673.673,0,0,0,44.255,24.244Z" fill="#ff7a1b" fill-rule="evenodd"/>
        <path id="Path_1277672" data-name="Path 1277672" d="M41.172,29.657a.673.673,0,0,0,0-1.345A.673.673,0,0,0,41.172,29.657Z" fill="#005b94" fill-rule="evenodd"/>
        <path id="Path_1277673" data-name="Path 1277673" d="M44.255,33.725a.673.673,0,0,0,0-1.345A.673.673,0,0,0,44.255,33.725Z" fill="#fa3c48" fill-rule="evenodd"/>
        <path id="Path_1277674" data-name="Path 1277674" d="M31.822,43.927c1.8,0,1.542-2,1.542-3.084H22.636c0,1.083-.3,3.084,1.542,3.084Z" fill="#939598" fill-rule="evenodd"/>
        <path id="Path_1277675" data-name="Path 1277675" d="M34.676,42.385a2.856,2.856,0,0,1-2.854,2.854H24.178a2.856,2.856,0,0,1-2.854-2.854c0-.558-.066-1.083-.033-1.542H1.312v3.445A3.458,3.458,0,0,0,4.79,47.766H51.21a3.479,3.479,0,0,0,3.477-3.477V40.844H34.709C34.709,41.3,34.676,41.828,34.676,42.385Z" fill="#353435" fill-rule="evenodd"/>
        <path id="Path_1277676" data-name="Path 1277676" d="M49.5,10.3v29.23h1.411V10.268a2.051,2.051,0,0,0-2.067-2.034H7.119a2.044,2.044,0,0,0-2.034,2.034V39.531H6.5V10.3a.658.658,0,0,1,.656-.656h41.7A.658.658,0,0,1,49.5,10.3Z" fill="#414042" fill-rule="evenodd"/>
      </g>
    </g>
  </g>
</svg>
