<svg xmlns="http://www.w3.org/2000/svg" xmlns:xlink="http://www.w3.org/1999/xlink" width="98" height="97.999" viewBox="0 0 98 97.999">
  <defs>
    <clipPath id="clip-path">
      <rect id="Rectangle_412643" data-name="Rectangle 412643" width="56" height="54" transform="translate(1140.02 767.538)" fill="#fff"/>
    </clipPath>
  </defs>
  <g id="Group_1206573" data-name="Group 1206573" transform="translate(-1118.75 -745.088)">
    <g id="Group_1206312" data-name="Group 1206312" transform="translate(247.638 467.924)">
      <g id="Group_1188789" data-name="Group 1188789" transform="translate(871.113 277.164)">
        <path id="Path_1243039" data-name="Path 1243039" d="M41.05,0h0a41.05,41.05,0,0,1,0,82.1h0a41.05,41.05,0,0,1,0-82.1Z" transform="translate(7.951 7.949)" fill="#ffa724"/>
        <rect id="Rectangle_400907" data-name="Rectangle 400907" width="88.438" height="88.437" rx="44.218" transform="translate(4.782 4.781)" fill="none"/>
        <g id="Group_1098742" data-name="Group 1098742" transform="translate(0)">
          <g id="Rectangle_400898" data-name="Rectangle 400898" transform="translate(0)" fill="none" stroke="#fff" stroke-width="2" opacity="0.859">
            <rect width="98" height="97.999" rx="48.999" stroke="none"/>
            <rect x="1" y="1" width="96" height="95.999" rx="47.999" fill="none"/>
          </g>
          <g id="Rectangle_400907-2" data-name="Rectangle 400907" transform="translate(0)" fill="none" stroke="#0f1f33" stroke-linecap="round" stroke-width="2">
            <rect width="98" height="97.999" rx="48.999" stroke="none"/>
            <rect x="1" y="1" width="96" height="95.999" rx="47.999" fill="none"/>
          </g>
        </g>
      </g>
    </g>
    <g id="Mask_Group_1099503" data-name="Mask Group 1099503" clip-path="url(#clip-path)">
      <g id="folder_3598287" transform="translate(1140.148 766.667)">
        <g id="Group_1206571" data-name="Group 1206571">
          <g id="Group_1206563" data-name="Group 1206563">
            <path id="Path_1277545" data-name="Path 1277545" d="M34.839,47.032V54H24.387V40.065H34.839Z" fill="#e6e9ed"/>
          </g>
          <g id="Group_1206564" data-name="Group 1206564">
            <path id="Path_1277546" data-name="Path 1277546" d="M41.815,40.065H52.267V54H41.815Z" fill="#e6e9ed"/>
          </g>
          <g id="Group_1206565" data-name="Group 1206565">
            <path id="Path_1277547" data-name="Path 1277547" d="M17.419,47.032V54H6.968V40.065H17.419Z" fill="#e6e9ed"/>
          </g>
          <g id="Group_1206566" data-name="Group 1206566">
            <path id="Path_1277548" data-name="Path 1277548" d="M17.419,12.194H54V29.613a1.747,1.747,0,0,1-1.742,1.742H17.977a10.461,10.461,0,0,0-.557-17.768Z" fill="#ffeaa7"/>
          </g>
          <g id="Group_1206567" data-name="Group 1206567">
            <path id="Path_1277549" data-name="Path 1277549" d="M54,5.226v6.968H17.419V8.71a1.747,1.747,0,0,1,1.742-1.742H34.839l2.97-4.451a1.725,1.725,0,0,1,1.446-.775h13A1.747,1.747,0,0,1,54,3.484Z" fill="#fcd770"/>
          </g>
          <g id="Group_1206568" data-name="Group 1206568">
            <path id="Path_1277550" data-name="Path 1277550" d="M43.548,24.387h6.968v3.484H43.548Z" fill="#e6e9ed"/>
          </g>
          <g id="Group_1206569" data-name="Group 1206569">
            <path id="Path_1277551" data-name="Path 1277551" d="M17.419,13.587a10.461,10.461,0,0,1,.557,17.768h-.009A10.307,10.307,0,0,1,12.194,33.1a10.452,10.452,0,1,1,5.226-19.51Z" fill="#69d6f4"/>
          </g>
          <g id="Group_1206570" data-name="Group 1206570">
            <path id="Path_1277552" data-name="Path 1277552" d="M40.065,5.226H50.516V8.71H40.065Z" fill="#e6e9ed"/>
          </g>
        </g>
        <g id="Group_1206572" data-name="Group 1206572">
          <path id="Path_1277553" data-name="Path 1277553" d="M27,42.677h5.226v1.742H27Z"/>
          <path id="Path_1277554" data-name="Path 1277554" d="M27,46.161h5.226V47.9H27Z"/>
          <path id="Path_1277555" data-name="Path 1277555" d="M9.581,42.677h5.226v1.742H9.581Z"/>
          <path id="Path_1277556" data-name="Path 1277556" d="M9.581,46.161h5.226V47.9H9.581Z"/>
          <path id="Path_1277557" data-name="Path 1277557" d="M44.432,42.677h5.226v1.742H44.432Z"/>
          <path id="Path_1277558" data-name="Path 1277558" d="M44.432,46.161h5.226V47.9H44.432Z"/>
          <path id="Path_1277559" data-name="Path 1277559" d="M9.581,49.645h5.226v1.742H9.581Z"/>
          <path id="Path_1277560" data-name="Path 1277560" d="M27,49.645h5.226v1.742H27Z"/>
          <path id="Path_1277561" data-name="Path 1277561" d="M44.419,49.645h5.226v1.742H44.419Z"/>
          <path id="Path_1277562" data-name="Path 1277562" d="M52.258.871h-13a2.607,2.607,0,0,0-2.174,1.164L34.373,6.1H19.161A2.616,2.616,0,0,0,16.548,8.71V12.2a11.317,11.317,0,1,0-5.226,21.727v5.27H6.1V54.871H18.29V47.9h5.226v6.968H35.71V47.9h5.239v6.968H53.142V39.194H40.949v6.968H35.71V39.194H23.516v6.968H18.29V39.194H13.065v-5.27a11.226,11.226,0,0,0,5.135-1.7H52.258a2.616,2.616,0,0,0,2.613-2.613V3.484A2.616,2.616,0,0,0,52.258.871ZM42.69,40.935H51.4V53.129H42.69Zm-17.432,0h8.71V53.129h-8.71Zm-8.71,12.194H7.839V40.935h8.71Zm2.613-45.29H35.3L38.53,3a.869.869,0,0,1,.725-.388h13a.871.871,0,0,1,.871.871v7.839H18.29V8.71A.871.871,0,0,1,19.161,7.839ZM15.428,31.652a12.072,12.072,0,0,0,1.212-2.91h2.938A9.613,9.613,0,0,1,15.428,31.652Zm-5.856-2.91h5.242c-.687,2.154-1.685,3.484-2.621,3.484S10.26,30.9,9.573,28.742ZM2.657,23.516h4.33A23.886,23.886,0,0,0,7.343,27H3.67a9.493,9.493,0,0,1-1.013-3.484Zm9.536-10.452c.936,0,1.934,1.33,2.621,3.484H9.572c.688-2.154,1.685-3.484,2.622-3.484Zm3.065,5.226a21.6,21.6,0,0,1,.4,3.484H8.728a21.7,21.7,0,0,1,.4-3.484ZM6.987,21.774H2.657A9.494,9.494,0,0,1,3.671,18.29H7.343A23.767,23.767,0,0,0,6.987,21.774Zm1.741,1.742h6.931a21.7,21.7,0,0,1-.4,3.484H9.129A21.6,21.6,0,0,1,8.728,23.516ZM20.717,27H17.045a23.886,23.886,0,0,0,.356-3.484h4.33A9.51,9.51,0,0,1,20.717,27ZM17.4,21.774a23.886,23.886,0,0,0-.356-3.484h3.672a9.51,9.51,0,0,1,1.014,3.484Zm-.76-5.226a12.037,12.037,0,0,0-1.212-2.91,9.606,9.606,0,0,1,4.149,2.91Zm-7.681-2.91a12.037,12.037,0,0,0-1.212,2.91H4.809A9.621,9.621,0,0,1,8.959,13.638Zm-4.15,15.1H7.746a12.037,12.037,0,0,0,1.212,2.91,9.623,9.623,0,0,1-4.149-2.91Zm47.449,1.742H20.345A11.286,11.286,0,0,0,18.29,13.119v-.055H53.129V29.613A.871.871,0,0,1,52.258,30.484Z"/>
          <path id="Path_1277563" data-name="Path 1277563" d="M51.387,4.355H39.194V9.581H51.387ZM49.645,7.839h-8.71V6.1h8.71Z"/>
          <path id="Path_1277564" data-name="Path 1277564" d="M42.677,28.742h8.71V23.516h-8.71Zm1.742-3.484h5.226V27H44.419Z"/>
        </g>
      </g>
    </g>
  </g>
</svg>
