<svg xmlns="http://www.w3.org/2000/svg" xmlns:xlink="http://www.w3.org/1999/xlink" width="98" height="97.999" viewBox="0 0 98 97.999">
  <defs>
    <clipPath id="clip-path">
      <rect id="Rectangle_412603" data-name="Rectangle 412603" width="56" height="54" transform="translate(1140.02 2266.538)" fill="#fff"/>
    </clipPath>
  </defs>
  <g id="Group_1206518" data-name="Group 1206518" transform="translate(-1118.75 -2244.088)">
    <g id="Group_1206210" data-name="Group 1206210" transform="translate(247.638 1966.924)">
      <g id="Group_1188789" data-name="Group 1188789" transform="translate(871.113 277.164)">
        <path id="Path_1243039" data-name="Path 1243039" d="M41.05,0h0a41.05,41.05,0,0,1,0,82.1h0a41.05,41.05,0,0,1,0-82.1Z" transform="translate(7.951 7.949)" fill="#ffa724"/>
        <rect id="Rectangle_400907" data-name="Rectangle 400907" width="88.438" height="88.437" rx="44.218" transform="translate(4.782 4.781)" fill="none"/>
        <g id="Group_1098742" data-name="Group 1098742" transform="translate(0)">
          <g id="Rectangle_400898" data-name="Rectangle 400898" transform="translate(0)" fill="none" stroke="#fff" stroke-width="2" opacity="0.859">
            <rect width="98" height="97.999" rx="48.999" stroke="none"/>
            <rect x="1" y="1" width="96" height="95.999" rx="47.999" fill="none"/>
          </g>
          <g id="Rectangle_400907-2" data-name="Rectangle 400907" transform="translate(0)" fill="none" stroke="#0f1f33" stroke-linecap="round" stroke-width="2">
            <rect width="98" height="97.999" rx="48.999" stroke="none"/>
            <rect x="1" y="1" width="96" height="95.999" rx="47.999" fill="none"/>
          </g>
        </g>
      </g>
    </g>
    <g id="Mask_Group_1099493" data-name="Mask Group 1099493" clip-path="url(#clip-path)">
      <g id="video-views_10619985" transform="translate(1139.116 2264.635)">
        <g id="Group_1206517" data-name="Group 1206517">
          <g id="Group_1206513" data-name="Group 1206513">
            <path id="Path_1277389" data-name="Path 1277389" d="M3.9,4.06H47.894a2.1,2.1,0,0,1,2.1,2.1V38.474a2.1,2.1,0,0,1-2.1,2.1H3.9a2.1,2.1,0,0,1-2.1-2.1V6.156a2.1,2.1,0,0,1,2.1-2.1Z" fill="#eceff1" fill-rule="evenodd"/>
            <path id="Path_1277390" data-name="Path 1277390" d="M45.893,4.06h2a2.1,2.1,0,0,1,2.1,2.1V38.474a2.1,2.1,0,0,1-2.1,2.1h-2a2.1,2.1,0,0,0,2.1-2.1V6.157a2.1,2.1,0,0,0-2.1-2.1Z" fill="#d1d1d6" fill-rule="evenodd"/>
            <path id="Path_1277391" data-name="Path 1277391" d="M3.9,4.06H47.894a2.1,2.1,0,0,1,2.1,2.1v5.39H1.806V6.156a2.1,2.1,0,0,1,2.1-2.1Z" fill="#a79ba7" fill-rule="evenodd"/>
            <path id="Path_1277392" data-name="Path 1277392" d="M45.893,4.06h2a2.1,2.1,0,0,1,2.1,2.1v5.39h-2V6.156a2.1,2.1,0,0,0-2.1-2.1Z" fill="#837683" fill-rule="evenodd"/>
          </g>
          <g id="Group_1206514" data-name="Group 1206514">
            <circle id="Ellipse_12459" data-name="Ellipse 12459" cx="7.925" cy="7.925" r="7.925" transform="translate(14.685 23.543) rotate(-45)" fill="#fe646f"/>
            <path id="Path_1277393" data-name="Path 1277393" d="M25.9,15.616a7.926,7.926,0,0,1,0,15.853,8.033,8.033,0,0,1-.812-.041,7.927,7.927,0,0,0,0-15.771A8,8,0,0,1,25.9,15.616Z" fill="#fd4755" fill-rule="evenodd"/>
            <path id="Path_1277394" data-name="Path 1277394" d="M29.568,23.984l-5.52,3.187a.509.509,0,0,1-.764-.441V20.355a.509.509,0,0,1,.764-.441l5.52,3.187a.509.509,0,0,1,0,.882Z" fill="#eceff1" fill-rule="evenodd"/>
            <path id="Path_1277395" data-name="Path 1277395" d="M29.568,23.984l-.642.37-4.879-2.817a.509.509,0,0,0-.764.441V20.355a.509.509,0,0,1,.764-.441l5.52,3.187a.51.51,0,0,1,0,.883Z" fill="#d1d1d6" fill-rule="evenodd"/>
          </g>
          <g id="Group_1206515" data-name="Group 1206515">
            <circle id="Ellipse_12460" data-name="Ellipse 12460" cx="11.372" cy="11.372" r="11.372" transform="translate(33.035 31.256) rotate(-1.26)" fill="#d8ecfe"/>
            <path id="Path_1277396" data-name="Path 1277396" d="M44.631,31.009a11.369,11.369,0,0,1,0,22.738c-.32,0-.637-.014-.951-.04a11.369,11.369,0,0,0,0-22.658C43.994,31.022,44.311,31.009,44.631,31.009Z" fill="#c4e2ff" fill-rule="evenodd"/>
          </g>
          <g id="Group_1206516" data-name="Group 1206516">
            <path id="Path_1277397" data-name="Path 1277397" d="M44.631,37.75a10.8,10.8,0,0,1,8.8,4.524.175.175,0,0,1,0,.207,10.817,10.817,0,0,1-17.6,0,.175.175,0,0,1,0-.207A10.8,10.8,0,0,1,44.631,37.75Z" fill="#8ac9fe" fill-rule="evenodd"/>
            <path id="Path_1277398" data-name="Path 1277398" d="M52.639,41.3a10.862,10.862,0,0,1,.79.978.175.175,0,0,1,0,.207,10.817,10.817,0,0,1-17.6,0h0A10.816,10.816,0,0,0,52.639,41.5a.175.175,0,0,0,0-.207Z" fill="#60b7ff" fill-rule="evenodd"/>
            <circle id="Ellipse_12461" data-name="Ellipse 12461" cx="2.283" cy="2.283" r="2.283" transform="translate(42.348 40.094)" fill="#eceff1"/>
            <path id="Path_1277399" data-name="Path 1277399" d="M44.631,40.094a2.29,2.29,0,0,1,.481.051,2.284,2.284,0,0,0,0,4.465,2.283,2.283,0,1,1-.481-4.516Z" fill="#d1d1d6" fill-rule="evenodd"/>
          </g>
        </g>
        <path id="Path_1277400" data-name="Path 1277400" d="M41.479,47.838a.9.9,0,0,0-1.234.33l-.917,1.588a.9.9,0,0,0,1.565.9l.917-1.588A.9.9,0,0,0,41.479,47.838Zm6.306-10.922a.9.9,0,0,0,1.234-.331L49.935,35a.9.9,0,0,0-1.565-.9l-.917,1.586A.9.9,0,0,0,47.784,36.916Zm1.234,11.253a.9.9,0,0,0-1.565.9l.917,1.588a.9.9,0,0,0,.783.452.894.894,0,0,0,.451-.122.9.9,0,0,0,.331-1.233ZM40.245,36.585a.9.9,0,1,0,1.565-.9L40.893,34.1a.9.9,0,0,0-1.565.9Zm4.387,12.1a.9.9,0,0,0-.9.9v1.833a.9.9,0,0,0,1.807,0V49.586A.9.9,0,0,0,44.632,48.683Zm0-12.611a.9.9,0,0,0,.9-.9V33.336a.9.9,0,0,0-1.807,0v1.833A.9.9,0,0,0,44.632,36.072Zm1.38,6.306a1.38,1.38,0,1,0-1.38,1.379,1.381,1.381,0,0,0,1.38-1.379Zm1.807,0a3.187,3.187,0,1,1-3.186-3.186A3.19,3.19,0,0,1,47.818,42.377Zm4.556,0a9.913,9.913,0,0,1-15.487,0,9.913,9.913,0,0,1,15.487,0Zm1.788.63a11.721,11.721,0,0,1-19.064,0,1.079,1.079,0,0,1,0-1.259,11.719,11.719,0,0,1,19.064,0A1.079,1.079,0,0,1,54.163,43.007Zm.934-.63A10.465,10.465,0,1,1,44.632,31.912,10.478,10.478,0,0,1,55.1,42.377ZM32.662,39.666H3.8a1.092,1.092,0,0,1-1.092-1.09V12.55H49.087V30.942A12.268,12.268,0,0,0,34.53,35.416H24.456v-.007a.9.9,0,0,0-1.807,0v.007H18.724a.9.9,0,0,0,0,1.807h3.926v.007a.9.9,0,0,0,1.807,0v-.007H33.5a12.106,12.106,0,0,0-.834,2.443ZM2.71,6.055v4.689H49.087V6.055A1.093,1.093,0,0,0,48,4.963H3.8A1.093,1.093,0,0,0,2.71,6.055ZM56.9,42.377a12.272,12.272,0,1,1-24.544,0q0-.456.034-.9H3.8a2.9,2.9,0,0,1-2.9-2.9V6.055a2.9,2.9,0,0,1,2.9-2.9H48a2.9,2.9,0,0,1,2.9,2.9V31.827A12.278,12.278,0,0,1,56.9,42.377ZM24.188,26.048l4.338-2.505-4.338-2.505Zm-1.807.682A1.409,1.409,0,0,0,24.5,27.953l5.52-3.187a1.411,1.411,0,0,0,0-2.446L24.5,19.131a1.413,1.413,0,0,0-2.119,1.224Zm-3.506-3.187A7.023,7.023,0,1,0,25.9,16.519a7.03,7.03,0,0,0-7.023,7.024Zm-1.807,0a8.83,8.83,0,1,0,8.829-8.83,8.839,8.839,0,0,0-8.829,8.83ZM13.36,34.506a.9.9,0,0,0-.9.9v1.82a.9.9,0,0,0,1.807,0V35.41A.9.9,0,0,0,13.36,34.506Zm2.325,0a.9.9,0,0,0-.9.9v1.82a.9.9,0,0,0,1.807,0V35.41A.9.9,0,0,0,15.685,34.506ZM17.154,9.019a1.166,1.166,0,1,1,1.165-1.165A1.165,1.165,0,0,1,17.154,9.019Zm-4.474,0a1.166,1.166,0,1,1,1.165-1.165A1.166,1.166,0,0,1,12.679,9.019ZM7.039,7.853A1.166,1.166,0,1,1,8.2,9.019,1.166,1.166,0,0,1,7.039,7.853Z" fill-rule="evenodd"/>
      </g>
    </g>
  </g>
</svg>
