<svg xmlns="http://www.w3.org/2000/svg" xmlns:xlink="http://www.w3.org/1999/xlink" width="98" height="97.999" viewBox="0 0 98 97.999">
  <defs>
    <clipPath id="clip-path">
      <rect id="Rectangle_412644" data-name="Rectangle 412644" width="56" height="54" transform="translate(404.52 4808.146)" fill="#fff"/>
    </clipPath>
  </defs>
  <g id="Group_1206694" data-name="Group 1206694" transform="translate(-383.25 -4785.695)">
    <g id="Group_1206313" data-name="Group 1206313" transform="translate(-487.862 4508.531)">
      <g id="Group_1188789" data-name="Group 1188789" transform="translate(871.113 277.164)">
        <path id="Path_1243039" data-name="Path 1243039" d="M41.05,0h0a41.05,41.05,0,0,1,0,82.1h0a41.05,41.05,0,0,1,0-82.1Z" transform="translate(7.951 7.949)" fill="#ffa724"/>
        <rect id="Rectangle_400907" data-name="Rectangle 400907" width="88.438" height="88.437" rx="44.218" transform="translate(4.782 4.781)" fill="none"/>
        <g id="Group_1098742" data-name="Group 1098742" transform="translate(0)">
          <g id="Rectangle_400898" data-name="Rectangle 400898" transform="translate(0)" fill="none" stroke="#fff" stroke-width="2" opacity="0.859">
            <rect width="98" height="97.999" rx="48.999" stroke="none"/>
            <rect x="1" y="1" width="96" height="95.999" rx="47.999" fill="none"/>
          </g>
          <g id="Rectangle_400907-2" data-name="Rectangle 400907" transform="translate(0)" fill="none" stroke="#0f1f33" stroke-linecap="round" stroke-width="2">
            <rect width="98" height="97.999" rx="48.999" stroke="none"/>
            <rect x="1" y="1" width="96" height="95.999" rx="47.999" fill="none"/>
          </g>
        </g>
      </g>
    </g>
    <g id="Mask_Group_1099521" data-name="Mask Group 1099521" clip-path="url(#clip-path)">
      <g id="Social_Media" data-name="Social Media" transform="translate(405.52 4808.146)">
        <path id="Path_1277846" data-name="Path 1277846" d="M40.5,43.875H39.375a2.25,2.25,0,0,1,0,4.5H38.25a2.25,2.25,0,0,1,0,4.5H23.422a6.75,6.75,0,0,1-3.746-1.125L18,50.625v-13.5l2.621-1.969a8.268,8.268,0,0,0,.754-.63,9.09,9.09,0,0,0,2.081-2.914l2.689-6.052A1.688,1.688,0,0,1,28.7,24.9l.326.247a4.5,4.5,0,0,1,1.62,4.838L29.25,34.875H39.375a2.25,2.25,0,1,1,0,4.5H40.5a2.25,2.25,0,0,1,0,4.5Z" fill="#f6ccaf"/>
        <path id="Path_1277847" data-name="Path 1277847" d="M42.75,41.625a2.25,2.25,0,0,1-.3,1.125,2.036,2.036,0,0,1-.36.461,2.25,2.25,0,0,1-1.586.664H39.375a2.25,2.25,0,0,1,1.946,3.375,2.037,2.037,0,0,1-.36.461,2.25,2.25,0,0,1-1.586.664H38.25a2.25,2.25,0,0,1,2.25,2.25H26.8A6.75,6.75,0,0,1,23.051,49.5l-.169-.112a3.375,3.375,0,0,1-1.507-2.824V34.526a9.09,9.09,0,0,0,2.081-2.914l2.689-6.052A1.688,1.688,0,0,1,28.7,24.9l.326.247a4.5,4.5,0,0,1,1.62,4.838L29.25,34.875H39.375a2.25,2.25,0,0,1,1.946,3.375,2.036,2.036,0,0,1-.36.461,2.25,2.25,0,0,1-1.586.664H40.5A2.25,2.25,0,0,1,42.75,41.625Z" fill="#ffdec7"/>
        <path id="Path_1277848" data-name="Path 1277848" d="M21.375,4.5V18a3.116,3.116,0,0,1-.2,1.125A3.375,3.375,0,0,1,18,21.375H4.5A3.375,3.375,0,0,1,1.125,18V4.5A3.375,3.375,0,0,1,4.5,1.125H18A3.375,3.375,0,0,1,21.375,4.5Z" fill="#db5669"/>
        <path id="Path_1277849" data-name="Path 1277849" d="M21.375,4.5V18a3.116,3.116,0,0,1-.2,1.125H7.875A3.375,3.375,0,0,1,4.5,15.75V2.25a3.116,3.116,0,0,1,.2-1.125H18A3.375,3.375,0,0,1,21.375,4.5Z" fill="#f26674"/>
        <path id="Path_1277850" data-name="Path 1277850" d="M52.875,4.5V18a3.116,3.116,0,0,1-.2,1.125,3.375,3.375,0,0,1-3.172,2.25H36A3.375,3.375,0,0,1,32.625,18V4.5A3.375,3.375,0,0,1,36,1.125H49.5A3.375,3.375,0,0,1,52.875,4.5Z" fill="#6fabe6"/>
        <path id="Path_1277851" data-name="Path 1277851" d="M52.875,4.5V18a3.116,3.116,0,0,1-.2,1.125h-13.3A3.375,3.375,0,0,1,36,15.75V2.25a3.116,3.116,0,0,1,.2-1.125H49.5A3.375,3.375,0,0,1,52.875,4.5Z" fill="#82bcf4"/>
        <path id="Path_1277852" data-name="Path 1277852" d="M18,37.125v13.5a2.25,2.25,0,0,1-2.25,2.25H10.125v-18H15.75A2.25,2.25,0,0,1,18,37.125Z" fill="#6fabe6"/>
        <path id="Path_1277853" data-name="Path 1277853" d="M18,37.125v13.5a4.5,4.5,0,0,1-4.5-4.5V34.875h2.25A2.25,2.25,0,0,1,18,37.125Z" fill="#82bcf4"/>
        <path id="Path_1277854" data-name="Path 1277854" d="M14.625,11.25a3.487,3.487,0,0,1-.146.979,3.374,3.374,0,1,1-4.207-4.208,3.488,3.488,0,0,1,.979-.146,3.375,3.375,0,0,1,3.375,3.375Z" fill="#dad7e5"/>
        <path id="Path_1277855" data-name="Path 1277855" d="M14.625,11.25a3.487,3.487,0,0,1-.146.979,3.375,3.375,0,0,1-.36.788,3.274,3.274,0,0,1-1.744.484A3.375,3.375,0,0,1,9,10.125a3.274,3.274,0,0,1,.484-1.744,3.375,3.375,0,0,1,.788-.36,3.488,3.488,0,0,1,.979-.146,3.375,3.375,0,0,1,3.375,3.375Z" fill="#edebf2"/>
        <path id="Path_1277856" data-name="Path 1277856" d="M22.5,18V4.5A4.5,4.5,0,0,0,18,0H4.5A4.5,4.5,0,0,0,0,4.5V18a4.5,4.5,0,0,0,4.5,4.5H18A4.5,4.5,0,0,0,22.5,18ZM2.25,18V4.5A2.25,2.25,0,0,1,4.5,2.25H18A2.25,2.25,0,0,1,20.25,4.5V18A2.25,2.25,0,0,1,18,20.25H4.5A2.25,2.25,0,0,1,2.25,18Z"/>
        <path id="Path_1277857" data-name="Path 1277857" d="M49.5,0H36a4.5,4.5,0,0,0-4.5,4.5V18A4.5,4.5,0,0,0,36,22.5H49.5A4.5,4.5,0,0,0,54,18V4.5A4.5,4.5,0,0,0,49.5,0Zm2.25,18a2.25,2.25,0,0,1-2.25,2.25H36A2.25,2.25,0,0,1,33.75,18V4.5A2.25,2.25,0,0,1,36,2.25H49.5A2.25,2.25,0,0,1,51.75,4.5Z"/>
        <path id="Path_1277858" data-name="Path 1277858" d="M42.3,38.779a3.308,3.308,0,0,0,.45-1.654,3.375,3.375,0,0,0-3.375-3.375H30.746l.99-3.465A5.625,5.625,0,0,0,29.7,24.244L29.374,24a2.824,2.824,0,0,0-4.264,1.125l-2.689,6.052a7.875,7.875,0,0,1-2.475,3.1l-1.372,1.035A3.375,3.375,0,0,0,15.75,33.75H10.125A1.125,1.125,0,0,0,9,34.875v18A1.125,1.125,0,0,0,10.125,54H15.75a3.375,3.375,0,0,0,2.869-1.609l.427.281A7.875,7.875,0,0,0,23.422,54H38.25a3.375,3.375,0,0,0,3.375-3.375,3.308,3.308,0,0,0-.45-1.654,3.375,3.375,0,0,0,1.575-2.846,3.307,3.307,0,0,0-.45-1.654,3.375,3.375,0,0,0,0-5.693ZM16.875,50.625A1.125,1.125,0,0,1,15.75,51.75h-4.5V36h4.5a1.125,1.125,0,0,1,1.125,1.125ZM38.25,51.75H23.422a5.625,5.625,0,0,1-3.172-.945l-1.125-.788V37.642l2.183-1.631a10.192,10.192,0,0,0,3.172-3.994l2.689-6.041a.529.529,0,0,1,.371-.315.517.517,0,0,1,.484.09L28.35,26a3.375,3.375,0,0,1,1.215,3.623l-1.44,4.95A1.121,1.121,0,0,0,29.2,36H39.33a1.125,1.125,0,0,1,0,2.25h-6.7a1.125,1.125,0,1,0,0,2.25H40.5a1.125,1.125,0,0,1,0,2.25H32.625a1.125,1.125,0,1,0,0,2.25h6.75a1.125,1.125,0,0,1,0,2.25h-6.75a1.125,1.125,0,1,0,0,2.25H38.25a1.125,1.125,0,0,1,0,2.25Z"/>
        <path id="Path_1277859" data-name="Path 1277859" d="M11.25,6.75a4.5,4.5,0,1,0,4.5,4.5A4.5,4.5,0,0,0,11.25,6.75Zm0,6.75a2.25,2.25,0,1,1,2.25-2.25A2.25,2.25,0,0,1,11.25,13.5Z"/>
        <path id="Path_1277860" data-name="Path 1277860" d="M17.674,4.826a1.125,1.125,0,0,0-1.226-.236,1.294,1.294,0,0,0-.371.236,1.127,1.127,0,1,0,1.924.8A1.181,1.181,0,0,0,17.674,4.826Z"/>
        <path id="Path_1277861" data-name="Path 1277861" d="M46.125,4.5H45A4.5,4.5,0,0,0,40.5,9v1.125H39.375a1.125,1.125,0,0,0,0,2.25H40.5v4.5a1.125,1.125,0,1,0,2.25,0v-4.5H45a1.125,1.125,0,0,0,0-2.25H42.75V9A2.25,2.25,0,0,1,45,6.75h1.125a1.125,1.125,0,1,0,0-2.25Z"/>
      </g>
    </g>
  </g>
</svg>
