<svg xmlns="http://www.w3.org/2000/svg" xmlns:xlink="http://www.w3.org/1999/xlink" width="98" height="97.999" viewBox="0 0 98 97.999">
  <defs>
    <clipPath id="clip-path">
      <rect id="Rectangle_412418" data-name="Rectangle 412418" width="56" height="54" transform="translate(1133.27 4440)" fill="#fff"/>
    </clipPath>
  </defs>
  <g id="Group_1206357" data-name="Group 1206357" transform="translate(-1112 -4417.549)">
    <g id="Group_1205868" data-name="Group 1205868" transform="translate(240.888 4140.385)">
      <g id="Group_1188789" data-name="Group 1188789" transform="translate(871.113 277.164)">
        <path id="Path_1243039" data-name="Path 1243039" d="M41.05,0h0a41.05,41.05,0,0,1,0,82.1h0a41.05,41.05,0,0,1,0-82.1Z" transform="translate(7.951 7.949)" fill="#ffa724"/>
        <rect id="Rectangle_400907" data-name="Rectangle 400907" width="88.438" height="88.437" rx="44.218" transform="translate(4.782 4.781)" fill="none"/>
        <g id="Group_1098742" data-name="Group 1098742" transform="translate(0)">
          <g id="Rectangle_400898" data-name="Rectangle 400898" transform="translate(0)" fill="none" stroke="#fff" stroke-width="2" opacity="0.859">
            <rect width="98" height="97.999" rx="48.999" stroke="none"/>
            <rect x="1" y="1" width="96" height="95.999" rx="47.999" fill="none"/>
          </g>
          <g id="Rectangle_400907-2" data-name="Rectangle 400907" transform="translate(0)" fill="none" stroke="#0f1f33" stroke-linecap="round" stroke-width="2">
            <rect width="98" height="97.999" rx="48.999" stroke="none"/>
            <rect x="1" y="1" width="96" height="95.999" rx="47.999" fill="none"/>
          </g>
        </g>
      </g>
    </g>
    <g id="Mask_Group_1099599" data-name="Mask Group 1099599" clip-path="url(#clip-path)">
      <g id="comment_10034026" transform="translate(1133.843 4439.128)">
        <path id="Path_1276701" data-name="Path 1276701" d="M27,24.387h6.968l5.226,5.226V24.387h5.226a1.747,1.747,0,0,0,1.742-1.742V11.323a1.747,1.747,0,0,0-1.742-1.742H27a1.747,1.747,0,0,0-1.742,1.742V22.645A1.747,1.747,0,0,0,27,24.387Z" fill="#ccdcff"/>
        <path id="Path_1276702" data-name="Path 1276702" d="M37.452,9.581V20.032a1.747,1.747,0,0,1-1.742,1.742H25.258V11.323A1.747,1.747,0,0,1,27,9.581Z" fill="#ccdcff"/>
        <path id="Path_1276703" data-name="Path 1276703" d="M37.452,9.581V20.032a1.747,1.747,0,0,1-1.742,1.742H25.258V11.323A1.747,1.747,0,0,1,27,9.581Z" fill="#e6edff"/>
        <path id="Path_1276704" data-name="Path 1276704" d="M40.456,17.672l-3.623,3.667L33.21,17.672l-.6-.61a2.613,2.613,0,0,1,0-3.667,2.529,2.529,0,0,1,3.623,0l.6.61.6-.61a2.544,2.544,0,0,1,3.623,0,2.613,2.613,0,0,1,0,3.667Z" fill="#e66d67"/>
        <circle id="Ellipse_12481" data-name="Ellipse 12481" cx="4.355" cy="4.355" r="4.355" transform="translate(37.452 33.968)" fill="#ffc9b9"/>
        <path id="Path_1276705" data-name="Path 1276705" d="M33.968,54.871V51.387a5.23,5.23,0,0,1,5.226-5.226h4.355a5.23,5.23,0,0,1,5.226,5.226v3.484" fill="#7390bf"/>
        <circle id="Ellipse_12482" data-name="Ellipse 12482" cx="4.355" cy="4.355" r="4.355" transform="translate(9.581 33.968)" fill="#ffc9b9"/>
        <path id="Path_1276706" data-name="Path 1276706" d="M6.1,54.871V51.387a5.23,5.23,0,0,1,5.226-5.226h4.355A5.23,5.23,0,0,1,20.9,51.387v3.484" fill="#7390bf"/>
        <path id="Path_1276707" data-name="Path 1276707" d="M33.1,19.161H21.774l-5.226,6.1v-6.1H11.323a1.747,1.747,0,0,1-1.742-1.742V3.484a1.747,1.747,0,0,1,1.742-1.742H33.1a1.747,1.747,0,0,1,1.742,1.742V17.419A1.747,1.747,0,0,1,33.1,19.161Z" fill="#ccdcff"/>
        <path id="Path_1276708" data-name="Path 1276708" d="M16.156,8.083H19.64V15.05H16.156Z" fill="#4575ba"/>
        <path id="Path_1276709" data-name="Path 1276709" d="M19.64,13.308l2.177,1.742h4.921a.87.87,0,0,0,.862-.732l.636-3.824a1.338,1.338,0,0,0-1.315-1.55H24.857l.671-2.683a1.032,1.032,0,0,0-1.96-.636L22.68,7.847a1.742,1.742,0,0,1-1.62,1.1H19.623" fill="#ffc9b9"/>
        <circle id="Ellipse_12483" data-name="Ellipse 12483" cx="4.355" cy="4.355" r="4.355" transform="translate(23.516 33.968)" fill="#ffc9b9"/>
        <path id="Path_1276710" data-name="Path 1276710" d="M20.032,54.871V51.387a5.23,5.23,0,0,1,5.226-5.226h4.355a5.23,5.23,0,0,1,5.226,5.226v3.484" fill="#647da6"/>
        <path id="Path_1276711" data-name="Path 1276711" d="M13.935,43.548A5.226,5.226,0,1,0,8.71,38.323,5.23,5.23,0,0,0,13.935,43.548Zm0-8.71a3.484,3.484,0,1,1-3.484,3.484A3.483,3.483,0,0,1,13.935,34.839Z"/>
        <path id="Path_1276712" data-name="Path 1276712" d="M6.968,51.387a4.356,4.356,0,0,1,4.355-4.355h4.355a4.333,4.333,0,0,1,2.9,1.106l1.158-1.3a6.074,6.074,0,0,0-4.067-1.55H11.314a6.1,6.1,0,0,0-6.1,6.1v3.484H6.959V51.387Z"/>
        <path id="Path_1276713" data-name="Path 1276713" d="M47.032,38.323a5.226,5.226,0,1,0-5.226,5.226A5.23,5.23,0,0,0,47.032,38.323Zm-8.71,0a3.484,3.484,0,1,1,3.484,3.484A3.483,3.483,0,0,1,38.323,38.323Z"/>
        <path id="Path_1276714" data-name="Path 1276714" d="M39.194,45.29a6.09,6.09,0,0,0-4.067,1.55l1.158,1.3a4.35,4.35,0,0,1,2.9-1.106H43.54a4.356,4.356,0,0,1,4.355,4.355v3.484h1.742V51.387a6.1,6.1,0,0,0-6.1-6.1H39.185Z"/>
        <path id="Path_1276715" data-name="Path 1276715" d="M45.29,11.323V22.645a.874.874,0,0,1-.871.871H39.194a.874.874,0,0,0-.871.871v3.127l-3.736-3.736a.862.862,0,0,0-.618-.253H27a.874.874,0,0,1-.871-.871V20.912H24.387v1.742A2.621,2.621,0,0,0,27,25.267h6.611l4.973,4.973a.877.877,0,0,0,.618.253.73.73,0,0,0,.331-.07.873.873,0,0,0,.54-.8V25.267h4.355a2.621,2.621,0,0,0,2.613-2.613V11.323A2.621,2.621,0,0,0,44.428,8.71H36.589v1.742h7.839a.874.874,0,0,1,.871.871Z"/>
        <path id="Path_1276716" data-name="Path 1276716" d="M39.829,17.062l-3,3.04-.671-.679-1.237,1.228,1.289,1.306a.862.862,0,0,0,1.237,0l3.623-3.667-.618-.61.618.61.6-.61a3.5,3.5,0,0,0,0-4.895,3.407,3.407,0,0,0-4.86,0l-.6.61,1.237,1.228.6-.61a1.675,1.675,0,0,1,1.193-.505,1.64,1.64,0,0,1,1.193.505,1.756,1.756,0,0,1,0,2.447l-.6.61Z"/>
        <path id="Path_1276717" data-name="Path 1276717" d="M11.323,20.032h4.355v5.226a.877.877,0,0,0,.566.819.9.9,0,0,0,.3.052.852.852,0,0,0,.662-.3l4.965-5.792H33.1a2.621,2.621,0,0,0,2.613-2.613V3.484A2.621,2.621,0,0,0,33.1.871H11.323A2.621,2.621,0,0,0,8.71,3.484V17.419A2.621,2.621,0,0,0,11.323,20.032ZM10.452,3.484a.874.874,0,0,1,.871-.871H33.1a.874.874,0,0,1,.871.871V17.419a.874.874,0,0,1-.871.871H21.774a.881.881,0,0,0-.662.3l-3.693,4.311V19.161a.874.874,0,0,0-.871-.871H11.323a.874.874,0,0,1-.871-.871Z"/>
        <path id="Path_1276718" data-name="Path 1276718" d="M16.156,15.913H19.64a.866.866,0,0,0,.862-.81l.775.618a.888.888,0,0,0,.54.192h4.921a1.732,1.732,0,0,0,1.716-1.455l.636-3.824a2.194,2.194,0,0,0-2.16-2.561h-.949l.4-1.6a1.889,1.889,0,0,0-.993-2.16,1.936,1.936,0,0,0-1.524-.078A1.91,1.91,0,0,0,22.776,5.3l-.888,2.221a.871.871,0,0,1-.81.549h-.566A.874.874,0,0,0,19.64,7.2H16.156a.874.874,0,0,0-.871.871v6.968a.874.874,0,0,0,.871.871Zm4.355-6.1h.566a2.608,2.608,0,0,0,2.43-1.646L24.4,5.949a.141.141,0,0,1,.087-.087.218.218,0,0,1,.131,0,.164.164,0,0,1,.087.183L24.03,8.727a.884.884,0,0,0,.157.749.863.863,0,0,0,.688.331h2.064a.457.457,0,0,1,.453.531l-.636,3.824H22.14l-1.611-1.289V9.807Zm-3.484-.871h1.742v5.226H17.027Z"/>
        <path id="Path_1276719" data-name="Path 1276719" d="M33.1,38.323a5.226,5.226,0,1,0-5.226,5.226A5.23,5.23,0,0,0,33.1,38.323Zm-8.71,0a3.484,3.484,0,1,1,3.484,3.484A3.483,3.483,0,0,1,24.387,38.323Z"/>
        <path id="Path_1276720" data-name="Path 1276720" d="M35.71,54.871V51.387a6.1,6.1,0,0,0-6.1-6.1H25.258a6.1,6.1,0,0,0-6.1,6.1v3.484H20.9V51.387a4.356,4.356,0,0,1,4.355-4.355h4.355a4.356,4.356,0,0,1,4.355,4.355v3.484Z"/>
      </g>
    </g>
  </g>
</svg>
