<svg xmlns="http://www.w3.org/2000/svg" xmlns:xlink="http://www.w3.org/1999/xlink" width="98" height="97.998" viewBox="0 0 98 97.998">
  <defs>
    <clipPath id="clip-path">
      <rect id="Rectangle_412490" data-name="Rectangle 412490" width="56" height="54" transform="translate(7952.251 -9131.216)" fill="#fff"/>
    </clipPath>
  </defs>
  <g id="Group_1206395" data-name="Group 1206395" transform="translate(-7930.981 9153.666)">
    <g id="Group_1206113" data-name="Group 1206113" transform="translate(7059.869 -9430.83)">
      <g id="Group_1188789" data-name="Group 1188789" transform="translate(871.113 277.164)">
        <path id="Path_1243039" data-name="Path 1243039" d="M41.05,0h0a41.05,41.05,0,0,1,0,82.1h0a41.05,41.05,0,0,1,0-82.1Z" transform="translate(7.951 7.949)" fill="#ffa724"/>
        <rect id="Rectangle_400907" data-name="Rectangle 400907" width="88.438" height="88.437" rx="44.218" transform="translate(4.782 4.781)" fill="none"/>
        <g id="Group_1098742" data-name="Group 1098742" transform="translate(0)">
          <g id="Rectangle_400898" data-name="Rectangle 400898" transform="translate(0)" fill="none" stroke="#fff" stroke-width="2" opacity="0.859">
            <rect width="98" height="97.999" rx="48.999" stroke="none"/>
            <rect x="1" y="1" width="96" height="95.999" rx="47.999" fill="none"/>
          </g>
          <g id="Rectangle_400907-2" data-name="Rectangle 400907" transform="translate(0)" fill="none" stroke="#0f1f33" stroke-linecap="round" stroke-width="2">
            <rect width="98" height="97.999" rx="48.999" stroke="none"/>
            <rect x="1" y="1" width="96" height="95.999" rx="47.999" fill="none"/>
          </g>
        </g>
      </g>
    </g>
    <g id="Mask_Group_1099611" data-name="Mask Group 1099611" clip-path="url(#clip-path)">
      <g id="geography_10748309" transform="translate(7953.25 -9131.216)">
        <g id="Group_1206399" data-name="Group 1206399">
          <path id="Path_1276977" data-name="Path 1276977" d="M27.488,42.786v7.221H22.3V42.786a21.3,21.3,0,0,0,2.595.156A22,22,0,0,0,27.488,42.786Z" fill="#2a4a60" fill-rule="evenodd"/>
          <path id="Path_1276978" data-name="Path 1276978" d="M24.89,38.859A16.775,16.775,0,1,0,8.118,22.083,16.806,16.806,0,0,0,24.89,38.859Z" fill="#3d9ae2" fill-rule="evenodd"/>
          <g id="Group_1206398" data-name="Group 1206398">
            <path id="Path_1276979" data-name="Path 1276979" d="M17.067,36.924A16.846,16.846,0,0,1,9.477,28.71a27.386,27.386,0,0,1,3.064-5.159C14.165,21.449,15,26,18.784,26.236c7.591.669,5.155,5.074.486,8.06A5.458,5.458,0,0,0,17.067,36.924Z" fill="#91dc5a" fill-rule="evenodd"/>
            <path id="Path_1276980" data-name="Path 1276980" d="M39.587,13.992A16.783,16.783,0,0,1,36.1,34.558a39.4,39.4,0,0,1-1.9-7.932c-.62-5.056-2.088-.116-3.241.315-1.468.551-8.185-4.208-4.779-6.065.556-.3,2.094-.333,2.074-2.224-.023-2.334,3.53-2.963,5.995-3.571Z" fill="#91dc5a" fill-rule="evenodd"/>
            <path id="Path_1276981" data-name="Path 1276981" d="M24.89,5.309a16.928,16.928,0,0,1,3.782.426c-2.616,3.386-4.544,5.517-8.868,7.385-5.5,2.375-4.648,6.143-7.3,6.557a9.308,9.308,0,0,1-4.165-.327A16.78,16.78,0,0,1,24.89,5.309Z" fill="#91dc5a" fill-rule="evenodd"/>
          </g>
          <path id="Path_1276982" data-name="Path 1276982" d="M20.934,17.558a5.988,5.988,0,0,1,.605,6.916,56.549,56.549,0,0,1-3.614,4.895.929.929,0,0,1-1.468,0,56.394,56.394,0,0,1-3.618-4.895,5.985,5.985,0,0,1,.609-6.916A5.114,5.114,0,0,1,20.934,17.558Z" fill="#ff4155" fill-rule="evenodd"/>
          <path id="Path_1276983" data-name="Path 1276983" d="M17.189,23.468a2.433,2.433,0,1,0-2.433-2.433,2.437,2.437,0,0,0,2.433,2.433Z" fill="#fff" fill-rule="evenodd"/>
          <path id="Path_1276984" data-name="Path 1276984" d="M21.148,47.594h7.486a2.559,2.559,0,0,1,2.555,2.551v1.81a.749.749,0,0,1-.745.745H19.338a.749.749,0,0,1-.745-.745v-1.81A2.559,2.559,0,0,1,21.148,47.594Z" fill="#3a6584" fill-rule="evenodd"/>
          <path id="Path_1276985" data-name="Path 1276985" d="M17.554,29.657a.949.949,0,0,1-.365.07.9.9,0,0,1-.733-.36,56.393,56.393,0,0,1-3.618-4.895,5.985,5.985,0,0,1,.609-6.916,5.027,5.027,0,0,1,4.1-1.616,4.967,4.967,0,0,0-3.377,1.616,5.985,5.985,0,0,0-.609,6.916,56.175,56.175,0,0,0,3.618,4.895.9.9,0,0,0,.371.29Z" fill="#e63b4d" fill-rule="evenodd"/>
          <path id="Path_1276986" data-name="Path 1276986" d="M17.189,18.6a2.2,2.2,0,0,1,.313.02,2.432,2.432,0,0,0,0,4.824,2.2,2.2,0,0,1-.313.02,2.432,2.432,0,1,1,0-4.864Z" fill="#e6e6e6" fill-rule="evenodd"/>
        </g>
        <path id="Path_1276987" data-name="Path 1276987" d="M8.52,29.185a18,18,0,0,0,7.98,8.641.934.934,0,0,0,.11.064l.053.022a17.853,17.853,0,0,0,20.126-2.49.818.818,0,0,0,.162-.144,17.864,17.864,0,0,0,3.687-21.771.85.85,0,0,0-.1-.179A17.964,17.964,0,0,0,29.022,4.633a.831.831,0,0,0-.141-.033,17.888,17.888,0,0,0-20.42,24.45.846.846,0,0,0,.059.134Zm8.574-12.549h0a4.249,4.249,0,0,1,3.178,1.375,5.219,5.219,0,0,1,.521,6.033c-.35.583-.794,1.219-1.281,1.876a.923.923,0,0,0-.061.082c-.507.68-1.059,1.383-1.6,2.074-.23.292-.456.58-.671.856a.088.088,0,0,1-.084.042.084.084,0,0,1-.081-.039c-.229-.3-.467-.6-.71-.907a42.888,42.888,0,0,1-2.9-3.985,4.985,4.985,0,0,1-.326-.65.75.75,0,0,0-.038-.091,5.329,5.329,0,0,1-.166-3.351.81.81,0,0,0,.041-.139,4.845,4.845,0,0,1,1.008-1.8,4.248,4.248,0,0,1,3.175-1.375Zm-5.764,6.89a26.562,26.562,0,0,0-1.945,3.122,16.139,16.139,0,0,1-.667-4.6,16.345,16.345,0,0,1,.092-1.726,10.317,10.317,0,0,0,2.152.234h.085a7.087,7.087,0,0,0,.283,2.972Zm-1.14,5.263a28.693,28.693,0,0,1,1.983-3.525c.759,1.2,1.8,2.521,2.806,3.805q.361.459.707.9a1.792,1.792,0,0,0,2.825,0c.216-.277.441-.563.669-.853.448-.571.9-1.149,1.336-1.72.944.228,2.125.673,2.287,1.5.231,1.182-1.419,3.169-4.014,4.838a5.628,5.628,0,0,0-2.154,2.232,16.317,16.317,0,0,1-6.443-7.175Zm26.5,4.38a37.163,37.163,0,0,1-1.468-6.609c-.2-1.645-.524-2.787-1.441-3.007-.961-.231-1.6.718-2.219,1.636a6.047,6.047,0,0,1-.765,1h-.007a5.662,5.662,0,0,1-2.361-1.131,6.117,6.117,0,0,1-2.256-2.5c-.133-.4-.1-.693.466-1a2.814,2.814,0,0,1,.3-.109,2.81,2.81,0,0,0,2.247-2.9c-.015-1.5,2.641-2.131,4.776-2.639.226-.054.447-.107.66-.159l4.775-.975A16.177,16.177,0,0,1,36.693,33.17Zm1.82-19.931-4.244.867-.034.007-.663.16c-2.573.614-6.1,1.454-6.07,4.3.009.879-.367,1.043-1.088,1.28a3.444,3.444,0,0,0-.58.23,2.42,2.42,0,0,0-1.116,3.375,8.932,8.932,0,0,0,3.062,3.2c.89.589,2.542,1.517,3.609,1.12a4.012,4.012,0,0,0,1.574-1.643c.107-.158.248-.368.384-.554a10.365,10.365,0,0,1,.2,1.189,39.884,39.884,0,0,0,1.781,7.687,16.171,16.171,0,0,1-17.208,2.3,3.86,3.86,0,0,1,1.48-1.548c.021-.011.041-.023.061-.036,3.382-2.166,5.172-4.633,4.787-6.6-.238-1.217-1.206-2.1-2.88-2.63.243-.352.467-.7.668-1.029a6.942,6.942,0,0,0-.711-8.023A5.893,5.893,0,0,0,17.852,15a10.493,10.493,0,0,1,2.236-1.284c4.466-1.93,6.547-4.178,9-7.324a16.243,16.243,0,0,1,9.423,6.846ZM24.923,5.845a16.32,16.32,0,0,1,2.318.167,18.275,18.275,0,0,1-7.823,6.154,10.77,10.77,0,0,0-4.245,3.091,5.782,5.782,0,0,0-2.508,1.628,6.406,6.406,0,0,0-1.2,1.966,8.542,8.542,0,0,1-2.392-.2A16.231,16.231,0,0,1,24.923,5.845ZM17.1,24.3a3.316,3.316,0,1,0-3.316-3.316A3.32,3.32,0,0,0,17.1,24.3Zm0-4.946a1.63,1.63,0,1,1-1.63,1.63A1.631,1.631,0,0,1,17.1,19.353ZM40.512,37.636A22.047,22.047,0,0,0,24.923,0a.843.843,0,1,0,0,1.685,20.361,20.361,0,0,1,2.548,40.561h-.013a21.241,21.241,0,0,1-5.071,0l-.03,0a20.2,20.2,0,0,1-9.171-3.558.843.843,0,1,0-.972,1.377,21.893,21.893,0,0,0,9.229,3.754v3.308h-.326a3.439,3.439,0,0,0-3.435,3.435V52.4a1.6,1.6,0,0,0,1.6,1.6h11.29a1.6,1.6,0,0,0,1.6-1.6v-1.84a3.44,3.44,0,0,0-3.438-3.435H28.4V43.82A21.887,21.887,0,0,0,40.512,37.636ZM30.478,50.563v1.752H19.368V50.563a1.751,1.751,0,0,1,1.749-1.749h7.609A1.752,1.752,0,0,1,30.478,50.563Zm-3.761-3.435H23.129V44.02c.594.047,1.192.073,1.794.073s1.2-.025,1.794-.073Z"/>
      </g>
    </g>
  </g>
</svg>
