<svg xmlns="http://www.w3.org/2000/svg" xmlns:xlink="http://www.w3.org/1999/xlink" width="98" height="97.998" viewBox="0 0 98 97.998">
  <defs>
    <clipPath id="clip-path">
      <rect id="Rectangle_412457" data-name="Rectangle 412457" width="56" height="54" transform="translate(2045.519 -9347.454)" fill="#fff"/>
    </clipPath>
  </defs>
  <g id="Group_1206388" data-name="Group 1206388" transform="translate(-2024.25 9369.904)">
    <g id="Group_1205965" data-name="Group 1205965" transform="translate(1153.137 -9647.068)">
      <g id="Group_1188789" data-name="Group 1188789" transform="translate(871.113 277.164)">
        <path id="Path_1243039" data-name="Path 1243039" d="M41.05,0h0a41.05,41.05,0,0,1,0,82.1h0a41.05,41.05,0,0,1,0-82.1Z" transform="translate(7.951 7.949)" fill="#ffa724"/>
        <rect id="Rectangle_400907" data-name="Rectangle 400907" width="88.438" height="88.437" rx="44.218" transform="translate(4.782 4.781)" fill="none"/>
        <g id="Group_1098742" data-name="Group 1098742" transform="translate(0)">
          <g id="Rectangle_400898" data-name="Rectangle 400898" transform="translate(0)" fill="none" stroke="#fff" stroke-width="2" opacity="0.859">
            <rect width="98" height="97.999" rx="48.999" stroke="none"/>
            <rect x="1" y="1" width="96" height="95.999" rx="47.999" fill="none"/>
          </g>
          <g id="Rectangle_400907-2" data-name="Rectangle 400907" transform="translate(0)" fill="none" stroke="#0f1f33" stroke-linecap="round" stroke-width="2">
            <rect width="98" height="97.999" rx="48.999" stroke="none"/>
            <rect x="1" y="1" width="96" height="95.999" rx="47.999" fill="none"/>
          </g>
        </g>
      </g>
    </g>
    <g id="Mask_Group_1099601" data-name="Mask Group 1099601" clip-path="url(#clip-path)">
      <g id="solution_16139766" transform="translate(2046.414 -9347.559)">
        <g id="Group_1206368" data-name="Group 1206368">
          <g id="Group_1206364" data-name="Group 1206364">
            <path id="Path_1276744" data-name="Path 1276744" d="M46.932,41.991H20.074a1.467,1.467,0,0,1-1.464-1.464V9.152a1.415,1.415,0,0,1,.429-1.036l6.735-6.735A1.415,1.415,0,0,1,26.809.953H46.932A1.467,1.467,0,0,1,48.4,2.417V40.527A1.468,1.468,0,0,1,46.932,41.991Z" fill="#eff4f7" fill-rule="evenodd"/>
            <g id="Group_1206363" data-name="Group 1206363">
              <path id="Path_1276745" data-name="Path 1276745" d="M25.773,1.382,19.038,8.117a1.463,1.463,0,0,0-.3.429H24.88A1.325,1.325,0,0,0,26.2,7.223V1.08a1.463,1.463,0,0,0-.429.3Z" fill="#e2e3e3" fill-rule="evenodd"/>
              <path id="Path_1276746" data-name="Path 1276746" d="M46.932,41.991H20.074a1.467,1.467,0,0,1-1.464-1.464V40.31H45.242a1.467,1.467,0,0,0,1.464-1.464V.953h.227A1.467,1.467,0,0,1,48.4,2.417V40.527A1.468,1.468,0,0,1,46.932,41.991Z" fill="#e2e3e3" fill-rule="evenodd"/>
            </g>
          </g>
          <g id="Group_1206365" data-name="Group 1206365">
            <circle id="Ellipse_12484" data-name="Ellipse 12484" cx="1.65" cy="1.65" r="1.65" transform="translate(21.287 17.963) rotate(-45)" fill="#fc685b"/>
            <path id="Path_1276747" data-name="Path 1276747" d="M23.625,16.312a1.648,1.648,0,0,1,1.386.754,1.651,1.651,0,0,0-2.325,2.254,1.651,1.651,0,0,1,.939-3.008Z" fill="#f35244" fill-rule="evenodd"/>
            <circle id="Ellipse_12485" data-name="Ellipse 12485" cx="1.651" cy="1.651" r="1.651" transform="translate(28.56 7.749)" fill="#ffda2d"/>
            <path id="Path_1276748" data-name="Path 1276748" d="M30.211,7.749A1.648,1.648,0,0,1,31.6,8.5a1.651,1.651,0,0,0-2.325,2.254,1.651,1.651,0,0,1,.939-3.008Z" fill="#ffc700" fill-rule="evenodd"/>
            <circle id="Ellipse_12486" data-name="Ellipse 12486" cx="1.65" cy="1.65" r="1.65" transform="translate(34.897 12.453) rotate(-9.208)" fill="#72d561"/>
            <path id="Path_1276749" data-name="Path 1276749" d="M36.8,12.162a1.65,1.65,0,0,1,1.386.754,1.651,1.651,0,0,0-2.325,2.254,1.651,1.651,0,0,1,.939-3.008Z" fill="#57ca5a" fill-rule="evenodd"/>
            <path id="Path_1276750" data-name="Path 1276750" d="M22.16,22.488H25.09a.421.421,0,0,1,.42.42v5.728a.421.421,0,0,1-.42.42H22.16a.421.421,0,0,1-.42-.42V22.908a.422.422,0,0,1,.42-.42Z" fill="#fc685b" fill-rule="evenodd"/>
            <path id="Path_1276751" data-name="Path 1276751" d="M24.616,22.488h.474a.421.421,0,0,1,.42.42v5.728a.421.421,0,0,1-.42.42H22.16a.421.421,0,0,1-.42-.42v-.552H24.2a.421.421,0,0,0,.42-.42Z" fill="#f35244" fill-rule="evenodd"/>
            <path id="Path_1276752" data-name="Path 1276752" d="M28.745,15.209h2.931a.421.421,0,0,1,.42.42V28.637a.421.421,0,0,1-.42.42H28.745a.421.421,0,0,1-.42-.42V15.629A.421.421,0,0,1,28.745,15.209Z" fill="#ffda2d" fill-rule="evenodd"/>
            <path id="Path_1276753" data-name="Path 1276753" d="M31.2,15.209h.474a.421.421,0,0,1,.42.42V28.637a.421.421,0,0,1-.42.42H28.745a.421.421,0,0,1-.42-.42v-.552h2.456a.421.421,0,0,0,.42-.42Z" fill="#ffc700" fill-rule="evenodd"/>
            <path id="Path_1276754" data-name="Path 1276754" d="M35.331,18.34h2.931a.421.421,0,0,1,.42.42v9.878a.421.421,0,0,1-.42.42H35.331a.421.421,0,0,1-.42-.42V18.76a.421.421,0,0,1,.42-.42Z" fill="#72d561" fill-rule="evenodd"/>
            <path id="Path_1276755" data-name="Path 1276755" d="M37.787,18.34h.474a.421.421,0,0,1,.42.42v9.878a.421.421,0,0,1-.42.42H35.33a.421.421,0,0,1-.42-.42v-.552h2.456a.421.421,0,0,0,.42-.42Z" fill="#57ca5a" fill-rule="evenodd"/>
            <path id="Path_1276756" data-name="Path 1276756" d="M41.917,12.259h2.931a.421.421,0,0,1,.42.42V28.637a.421.421,0,0,1-.42.42H41.917a.421.421,0,0,1-.42-.42V12.679A.421.421,0,0,1,41.917,12.259Z" fill="#64b5f6" fill-rule="evenodd"/>
            <path id="Path_1276757" data-name="Path 1276757" d="M44.372,12.259h.474a.421.421,0,0,1,.42.42V28.637a.421.421,0,0,1-.42.42H41.916a.421.421,0,0,1-.42-.42v-.552h2.456a.421.421,0,0,0,.42-.42Z" fill="#42a5f5" fill-rule="evenodd"/>
          </g>
          <g id="Group_1206366" data-name="Group 1206366">
            <path id="Path_1276758" data-name="Path 1276758" d="M14.578,46.093l-1.546-1.652,3.123-3.125,1.657,1.542Z" fill="#b4d2d7" fill-rule="evenodd"/>
            <path id="Path_1276759" data-name="Path 1276759" d="M14.578,46.093l-1.546-1.652.016-.017.865.924,3.17-3.169.73.679Z" fill="#9bb9c3" fill-rule="evenodd"/>
            <path id="Path_1276760" data-name="Path 1276760" d="M13.177,43.324l2.571,2.571a.183.183,0,0,1,0,.258L9.225,52.675A2,2,0,0,1,6.4,49.847l6.522-6.522A.181.181,0,0,1,13.177,43.324Z" fill="#8d9ca8" fill-rule="evenodd"/>
            <path id="Path_1276761" data-name="Path 1276761" d="M15.263,45.41l.484.484a.183.183,0,0,1,0,.258L9.224,52.674a2,2,0,0,1-3.049-.264,2.008,2.008,0,0,0,2.564-.221l6.522-6.522a.183.183,0,0,0,0-.257Z" fill="#7a8c98" fill-rule="evenodd"/>
            <path id="Path_1276762" data-name="Path 1276762" d="M15.748,45.894a.183.183,0,0,1,0,.258l-1.692,1.692-2.828-2.828,1.692-1.692a.183.183,0,0,1,.258,0Z" fill="#7a8c98" fill-rule="evenodd"/>
            <path id="Path_1276763" data-name="Path 1276763" d="M15.748,45.894a.183.183,0,0,1,0,.258l-1.692,1.692-.486-.486,1.692-1.692a.183.183,0,0,0,0-.257Z" fill="#596c76" fill-rule="evenodd"/>
            <circle id="Ellipse_12487" data-name="Ellipse 12487" cx="9.475" cy="9.475" r="9.475" transform="matrix(0.083, -0.997, 0.997, 0.083, 12.783, 44.752)" fill="#64b5f6"/>
            <path id="Path_1276764" data-name="Path 1276764" d="M28.61,28.466a9.471,9.471,0,1,1-12.431,14.2,9.471,9.471,0,0,0,12.431-14.2Z" fill="#42a5f5" fill-rule="evenodd"/>
            <circle id="Ellipse_12488" data-name="Ellipse 12488" cx="7.148" cy="7.148" r="7.148" transform="translate(15.838 28.938)" fill="#e6f8ff"/>
            <path id="Path_1276765" data-name="Path 1276765" d="M22.986,28.939a7.13,7.13,0,0,1,5.49,2.571A7.148,7.148,0,0,0,18.408,41.577a7.148,7.148,0,0,1,4.577-12.638Z" fill="#d0f1ff" fill-rule="evenodd"/>
          </g>
          <g id="Group_1206367" data-name="Group 1206367">
            <path id="Path_1276766" data-name="Path 1276766" d="M25.218,33.1a1.249,1.249,0,0,1,1.771,1.761l-4.173,4.212a1.249,1.249,0,0,1-1.757.015l-2.065-2.012a1.249,1.249,0,0,1,1.742-1.79l1.177,1.148Z" fill="#64b5f6" fill-rule="evenodd"/>
            <path id="Path_1276767" data-name="Path 1276767" d="M27.228,33.437a1.248,1.248,0,0,1-.239,1.424l-4.173,4.212a1.249,1.249,0,0,1-1.757.015l-2.065-2.012a1.249,1.249,0,0,1-.254-1.439,1.234,1.234,0,0,0,.254.353L21.06,38a1.249,1.249,0,0,0,1.757-.015l4.173-4.212A1.245,1.245,0,0,0,27.228,33.437Z" fill="#42a5f5" fill-rule="evenodd"/>
          </g>
        </g>
        <path id="Path_1276768" data-name="Path 1276768" d="M26.387,34.264l-4.17,4.211a.4.4,0,0,1-.564.005l-2.068-2.013a.4.4,0,0,1-.005-.569.4.4,0,0,1,.285-.122h.005a.406.406,0,0,1,.28.113l1.178,1.148a.841.841,0,0,0,1.189-.011l3.3-3.332a.411.411,0,0,1,.285-.118.4.4,0,0,1,.4.4.4.4,0,0,1-.121.286Zm1.193-1.77a2.077,2.077,0,0,0-1.478-.61H26.1a2.076,2.076,0,0,0-1.478.617v0l-2.712,2.736-.579-.563a2.1,2.1,0,0,0-2.921,3l2.063,2.013a2.107,2.107,0,0,0,2.952-.025l4.17-4.21a2.088,2.088,0,0,0,.609-1.484,2.063,2.063,0,0,0-.619-1.48ZM22.987,42.22a6.134,6.134,0,1,0-6.133-6.134A6.141,6.141,0,0,0,22.987,42.22Zm0-13.962a7.828,7.828,0,1,0,7.83,7.828A7.836,7.836,0,0,0,22.987,28.257ZM29.408,9.4a.8.8,0,1,1,.8.8A.8.8,0,0,1,29.408,9.4Zm-5.782,9.366a.8.8,0,1,1,.8-.8A.8.8,0,0,1,23.626,18.765ZM37.6,13.812a.8.8,0,1,1-.8-.8A.8.8,0,0,1,37.6,13.812Zm-3.3,0a2.5,2.5,0,1,0,4.993,0,2.43,2.43,0,0,0-.2-.972L42.4,9.793l-.065.353a.845.845,0,0,0,.679.985.891.891,0,0,0,.155.014.852.852,0,0,0,.834-.7L44.5,7.713a.845.845,0,0,0-.794-1l-2.776-.13a.847.847,0,0,0-.08,1.692l.66.031L37.947,11.6a2.494,2.494,0,0,0-2.632.205L32.633,10a2.425,2.425,0,0,0,.075-.6,2.5,2.5,0,1,0-4.6,1.346L24.39,15.582a2.525,2.525,0,0,0-.764-.119,2.51,2.51,0,1,0,2.1,1.152l3.721-4.838a2.525,2.525,0,0,0,.764.119,2.483,2.483,0,0,0,1.478-.486l2.682,1.8a2.639,2.639,0,0,0-.07.6Zm10.122,14.4H42.348V13.1h2.077Zm.445-16.8a1.248,1.248,0,0,1,1.248,1.246v16A1.248,1.248,0,0,1,44.87,29.9H41.9a1.248,1.248,0,0,1-1.248-1.246v-16A1.248,1.248,0,0,1,41.9,11.411Zm-7.032,16.8H35.761V19.184h2.077Zm.445-10.719a1.249,1.249,0,0,1,1.248,1.247v9.919A1.248,1.248,0,0,1,38.283,29.9H35.311a1.248,1.248,0,0,1-1.248-1.246V18.738a1.249,1.249,0,0,1,1.248-1.247Zm9.268,23.035V2.416a.617.617,0,0,0-.619-.617H27.051V7.222a2.172,2.172,0,0,1-2.167,2.169H19.461v17a10.078,10.078,0,0,1,1.434-.408V22.886a1.248,1.248,0,0,1,1.248-1.246h2.971a1.247,1.247,0,0,1,1.243,1.246v3.447a10.523,10.523,0,0,1,1.123.464V15.607a1.247,1.247,0,0,1,1.243-1.246H31.7a1.247,1.247,0,0,1,1.243,1.246v13.05A1.247,1.247,0,0,1,31.7,29.9h-.46a10.214,10.214,0,0,1,1.7,3.479h12.03a.847.847,0,1,1,0,1.694H33.254a9.626,9.626,0,0,1,.05,1.009c0,.228-.005.453-.02.678h11.69a.847.847,0,1,1,0,1.694H33.029a10.248,10.248,0,0,1-1.054,2.686H46.932a.617.617,0,0,0,.618-.617ZM29.643,28.21c-.15-.129-.309-.255-.469-.376V16.055h2.077V28.209H29.643ZM24.665,25.9a10.266,10.266,0,0,0-1.678-.138c-.134,0-.265,0-.4.008V23.334h2.077Zm-1.678,18.8a8.624,8.624,0,1,0-8.624-8.624A8.635,8.635,0,0,0,22.987,44.709Zm-7.72-.5-.4-.4.634-.634c.13.137.265.271.4.4Zm-1.209,2.436-1.633-1.631.625-.624,1.633,1.631ZM8.629,52.074l4.23-4.23-1.633-1.631L7,50.443a1.154,1.154,0,0,0,1.633,1.631ZM25.358,3V7.222a.477.477,0,0,1-.474.475h-4.23ZM46.931.1H26.812a2.253,2.253,0,0,0-1.633.677L18.443,7.516a2.262,2.262,0,0,0-.679,1.635V27.19a10.314,10.314,0,0,0-3.336,14.655l-.774.774a1,1,0,0,0-.6-.2,1.019,1.019,0,0,0-.719.3L5.8,49.246a2.848,2.848,0,0,0,4.03,4.027l6.526-6.531a1.016,1.016,0,0,0,.1-1.326l.774-.774a10.3,10.3,0,0,0,13.553-1.805h16.15a2.313,2.313,0,0,0,2.312-2.311V2.416A2.312,2.312,0,0,0,46.931.1Z" fill-rule="evenodd"/>
      </g>
    </g>
  </g>
</svg>
