<svg xmlns="http://www.w3.org/2000/svg" xmlns:xlink="http://www.w3.org/1999/xlink" width="98" height="97.999" viewBox="0 0 98 97.999">
  <defs>
    <clipPath id="clip-path">
      <rect id="Rectangle_412451" data-name="Rectangle 412451" width="56" height="54" transform="translate(825.302 2460.95)" fill="#fff"/>
    </clipPath>
  </defs>
  <g id="Group_1206393" data-name="Group 1206393" transform="translate(-804.032 -2438.5)">
    <g id="Group_1205962" data-name="Group 1205962" transform="translate(-67.08 2161.336)">
      <g id="Group_1188789" data-name="Group 1188789" transform="translate(871.113 277.164)">
        <path id="Path_1243039" data-name="Path 1243039" d="M41.05,0h0a41.05,41.05,0,0,1,0,82.1h0a41.05,41.05,0,0,1,0-82.1Z" transform="translate(7.951 7.949)" fill="#ffa724"/>
        <rect id="Rectangle_400907" data-name="Rectangle 400907" width="88.438" height="88.437" rx="44.218" transform="translate(4.782 4.781)" fill="none"/>
        <g id="Group_1098742" data-name="Group 1098742" transform="translate(0)">
          <g id="Rectangle_400898" data-name="Rectangle 400898" transform="translate(0)" fill="none" stroke="#fff" stroke-width="2" opacity="0.859">
            <rect width="98" height="97.999" rx="48.999" stroke="none"/>
            <rect x="1" y="1" width="96" height="95.999" rx="47.999" fill="none"/>
          </g>
          <g id="Rectangle_400907-2" data-name="Rectangle 400907" transform="translate(0)" fill="none" stroke="#0f1f33" stroke-linecap="round" stroke-width="2">
            <rect width="98" height="97.999" rx="48.999" stroke="none"/>
            <rect x="1" y="1" width="96" height="95.999" rx="47.999" fill="none"/>
          </g>
        </g>
      </g>
    </g>
    <g id="Mask_Group_1099610" data-name="Mask Group 1099610" clip-path="url(#clip-path)">
      <g id="Layer_x0020_1" transform="translate(825.301 2459.967)">
        <path id="Path_1276944" data-name="Path 1276944" d="M15.863,48.715H1.313v4.233H54.687V48.715H15.863ZM34.135,23.157c-1.265,0-2.624.261-2.624-.656s1.36-.656,2.624-.656a.656.656,0,0,1,0,1.313Zm-3.6,0H21.866a.656.656,0,0,1,0-1.313h8.672A.656.656,0,0,1,30.538,23.157Zm3.6-2.014H25.464a.656.656,0,0,1,0-1.313h8.672A.656.656,0,0,1,34.135,21.144Zm-10.3,0c-1.265,0-2.625.261-2.625-.656s1.36-.656,2.625-.656a.656.656,0,0,1,0,1.313Zm10.3-2.014c-1.265,0-2.624.261-2.624-.656s1.36-.656,2.624-.656a.656.656,0,0,1,0,1.313Zm-3.6,0H21.866a.656.656,0,0,1,0-1.313h8.672A.656.656,0,0,1,30.538,19.129Zm21.873-3.467c-1.265,0-2.625.261-2.625-.656s1.361-.656,2.625-.656a.656.656,0,0,1,0,1.313Zm-3.6,0H40.143a.656.656,0,0,1,0-1.313h8.672A.656.656,0,0,1,48.814,15.662Zm3.6-2.014H43.74a.656.656,0,0,1,0-1.313h8.672A.656.656,0,0,1,52.411,13.648Zm-10.3,0c-1.265,0-2.625.261-2.625-.656s1.361-.656,2.625-.656a.656.656,0,0,1,0,1.313Zm10.3-2.014c-1.265,0-2.625.261-2.625-.656s1.361-.656,2.625-.656a.656.656,0,0,1,0,1.313Zm-3.6,0H40.143a.656.656,0,0,1,0-1.313h8.672A.656.656,0,0,1,48.814,11.634ZM15.78,7.081c-1.265,0-2.625.261-2.625-.656s1.36-.656,2.625-.656A.656.656,0,0,1,15.78,7.081Zm-3.6,0H3.511a.656.656,0,0,1,0-1.313h8.672a.656.656,0,0,1,0,1.313Zm3.6-2.014H7.108a.656.656,0,0,1,0-1.313H15.78A.656.656,0,0,1,15.78,5.067Zm-10.3,0c-1.265,0-2.625.261-2.625-.656s1.36-.656,2.625-.656A.656.656,0,0,1,5.481,5.067Zm10.3-2.014c-1.265,0-2.625.261-2.625-.656s1.36-.656,2.625-.656A.656.656,0,0,1,15.78,3.052Zm-3.6,0H3.511a.656.656,0,0,1,0-1.312h8.672a.656.656,0,0,1,0,1.312ZM51.758,45.308H40.8V47.4H51.758V45.308ZM40.8,41.547H51.758V32.1a8.67,8.67,0,0,1-5.328,1.927h-.252A8.666,8.666,0,0,1,40.8,32.1v9.451Zm12.275.639V47.4h2.274a.657.657,0,0,1,.656.656V53.6a.656.656,0,0,1-.656.656H.657A.657.657,0,0,1,0,53.6V48.059A.657.657,0,0,1,.657,47.4H2.931V22.883a8.751,8.751,0,1,1,13.588,0V42.162c0,.014,0,.028,0,.042v2.448c0,.014,0,.028,0,.042V47.4h4.689V35.755a7.755,7.755,0,1,1,13.588,0V47.4h4.687V30.782a8.752,8.752,0,1,1,13.589,0v11.4ZM40.8,43.995H51.758V42.86H40.8Zm-7.313,1.313H22.52V47.4H33.483V45.308ZM22.52,41.547H33.483V37.5a7.753,7.753,0,0,1-1.661,1.265.5.5,0,0,1-.193.106,7.726,7.726,0,0,1-1.8.682h0l-.032.008-.024.006-.057.013-.022,0-.036.008-.057.012-.01,0h0l-.1.02h0q-.258.05-.522.083h0q-.262.032-.529.047h-.006l-.089,0H28.3l-.086,0h0l-.213,0h-.172l-.062,0h-.023l-.059,0h-.03a7.726,7.726,0,0,1-2.541-.547.528.528,0,0,1-.181-.075,7.745,7.745,0,0,1-2.366-1.594q-.023-.023-.043-.047l0,0v4.046Zm0,2.448H33.482V42.86H22.52Zm-7.313,1.313H4.243V47.4H15.207ZM4.243,41.547H15.207V24.2a8.657,8.657,0,0,1-5.075,1.92h0l-.04,0h-.045l-.076,0H9.6l-.082,0H9.4l-.04,0-.04,0h0l-.076,0-.04,0A8.657,8.657,0,0,1,4.243,24.2V41.547Zm0,2.448H15.207V42.86H4.243ZM45.621,32.682V30.557a13.15,13.15,0,0,1-.9-1.334c-.422.011-1-.026-1.789-.026a1.819,1.819,0,0,0-1.772,1.474,7.44,7.44,0,0,0,3.056,1.752l.057.016.1.028.124.031.038.009a7.484,7.484,0,0,0,1.079.175Zm1.313-2.124v2.124a7.466,7.466,0,0,0,1.455-.275h0l.159-.049.057-.019.1-.034.11-.039.033-.012a7.455,7.455,0,0,0,2.54-1.583c-.35-1.858-2.32-1.422-3.552-1.46a13.21,13.21,0,0,1-.9,1.347Zm-1.216-2.22.56.824c.181-.267.361-.588.558-.843v-.057a2.653,2.653,0,0,1-1.116,0v.075Zm2.615-3.082a4.16,4.16,0,0,1-.186-1.041,10.449,10.449,0,0,1-1.882.159h0q-.121,0-.242-.007h0l-.06,0h0l-.06,0h0l-.06,0h0l-.06,0h0l-.059-.005h0l-.059-.006h0l-.059-.006h0l-.059-.007h0l-.059-.007h0l-.058-.008h0l-.058-.009h0l-.058-.009h0l-.058-.01h0l-.057-.01h0l-.057-.011h0l-.057-.012h0c-.057-.012-.114-.025-.169-.039h0q-.084-.021-.166-.046h0l-.055-.017h0c-.091-.028-.179-.059-.266-.094l0,.016,0,.017,0,.017,0,.017,0,.017v0l0,.014a4.1,4.1,0,0,1-.259.926,3.685,3.685,0,0,0,1.246,1.635,3.65,3.65,0,0,0,.65.274,1.353,1.353,0,0,0,.24.022,1.5,1.5,0,0,0,.708-.189h0l.034-.019q.057-.033.117-.071l.02-.013a3.632,3.632,0,0,0,1.177-1.461Zm-5.508.058c-.382-.593-1.667-2.754-1.019-4.117a1.74,1.74,0,0,1,1.353-.957,5.353,5.353,0,0,1,3.656-1.661,4.145,4.145,0,0,1,2.8,7.025,4.48,4.48,0,0,1-1.47,2v.28H49.62a3.146,3.146,0,0,1,2.747,1.658,7.438,7.438,0,1,0-12.178,0,3.146,3.146,0,0,1,2.746-1.659h1.471c0-.1,0-.194-.006-.288a4.466,4.466,0,0,1-1.575-2.282Zm3.99-5.422c-1.862,0-2.672,1.562-3.292,1.622-.806.078-.695.707-.351,1.6a1.047,1.047,0,0,1,.274-.711.492.492,0,0,1,.358-.157.475.475,0,0,1,.39.106.635.635,0,0,1,.156.118l.035.037a2.176,2.176,0,0,0,1.083.482,7.44,7.44,0,0,0,2.158-.019c.459-.071.775-.163,1.022-.2a.622.622,0,0,1,.324,0,.586.586,0,0,1,.266.135.606.606,0,0,1,.138.166l0,.007a.621.621,0,0,1,.043.087A2.769,2.769,0,0,0,46.815,19.893ZM27.694,36.874a12.242,12.242,0,0,1-.9-1.149l-.906.385c.05.644.072,1.319.067,2.017a6.535,6.535,0,0,0,1.739.32V36.874Zm.1-2.015.555.7c.165-.21.329-.448.5-.663q-.08.015-.161.025l-.015,0-.021,0-.021,0c-.07.007-.14.011-.211.011a2.326,2.326,0,0,1-.621-.084Zm2.135.878c-.257.346-.6.723-.923,1.118v1.521A6.5,6.5,0,0,0,30.388,38l.084-.034.038-.016q.122-.052.242-.109c0-.6.024-1.18.067-1.735l-.89-.373Zm2.392-.416c-.117-1.006-.738-2.521-.822-3.7a4.4,4.4,0,0,1-1.156,2.4v.474c.279.122,1.16.474,1.977.827Zm-.932-4.948c-.763-3.315-5.637-2.933-6.377-1.722a2.182,2.182,0,0,0,.053,1.807,2.58,2.58,0,0,1,.233.535.84.84,0,0,1,.148-.43c1.416-1.78,2.522-1.33,3.423-2.171a.706.706,0,0,1,1.168.529c.017.434,1.035.976,1.352,1.451ZM25.4,31.986c-.1,1.248-.943,2.427-1.021,3.369.073-.028.142-.055.2-.083l1.772-.781c0-.219-.014-.433-.012-.629a4.9,4.9,0,0,1-.944-1.875Zm-2.313,3.925c-.318-1.832,1.55-3.367.831-4.814a3.561,3.561,0,0,1-.029-3.124c1.484-2.45,8.952-2.333,8.915,3.375,0,.636.631,2.469.793,3.86a6.443,6.443,0,1,0-10.653.8c.046-.033.094-.065.143-.1Zm3.525-4.7a3.113,3.113,0,0,0,.9,1.978,3.193,3.193,0,0,0,.59.381.982.982,0,0,0,.316.055c.947,0,1.872-1.523,1.8-2.576a5.383,5.383,0,0,1-1.159-1.192c-.931.5-1.582.355-2.448,1.354Zm5.5,5.437c0,.112,0,.221-.006.327q.13-.108.255-.223l-.249-.1Zm-7.51.839c0-.256,0-.535-.008-.834l-.72.306a6.471,6.471,0,0,0,.728.528ZM9.069,24.783V22.657a13.093,13.093,0,0,1-.9-1.335c-.422.011-1-.026-1.789-.026a1.819,1.819,0,0,0-1.772,1.474,7.439,7.439,0,0,0,3.053,1.751l.072.02.088.024.141.036.024.006a7.5,7.5,0,0,0,1.08.175Zm1.313-2.146v2.146a7.484,7.484,0,0,0,1.271-.223h0l.165-.046.06-.018.091-.028.138-.045h0a7.446,7.446,0,0,0,2.73-1.65c-.346-1.845-2.29-1.429-3.525-1.46-.238.4-.6.852-.933,1.326Zm-1.216-2.2.56.825c.181-.267.361-.588.559-.844v-.056a2.654,2.654,0,0,1-1.117,0v.075Zm2.616-3.081a4.159,4.159,0,0,1-.186-1.04,7.358,7.358,0,0,1-3.729-.162,4.327,4.327,0,0,1-.276,1.024,3.681,3.681,0,0,0,1.25,1.638,3.674,3.674,0,0,0,.636.269,1.348,1.348,0,0,0,.249.023,1.5,1.5,0,0,0,.709-.19l.033-.018c.038-.022.077-.046.117-.071l.022-.014a3.628,3.628,0,0,0,1.176-1.46Zm-5.508.059c-.382-.593-1.667-2.755-1.02-4.117a1.74,1.74,0,0,1,1.353-.957,5.355,5.355,0,0,1,3.656-1.661,4.144,4.144,0,0,1,2.8,7.026,4.48,4.48,0,0,1-1.471,2v.279h1.471a3.146,3.146,0,0,1,2.747,1.659,7.439,7.439,0,1,0-12.177,0,3.145,3.145,0,0,1,2.746-1.659H7.854c0-.1,0-.195-.006-.288a4.472,4.472,0,0,1-1.575-2.281Zm3.99-5.422c-1.862,0-2.671,1.561-3.292,1.622-.806.078-.694.705-.351,1.6a1.065,1.065,0,0,1,.262-.7.5.5,0,0,1,.372-.167.472.472,0,0,1,.38.1.635.635,0,0,1,.163.121l.041.043a2.115,2.115,0,0,0,.953.452h0l.017,0h0a7.275,7.275,0,0,0,2.311-.007c.426-.069.726-.154.962-.188h0a.624.624,0,0,1,.351.005.592.592,0,0,1,.243.129.6.6,0,0,1,.129.15l0,0a.635.635,0,0,1,.055.107,2.768,2.768,0,0,0-2.607-3.274Z" fill="#000002" fill-rule="evenodd"/>
        <path id="Path_1276945" data-name="Path 1276945" d="M9.725,19.11a1.5,1.5,0,0,0,.709-.19l.033-.018c.038-.022.077-.046.117-.071l.022-.014a3.628,3.628,0,0,0,1.176-1.46,4.159,4.159,0,0,1-.186-1.04,7.358,7.358,0,0,1-3.729-.162,4.327,4.327,0,0,1-.276,1.024,3.681,3.681,0,0,0,1.25,1.638,3.674,3.674,0,0,0,.636.269,1.348,1.348,0,0,0,.249.023Z" fill="#ffdfd4" fill-rule="evenodd"/>
        <path id="Path_1276946" data-name="Path 1276946" d="M8.814,15.07a7.275,7.275,0,0,0,2.311-.007c.426-.069.726-.154.962-.188h0a.624.624,0,0,1,.351.005.592.592,0,0,1,.243.129.6.6,0,0,1,.129.15l0,0a.635.635,0,0,1,.055.107,2.768,2.768,0,0,0-2.607-3.274c-1.862,0-2.671,1.561-3.292,1.622-.806.078-.694.705-.351,1.6a1.065,1.065,0,0,1,.262-.7.5.5,0,0,1,.372-.167.472.472,0,0,1,.38.1.635.635,0,0,1,.163.121l.041.043a2.115,2.115,0,0,0,.953.452h0l.017,0h0Z" fill="#b66b61" fill-rule="evenodd"/>
        <path id="Path_1276947" data-name="Path 1276947" d="M14.839,22.771c-.346-1.845-2.29-1.429-3.525-1.46-.238.4-.6.852-.933,1.326v2.146a7.484,7.484,0,0,0,1.271-.223h0l.165-.046.06-.018.091-.028.138-.045a7.446,7.446,0,0,0,2.73-1.65Z" fill="#545c66" fill-rule="evenodd"/>
        <path id="Path_1276948" data-name="Path 1276948" d="M9.069,22.658a13.093,13.093,0,0,1-.9-1.335c-.422.011-1-.026-1.789-.026a1.819,1.819,0,0,0-1.772,1.474,7.439,7.439,0,0,0,3.053,1.751l.072.02.088.024.141.036.024.006a7.5,7.5,0,0,0,1.08.175V22.658Z" fill="#545c66" fill-rule="evenodd"/>
        <path id="Path_1276949" data-name="Path 1276949" d="M6.383,19.985H7.854c0-.1,0-.195-.006-.288a4.472,4.472,0,0,1-1.575-2.281c-.382-.593-1.667-2.755-1.02-4.117a1.74,1.74,0,0,1,1.353-.957,5.355,5.355,0,0,1,3.656-1.661,4.144,4.144,0,0,1,2.8,7.026,4.48,4.48,0,0,1-1.471,2v.279h1.471a3.146,3.146,0,0,1,2.747,1.659,7.439,7.439,0,1,0-12.177,0,3.145,3.145,0,0,1,2.746-1.659Z" fill="#a8e5ff" fill-rule="evenodd"/>
        <path id="Path_1276950" data-name="Path 1276950" d="M9.166,20.363v.075l.56.825c.181-.267.361-.588.559-.844v-.056a2.653,2.653,0,0,1-1.117,0Z" fill="#ffdfd4" fill-rule="evenodd"/>
        <path id="Path_1276951" data-name="Path 1276951" d="M15.207,24.2a8.657,8.657,0,0,1-5.076,1.92l-.04,0h-.045l-.076,0H9.6l-.082,0H9.4l-.04,0-.04,0h0l-.076,0-.04,0A8.657,8.657,0,0,1,4.243,24.2V41.548H15.207V24.2Z" fill="#6bbef6" fill-rule="evenodd"/>
        <path id="Path_1276952" data-name="Path 1276952" d="M15.207,42.86H4.243V44H15.207Z" fill="#9ed5fa" fill-rule="evenodd"/>
        <path id="Path_1276953" data-name="Path 1276953" d="M15.207,45.308H4.243V47.4H15.207Z" fill="#6bbef6" fill-rule="evenodd"/>
        <path id="Path_1276954" data-name="Path 1276954" d="M15.863,48.715H1.313v4.233H54.687V48.715H15.863Z" fill="#5c546a" fill-rule="evenodd"/>
        <path id="Path_1276955" data-name="Path 1276955" d="M22.52,45.308V47.4H33.483V45.308Z" fill="#da4a54" fill-rule="evenodd"/>
        <path id="Path_1276956" data-name="Path 1276956" d="M22.52,44H33.482V42.86H22.52Z" fill="#e47b82" stroke="#e47b82" stroke-width="0.098" fill-rule="evenodd"/>
        <path id="Path_1276957" data-name="Path 1276957" d="M22.52,41.547H33.482V37.5a7.753,7.753,0,0,1-1.661,1.265.5.5,0,0,1-.193.106,7.726,7.726,0,0,1-1.8.682h0l-.032.008-.024.006-.057.013-.022,0-.036.008-.057.012-.01,0h0l-.1.02q-.258.05-.522.083h0q-.262.032-.529.047h-.006l-.089,0H28.3l-.086,0h0l-.213,0h-.172l-.062,0h-.023l-.059,0h-.03a7.726,7.726,0,0,1-2.541-.547.528.528,0,0,1-.181-.075,7.745,7.745,0,0,1-2.366-1.594l-.043-.047,0,0v4.046Z" fill="#da4a54" fill-rule="evenodd"/>
        <path id="Path_1276958" data-name="Path 1276958" d="M23.086,35.911c-.318-1.832,1.55-3.367.831-4.814a3.561,3.561,0,0,1-.029-3.124c1.484-2.45,8.952-2.333,8.915,3.375,0,.636.631,2.469.793,3.86a6.443,6.443,0,1,0-10.653.8c.046-.033.094-.065.143-.1Z" fill="#ffe2a4" fill-rule="evenodd"/>
        <path id="Path_1276959" data-name="Path 1276959" d="M25.066,30.458a2.58,2.58,0,0,1,.233.535.84.84,0,0,1,.148-.43c1.416-1.78,2.522-1.33,3.423-2.171a.706.706,0,0,1,1.168.529c.017.434,1.035.976,1.352,1.451-.763-3.315-5.637-2.933-6.377-1.722a2.182,2.182,0,0,0,.053,1.807Z" fill="#b66b61" fill-rule="evenodd"/>
        <path id="Path_1276960" data-name="Path 1276960" d="M26.611,31.216a3.113,3.113,0,0,0,.9,1.978,3.193,3.193,0,0,0,.59.381.982.982,0,0,0,.316.055c.947,0,1.872-1.523,1.8-2.576a5.383,5.383,0,0,1-1.159-1.192c-.931.5-1.582.355-2.448,1.354Z" fill="#ffdfd4" fill-rule="evenodd"/>
        <path id="Path_1276961" data-name="Path 1276961" d="M26.342,33.861a4.9,4.9,0,0,1-.944-1.875c-.1,1.248-.943,2.427-1.021,3.369.073-.028.142-.055.2-.083l1.772-.781c0-.219-.014-.433-.012-.629Z" fill="#b66b61" fill-rule="evenodd"/>
        <path id="Path_1276962" data-name="Path 1276962" d="M26.793,35.725l-.906.385c.05.644.072,1.319.067,2.017a6.535,6.535,0,0,0,1.739.32V36.874a12.242,12.242,0,0,1-.9-1.149Z" fill="#69f" fill-rule="evenodd"/>
        <path id="Path_1276963" data-name="Path 1276963" d="M29.929,35.737c-.257.346-.6.723-.923,1.118v1.521A6.5,6.5,0,0,0,30.388,38l.084-.034.038-.016q.122-.052.242-.109c0-.6.024-1.18.067-1.735l-.89-.373Z" fill="#69f" fill-rule="evenodd"/>
        <path id="Path_1276964" data-name="Path 1276964" d="M30.344,34.494c.279.122,1.16.474,1.977.827-.117-1.006-.738-2.521-.822-3.7a4.4,4.4,0,0,1-1.156,2.4v.474Z" fill="#b66b61" fill-rule="evenodd"/>
        <path id="Path_1276965" data-name="Path 1276965" d="M28.35,35.564c.165-.21.329-.448.5-.663q-.08.015-.161.025l-.015,0-.021,0-.021,0c-.07.007-.14.011-.211.011a2.326,2.326,0,0,1-.621-.084l.555.7Z" fill="#ffdfd4" fill-rule="evenodd"/>
        <path id="Path_1276966" data-name="Path 1276966" d="M24.6,37.492c0-.256,0-.535-.008-.834l-.72.306a6.471,6.471,0,0,0,.728.528Z" fill="#69f" fill-rule="evenodd"/>
        <path id="Path_1276967" data-name="Path 1276967" d="M32.113,36.653l-.006.327q.13-.108.255-.223Z" fill="#6b809b" stroke="#69f" stroke-width="0.098" fill-rule="evenodd"/>
        <path id="Path_1276968" data-name="Path 1276968" d="M51.758,45.308H40.8V47.4H51.758Z" fill="#ffc848" stroke="#ffc848" stroke-width="0.098" fill-rule="evenodd"/>
        <path id="Path_1276969" data-name="Path 1276969" d="M40.8,44H51.758V42.86H40.8Z" fill="#ffe29e" fill-rule="evenodd"/>
        <path id="Path_1276970" data-name="Path 1276970" d="M40.8,41.548H51.758V32.1a8.67,8.67,0,0,1-5.328,1.927h-.252A8.666,8.666,0,0,1,40.8,32.1v9.451Z" fill="#ffc848" fill-rule="evenodd"/>
        <path id="Path_1276971" data-name="Path 1276971" d="M40.188,29.542a3.146,3.146,0,0,1,2.746-1.659h1.471c0-.1,0-.194-.006-.288a4.466,4.466,0,0,1-1.575-2.282c-.382-.593-1.667-2.754-1.019-4.117a1.74,1.74,0,0,1,1.353-.957,5.353,5.353,0,0,1,3.656-1.661,4.145,4.145,0,0,1,2.8,7.025,4.48,4.48,0,0,1-1.47,2v.28H49.62a3.146,3.146,0,0,1,2.747,1.658,7.438,7.438,0,1,0-12.178,0Z" fill="#a8e5ff" fill-rule="evenodd"/>
        <path id="Path_1276972" data-name="Path 1276972" d="M44.384,22.507a2.176,2.176,0,0,0,1.083.482,7.44,7.44,0,0,0,2.158-.019c.459-.071.775-.163,1.022-.2a.622.622,0,0,1,.324,0,.586.586,0,0,1,.266.135.606.606,0,0,1,.138.166l0,.007a.621.621,0,0,1,.043.087,2.769,2.769,0,0,0-2.607-3.275c-1.862,0-2.672,1.562-3.292,1.622-.806.078-.695.707-.351,1.6a1.047,1.047,0,0,1,.274-.711.492.492,0,0,1,.358-.157.475.475,0,0,1,.39.106.635.635,0,0,1,.156.118Z" fill="#b66b61" fill-rule="evenodd"/>
        <path id="Path_1276973" data-name="Path 1276973" d="M48.147,24.216a10.439,10.439,0,0,1-1.883.159c-.081,0-.162,0-.243-.007l-.061,0-.06,0-.06,0-.06,0-.06-.005-.06-.006-.06-.006-.059-.007-.059-.007-.059-.008-.059-.009-.059-.009-.058-.01-.058-.011-.058-.011-.057-.012-.17-.04-.166-.046-.055-.017c-.091-.028-.179-.059-.266-.094l0,.016,0,.017,0,.017,0,.017,0,.017v0l0,.014a4.1,4.1,0,0,1-.259.926,3.685,3.685,0,0,0,1.246,1.635,3.65,3.65,0,0,0,.65.274,1.354,1.354,0,0,0,.24.022,1.5,1.5,0,0,0,.708-.19l.034-.019.117-.071.02-.013a3.633,3.633,0,0,0,1.177-1.461,4.16,4.16,0,0,1-.186-1.041Z" fill="#ffdfd4" fill-rule="evenodd"/>
        <path id="Path_1276974" data-name="Path 1276974" d="M46.835,28.263a2.653,2.653,0,0,1-1.116,0v.075l.56.824c.181-.267.361-.588.558-.843v-.057Z" fill="#ffdfd4" fill-rule="evenodd"/>
        <g id="Group_1206392" data-name="Group 1206392">
          <path id="Path_1276975" data-name="Path 1276975" d="M45.621,30.557a13.15,13.15,0,0,1-.9-1.334c-.422.011-1-.026-1.789-.026a1.819,1.819,0,0,0-1.772,1.474,7.44,7.44,0,0,0,3.056,1.752l.057.016.1.028.124.031.038.009a7.484,7.484,0,0,0,1.079.175V30.557Z" fill="#545c66" fill-rule="evenodd"/>
          <path id="Path_1276976" data-name="Path 1276976" d="M47.838,29.21a13.21,13.21,0,0,1-.9,1.347v2.124a7.467,7.467,0,0,0,1.455-.275h0l.159-.049.057-.019.1-.034.11-.039.033-.012a7.455,7.455,0,0,0,2.54-1.583c-.35-1.858-2.32-1.422-3.552-1.46Z" fill="#545c66" fill-rule="evenodd"/>
        </g>
      </g>
    </g>
  </g>
</svg>
