<svg xmlns="http://www.w3.org/2000/svg" xmlns:xlink="http://www.w3.org/1999/xlink" width="98" height="97.998" viewBox="0 0 98 97.998">
  <defs>
    <clipPath id="clip-path">
      <rect id="Rectangle_412545" data-name="Rectangle 412545" width="56" height="54" transform="translate(18821.529 -9017.053)" fill="#fff"/>
    </clipPath>
  </defs>
  <g id="Group_1206456" data-name="Group 1206456" transform="translate(-18800.26 9039.502)">
    <g id="Group_1206223" data-name="Group 1206223" transform="translate(17929.146 -9316.666)">
      <g id="Group_1188789" data-name="Group 1188789" transform="translate(871.113 277.164)">
        <path id="Path_1243039" data-name="Path 1243039" d="M41.05,0h0a41.05,41.05,0,0,1,0,82.1h0a41.05,41.05,0,0,1,0-82.1Z" transform="translate(7.951 7.949)" fill="#ffa724"/>
        <rect id="Rectangle_400907" data-name="Rectangle 400907" width="88.438" height="88.437" rx="44.218" transform="translate(4.782 4.781)" fill="none"/>
        <g id="Group_1098742" data-name="Group 1098742" transform="translate(0)">
          <g id="Rectangle_400898" data-name="Rectangle 400898" transform="translate(0)" fill="none" stroke="#fff" stroke-width="2" opacity="0.859">
            <rect width="98" height="97.999" rx="48.999" stroke="none"/>
            <rect x="1" y="1" width="96" height="95.999" rx="47.999" fill="none"/>
          </g>
          <g id="Rectangle_400907-2" data-name="Rectangle 400907" transform="translate(0)" fill="none" stroke="#0f1f33" stroke-linecap="round" stroke-width="2">
            <rect width="98" height="97.999" rx="48.999" stroke="none"/>
            <rect x="1" y="1" width="96" height="95.999" rx="47.999" fill="none"/>
          </g>
        </g>
      </g>
    </g>
    <g id="Mask_Group_1099617" data-name="Mask Group 1099617" clip-path="url(#clip-path)">
      <g id="opportunity_3505567" transform="translate(18821.658 -9017.924)">
        <g id="Group_1206454" data-name="Group 1206454">
          <g id="Group_1206435" data-name="Group 1206435">
            <path id="Path_1277093" data-name="Path 1277093" d="M30.048,30.484l2.465.984c-.122.549-.27,1.089-.427,1.629-.044.174-.1.34-.157.514A28.173,28.173,0,0,1,30.458,37.4l-1.716-4.3Z" fill="#ff826e"/>
          </g>
          <g id="Group_1206436" data-name="Group 1206436">
            <path id="Path_1277094" data-name="Path 1277094" d="M25.694,30.484,27,33.1l-1.716,4.3a28.174,28.174,0,0,1-1.472-3.789c-.061-.174-.113-.34-.157-.514-.157-.54-.3-1.08-.427-1.629Z" fill="#ff826e"/>
          </g>
          <g id="Group_1206437" data-name="Group 1206437">
            <path id="Path_1277095" data-name="Path 1277095" d="M27.871,29.613a3.471,3.471,0,0,0,2.97-1.664c.74.183,1.463.392,2.177.645a29.171,29.171,0,0,1-.505,2.874l-2.465-.984Z" fill="#fc6e51"/>
          </g>
          <g id="Group_1206438" data-name="Group 1206438">
            <path id="Path_1277096" data-name="Path 1277096" d="M24.9,27.949a3.471,3.471,0,0,0,2.97,1.664l-2.177.871-2.465.984a29.17,29.17,0,0,1-.505-2.874A20.83,20.83,0,0,1,24.9,27.949Z" fill="#fc6e51"/>
          </g>
          <g id="Group_1206439" data-name="Group 1206439">
            <path id="Path_1277097" data-name="Path 1277097" d="M28.742,33.1l1.716,4.3a29.044,29.044,0,0,1-2.587,4.407A29.043,29.043,0,0,1,25.284,37.4L27,33.1Z" fill="#ffeaa7"/>
          </g>
          <g id="Group_1206440" data-name="Group 1206440">
            <path id="Path_1277098" data-name="Path 1277098" d="M30.048,30.484,28.742,33.1H27l-1.306-2.613,2.177-.871Z" fill="#fcd770"/>
          </g>
          <g id="Group_1206441" data-name="Group 1206441">
            <path id="Path_1277099" data-name="Path 1277099" d="M45.29,27.871,43.5,36.258l-.244-.3a22.238,22.238,0,0,0-7.029-5.94L35.71,33.1H32.086c-.044.174-.1.34-.157.514h.009l2.9,2.1a15.7,15.7,0,0,1-4.355,4.355l-2.613,1.742-2.613-1.742A15.7,15.7,0,0,1,20.9,35.71l2.9-2.1h.009c-.061-.174-.113-.34-.157-.514H20.032L19.518,30a22.266,22.266,0,0,0-7.029,5.949l-.244.3-1.794-8.387H5.226v12.08a5.337,5.337,0,0,0,9.441,3.414l2.752-3.3V54h20.9V40.065l2.752,3.3a5.337,5.337,0,0,0,9.441-3.414V27.871Z" fill="#4fc1e9"/>
          </g>
          <g id="Group_1206442" data-name="Group 1206442">
            <path id="Path_1277100" data-name="Path 1277100" d="M32.513,31.468a29.172,29.172,0,0,0,.505-2.874,22.412,22.412,0,0,1,3.205,1.42L35.71,33.1H32.086c.157-.54.3-1.08.427-1.629Z" fill="#3bafda"/>
          </g>
          <g id="Group_1206443" data-name="Group 1206443">
            <path id="Path_1277101" data-name="Path 1277101" d="M34.839,35.71a15.7,15.7,0,0,1-4.355,4.355l-2.613,1.742A29.044,29.044,0,0,0,30.458,37.4a28.174,28.174,0,0,0,1.472-3.789h.009Z" fill="#3bafda"/>
          </g>
          <g id="Group_1206444" data-name="Group 1206444">
            <path id="Path_1277102" data-name="Path 1277102" d="M25.284,37.4a29.044,29.044,0,0,0,2.587,4.407l-2.613-1.742A15.7,15.7,0,0,1,20.9,35.71l2.9-2.1h.009A28.173,28.173,0,0,0,25.284,37.4Z" fill="#3bafda"/>
          </g>
          <g id="Group_1206445" data-name="Group 1206445">
            <path id="Path_1277103" data-name="Path 1277103" d="M23.655,33.1H20.032L19.518,30a22.368,22.368,0,0,1,3.205-1.411,29.17,29.17,0,0,0,.505,2.874C23.351,32.017,23.5,32.557,23.655,33.1Z" fill="#3bafda"/>
          </g>
          <g id="Group_1206446" data-name="Group 1206446">
            <path id="Path_1277104" data-name="Path 1277104" d="M54,13.935l-5.226,3.484V15.677H40.935V12.194h7.839V10.452Z" fill="#ff826e"/>
          </g>
          <g id="Group_1206447" data-name="Group 1206447">
            <path id="Path_1277105" data-name="Path 1277105" d="M14.806,12.194v3.484H6.968v1.742L1.742,13.935l5.226-3.484v1.742Z" fill="#ff826e"/>
          </g>
          <g id="Group_1206448" data-name="Group 1206448">
            <path id="Path_1277106" data-name="Path 1277106" d="M45.29,26.129a1.747,1.747,0,0,1,1.742-1.742h6.1a.874.874,0,0,1,.871.871,2.609,2.609,0,0,1-2.613,2.613h-6.1Z" fill="#f0d0b4"/>
          </g>
          <g id="Group_1206449" data-name="Group 1206449">
            <path id="Path_1277107" data-name="Path 1277107" d="M10.452,26.129v1.742h-6.1a2.609,2.609,0,0,1-2.613-2.613.874.874,0,0,1,.871-.871h6.1A1.747,1.747,0,0,1,10.452,26.129Z" fill="#f0d0b4"/>
          </g>
          <g id="Group_1206450" data-name="Group 1206450">
            <path id="Path_1277108" data-name="Path 1277108" d="M29.613,24.387h1.742v1.742a3.514,3.514,0,0,1-.514,1.82,3.483,3.483,0,0,1-5.94,0,3.514,3.514,0,0,1-.514-1.82V24.387h5.226Z" fill="#aab2bd"/>
          </g>
          <g id="Group_1206451" data-name="Group 1206451">
            <path id="Path_1277109" data-name="Path 1277109" d="M27.871,1.742A10.449,10.449,0,0,0,17.419,12.194c0,6.968,6.1,8.71,6.968,12.194h6.968c.871-3.484,6.968-5.226,6.968-12.194A10.449,10.449,0,0,0,27.871,1.742Z" fill="#ffeaa7"/>
          </g>
          <g id="Group_1206452" data-name="Group 1206452">
            <path id="Path_1277110" data-name="Path 1277110" d="M32.583,12.707a1.742,1.742,0,0,1-1.228,2.97H29.613V13.935a1.747,1.747,0,0,1,1.742-1.742A1.7,1.7,0,0,1,32.583,12.707Z" fill="#fcd770"/>
          </g>
          <g id="Group_1206453" data-name="Group 1206453">
            <path id="Path_1277111" data-name="Path 1277111" d="M26.129,13.935v1.742H24.387a1.747,1.747,0,0,1-1.742-1.742,1.742,1.742,0,0,1,3.484,0Z" fill="#fcd770"/>
          </g>
        </g>
        <g id="Group_1206455" data-name="Group 1206455">
          <path id="Path_1277112" data-name="Path 1277112" d="M53.129,23.516h-6.1a2.616,2.616,0,0,0-2.613,2.613v1.65l-1.4,6.537A23.126,23.126,0,0,0,33.3,27.771h0c-.42-.147-.847-.28-1.278-.4a4.338,4.338,0,0,0,.2-1.24V24.52A8.261,8.261,0,0,1,34.605,21.4c2.044-2.018,4.588-4.529,4.588-9.211a11.323,11.323,0,0,0-22.645,0c0,4.682,2.544,7.193,4.588,9.211a8.261,8.261,0,0,1,2.379,3.115v1.609a4.315,4.315,0,0,0,.206,1.256,23.25,23.25,0,0,0-11,6.943l-1.4-6.549v-1.65A2.616,2.616,0,0,0,8.71,23.516h-6.1A1.744,1.744,0,0,0,.871,25.258a3.487,3.487,0,0,0,3.484,3.484v11.21a6.21,6.21,0,0,0,10.979,3.976l1.214-1.457v12.4H39.194v-12.4l1.214,1.457a6.21,6.21,0,0,0,10.979-3.976V28.742a3.487,3.487,0,0,0,3.484-3.484,1.744,1.744,0,0,0-1.742-1.742Zm-27.871-8.71h-.871a.871.871,0,1,1,.871-.871Zm3.484,8.71H27V16.548h1.742Zm1.742,1.742v.871a2.613,2.613,0,0,1-5.226,0v-.871Zm0,9.858L29.7,33.137l.773-1.546L31.485,32A28.111,28.111,0,0,1,30.487,35.116Zm-2.616-4.565.975.39L28.2,32.226h-.665L26.9,30.941Zm-.281,3.417h.563L29.5,37.347a28,28,0,0,1-1.632,2.892,27.682,27.682,0,0,1-1.632-2.892Zm-2.317-2.377.773,1.546-.792,1.979a28.052,28.052,0,0,1-1-3.119Zm-2.754.635H20.77l-.287-1.718c.507-.255,1.023-.492,1.549-.706C22.165,30.616,22.32,31.426,22.519,32.226ZM23.368,35a29.706,29.706,0,0,0,1.661,3.817,14.726,14.726,0,0,1-2.917-2.91Zm9.006,0,1.256.908a14.726,14.726,0,0,1-2.917,2.91A30.071,30.071,0,0,0,32.374,35ZM33.709,29.8c.527.214,1.045.445,1.551.7l-.288,1.728H33.223c.2-.8.354-1.611.486-2.427Zm-1.669-.605c-.054.361-.1.723-.172,1.081l-1.49-.6a4.391,4.391,0,0,0,.789-.736C31.461,29.02,31.751,29.1,32.04,29.193Zm-9.68-9.028c-1.907-1.883-4.07-4.018-4.07-7.971a9.581,9.581,0,0,1,19.161,0c0,3.953-2.163,6.088-4.07,7.971a11.08,11.08,0,0,0-2.646,3.351h-.252V16.548h.871a2.613,2.613,0,1,0-2.613-2.613v.871H27v-.871a2.613,2.613,0,1,0-2.613,2.613h.871v6.968h-.252a11.09,11.09,0,0,0-2.646-3.351Zm8.124-5.358v-.871a.871.871,0,1,1,.871.871Zm-5.12,14.871-1.49.6c-.068-.356-.117-.715-.171-1.073.29-.091.584-.172.879-.251a4.331,4.331,0,0,0,.782.727ZM2.613,25.258h6.1a.872.872,0,0,1,.871.871V27H4.355A1.744,1.744,0,0,1,2.613,25.258ZM16.548,35.71v4.04L14,42.812a4.468,4.468,0,0,1-7.9-2.86V28.742h3.65l2.466,11.505,1.7-.366-.73-3.406a21.444,21.444,0,0,1,5.681-5.066l.427,2.559h2.534l-2.115,1.527.465.7a16.472,16.472,0,0,0,4.6,4.6L27,42.272V53.129H18.29V35.71Zm33.1,4.242a4.467,4.467,0,0,1-7.9,2.859l-2.553-3.062V35.71H37.452V53.129h-8.71V42.272l2.225-1.483a16.483,16.483,0,0,0,4.6-4.6l.465-.7-2.115-1.527h2.534l.429-2.58a21.413,21.413,0,0,1,5.679,5.087l-.73,3.406,1.7.366,2.466-11.505h3.65ZM51.387,27H46.161v-.871a.872.872,0,0,1,.871-.871h6.1A1.744,1.744,0,0,1,51.387,27Z"/>
          <path id="Path_1277113" data-name="Path 1277113" d="M30.484,47.9h1.742v1.742H30.484Z"/>
          <path id="Path_1277114" data-name="Path 1277114" d="M30.484,44.419h1.742v1.742H30.484Z"/>
          <path id="Path_1277115" data-name="Path 1277115" d="M47.9,19.046l7.667-5.111L47.9,8.825v2.5H40.935v1.742h8.71v-.986l2.784,1.857-2.784,1.857v-.986h-8.71v1.742H47.9Z"/>
          <path id="Path_1277116" data-name="Path 1277116" d="M7.839,16.548h6.968V14.806H6.1v.986L3.312,13.935,6.1,12.079v.986h8.71V11.323H7.839v-2.5L.172,13.935l7.667,5.111Z"/>
        </g>
      </g>
    </g>
  </g>
</svg>
