<svg xmlns="http://www.w3.org/2000/svg" xmlns:xlink="http://www.w3.org/1999/xlink" width="98" height="97.999" viewBox="0 0 98 97.999">
  <defs>
    <clipPath id="clip-path">
      <rect id="Rectangle_412686" data-name="Rectangle 412686" width="56" height="54" transform="translate(1139.903 3320.128)" fill="#fff"/>
    </clipPath>
  </defs>
  <g id="Group_1206666" data-name="Group 1206666" transform="translate(-1118.634 -3297.678)">
    <g id="Group_1206347" data-name="Group 1206347" transform="translate(247.521 3020.514)">
      <g id="Group_1188789" data-name="Group 1188789" transform="translate(871.113 277.164)">
        <path id="Path_1243039" data-name="Path 1243039" d="M41.05,0h0a41.05,41.05,0,0,1,0,82.1h0a41.05,41.05,0,0,1,0-82.1Z" transform="translate(7.951 7.949)" fill="#ffa724"/>
        <rect id="Rectangle_400907" data-name="Rectangle 400907" width="88.438" height="88.437" rx="44.218" transform="translate(4.782 4.781)" fill="none"/>
        <g id="Group_1098742" data-name="Group 1098742" transform="translate(0)">
          <g id="Rectangle_400898" data-name="Rectangle 400898" transform="translate(0)" fill="none" stroke="#fff" stroke-width="2" opacity="0.859">
            <rect width="98" height="97.999" rx="48.999" stroke="none"/>
            <rect x="1" y="1" width="96" height="95.999" rx="47.999" fill="none"/>
          </g>
          <g id="Rectangle_400907-2" data-name="Rectangle 400907" transform="translate(0)" fill="none" stroke="#0f1f33" stroke-linecap="round" stroke-width="2">
            <rect width="98" height="97.999" rx="48.999" stroke="none"/>
            <rect x="1" y="1" width="96" height="95.999" rx="47.999" fill="none"/>
          </g>
        </g>
      </g>
    </g>
    <g id="Mask_Group_1099519" data-name="Mask Group 1099519" clip-path="url(#clip-path)">
      <g id="product_feedback" data-name="product feedback" transform="translate(1139.797 3318.995)">
        <path id="Path_1277802" data-name="Path 1277802" d="M36.384,19.8H28.731a1.546,1.546,0,0,0-1.494,1.371l-1.643,12.16a6.555,6.555,0,0,0-7.908,6.379A6.546,6.546,0,0,0,7.372,34.442a1.088,1.088,0,0,1,.044-.378l2.961-22.493a2.249,2.249,0,0,1,2.232-1.977H33.071a2.232,2.232,0,0,1,2.223,1.977Z" fill="#b4dd7f"/>
        <path id="Path_1277803" data-name="Path 1277803" d="M17.7,40.417a.668.668,0,0,1-.659-.659,5.887,5.887,0,0,0-9.269-4.806c-.694.4-1.2-.264-1-.966L9.735,11.422a2.891,2.891,0,0,1,2.891-2.548H33.071a2.891,2.891,0,0,1,2.873,2.566l1.089,8.25a.659.659,0,0,1-.65.738H28.731a.879.879,0,0,0-.879.782L26.244,33.388a.668.668,0,0,1-.782.554,5.878,5.878,0,0,0-7.1,5.773.668.668,0,0,1-.659.7Zm-6.528-7.908A7.2,7.2,0,0,1,17.7,36.682a7.187,7.187,0,0,1,7.319-4.13l1.52-11.466a2.179,2.179,0,0,1,2.188-1.942h6.9l-.993-7.512a1.573,1.573,0,0,0-1.564-1.406H12.626a1.59,1.59,0,0,0-1.582,1.4L8.206,33.177a7.161,7.161,0,0,1,2.97-.668Z"/>
        <path id="Path_1277804" data-name="Path 1277804" d="M45.82,32.685a9.2,9.2,0,0,0-15.068,7.029,6.528,6.528,0,0,0-5.157-6.379l1.643-12.16A1.546,1.546,0,0,1,28.775,19.8H42.833a1.546,1.546,0,0,1,1.546,1.371Z" fill="#ed5565"/>
        <path id="Path_1277805" data-name="Path 1277805" d="M30.752,40.417a.668.668,0,0,1-.659-.659,5.9,5.9,0,0,0-4.613-5.781.659.659,0,0,1-.518-.729l1.582-12.16a2.179,2.179,0,0,1,2.188-1.942H42.789a2.205,2.205,0,0,1,2.17,1.942l1.511,11.5a.659.659,0,0,1-1.072.589,8.54,8.54,0,0,0-13.988,6.537.659.659,0,0,1-.659.7Zm-4.393-7.53a7.213,7.213,0,0,1,4.314,3.646A9.884,9.884,0,0,1,45,31.314L43.65,21.263a.879.879,0,0,0-.879-.8H28.713a.879.879,0,0,0-.879.782Z"/>
        <path id="Path_1277806" data-name="Path 1277806" d="M28.59,14.585a.659.659,0,0,1-.659-.659v-6.6a4.912,4.912,0,0,0-9.823,0v6.6a.659.659,0,1,1-1.318,0v-6.6a6.23,6.23,0,0,1,12.459,0v6.6A.668.668,0,0,1,28.59,14.585Z"/>
        <path id="Path_1277807" data-name="Path 1277807" d="M35.777,27.984a3.611,3.611,0,0,1-3.655-3.822.659.659,0,1,1,1.318,0,2.337,2.337,0,1,0,4.665,0,.659.659,0,1,1,1.318,0,3.611,3.611,0,0,1-3.646,3.822Z"/>
        <path id="Path_1277808" data-name="Path 1277808" d="M46.883,45.688l-5.729-1.643,1.283,4.481a9.164,9.164,0,1,1,4.446-2.838Z" fill="#b4dd7f"/>
        <path id="Path_1277809" data-name="Path 1277809" d="M39.916,49.545a9.832,9.832,0,1,1,7.468-3.427.668.668,0,0,1-.685.2L42.112,45l.94,3.321C43.351,49.563,40.742,49.466,39.916,49.545Zm0-18.346a8.514,8.514,0,1,0,1.7,16.861l-1.089-3.84a.659.659,0,0,1,.817-.808l5.272,1.52a8.54,8.54,0,0,0-6.7-13.733Z"/>
        <path id="Path_1277810" data-name="Path 1277810" d="M38.4,38.826a.659.659,0,0,1-.659-.659c0-.949-1-.975-1.116-.975s-1.116,0-1.116.975a.659.659,0,1,1-1.318,0c0-3.014,4.868-3.014,4.868,0a.659.659,0,0,1-.659.659Z"/>
        <path id="Path_1277811" data-name="Path 1277811" d="M44.994,38.826a.659.659,0,0,1-.659-.659c0-.949-1-.975-1.116-.975s-1.116,0-1.116.975a.659.659,0,1,1-1.318,0c0-3.022,4.9-3.022,4.9,0a.65.65,0,0,1-.694.659Z"/>
        <path id="Path_1277812" data-name="Path 1277812" d="M42.675,44.476l-1.52-.431.351,1.212a3.787,3.787,0,0,1-5.395-3.576h7.618a3.822,3.822,0,0,1-1.054,2.794Z" fill="#e6e9ed"/>
        <path id="Path_1277813" data-name="Path 1277813" d="M39.907,46.242a4.393,4.393,0,0,1-4.455-4.56.668.668,0,0,1,.659-.659h7.618a.659.659,0,0,1,.659.659,4.481,4.481,0,0,1-1.248,3.26c-.272.3-.7.167-1.028.062.316,1.133-1.467,1.186-2.205,1.239Zm-3.084-3.9a3.046,3.046,0,0,0,3.875,2.5l-.176-.615a.659.659,0,0,1,.817-.808l1.116.316a3.014,3.014,0,0,0,.6-1.388Z"/>
        <path id="Path_1277814" data-name="Path 1277814" d="M17.7,39.714a6.528,6.528,0,1,1-3.557-5.767A6.519,6.519,0,0,1,17.7,39.714Z" fill="#ed5565"/>
        <path id="Path_1277815" data-name="Path 1277815" d="M11.176,46.9A7.187,7.187,0,0,1,4,39.714c.4-9.515,13.988-9.515,14.365,0A7.222,7.222,0,0,1,11.176,46.9Zm0-13.048a5.9,5.9,0,1,0,4.87,2.651,5.86,5.86,0,0,0-4.87-2.651Z"/>
        <path id="Path_1277816" data-name="Path 1277816" d="M10.1,39.274a.659.659,0,0,1-.659-.659c0-.351-.281-.5-.606-.51-.105,0-.606,0-.606.51a.659.659,0,0,1-1.318,0c0-2.4,3.848-2.4,3.848,0a.668.668,0,0,1-.659.659Z"/>
        <path id="Path_1277817" data-name="Path 1277817" d="M14.787,39.274a.668.668,0,0,1-.659-.659c0-.351-.272-.5-.6-.51-.105,0-.606,0-.606.51a.659.659,0,0,1-1.318,0c0-2.4,3.84-2.4,3.84,0A.659.659,0,0,1,14.787,39.274Z"/>
        <path id="Path_1277818" data-name="Path 1277818" d="M8.593,43.641a.65.65,0,0,1-.633-.879,3.251,3.251,0,0,1,3.216-2.346,3.251,3.251,0,0,1,3.216,2.346.659.659,0,1,1-1.256.369,1.994,1.994,0,0,0-1.959-1.4,1.977,1.977,0,0,0-1.951,1.4.668.668,0,0,1-.633.51Z"/>
        <path id="Path_1277819" data-name="Path 1277819" d="M30.752,39.714a6.528,6.528,0,0,1-6.528,6.528c-8.672-.334-8.61-12.74,0-13.048a6.528,6.528,0,0,1,6.528,6.519Z" fill="#fcd770"/>
        <path id="Path_1277820" data-name="Path 1277820" d="M24.224,46.9a7.213,7.213,0,0,1-7.178-7.187c.378-9.436,13.935-9.586,14.365,0A7.222,7.222,0,0,1,24.224,46.9Zm0-13.048A5.9,5.9,0,1,0,29.1,36.5a5.86,5.86,0,0,0-4.876-2.647Z"/>
        <path id="Path_1277821" data-name="Path 1277821" d="M27.589,38.659h-2a.659.659,0,0,1,0-1.318h2a.659.659,0,0,1,0,1.318Z"/>
        <path id="Path_1277822" data-name="Path 1277822" d="M25.9,42.965H22.545a.659.659,0,1,1,0-1.318H25.9a.659.659,0,0,1,0,1.318Z"/>
        <path id="Path_1277823" data-name="Path 1277823" d="M23.029,38.659H21.034a.659.659,0,0,1,0-1.318h1.994a.659.659,0,0,1,0,1.318Z"/>
        <path id="Path_1277824" data-name="Path 1277824" d="M51.18,54.079a1.336,1.336,0,0,1-1.9,0L45.214,50.02,43.58,52.55c-.677-2.381-1.757-6.15-2.425-8.505l8.514,2.434L47.112,48.1l4.068,4.068a1.344,1.344,0,0,1,0,1.907Z" fill="#969faa"/>
        <path id="Path_1277825" data-name="Path 1277825" d="M50.231,55.133a1.986,1.986,0,0,1-1.415-.589L45.3,51.03l-1.195,1.854a.659.659,0,0,1-1.186-.176L40.5,44.195a.659.659,0,0,1,.817-.808l8.505,2.434a.659.659,0,0,1,.176,1.186l-1.863,1.186,3.514,3.514a2.021,2.021,0,0,1-1.415,3.427Zm-5.017-5.773a.624.624,0,0,1,.466.193L49.747,53.6a.687.687,0,1,0,.966-.975l-4.068-4.068a.659.659,0,0,1,.114-1.019l1.309-.879-5.957-1.7,1.7,6.01.879-1.318A.677.677,0,0,1,45.214,49.361Z"/>
      </g>
    </g>
  </g>
</svg>
