<svg xmlns="http://www.w3.org/2000/svg" xmlns:xlink="http://www.w3.org/1999/xlink" width="98" height="97.998" viewBox="0 0 98 97.998">
  <defs>
    <clipPath id="clip-path">
      <rect id="Rectangle_412633" data-name="Rectangle 412633" width="56" height="54" transform="translate(45.469 -8272.992)" fill="#fff"/>
    </clipPath>
  </defs>
  <g id="Group_1206663" data-name="Group 1206663" transform="translate(-24.199 8295.442)">
    <g id="Group_1206308" data-name="Group 1206308" transform="translate(-846.913 -8572.606)">
      <g id="Group_1188789" data-name="Group 1188789" transform="translate(871.113 277.164)">
        <path id="Path_1243039" data-name="Path 1243039" d="M41.05,0h0a41.05,41.05,0,0,1,0,82.1h0a41.05,41.05,0,0,1,0-82.1Z" transform="translate(7.951 7.949)" fill="#ffa724"/>
        <rect id="Rectangle_400907" data-name="Rectangle 400907" width="88.438" height="88.437" rx="44.218" transform="translate(4.782 4.781)" fill="none"/>
        <g id="Group_1098742" data-name="Group 1098742" transform="translate(0)">
          <g id="Rectangle_400898" data-name="Rectangle 400898" transform="translate(0)" fill="none" stroke="#fff" stroke-width="2" opacity="0.859">
            <rect width="98" height="97.999" rx="48.999" stroke="none"/>
            <rect x="1" y="1" width="96" height="95.999" rx="47.999" fill="none"/>
          </g>
          <g id="Rectangle_400907-2" data-name="Rectangle 400907" transform="translate(0)" fill="none" stroke="#0f1f33" stroke-linecap="round" stroke-width="2">
            <rect width="98" height="97.999" rx="48.999" stroke="none"/>
            <rect x="1" y="1" width="96" height="95.999" rx="47.999" fill="none"/>
          </g>
        </g>
      </g>
    </g>
    <g id="Mask_Group_1099518" data-name="Mask Group 1099518" clip-path="url(#clip-path)">
      <g id="_x34_7._search" transform="translate(45.651 -8272.992)">
        <g id="Group_1206651" data-name="Group 1206651">
          <ellipse id="Ellipse_12471" data-name="Ellipse 12471" cx="22.939" cy="22.84" rx="22.939" ry="22.84" transform="translate(2.426 7.528)" fill="#00bdfd"/>
          <g id="Group_1206646" data-name="Group 1206646">
            <path id="Path_1277789" data-name="Path 1277789" d="M48.3,31.16H2.431a.791.791,0,1,1,0-1.582H48.3a.791.791,0,0,1,0,1.582Z" fill="#00adfc"/>
          </g>
          <g id="Group_1206647" data-name="Group 1206647">
            <path id="Path_1277790" data-name="Path 1277790" d="M44.628,41.986a.8.8,0,0,1-.21-.028,71.746,71.746,0,0,0-38.1,0,.791.791,0,0,1-.42-1.525,73.345,73.345,0,0,1,38.944,0,.791.791,0,0,1-.21,1.554Z" fill="#00adfc"/>
          </g>
          <g id="Group_1206648" data-name="Group 1206648">
            <path id="Path_1277791" data-name="Path 1277791" d="M25.364,23.216A66.512,66.512,0,0,1,5.871,20.3a.791.791,0,1,1,.463-1.513A64.861,64.861,0,0,0,25.6,21.633a64.965,64.965,0,0,0,18.791-2.848.791.791,0,1,1,.463,1.513,66.534,66.534,0,0,1-19.249,2.917h-.245Z" fill="#00adfc"/>
          </g>
          <g id="Group_1206649" data-name="Group 1206649">
            <path id="Path_1277792" data-name="Path 1277792" d="M25.365,54c-2.595,0-4.962-2.56-6.668-7.209a49.438,49.438,0,0,1-2.5-16.424,49.438,49.438,0,0,1,2.5-16.424C20.4,9.3,22.771,6.735,25.365,6.735s4.962,2.56,6.668,7.209a49.438,49.438,0,0,1,2.5,16.424,49.438,49.438,0,0,1-2.5,16.424C30.328,51.44,27.96,54,25.365,54Zm0-45.682c-1.855,0-3.744,2.25-5.183,6.171a47.838,47.838,0,0,0-2.406,15.878,47.838,47.838,0,0,0,2.406,15.878c1.439,3.922,3.328,6.172,5.183,6.172s3.744-2.25,5.183-6.171a47.838,47.838,0,0,0,2.406-15.878A47.838,47.838,0,0,0,30.548,14.49c-1.439-3.922-3.328-6.172-5.183-6.172Z" fill="#00adfc"/>
          </g>
          <path id="Path_1277793" data-name="Path 1277793" d="M51.47,11.018H46.09l-3.31,3.54a1.15,1.15,0,0,1-1.989-.752l-.056-1.912a1.166,1.166,0,0,0-.7-1.022,1.866,1.866,0,0,1-1.062-1.714V2.65A1.8,1.8,0,0,1,40.71.791H51.47A1.8,1.8,0,0,1,53.209,2.65V9.158a1.8,1.8,0,0,1-1.739,1.86Z" fill="#f8ea69"/>
          <path id="Path_1277794" data-name="Path 1277794" d="M51.47.791H48.442a2.008,2.008,0,0,1,.021.277V7.576a1.8,1.8,0,0,1-1.739,1.859h-5.38L40.012,10.86l.022.011a1.166,1.166,0,0,1,.7,1.022l.056,1.912a1.15,1.15,0,0,0,1.989.752l3.309-3.538h5.38a1.8,1.8,0,0,0,1.739-1.859V2.651A1.8,1.8,0,0,0,51.47.791Z" fill="#f4e74d"/>
          <g id="Group_1206650" data-name="Group 1206650">
            <circle id="Ellipse_12472" data-name="Ellipse 12472" cx="0.791" cy="0.791" r="0.791" transform="translate(42.135 4.746)" fill="#f4efef"/>
            <circle id="Ellipse_12473" data-name="Ellipse 12473" cx="0.791" cy="0.791" r="0.791" transform="translate(45.299 4.746)" fill="#f4efef"/>
            <circle id="Ellipse_12474" data-name="Ellipse 12474" cx="0.791" cy="0.791" r="0.791" transform="translate(48.463 4.746)" fill="#f4efef"/>
          </g>
        </g>
        <g id="Group_1206662" data-name="Group 1206662">
          <g id="Group_1206652" data-name="Group 1206652">
            <path id="Path_1277795" data-name="Path 1277795" d="M25.365,54A23.632,23.632,0,1,1,41.311,12.866a.791.791,0,1,1-1.061,1.173,22.016,22.016,0,1,0,1.518,1.51.791.791,0,0,1,1.17-1.065A23.634,23.634,0,0,1,25.365,54Z"/>
          </g>
          <g id="Group_1206653" data-name="Group 1206653">
            <path id="Path_1277796" data-name="Path 1277796" d="M48.3,31.16H8.736a.791.791,0,1,1,0-1.582H48.3a.791.791,0,0,1,0,1.582Z"/>
          </g>
          <g id="Group_1206654" data-name="Group 1206654">
            <path id="Path_1277797" data-name="Path 1277797" d="M5.045,31.16H2.431a.791.791,0,1,1,0-1.582H5.045a.791.791,0,0,1,0,1.582Z"/>
          </g>
          <g id="Group_1206655" data-name="Group 1206655">
            <path id="Path_1277798" data-name="Path 1277798" d="M44.628,41.986a.8.8,0,0,1-.21-.028,71.746,71.746,0,0,0-38.1,0,.791.791,0,0,1-.42-1.525,73.345,73.345,0,0,1,38.944,0,.791.791,0,0,1-.21,1.554Z"/>
          </g>
          <g id="Group_1206656" data-name="Group 1206656">
            <path id="Path_1277799" data-name="Path 1277799" d="M25.364,23.216A66.512,66.512,0,0,1,5.871,20.3a.791.791,0,1,1,.463-1.513A64.861,64.861,0,0,0,25.6,21.633a64.965,64.965,0,0,0,18.791-2.848.791.791,0,1,1,.463,1.513,66.534,66.534,0,0,1-19.249,2.917h-.245Z"/>
          </g>
          <g id="Group_1206657" data-name="Group 1206657">
            <path id="Path_1277800" data-name="Path 1277800" d="M25.365,54c-2.595,0-4.962-2.56-6.668-7.209a49.438,49.438,0,0,1-2.5-16.424,49.438,49.438,0,0,1,2.5-16.424C20.4,9.3,22.771,6.735,25.365,6.735s4.962,2.56,6.668,7.209a49.438,49.438,0,0,1,2.5,16.424,49.438,49.438,0,0,1-2.5,16.424C30.328,51.44,27.96,54,25.365,54Zm0-45.682c-1.855,0-3.744,2.25-5.183,6.171a47.838,47.838,0,0,0-2.406,15.878,47.838,47.838,0,0,0,2.406,15.878c1.439,3.922,3.328,6.172,5.183,6.172s3.744-2.25,5.183-6.171a47.838,47.838,0,0,0,2.406-15.878A47.838,47.838,0,0,0,30.548,14.49c-1.439-3.922-3.328-6.172-5.183-6.172Z"/>
          </g>
          <g id="Group_1206658" data-name="Group 1206658">
            <path id="Path_1277801" data-name="Path 1277801" d="M41.563,16.309a1.537,1.537,0,0,1-1.535-1.489l-.092-3.137A2.623,2.623,0,0,1,38.18,9.159V2.651A2.6,2.6,0,0,1,40.71,0h.634a.791.791,0,1,1,0,1.582H40.71a1.015,1.015,0,0,0-.948,1.068V9.158a1.061,1.061,0,0,0,.693,1.029,1.54,1.54,0,0,1,1.064,1.43l.089,3.035,3.9-4.176a.79.79,0,0,1,.578-.251h5.38a1.015,1.015,0,0,0,.948-1.068V2.65a1.014,1.014,0,0,0-.948-1.068H45.035a.791.791,0,0,1,0-1.582H51.47A2.6,2.6,0,0,1,54,2.65V9.158a2.6,2.6,0,0,1-2.53,2.65H46.433L42.68,15.821a1.523,1.523,0,0,1-1.117.487Z"/>
          </g>
          <g id="Group_1206659" data-name="Group 1206659">
            <circle id="Ellipse_12475" data-name="Ellipse 12475" cx="0.791" cy="0.791" r="0.791" transform="translate(42.135 4.746)"/>
          </g>
          <g id="Group_1206660" data-name="Group 1206660">
            <circle id="Ellipse_12476" data-name="Ellipse 12476" cx="0.791" cy="0.791" r="0.791" transform="translate(45.299 4.746)"/>
          </g>
          <g id="Group_1206661" data-name="Group 1206661">
            <circle id="Ellipse_12477" data-name="Ellipse 12477" cx="0.791" cy="0.791" r="0.791" transform="translate(48.463 4.746)"/>
          </g>
        </g>
      </g>
    </g>
  </g>
</svg>
