<svg xmlns="http://www.w3.org/2000/svg" xmlns:xlink="http://www.w3.org/1999/xlink" width="98" height="97.999" viewBox="0 0 98 97.999">
  <defs>
    <clipPath id="clip-path">
      <rect id="Rectangle_412662" data-name="Rectangle 412662" width="56" height="54" transform="translate(299.77 2701.05)" fill="#fff"/>
    </clipPath>
  </defs>
  <g id="Group_1206603" data-name="Group 1206603" transform="translate(-278.5 -2678.6)">
    <g id="Group_1206325" data-name="Group 1206325" transform="translate(-592.612 2401.436)">
      <g id="Group_1188789" data-name="Group 1188789" transform="translate(871.113 277.164)">
        <path id="Path_1243039" data-name="Path 1243039" d="M41.05,0h0a41.05,41.05,0,0,1,0,82.1h0a41.05,41.05,0,0,1,0-82.1Z" transform="translate(7.951 7.949)" fill="#ffa724"/>
        <rect id="Rectangle_400907" data-name="Rectangle 400907" width="88.438" height="88.437" rx="44.218" transform="translate(4.782 4.781)" fill="none"/>
        <g id="Group_1098742" data-name="Group 1098742" transform="translate(0)">
          <g id="Rectangle_400898" data-name="Rectangle 400898" transform="translate(0)" fill="none" stroke="#fff" stroke-width="2" opacity="0.859">
            <rect width="98" height="97.999" rx="48.999" stroke="none"/>
            <rect x="1" y="1" width="96" height="95.999" rx="47.999" fill="none"/>
          </g>
          <g id="Rectangle_400907-2" data-name="Rectangle 400907" transform="translate(0)" fill="none" stroke="#0f1f33" stroke-linecap="round" stroke-width="2">
            <rect width="98" height="97.999" rx="48.999" stroke="none"/>
            <rect x="1" y="1" width="96" height="95.999" rx="47.999" fill="none"/>
          </g>
        </g>
      </g>
    </g>
    <g id="Mask_Group_1099512" data-name="Mask Group 1099512" clip-path="url(#clip-path)">
      <g id="engagement_17328225" transform="translate(299.895 2700.175)">
        <path id="Path_1277693" data-name="Path 1277693" d="M39.379,41.436,43.1,46.843l1.711-5.407h3.6a2.28,2.28,0,0,0,2.275-2.275V25.77a2.281,2.281,0,0,0-2.275-2.275H28.115A2.281,2.281,0,0,0,25.84,25.77V39.161a2.28,2.28,0,0,0,2.275,2.275Z" fill="#fdcd56" fill-rule="evenodd"/>
        <path id="Path_1277694" data-name="Path 1277694" d="M14.021,33.483,9.816,38.673l-1.65-5.191H5.5A2.2,2.2,0,0,1,3.3,31.288v-17.4A2.2,2.2,0,0,1,5.5,11.692H27.654a2.2,2.2,0,0,1,2.194,2.194v17.4a2.2,2.2,0,0,1-2.194,2.194Z" fill="#66d4f1" fill-rule="evenodd"/>
        <path id="Path_1277695" data-name="Path 1277695" d="M10.793,22.95a.49.49,0,0,1,.151-.362.467.467,0,0,1,.365-.146l.665.046a.5.5,0,0,0,.516-.477c.308-1.066,1.66-2.448,1.806-3.051l.81-3.334a1.6,1.6,0,1,1,3.114.756l-.858,3.637a.56.56,0,0,0,.175.559c.16.144.267.121,1.353.129l3.942-.006A1.069,1.069,0,0,1,23.949,21.9a1.254,1.254,0,0,1-1.474,1.191,1.145,1.145,0,0,1,.985,1.2c0,.659-.559,1.2-1.588,1.192a1.367,1.367,0,0,1,.872,1.2c0,.658-.559,1.2-1.573,1.192a1.464,1.464,0,0,1,.887,1.2,1.239,1.239,0,0,1-1.2,1.21l-6.68.017a.933.933,0,0,1-.861-.574.528.528,0,0,0-.5-.334l-1.621.015a.539.539,0,0,1-.541-.538Z" fill="#efc7a4" fill-rule="evenodd"/>
        <path id="Path_1277696" data-name="Path 1277696" d="M11.795,30.218l-1.84,0a.726.726,0,0,1-.726-.722q-.013-3.741-.026-7.482a.727.727,0,0,1,.723-.728l1.839,0a.726.726,0,0,1,.727.722q.013,3.741.025,7.482a.723.723,0,0,1-.722.727Z" fill="#e4e8eb"/>
        <path id="Path_1277697" data-name="Path 1277697" d="M40.08,28.512a3.1,3.1,0,0,1,2.9-1.642,3.041,3.041,0,0,1,3.2,2.853c0,2.782-3.04,5.564-6.156,8.345a.355.355,0,0,1-.475,0c-3.116-2.781-6.156-5.563-6.156-8.345a3.041,3.041,0,0,1,3.2-2.853,3.105,3.105,0,0,1,2.9,1.642.357.357,0,0,0,.6,0Z" fill="#f76c82"/>
        <path id="Path_1277698" data-name="Path 1277698" d="M49.7,16.335a25.467,25.467,0,0,0-37.486-9.2q-.145.1-.289.209a.765.765,0,1,1-.907-1.233q.152-.112.306-.222a27,27,0,0,1,39.707,9.689l.7-1.745a.765.765,0,0,1,1.419.573l-1.441,3.569a.765.765,0,0,1-1,.423l-3.569-1.441a.765.765,0,0,1,.573-1.419ZM5.673,44.437l-.141,1.937a.765.765,0,1,1-1.526-.111l.26-3.583a.765.765,0,0,1,.819-.708l3.583.26a.765.765,0,0,1-.111,1.526L7,43.646a25.465,25.465,0,0,0,32.409,6.468q.319-.179.633-.366a.765.765,0,0,1,.786,1.313q-.332.2-.671.388A27,27,0,0,1,5.674,44.437Zm19.4-8.769a.765.765,0,0,1,1.53,0v3.492a1.514,1.514,0,0,0,1.51,1.51H39.379a.765.765,0,0,1,.63.332l2.832,4.117,1.239-3.914a.765.765,0,0,1,.729-.534h3.6a1.514,1.514,0,0,0,1.51-1.51V25.77a1.514,1.514,0,0,0-1.51-1.51H32.153a.765.765,0,1,1,0-1.53H48.405a3.047,3.047,0,0,1,3.041,3.041V39.161A3.047,3.047,0,0,1,48.405,42.2H45.37l-1.542,4.873a.765.765,0,0,1-1.36.2L38.977,42.2H28.115a3.047,3.047,0,0,1-3.041-3.041ZM14.385,34.248,10.41,39.155a.765.765,0,0,1-1.324-.25L7.606,34.248H5.5a2.966,2.966,0,0,1-2.959-2.959v-17.4A2.966,2.966,0,0,1,5.5,10.926H27.654a2.966,2.966,0,0,1,2.959,2.959v17.4a2.966,2.966,0,0,1-2.959,2.959Zm-.365-1.53H27.654a1.432,1.432,0,0,0,1.429-1.429v-17.4a1.432,1.432,0,0,0-1.429-1.429H5.5a1.432,1.432,0,0,0-1.429,1.429v17.4A1.432,1.432,0,0,0,5.5,32.717H8.165a.765.765,0,0,1,.729.533l1.22,3.838L13.426,33a.765.765,0,0,1,.595-.284ZM12.9,30.494l-.048.051h0a1.441,1.441,0,0,1-1.051.437h0l-1.839,0A1.492,1.492,0,0,1,8.463,29.5q-.013-3.741-.026-7.484h0a1.492,1.492,0,0,1,1.486-1.493l1.838,0a1.476,1.476,0,0,1,.56.107c.16-.258.337-.516.512-.761a5.237,5.237,0,0,0,.721-1.087l.81-3.334a2.368,2.368,0,0,1,4.6,1.114l-.8,3.374c.179,0,.431.007.723.009l3.939-.006.068,0a1.946,1.946,0,0,1,1.389.646,1.967,1.967,0,0,1,.425,1.314h0a1.96,1.96,0,0,1-.672,1.472,2.155,2.155,0,0,1,.183.922,1.84,1.84,0,0,1-.893,1.592,1.882,1.882,0,0,1-.7,2.388,1.764,1.764,0,0,1,.192.811h0a2.014,2.014,0,0,1-1.952,1.971h-.015l-6.68.017h0a1.7,1.7,0,0,1-1.277-.58Zm.361-8.369.022,6.591a1.285,1.285,0,0,1,.742.727h0a.164.164,0,0,0,.152.1l6.672-.017a.464.464,0,0,0,.446-.448.432.432,0,0,0-.182-.319,1.7,1.7,0,0,0-.31-.211.765.765,0,0,1,.374-1.434c.469,0,.8-.126.8-.43h0a.572.572,0,0,0-.4-.49.765.765,0,0,1,.292-1.474c.48,0,.818-.123.82-.43h0a.434.434,0,0,0-.38-.451.765.765,0,0,1,.225-1.511c.375.032.643-.163.645-.433a.48.48,0,0,0-.064-.319.46.46,0,0,0-.321-.107l-3.907.006h-.006c-.714-.005-1.042,0-1.228-.032a1.051,1.051,0,0,1-.631-.293h0a1.307,1.307,0,0,1-.407-1.3l.858-3.637v0a.839.839,0,0,0-.616-1.011h0a.839.839,0,0,0-1.011.616l-.81,3.335a4.72,4.72,0,0,1-.73,1.29,7.95,7.95,0,0,0-1.053,1.695Zm-3.29-.071q.013,3.7.026,7.4l1.759,0-.025-7.4-1.76,0Zm29.814,5.557a3.658,3.658,0,0,1,3.2-1.506,3.805,3.805,0,0,1,3.962,3.618A6.678,6.678,0,0,1,45.531,33.5a33.582,33.582,0,0,1-5,5.137,1.117,1.117,0,0,1-1.495,0,33.588,33.588,0,0,1-5-5.137,6.678,6.678,0,0,1-1.409-3.779,3.805,3.805,0,0,1,3.962-3.618,3.66,3.66,0,0,1,3.2,1.506Zm0,9.643a30.226,30.226,0,0,0,4.5-4.633,5.177,5.177,0,0,0,1.13-2.9,2.277,2.277,0,0,0-2.431-2.088,2.423,2.423,0,0,0-2.256,1.293h0a1.122,1.122,0,0,1-1.88,0,2.425,2.425,0,0,0-2.257-1.293,2.277,2.277,0,0,0-2.431,2.088,5.177,5.177,0,0,0,1.13,2.9,30.216,30.216,0,0,0,4.5,4.633Z" fill-rule="evenodd"/>
      </g>
    </g>
  </g>
</svg>
