<svg xmlns="http://www.w3.org/2000/svg" xmlns:xlink="http://www.w3.org/1999/xlink" width="98" height="97.999" viewBox="0 0 98 97.999">
  <defs>
    <clipPath id="clip-path">
      <rect id="Rectangle_412660" data-name="Rectangle 412660" width="56" height="54" transform="translate(982.888 2211.739)" fill="#fff"/>
    </clipPath>
  </defs>
  <g id="Group_1206596" data-name="Group 1206596" transform="translate(-961.618 -2189.289)">
    <g id="Group_1206324" data-name="Group 1206324" transform="translate(90.506 1912.125)">
      <g id="Group_1188789" data-name="Group 1188789" transform="translate(871.113 277.164)">
        <path id="Path_1243039" data-name="Path 1243039" d="M41.05,0h0a41.05,41.05,0,0,1,0,82.1h0a41.05,41.05,0,0,1,0-82.1Z" transform="translate(7.951 7.949)" fill="#ffa724"/>
        <rect id="Rectangle_400907" data-name="Rectangle 400907" width="88.438" height="88.437" rx="44.218" transform="translate(4.782 4.781)" fill="none"/>
        <g id="Group_1098742" data-name="Group 1098742" transform="translate(0)">
          <g id="Rectangle_400898" data-name="Rectangle 400898" transform="translate(0)" fill="none" stroke="#fff" stroke-width="2" opacity="0.859">
            <rect width="98" height="97.999" rx="48.999" stroke="none"/>
            <rect x="1" y="1" width="96" height="95.999" rx="47.999" fill="none"/>
          </g>
          <g id="Rectangle_400907-2" data-name="Rectangle 400907" transform="translate(0)" fill="none" stroke="#0f1f33" stroke-linecap="round" stroke-width="2">
            <rect width="98" height="97.999" rx="48.999" stroke="none"/>
            <rect x="1" y="1" width="96" height="95.999" rx="47.999" fill="none"/>
          </g>
        </g>
      </g>
    </g>
    <g id="Mask_Group_1099508" data-name="Mask Group 1099508" clip-path="url(#clip-path)">
      <g id="aggregate_2328893" transform="translate(983.017 2210.868)">
        <g id="Group_1206594" data-name="Group 1206594">
          <g id="Group_1206585" data-name="Group 1206585">
            <path id="Path_1277628" data-name="Path 1277628" d="M54,27.871V50.516A3.483,3.483,0,0,1,50.516,54H5.226a3.483,3.483,0,0,1-3.484-3.484V27.871a3.483,3.483,0,0,1,3.484-3.484h45.29A3.483,3.483,0,0,1,54,27.871Z" fill="#aab2bd"/>
          </g>
          <g id="Group_1206586" data-name="Group 1206586">
            <path id="Path_1277629" data-name="Path 1277629" d="M8.71,35.71v6.968a.874.874,0,0,1-.871.871H6.1a.874.874,0,0,1-.871-.871V35.71a.874.874,0,0,1,.871-.871H7.839A.874.874,0,0,1,8.71,35.71Z" fill="#e6e9ed"/>
          </g>
          <g id="Group_1206587" data-name="Group 1206587">
            <path id="Path_1277630" data-name="Path 1277630" d="M13.065,27.871h33.1a.874.874,0,0,1,.871.871v20.9a.874.874,0,0,1-.871.871h-33.1a.874.874,0,0,1-.871-.871v-20.9A.874.874,0,0,1,13.065,27.871Z" fill="#69d6f4"/>
          </g>
          <g id="Group_1206588" data-name="Group 1206588">
            <path id="Path_1277631" data-name="Path 1277631" d="M30.127,44.933a1.232,1.232,0,0,1-.871,2.1h-2.77A1.227,1.227,0,0,1,25.258,45.8v-5.74h1.333a14.716,14.716,0,0,1,2.151.148v2.822a1.232,1.232,0,0,0,.357.871Z" fill="#aab2bd"/>
          </g>
          <g id="Group_1206589" data-name="Group 1206589">
            <path id="Path_1277632" data-name="Path 1277632" d="M28.742,40.213a14.716,14.716,0,0,0-2.151-.148H25.258a3.484,3.484,0,1,1,0-6.968h1.333a16.439,16.439,0,0,0,7.377-1.742V41.806A16.085,16.085,0,0,0,28.742,40.213Z" fill="#e6e9ed"/>
          </g>
          <g id="Group_1206590" data-name="Group 1206590">
            <path id="Path_1277633" data-name="Path 1277633" d="M33.968,31.355h3.484V41.806H33.968Z" fill="#fcd770"/>
          </g>
          <g id="Group_1206591" data-name="Group 1206591">
            <circle id="Ellipse_12468" data-name="Ellipse 12468" cx="8.71" cy="8.71" r="8.71" transform="translate(36.581 1.742)" fill="#fcd770"/>
          </g>
          <g id="Group_1206592" data-name="Group 1206592">
            <path id="Path_1277634" data-name="Path 1277634" d="M19.161,15.677v1.742H5.226V15.677a6.968,6.968,0,1,1,13.935,0Z" fill="#b4dd7f"/>
          </g>
          <g id="Group_1206593" data-name="Group 1206593">
            <circle id="Ellipse_12469" data-name="Ellipse 12469" cx="3.484" cy="3.484" r="3.484" transform="translate(8.71 1.742)" fill="#f0d0b4"/>
          </g>
        </g>
        <g id="Group_1206595" data-name="Group 1206595">
          <path id="Path_1277635" data-name="Path 1277635" d="M50.516,23.516H31.355V12.194a.872.872,0,0,1,.871-.871h3.528a9.581,9.581,0,1,0,0-1.742H32.226a2.616,2.616,0,0,0-2.613,2.613V23.516H26.129v-.871a2.616,2.616,0,0,0-2.613-2.613H13.935a.872.872,0,0,1-.871-.871V18.29h6.968V15.677a7.848,7.848,0,0,0-4.9-7.261,4.355,4.355,0,1,0-5.883,0,7.848,7.848,0,0,0-4.9,7.261V18.29h6.968v.871a2.616,2.616,0,0,0,2.613,2.613h9.581a.872.872,0,0,1,.871.871v.871H5.226A4.36,4.36,0,0,0,.871,27.871V50.516a4.36,4.36,0,0,0,4.355,4.355h45.29a4.36,4.36,0,0,0,4.355-4.355V27.871A4.36,4.36,0,0,0,50.516,23.516ZM45.29,2.613a7.839,7.839,0,1,1-7.839,7.839A7.848,7.848,0,0,1,45.29,2.613ZM9.581,5.226a2.613,2.613,0,1,1,2.613,2.613A2.616,2.616,0,0,1,9.581,5.226ZM6.1,15.677a6.1,6.1,0,0,1,12.194,0v.871H6.1ZM53.129,50.516a2.616,2.616,0,0,1-2.613,2.613H5.226a2.616,2.616,0,0,1-2.613-2.613V27.871a2.616,2.616,0,0,1,2.613-2.613h45.29a2.616,2.616,0,0,1,2.613,2.613Z"/>
          <path id="Path_1277636" data-name="Path 1277636" d="M7.839,33.968H6.1A1.744,1.744,0,0,0,4.355,35.71v6.968A1.744,1.744,0,0,0,6.1,44.419H7.839a1.744,1.744,0,0,0,1.742-1.742V35.71A1.744,1.744,0,0,0,7.839,33.968ZM6.1,42.677V35.71H7.839v6.968Z"/>
          <path id="Path_1277637" data-name="Path 1277637" d="M49.645,33.968h1.742V35.71H49.645Z"/>
          <path id="Path_1277638" data-name="Path 1277638" d="M49.645,37.452h1.742v6.968H49.645Z"/>
          <path id="Path_1277639" data-name="Path 1277639" d="M46.161,27h-33.1a1.744,1.744,0,0,0-1.742,1.742v20.9a1.744,1.744,0,0,0,1.742,1.742h33.1A1.744,1.744,0,0,0,47.9,49.645v-20.9A1.744,1.744,0,0,0,46.161,27Zm-33.1,22.645v-20.9h33.1v20.9Z"/>
          <path id="Path_1277640" data-name="Path 1277640" d="M33.578,30.575a15.7,15.7,0,0,1-6.99,1.65H25.258a4.355,4.355,0,0,0-.871,8.622V45.8a2.1,2.1,0,0,0,2.1,2.1h2.763a2.1,2.1,0,0,0,1.487-3.589l-1.021-1.021a.363.363,0,0,1-.105-.255v-1.8a15.654,15.654,0,0,1,3.966,1.347l.184.091h4.56V30.484h-4.56ZM22.645,36.581a2.616,2.616,0,0,1,2.613-2.613h1.331A17.457,17.457,0,0,0,33.1,32.7v7.767a17.457,17.457,0,0,0-6.508-1.271H25.258A2.616,2.616,0,0,1,22.645,36.581Zm5.842,7.944,1.021,1.021a.361.361,0,0,1-.255.616H26.49a.361.361,0,0,1-.361-.361V40.935h.46c.428,0,.855.024,1.282.06v2.042a2.088,2.088,0,0,0,.616,1.487Zm8.094-3.589H34.839v-8.71h1.742Z"/>
          <path id="Path_1277641" data-name="Path 1277641" d="M44.419,13.065a.872.872,0,0,1-.871-.871H41.806a2.616,2.616,0,0,0,2.613,2.613v1.742h1.742V14.806h2.613V12.194a2.616,2.616,0,0,0-2.613-2.613H44.419a.872.872,0,0,1-.871-.871V7.839h2.613a.872.872,0,0,1,.871.871h1.742A2.616,2.616,0,0,0,46.161,6.1V4.355H44.419V6.1H41.806V8.71a2.616,2.616,0,0,0,2.613,2.613h1.742a.872.872,0,0,1,.871.871v.871Z"/>
          <path id="Path_1277642" data-name="Path 1277642" d="M14.806,33.968h1.742V35.71H14.806Z"/>
          <path id="Path_1277643" data-name="Path 1277643" d="M14.806,30.484h1.742v1.742H14.806Z"/>
          <path id="Path_1277644" data-name="Path 1277644" d="M14.806,37.452h1.742v1.742H14.806Z"/>
          <path id="Path_1277645" data-name="Path 1277645" d="M42.677,39.194h1.742v1.742H42.677Z"/>
          <path id="Path_1277646" data-name="Path 1277646" d="M42.677,42.677h1.742v1.742H42.677Z"/>
          <path id="Path_1277647" data-name="Path 1277647" d="M42.677,46.161h1.742V47.9H42.677Z"/>
        </g>
      </g>
    </g>
  </g>
</svg>
