<svg xmlns="http://www.w3.org/2000/svg" xmlns:xlink="http://www.w3.org/1999/xlink" width="98" height="97.999" viewBox="0 0 98 97.999">
  <defs>
    <clipPath id="clip-path">
      <rect id="Rectangle_412492" data-name="Rectangle 412492" width="56" height="54" transform="translate(13547.723 -7743.965)" fill="#fff"/>
    </clipPath>
  </defs>
  <g id="Group_1206401" data-name="Group 1206401" transform="translate(-13526.453 7766.415)">
    <g id="Group_1206114" data-name="Group 1206114" transform="translate(12655.341 -8043.579)">
      <g id="Group_1188789" data-name="Group 1188789" transform="translate(871.113 277.164)">
        <path id="Path_1243039" data-name="Path 1243039" d="M41.05,0h0a41.05,41.05,0,0,1,0,82.1h0a41.05,41.05,0,0,1,0-82.1Z" transform="translate(7.951 7.949)" fill="#ffa724"/>
        <rect id="Rectangle_400907" data-name="Rectangle 400907" width="88.438" height="88.437" rx="44.218" transform="translate(4.782 4.781)" fill="none"/>
        <g id="Group_1098742" data-name="Group 1098742" transform="translate(0)">
          <g id="Rectangle_400898" data-name="Rectangle 400898" transform="translate(0)" fill="none" stroke="#fff" stroke-width="2" opacity="0.859">
            <rect width="98" height="97.999" rx="48.999" stroke="none"/>
            <rect x="1" y="1" width="96" height="95.999" rx="47.999" fill="none"/>
          </g>
          <g id="Rectangle_400907-2" data-name="Rectangle 400907" transform="translate(0)" fill="none" stroke="#0f1f33" stroke-linecap="round" stroke-width="2">
            <rect width="98" height="97.999" rx="48.999" stroke="none"/>
            <rect x="1" y="1" width="96" height="95.999" rx="47.999" fill="none"/>
          </g>
        </g>
      </g>
    </g>
    <g id="Mask_Group_1099612" data-name="Mask Group 1099612" clip-path="url(#clip-path)">
      <g id="rating_3080042" transform="translate(13547.36 -7745.765)">
        <circle id="Ellipse_12528" data-name="Ellipse 12528" cx="7.2" cy="7.2" r="7.2" transform="translate(27.9 2.7)" fill="#ffd422"/>
        <path id="Path_1276988" data-name="Path 1276988" d="M38.286,7.776a1.793,1.793,0,0,1,0,2.538L35.1,13.5l-3.186-3.186a1.8,1.8,0,0,1,2.547-2.538l.639.63.639-.63a1.8,1.8,0,0,1,2.547,0Z" fill="#ff5023"/>
        <path id="Path_1276989" data-name="Path 1276989" d="M54,23.4a7.2,7.2,0,0,1-14.247,1.485A7.29,7.29,0,0,1,39.6,23.4a7.2,7.2,0,1,1,14.4,0Z" fill="#ebbf00"/>
        <rect id="Rectangle_412610" data-name="Rectangle 412610" width="18" height="28.8" rx="3.6" transform="translate(8.1 14.4)" fill="#5aaae7"/>
        <path id="Path_1276990" data-name="Path 1276990" d="M49.986,21.276a1.793,1.793,0,0,1,0,2.538L46.8,27l-3.186-3.186a1.8,1.8,0,0,1,2.547-2.538l.639.63.639-.63a1.8,1.8,0,0,1,2.547,0Z" fill="#ff5023"/>
        <path id="Path_1276991" data-name="Path 1276991" d="M44.1,31.5a7.193,7.193,0,1,1-.153-1.485A7.29,7.29,0,0,1,44.1,31.5Z" fill="#ffd422"/>
        <path id="Path_1276992" data-name="Path 1276992" d="M40.086,29.376a1.793,1.793,0,0,1,0,2.538L36.9,35.1l-3.186-3.186a1.8,1.8,0,1,1,2.547-2.538l.639.63.639-.63a1.8,1.8,0,0,1,2.547,0Z" fill="#ff5023"/>
        <path id="Path_1276993" data-name="Path 1276993" d="M19.926,39.375a1.675,1.675,0,0,1-.063.468L19.449,41.4l-.486,1.8H16.677l.972-3.6.414-1.557a1.675,1.675,0,0,0,.063-.468,1.72,1.72,0,0,1,.468.063A1.8,1.8,0,0,1,19.926,39.375Z" fill="#3d9ae2"/>
        <path id="Path_1276994" data-name="Path 1276994" d="M18.126,37.575a1.675,1.675,0,0,1-.063.468L17.649,39.6l-.972,3.6-.3,1.116a5.594,5.594,0,0,0-.18,1.4V47.7l-2.7,3.6v4.5H3.6V49.5l-.9-3.6V35.1a5.4,5.4,0,0,1,5.4-5.4v8.1l2.187,3.645a1.764,1.764,0,0,0,1.512.864h.018a1.783,1.783,0,0,0,1.728-1.323l1.044-3.87a1.8,1.8,0,0,1,3.537.459Z" fill="#ffc477"/>
        <path id="Path_1276995" data-name="Path 1276995" d="M22.5,13.5H11.7A4.5,4.5,0,0,0,7.2,18V28.872A6.3,6.3,0,0,0,1.8,35.1V45.9a.887.887,0,0,0,.027.216L2.7,49.608V55.8H4.5V49.5a.887.887,0,0,0-.027-.216L3.6,45.792V35.1a4.508,4.508,0,0,1,3.6-4.41V37.8a.9.9,0,0,0,.126.459L9.513,41.9a2.66,2.66,0,0,0,2.277,1.3h.036a2.677,2.677,0,0,0,2.592-1.989l1.035-3.87a.9.9,0,0,1,1.647-.225.877.877,0,0,1,.09.684l-1.674,6.273a6.23,6.23,0,0,0-.216,1.629V47.4L12.78,50.76a.886.886,0,0,0-.18.54v4.5h1.8V51.6l2.52-3.357a.886.886,0,0,0,.18-.54V45.711a4.567,4.567,0,0,1,.153-1.161l.117-.45H22.5A4.5,4.5,0,0,0,27,39.6V18a4.5,4.5,0,0,0-4.5-4.5Zm2.7,26.1a2.708,2.708,0,0,1-2.7,2.7H17.856l.477-1.8H19.8V38.7h-.981l.117-.423a2.7,2.7,0,0,0-5.22-1.395l-1.035,3.87a.926.926,0,0,1-.873.657.858.858,0,0,1-.747-.432L9,37.548V18a2.708,2.708,0,0,1,2.7-2.7H22.5A2.708,2.708,0,0,1,25.2,18Z"/>
        <path id="Path_1276996" data-name="Path 1276996" d="M14.4,17.1h5.4v1.8H14.4Z"/>
        <path id="Path_1276997" data-name="Path 1276997" d="M10.8,17.1h1.8v1.8H10.8Z"/>
        <path id="Path_1276998" data-name="Path 1276998" d="M11.7,22.5H22.5v1.8H11.7Z"/>
        <path id="Path_1276999" data-name="Path 1276999" d="M11.7,26.1H22.5v1.8H11.7Z"/>
        <path id="Path_1277000" data-name="Path 1277000" d="M11.7,29.7H22.5v1.8H11.7Z"/>
        <path id="Path_1277001" data-name="Path 1277001" d="M36.9,28.736a2.7,2.7,0,0,0-3.818,3.82l3.182,3.182a.9.9,0,0,0,1.273,0l3.181-3.181a2.7,2.7,0,0,0-3.818-3.82Zm2.545,2.546L36.9,33.827l-2.545-2.545a.9.9,0,0,1,1.272-1.274l.636.635a.9.9,0,0,0,1.273,0l.636-.636a.9.9,0,1,1,1.273,1.274Z"/>
        <path id="Path_1277002" data-name="Path 1277002" d="M50.618,20.636a2.7,2.7,0,0,0-3.818,0,2.7,2.7,0,1,0-3.818,3.82l3.181,3.182a.9.9,0,0,0,1.273,0l3.181-3.181a2.7,2.7,0,0,0,0-3.82Zm-1.273,2.546L46.8,25.727l-2.545-2.545a.9.9,0,1,1,1.272-1.274l.636.635a.9.9,0,0,0,1.273,0l.636-.636a.9.9,0,0,1,1.273,1.274Z"/>
        <path id="Path_1277003" data-name="Path 1277003" d="M34.464,14.136a.9.9,0,0,0,1.273,0l3.181-3.181A2.7,2.7,0,1,0,35.1,7.136a2.7,2.7,0,1,0-3.818,3.82ZM32.556,8.409a.9.9,0,0,1,1.272,0l.636.635a.9.9,0,0,0,1.273,0l.636-.636a.9.9,0,0,1,1.273,1.274L35.1,12.227,32.555,9.682a.9.9,0,0,1,0-1.273Z"/>
        <path id="Path_1277004" data-name="Path 1277004" d="M46.8,15.3a8.109,8.109,0,0,0-8.1,8.1c0,.07.009.14.011.212A8.1,8.1,0,1,0,45,31.5c0-.071-.009-.14-.011-.211A8.1,8.1,0,1,0,46.8,15.3ZM36.9,37.8a6.3,6.3,0,1,1,6.3-6.3,6.3,6.3,0,0,1-6.3,6.3Zm9.9-8.1a6.345,6.345,0,0,1-2.1-.365,8.129,8.129,0,0,0-4.127-5.046,6.391,6.391,0,0,1-.07-.888,6.3,6.3,0,1,1,6.3,6.3Z"/>
        <path id="Path_1277005" data-name="Path 1277005" d="M35.1,18A8.1,8.1,0,1,0,27,9.9,8.1,8.1,0,0,0,35.1,18Zm0-14.4a6.3,6.3,0,1,1-6.3,6.3,6.3,6.3,0,0,1,6.3-6.3Z"/>
      </g>
    </g>
  </g>
</svg>
