<svg xmlns="http://www.w3.org/2000/svg" xmlns:xlink="http://www.w3.org/1999/xlink" width="98" height="97.999" viewBox="0 0 98 97.999">
  <defs>
    <clipPath id="clip-path">
      <rect id="Rectangle_412628" data-name="Rectangle 412628" width="56" height="54" transform="translate(1139.903 4967.538)" fill="#fff"/>
    </clipPath>
  </defs>
  <g id="Group_1206540" data-name="Group 1206540" transform="translate(-1118.634 -4945.088)">
    <g id="Group_1206305" data-name="Group 1206305" transform="translate(247.521 4667.924)">
      <g id="Group_1188789" data-name="Group 1188789" transform="translate(871.113 277.164)">
        <path id="Path_1243039" data-name="Path 1243039" d="M41.05,0h0a41.05,41.05,0,0,1,0,82.1h0a41.05,41.05,0,0,1,0-82.1Z" transform="translate(7.951 7.949)" fill="#ffa724"/>
        <rect id="Rectangle_400907" data-name="Rectangle 400907" width="88.438" height="88.437" rx="44.218" transform="translate(4.782 4.781)" fill="none"/>
        <g id="Group_1098742" data-name="Group 1098742" transform="translate(0)">
          <g id="Rectangle_400898" data-name="Rectangle 400898" transform="translate(0)" fill="none" stroke="#fff" stroke-width="2" opacity="0.859">
            <rect width="98" height="97.999" rx="48.999" stroke="none"/>
            <rect x="1" y="1" width="96" height="95.999" rx="47.999" fill="none"/>
          </g>
          <g id="Rectangle_400907-2" data-name="Rectangle 400907" transform="translate(0)" fill="none" stroke="#0f1f33" stroke-linecap="round" stroke-width="2">
            <rect width="98" height="97.999" rx="48.999" stroke="none"/>
            <rect x="1" y="1" width="96" height="95.999" rx="47.999" fill="none"/>
          </g>
        </g>
      </g>
    </g>
    <g id="Mask_Group_1099497" data-name="Mask Group 1099497" clip-path="url(#clip-path)">
      <g id="Artboard31" transform="translate(1140.142 4966.776)">
        <g id="Group_1206535" data-name="Group 1206535">
          <g id="Group_1206534" data-name="Group 1206534">
            <g id="Group_1206526" data-name="Group 1206526">
              <g id="Group_1206522" data-name="Group 1206522">
                <g id="CorelEMF">
                  <path id="Path_1277443" data-name="Path 1277443" d="M6.681,11.1H31.327a.908.908,0,0,1,.664.275l4.472,4.472a.908.908,0,0,1,.275.664V50.333a.939.939,0,0,1-.937.937H6.681a.94.94,0,0,1-.939-.937v-38.3a.942.942,0,0,1,.939-.94Z" fill="#eceff1" fill-rule="evenodd"/>
                  <path id="Path_1277444" data-name="Path 1277444" d="M31.716,11.177V15.65a.471.471,0,0,0,.47.47h4.472a.939.939,0,0,0-.195-.275l-4.472-4.472A.987.987,0,0,0,31.716,11.177Z" fill="#a79ba7" fill-rule="evenodd"/>
                  <path id="Path_1277445" data-name="Path 1277445" d="M6.681,11.1h.937V51.27H6.681a.94.94,0,0,1-.939-.937v-38.3a.942.942,0,0,1,.939-.94Z" fill="#d1d1d6" fill-rule="evenodd"/>
                </g>
              </g>
              <g id="Group_1206523" data-name="Group 1206523">
                <path id="Path_1277446" data-name="Path 1277446" d="M12.008,21.383h5.243a.686.686,0,0,1,.684.684v5.243a.686.686,0,0,1-.684.684H12.008a.686.686,0,0,1-.684-.684V22.067a.686.686,0,0,1,.684-.684Z" fill="#8ac9fe" fill-rule="evenodd"/>
                <path id="Path_1277447" data-name="Path 1277447" d="M16.271,21.383h.98a.686.686,0,0,1,.684.684v5.243a.686.686,0,0,1-.684.684h-.98a.686.686,0,0,0,.684-.684V22.067a.686.686,0,0,0-.684-.684Z" fill="#60b7ff" fill-rule="evenodd"/>
              </g>
              <g id="Group_1206524" data-name="Group 1206524">
                <path id="Path_1277448" data-name="Path 1277448" d="M12.008,30.821h5.243a.686.686,0,0,1,.684.684v5.243a.686.686,0,0,1-.684.684H12.008a.686.686,0,0,1-.684-.684V31.5a.686.686,0,0,1,.684-.684Z" fill="#6cf5c2" fill-rule="evenodd"/>
                <path id="Path_1277449" data-name="Path 1277449" d="M16.271,30.821h.98a.686.686,0,0,1,.684.684v5.243a.686.686,0,0,1-.684.684h-.98a.686.686,0,0,0,.684-.684V31.5A.686.686,0,0,0,16.271,30.821Z" fill="#00e499" fill-rule="evenodd"/>
              </g>
              <g id="Group_1206525" data-name="Group 1206525">
                <path id="Path_1277450" data-name="Path 1277450" d="M12.008,40.258h5.243a.688.688,0,0,1,.684.686v5.243a.686.686,0,0,1-.684.684H12.008a.686.686,0,0,1-.684-.684V40.944a.688.688,0,0,1,.684-.686Z" fill="#ffe177" fill-rule="evenodd"/>
                <path id="Path_1277451" data-name="Path 1277451" d="M16.271,40.258h.98a.688.688,0,0,1,.684.686v5.243a.686.686,0,0,1-.684.684h-.98a.686.686,0,0,0,.684-.684V40.944A.688.688,0,0,0,16.271,40.258Z" fill="#ffd064" fill-rule="evenodd"/>
              </g>
            </g>
            <g id="Group_1206532" data-name="Group 1206532">
              <g id="Group_1206527" data-name="Group 1206527">
                <path id="Path_1277452" data-name="Path 1277452" d="M36.741,51.3A10.452,10.452,0,1,0,26.288,40.845,10.473,10.473,0,0,0,36.741,51.3Z" fill="#fe646f" fill-rule="evenodd"/>
                <path id="Path_1277453" data-name="Path 1277453" d="M36.741,30.394a10.452,10.452,0,1,1,0,20.9c-.239,0-.474-.008-.709-.024a10.452,10.452,0,0,0,0-20.855C36.266,30.4,36.5,30.394,36.741,30.394Z" fill="#fd4755" fill-rule="evenodd"/>
                <path id="Path_1277454" data-name="Path 1277454" d="M36.741,47.562a6.716,6.716,0,1,0-6.717-6.717A6.73,6.73,0,0,0,36.741,47.562Z" fill="#eceff1" fill-rule="evenodd"/>
                <path id="Path_1277455" data-name="Path 1277455" d="M36.741,34.13c.159,0,.316.005.473.016a6.717,6.717,0,0,0,0,13.4c-.157.011-.313.016-.473.016a6.716,6.716,0,1,1,0-13.432Z" fill="#d1d1d6" fill-rule="evenodd"/>
                <path id="Path_1277456" data-name="Path 1277456" d="M36.741,43.826a2.981,2.981,0,1,0-2.981-2.981A2.987,2.987,0,0,0,36.741,43.826Z" fill="#fe646f" fill-rule="evenodd"/>
                <path id="Path_1277457" data-name="Path 1277457" d="M36.741,37.865a2.981,2.981,0,1,0,0,5.961,2.9,2.9,0,0,0,.473-.038,2.981,2.981,0,0,1,0-5.886A2.9,2.9,0,0,0,36.741,37.865Z" fill="#fd4755" fill-rule="evenodd"/>
              </g>
              <g id="Group_1206528" data-name="Group 1206528">
                <path id="Path_1277458" data-name="Path 1277458" d="M38.006,29.068a1.268,1.268,0,0,0-2.536,0v5a1.268,1.268,0,1,0,2.536,0Z" fill="#837683" fill-rule="evenodd"/>
                <path id="Path_1277459" data-name="Path 1277459" d="M35.577,34.58a1.268,1.268,0,0,0,1.777-1.162v-5a1.261,1.261,0,0,0-.106-.509,1.269,1.269,0,0,1,.759,1.162v5a1.268,1.268,0,0,1-2.43.509Z" fill="#685e68" fill-rule="evenodd"/>
              </g>
              <g id="Group_1206529" data-name="Group 1206529">
                <path id="Path_1277460" data-name="Path 1277460" d="M48.514,42.112a1.268,1.268,0,1,0,0-2.536h-5a1.268,1.268,0,1,0,0,2.536Z" fill="#837683" fill-rule="evenodd"/>
                <path id="Path_1277461" data-name="Path 1277461" d="M42.35,41.353a1.262,1.262,0,0,0,.509.106h5a1.268,1.268,0,0,0,1.162-1.777,1.268,1.268,0,0,1-.509,2.43h-5A1.269,1.269,0,0,1,42.35,41.353Z" fill="#685e68" fill-rule="evenodd"/>
              </g>
              <g id="Group_1206530" data-name="Group 1206530">
                <path id="Path_1277462" data-name="Path 1277462" d="M35.47,52.62a1.268,1.268,0,0,0,2.536,0v-5a1.268,1.268,0,1,0-2.536,0Z" fill="#837683" fill-rule="evenodd"/>
                <path id="Path_1277463" data-name="Path 1277463" d="M35.577,53.129a1.268,1.268,0,0,0,1.777-1.162v-5a1.261,1.261,0,0,0-.106-.509,1.269,1.269,0,0,1,.759,1.162v5a1.268,1.268,0,0,1-2.43.509Z" fill="#685e68" fill-rule="evenodd"/>
              </g>
              <g id="Group_1206531" data-name="Group 1206531">
                <path id="Path_1277464" data-name="Path 1277464" d="M24.962,39.576a1.268,1.268,0,0,0,0,2.536h5a1.268,1.268,0,0,0,0-2.536Z" fill="#837683" fill-rule="evenodd"/>
                <path id="Path_1277465" data-name="Path 1277465" d="M23.8,41.353a1.262,1.262,0,0,0,.509.106h5a1.268,1.268,0,0,0,1.162-1.777,1.268,1.268,0,0,1-.509,2.43h-5a1.269,1.269,0,0,1-1.162-.759Z" fill="#685e68" fill-rule="evenodd"/>
              </g>
            </g>
            <g id="Group_1206533" data-name="Group 1206533">
              <path id="Path_1277466" data-name="Path 1277466" d="M20.783,3.075a7.4,7.4,0,0,1,2.17.9l1.41-.626L26.024,5.01,25.4,6.42a7.4,7.4,0,0,1,.9,2.17l1.439.554v2.35l-1.439.554a7.41,7.41,0,0,1-.9,2.169l.626,1.41-1.661,1.662-1.41-.627a7.406,7.406,0,0,1-2.17.9L20.229,19h-2.35l-.554-1.439a7.408,7.408,0,0,1-2.169-.9l-1.41.627-1.662-1.662.627-1.409a7.429,7.429,0,0,1-.9-2.17l-1.438-.554V9.144l1.438-.554a7.4,7.4,0,0,1,.9-2.17l-.627-1.41,1.662-1.661,1.409.626a7.427,7.427,0,0,1,2.17-.9l.554-1.439h2.35Z" fill="#ffe177" fill-rule="evenodd"/>
              <path id="Path_1277467" data-name="Path 1277467" d="M23.889,3.559l.474-.21L26.024,5.01,25.4,6.42a7.4,7.4,0,0,1,.9,2.17l1.439.554v2.35l-1.439.554a7.41,7.41,0,0,1-.9,2.169l.626,1.41-1.661,1.662-.474-.21,1.452-1.452-.627-1.41a7.41,7.41,0,0,0,.9-2.169l1.439-.554V9.144L25.614,8.59a7.4,7.4,0,0,0-.9-2.17l.627-1.41Zm-10.354,0,.21-.21,1.409.626c-.1.055-.2.113-.294.173Zm7.247-.484a7.4,7.4,0,0,1,2.17.9l-.389.173A9.684,9.684,0,0,0,20.1,3.075l-.554-1.439h.684ZM15.156,16.662l-1.41.627-.21-.21,1.325-.589Q15.005,16.579,15.156,16.662Zm7.8,0a7.406,7.406,0,0,1-2.17.9L20.229,19h-.684l.554-1.438a9.707,9.707,0,0,0,2.466-1.073Z" fill="#ffd064" fill-rule="evenodd"/>
              <path id="Path_1277468" data-name="Path 1277468" d="M19.054,6.036a4.282,4.282,0,1,1-4.281,4.282,4.282,4.282,0,0,1,4.281-4.282Z" fill="#eceff1" fill-rule="evenodd"/>
              <path id="Path_1277469" data-name="Path 1277469" d="M19.054,6.036c.1,0,.194,0,.291.01a4.282,4.282,0,0,0,0,8.544c-.1.006-.193.009-.291.009a4.282,4.282,0,0,1,0-8.564Z" fill="#d1d1d6" fill-rule="evenodd"/>
            </g>
          </g>
          <path id="Path_1277470" data-name="Path 1277470" d="M34.6,52.144H5.743a.871.871,0,0,1-.871-.871V11.1a.871.871,0,0,1,.871-.871H9.5V9.144a.871.871,0,0,1,.558-.813l1.026-.395a8.306,8.306,0,0,1,.651-1.57l-.447-1.005a.871.871,0,0,1,.18-.97l1.661-1.661a.871.871,0,0,1,.97-.18L15.1,3a8.257,8.257,0,0,1,1.568-.65l.4-1.028a.871.871,0,0,1,.813-.557h2.35a.871.871,0,0,1,.813.559l.395,1.027A8.254,8.254,0,0,1,23.006,3l1.005-.447a.871.871,0,0,1,.97.18l1.661,1.661a.871.871,0,0,1,.181.969l-.446,1.006a8.238,8.238,0,0,1,.65,1.571l1.025.395a.871.871,0,0,1,.558.813v1.089h3.1a.871.871,0,0,1,.616.255l5.023,5.023a.871.871,0,0,1,.255.616v10.99a2.141,2.141,0,0,1,1.268,1.954v.658a11.367,11.367,0,0,1,8.979,8.979h.658a2.139,2.139,0,0,1,0,4.278h-.658a11.369,11.369,0,0,1-8.979,8.979v.658a2.139,2.139,0,1,1-4.278,0ZM9.644,11.975H6.614V50.4H30.678A11.426,11.426,0,0,1,26.559,45.8H22.111a.871.871,0,0,1,0-1.742H25.88q-.142-.478-.242-.971H22.111a.871.871,0,0,1,0-1.742h.768a2.141,2.141,0,0,1,2.082-2.633h.658a11.217,11.217,0,0,1,.728-2.351H22.111a.871.871,0,0,1,0-1.742h5.182a11.429,11.429,0,0,1,.721-.971h-5.9a.871.871,0,0,1,0-1.742h7.7A11.281,11.281,0,0,1,34.6,29.729v-.658a2.141,2.141,0,0,1,1.268-1.954V17H31.714a.871.871,0,0,1-.871-.871V11.975H28.467a.871.871,0,0,1-.414.332l-1.026.395a8.326,8.326,0,0,1-.65,1.567l.446,1.007a.871.871,0,0,1-.181.969l-1.661,1.661a.871.871,0,0,1-.969.18l-1.005-.445a8.232,8.232,0,0,1-1.569.65l-.395,1.025a.871.871,0,0,1-.813.558h-2.35a.871.871,0,0,1-.813-.558l-.395-1.025a8.3,8.3,0,0,1-1.57-.651l-1.007.446a.871.871,0,0,1-.969-.18l-1.661-1.661a.871.871,0,0,1-.18-.97l.447-1a8.308,8.308,0,0,1-.651-1.568l-1.027-.4a.871.871,0,0,1-.414-.332Zm24.99,3.281-2.049-2.049v2.049Zm4.242,16.253v2.059a7.629,7.629,0,0,1,5.14,5.14h2.059a9.622,9.622,0,0,0-7.2-7.2Zm-.37,3.767a2.139,2.139,0,0,1-3.537,0,5.882,5.882,0,0,0-3.8,3.8,2.139,2.139,0,0,1,0,3.537,5.885,5.885,0,0,0,3.8,3.8,2.139,2.139,0,0,1,3.537,0,5.882,5.882,0,0,0,3.8-3.8,2.139,2.139,0,0,1,0-3.537,5.88,5.88,0,0,0-3.8-3.8ZM34.6,33.569V31.509a9.624,9.624,0,0,0-7.2,7.2h2.059A7.632,7.632,0,0,1,34.6,33.569Zm11.477,9.417H44.015a7.632,7.632,0,0,1-5.139,5.139v2.059A9.624,9.624,0,0,0,46.074,42.986ZM34.6,50.185V48.125a7.635,7.635,0,0,1-5.139-5.139H27.4A9.627,9.627,0,0,0,34.6,50.185Zm13.915-8.94a.4.4,0,0,0,0-.794h-5a.4.4,0,0,0,0,.794ZM36.339,52.623a.4.4,0,1,0,.794,0v-5a.4.4,0,1,0-.794,0ZM12.006,20.515h5.243A1.559,1.559,0,0,1,18.8,22.07v5.243a1.559,1.559,0,0,1-1.555,1.555H12.006a1.559,1.559,0,0,1-1.555-1.555V22.07A1.559,1.559,0,0,1,12.006,20.515Zm.187,6.611h4.869V22.257H12.193Zm.424-1.954a.871.871,0,0,1,1.23-1.233l.466.465,1.031-1.275a.871.871,0,0,1,1.354,1.1l-1.639,2.027a.871.871,0,0,1-1.293.069ZM12.006,39.39h5.243A1.562,1.562,0,0,1,18.8,40.947V46.19a1.559,1.559,0,0,1-1.555,1.555H12.006a1.559,1.559,0,0,1-1.555-1.555V40.947A1.562,1.562,0,0,1,12.006,39.39Zm.187,1.742V46h4.869V41.132Zm.424,2.918a.871.871,0,0,1,1.23-1.233l.466.465,1.031-1.275A.871.871,0,0,1,16.7,43.1l-1.639,2.027a.871.871,0,0,1-1.293.069Zm-.611-14.1h5.243A1.559,1.559,0,0,1,18.8,31.507v5.243a1.559,1.559,0,0,1-1.555,1.555H12.006a1.559,1.559,0,0,1-1.555-1.555V31.507A1.559,1.559,0,0,1,12.006,29.952Zm.187,1.742v4.869h4.869V31.694Zm.423,2.915a.871.871,0,1,1,1.232-1.232l.466.466,1.03-1.274a.871.871,0,1,1,1.354,1.1l-1.639,2.027a.871.871,0,0,1-1.293.068Zm9.5-10.4a.871.871,0,1,1,0-1.742h8.583a.871.871,0,1,1,0,1.742Zm0,2.713a.871.871,0,0,1,0-1.742H27.7a.871.871,0,0,1,0,1.742ZM36.737,37a3.851,3.851,0,1,1-3.85,3.852A3.852,3.852,0,0,1,36.737,37Zm0,1.742a2.109,2.109,0,1,0,2.11,2.11,2.108,2.108,0,0,0-2.11-2.11Zm.4-9.666a.4.4,0,1,0-.794,0v5a.4.4,0,0,0,.794,0ZM24.961,40.45a.4.4,0,1,0,0,.794h5a.4.4,0,1,0,0-.794ZM19.972,3.387,19.633,2.5H18.479l-.341.884a.871.871,0,0,1-.611.534,6.523,6.523,0,0,0-1.915.793.871.871,0,0,1-.811.054l-.864-.384-.815.815.384.864a.871.871,0,0,1-.054.811,6.574,6.574,0,0,0-.8,1.919.871.871,0,0,1-.534.61l-.881.339V10.9l.881.339a.871.871,0,0,1,.534.609,6.564,6.564,0,0,0,.8,1.916.871.871,0,0,1,.055.812l-.384.864.816.816.864-.383a.871.871,0,0,1,.808.054,6.57,6.57,0,0,0,1.918.794.871.871,0,0,1,.612.535l.339.881h1.154l.339-.881a.871.871,0,0,1,.611-.535,6.493,6.493,0,0,0,1.913-.793.871.871,0,0,1,.811-.056l.864.383.816-.817-.383-.864a.871.871,0,0,1,.054-.808,6.581,6.581,0,0,0,.795-1.916.871.871,0,0,1,.535-.612l.881-.339V9.742L25.989,9.4a.871.871,0,0,1-.535-.612,6.507,6.507,0,0,0-.793-1.916.871.871,0,0,1-.055-.81l.383-.864-.816-.816-.864.384a.871.871,0,0,1-.811-.054,6.521,6.521,0,0,0-1.915-.793.871.871,0,0,1-.612-.535Zm-.917,1.962a4.971,4.971,0,1,1-4.97,4.97,4.97,4.97,0,0,1,4.97-4.97Zm0,1.742a3.229,3.229,0,1,0,3.23,3.228A3.227,3.227,0,0,0,19.055,7.09Z" fill-rule="evenodd"/>
        </g>
      </g>
    </g>
  </g>
</svg>
