<svg xmlns="http://www.w3.org/2000/svg" xmlns:xlink="http://www.w3.org/1999/xlink" width="98" height="97.999" viewBox="0 0 98 97.999">
  <defs>
    <clipPath id="clip-path">
      <rect id="Rectangle_412422" data-name="Rectangle 412422" width="56" height="54" transform="translate(-6225.147 -7195.05)" fill="#fff"/>
    </clipPath>
  </defs>
  <g id="Group_1206360" data-name="Group 1206360" transform="translate(6246.417 7217.5)">
    <g id="Group_1206359" data-name="Group 1206359">
      <g id="Group_1205870" data-name="Group 1205870" transform="translate(-7117.529 -7494.664)">
        <g id="Group_1188789" data-name="Group 1188789" transform="translate(871.113 277.164)">
          <path id="Path_1243039" data-name="Path 1243039" d="M41.05,0h0a41.05,41.05,0,0,1,0,82.1h0a41.05,41.05,0,0,1,0-82.1Z" transform="translate(7.951 7.949)" fill="#ffa724"/>
          <rect id="Rectangle_400907" data-name="Rectangle 400907" width="88.438" height="88.437" rx="44.218" transform="translate(4.782 4.781)" fill="none"/>
          <g id="Group_1098742" data-name="Group 1098742" transform="translate(0)">
            <g id="Rectangle_400898" data-name="Rectangle 400898" transform="translate(0)" fill="none" stroke="#fff" stroke-width="2" opacity="0.859">
              <rect width="98" height="97.999" rx="48.999" stroke="none"/>
              <rect x="1" y="1" width="96" height="95.999" rx="47.999" fill="none"/>
            </g>
            <g id="Rectangle_400907-2" data-name="Rectangle 400907" transform="translate(0)" fill="none" stroke="#0f1f33" stroke-linecap="round" stroke-width="2">
              <rect width="98" height="97.999" rx="48.999" stroke="none"/>
              <rect x="1" y="1" width="96" height="95.999" rx="47.999" fill="none"/>
            </g>
          </g>
        </g>
      </g>
      <g id="Mask_Group_1099597" data-name="Mask Group 1099597" clip-path="url(#clip-path)">
        <g id="satisfaction_18415989" transform="translate(-6224.253 -7195.156)">
          <g id="Group_1206330" data-name="Group 1206330">
            <g id="Group_1206325" data-name="Group 1206325">
              <path id="Path_1276665" data-name="Path 1276665" d="M9.255,42.432l2.761,9.487a15.922,15.922,0,0,1,1.658-1.287,5.262,5.262,0,0,1,1.855-.855,4.843,4.843,0,0,1,2.17.009h0l5.215,1.079a4.439,4.439,0,0,0,3.333-.512l12.817-7.77a2.432,2.432,0,0,0-2.522-4.159L27.62,43.836c.006-.023.012-.046.018-.069a2.7,2.7,0,0,0-1.959-3.261l-9.113-2.272a4.257,4.257,0,0,0-3.239.939Z" fill="#ffd6bd" fill-rule="evenodd"/>
              <path id="Path_1276666" data-name="Path 1276666" d="M24.671,44.529a2.7,2.7,0,0,0,3.047-1.387,2.661,2.661,0,0,1-.079.625,2.7,2.7,0,0,1-3.261,1.959c-1.774-.444-3.55-.87-5.326-1.306a.619.619,0,0,1,.295-1.2c1.773.435,3.544.867,5.325,1.31Z" fill="#f9c6aa" fill-rule="evenodd"/>
              <path id="Path_1276667" data-name="Path 1276667" d="M11.6,50.5l.414,1.422a15.933,15.933,0,0,1,1.658-1.287,5.263,5.263,0,0,1,1.855-.855,4.842,4.842,0,0,1,2.17.009h0l5.215,1.079a4.439,4.439,0,0,0,3.333-.512l12.817-7.77a2.439,2.439,0,0,0,.819-3.34q-.031-.051-.064-.1a2.435,2.435,0,0,1-1.168,2.019l-12.817,7.77a4.439,4.439,0,0,1-3.333.512l-5.215-1.079h0a4.843,4.843,0,0,0-2.17-.01,5.263,5.263,0,0,0-1.855.855A15.933,15.933,0,0,0,11.6,50.5Z" fill="#f9c6aa" fill-rule="evenodd"/>
              <path id="Path_1276668" data-name="Path 1276668" d="M9.865,40.4l3.375,11.6a.537.537,0,0,1-.365.664l-2.143.624a.537.537,0,0,1-.664-.365L6.693,41.32a.537.537,0,0,1,.365-.664L9.2,40.033a.537.537,0,0,1,.664.365Z" fill="#64b5f6" fill-rule="evenodd"/>
              <path id="Path_1276669" data-name="Path 1276669" d="M9.865,40.4l.039.135L7.9,41.116a.537.537,0,0,0-.365.664l3.336,11.462-.136.04a.537.537,0,0,1-.664-.365L6.693,41.32a.537.537,0,0,1,.365-.664L9.2,40.032a.537.537,0,0,1,.664.365Z" fill="#42a5f5" fill-rule="evenodd"/>
            </g>
            <g id="Group_1206326" data-name="Group 1206326">
              <path id="Path_1276670" data-name="Path 1276670" d="M29.91,12.347a12.324,12.324,0,1,1-6.481,22.809l-4.957,1.2,1.436-4.529a12.59,12.59,0,0,1-2.323-7.152A12.324,12.324,0,0,1,29.909,12.347Z" fill="#64b5f6" fill-rule="evenodd"/>
              <path id="Path_1276671" data-name="Path 1276671" d="M29.91,12.347a12.273,12.273,0,0,1,5.452,1.269,12.331,12.331,0,0,0-14.6,12.114,12.589,12.589,0,0,0,2.323,7.152l-.809,2.552-3.8.918,1.436-4.529a12.59,12.59,0,0,1-2.323-7.152A12.324,12.324,0,0,1,29.91,12.347ZM27.663,36.791q-.538-.263-1.058-.576l-.6.145a12.063,12.063,0,0,0,1.657.432Z" fill="#42a5f5" fill-rule="evenodd"/>
              <path id="Path_1276672" data-name="Path 1276672" d="M29.91,33.046a8.375,8.375,0,1,0-8.375-8.375,8.391,8.391,0,0,0,8.375,8.375Z" fill="#465759" fill-rule="evenodd"/>
              <path id="Path_1276673" data-name="Path 1276673" d="M29.91,16.3a8.363,8.363,0,0,0-6.731,3.391A8.375,8.375,0,0,1,35.271,31.1,8.375,8.375,0,0,0,29.909,16.3Z" fill="#3e4d4f" fill-rule="evenodd"/>
              <path id="Path_1276674" data-name="Path 1276674" d="M29.91,27.91A5.841,5.841,0,0,0,24.668,31.2a8.376,8.376,0,0,0,10.482,0A5.841,5.841,0,0,0,29.91,27.91Z" fill="#ffda2d" fill-rule="evenodd"/>
              <path id="Path_1276675" data-name="Path 1276675" d="M29.91,27.91A5.841,5.841,0,0,0,24.668,31.2a8.391,8.391,0,0,0,1.448.936,5.8,5.8,0,0,1,8.666-1.584A5.83,5.83,0,0,0,29.91,27.91Z" fill="#ffc700" fill-rule="evenodd"/>
              <path id="Path_1276676" data-name="Path 1276676" d="M29.91,27.606a3.147,3.147,0,1,0-3.147-3.147A3.153,3.153,0,0,0,29.91,27.606Z" fill="#ffd6bd" fill-rule="evenodd"/>
              <path id="Path_1276677" data-name="Path 1276677" d="M31.586,21.8a3.147,3.147,0,1,1-4.34,4.34,3.147,3.147,0,0,0,4.34-4.34Z" fill="#f9c6aa" fill-rule="evenodd"/>
            </g>
            <g id="Group_1206327" data-name="Group 1206327">
              <path id="Path_1276678" data-name="Path 1276678" d="M29.91.908l1.2,2.849,3.079.259L31.847,6.035l.706,3.009-2.643-1.6-2.643,1.6.706-3.009L25.632,4.016l3.08-.259Z" fill="#ffda2d" fill-rule="evenodd"/>
              <path id="Path_1276679" data-name="Path 1276679" d="M29.91.908l1.2,2.849,3.08.259-1.118.965-1.962-.165-1.2-2.849-1.2,2.849-1.962.165-1.118-.965,3.08-.259Zm2.144,6.007.5,2.128-.289-.175-.416-1.775.206-.178Zm-4.5,1.953-.289.175.5-2.128.206.178-.416,1.775Z" fill="#ffc700" fill-rule="evenodd"/>
            </g>
            <g id="Group_1206328" data-name="Group 1206328">
              <path id="Path_1276680" data-name="Path 1276680" d="M46.713,7.868,45.545,10.73l1.995,2.36-3.082-.226L42.829,15.49l-.737-3-3-.737,2.627-1.628-.226-3.082,2.36,1.995Z" fill="#ffda2d" fill-rule="evenodd"/>
              <path id="Path_1276681" data-name="Path 1276681" d="M46.713,7.868l-.518,1.27-2.343.956L41.574,8.17l-.083-1.129,2.36,1.995,2.861-1.168Zm-.876,3.206,1.7,2.016-.954-.07-1.041-1.232.291-.714Zm-5.522.978-1.223-.3,2.552-1.582.074,1.013-1.4.87Z" fill="#ffc700" fill-rule="evenodd"/>
            </g>
            <g id="Group_1206329" data-name="Group 1206329">
              <path id="Path_1276682" data-name="Path 1276682" d="M13.106,7.868l2.861,1.168,2.361-1.995L18.1,10.123l2.626,1.629-3,.737-.737,3-1.628-2.626-3.082.226,1.995-2.36Z" fill="#ffda2d" fill-rule="evenodd"/>
              <path id="Path_1276683" data-name="Path 1276683" d="M13.106,7.868l2.861,1.168,2.36-1.995L18.245,8.17l-2.278,1.925-2.343-.956Zm5.07,2.3,2.552,1.582-1.223.3-1.4-.87.074-1.013ZM13.233,13.02l-.954.07,1.7-2.016.291.714L13.234,13.02Z" fill="#ffc700" fill-rule="evenodd"/>
            </g>
          </g>
          <path id="Path_1276684" data-name="Path 1276684" d="M35.348,29.92a6.763,6.763,0,0,0-2.921-2.313,3.994,3.994,0,1,0-5.022,0,6.763,6.763,0,0,0-2.921,2.313,7.528,7.528,0,1,1,10.863,0ZM29.916,26.8a2.3,2.3,0,1,0-2.3-2.3A2.3,2.3,0,0,0,29.916,26.8Zm-4.126,4.2a7.5,7.5,0,0,0,8.252,0,4.962,4.962,0,0,0-8.252,0Zm4.126-15.514a9.222,9.222,0,1,0,9.222,9.222,9.233,9.233,0,0,0-9.222-9.222ZM15.065,10.454l-.406-1,1,.406a.847.847,0,0,0,.867-.137l.821-.695-.079,1.073a.847.847,0,0,0,.4.782l.914.567-1.044.256a.848.848,0,0,0-.621.621l-.256,1.044-.567-.914a.847.847,0,0,0-.72-.4l-.062,0-1.072.079.694-.822a.847.847,0,0,0,.137-.866ZM12.348,13.98a.847.847,0,0,1-.709-1.392L13.3,10.619l-.974-2.387a.847.847,0,0,1,1.1-1.1L15.82,8.1l1.969-1.664a.847.847,0,0,1,1.392.709l-.189,2.57,2.19,1.358a.847.847,0,0,1-.244,1.543l-2.5.615-.615,2.5a.847.847,0,0,1-1.543.244l-1.358-2.19-2.57.189Zm32.178-1.916a.847.847,0,0,0-.782.4l-.567.914-.257-1.044a.848.848,0,0,0-.62-.621l-1.044-.256.914-.567a.846.846,0,0,0,.4-.782L42.49,9.033l.821.695a.847.847,0,0,0,.867.137l1-.406-.407,1a.847.847,0,0,0,.137.866l.694.822-1.072-.079Zm3.667.524a.847.847,0,0,1-.709,1.392l-2.57-.189-1.358,2.19a.847.847,0,0,1-1.542-.244l-.615-2.5-2.5-.615a.847.847,0,0,1-.244-1.543l2.19-1.358-.189-2.57a.847.847,0,0,1,1.391-.709L44.013,8.1,46.4,7.129a.847.847,0,0,1,1.1,1.1l-.974,2.386,1.664,1.969ZM28.79,4.646a.846.846,0,0,0,.71-.515l.416-.992.417.992a.846.846,0,0,0,.71.515l1.072.09-.814.7a.847.847,0,0,0-.271.834l.245,1.047-.92-.557a.848.848,0,0,0-.878,0l-.92.557L28.8,6.273a.847.847,0,0,0-.271-.834l-.814-.7Zm-1.753,1.74-.588,2.509a.847.847,0,0,0,1.263.918l2.2-1.335,2.2,1.335a.847.847,0,0,0,1.263-.918L32.8,6.386,34.747,4.7a.847.847,0,0,0-.483-1.485L31.7,3,30.7.625a.847.847,0,0,0-1.562,0L28.137,3l-2.568.216A.847.847,0,0,0,25.086,4.7l1.951,1.684ZM38.619,42.412,25.63,49.91a3.617,3.617,0,0,1-2.732.349L17.7,49.068a5.618,5.618,0,0,0-4.423.7l-2.1-7.844,2.7-2.068A2.894,2.894,0,0,1,16.4,39.13L25.471,41.6a1.845,1.845,0,0,1-.969,3.56l-4.844-1.318a.847.847,0,1,0-.445,1.634l4.843,1.318a3.541,3.541,0,0,0,4.2-2.06l8.776-5.068a1.586,1.586,0,0,1,1.586,2.748ZM10.549,52.341l1.556-.417L9.139,40.853l-1.556.417ZM38.674,37.873a3.261,3.261,0,0,0-2.488.324L28.45,42.663a3.541,3.541,0,0,0-2.535-2.7l-9.067-2.468a4.541,4.541,0,0,0-4,1.016l-2.146,1.643-.011-.04A1.384,1.384,0,0,0,9,39.135l-2.157.578a1.385,1.385,0,0,0-.978,1.694L8.993,53.081a1.384,1.384,0,0,0,1.694.978l2.157-.578a1.384,1.384,0,0,0,.978-1.694l-.078-.293a4.068,4.068,0,0,1,3.582-.774l5.194,1.191a6.148,6.148,0,0,0,1.369.161,5.1,5.1,0,0,0,2.589-.694l12.988-7.5a3.278,3.278,0,0,0-.792-6.007Zm-8.757-1.679A11.477,11.477,0,1,0,18.439,24.716,11.73,11.73,0,0,0,20.624,31.4a.845.845,0,0,1,.1.719l-.982,3.1,3.5-.844a.866.866,0,0,1,.2-.023.847.847,0,0,1,.437.121,11.439,11.439,0,0,0,6.045,1.718Zm0-24.649A13.112,13.112,0,0,0,18.987,31.99l-1.316,4.151a.848.848,0,0,0,1.006,1.08L23.3,36.1a13.17,13.17,0,1,0,6.614-24.559Z" fill-rule="evenodd"/>
        </g>
      </g>
    </g>
  </g>
</svg>
