<svg xmlns="http://www.w3.org/2000/svg" xmlns:xlink="http://www.w3.org/1999/xlink" width="98" height="97.999" viewBox="0 0 98 97.999">
  <defs>
    <clipPath id="clip-path">
      <rect id="Rectangle_412632" data-name="Rectangle 412632" width="56" height="54" transform="translate(-8112.879 -6656.549)" fill="#fff"/>
    </clipPath>
  </defs>
  <g id="Group_1206553" data-name="Group 1206553" transform="translate(8134.148 6678.999)">
    <g id="Group_1206307" data-name="Group 1206307" transform="translate(-9005.261 -6956.163)">
      <g id="Group_1188789" data-name="Group 1188789" transform="translate(871.113 277.164)">
        <path id="Path_1243039" data-name="Path 1243039" d="M41.05,0h0a41.05,41.05,0,0,1,0,82.1h0a41.05,41.05,0,0,1,0-82.1Z" transform="translate(7.951 7.949)" fill="#ffa724"/>
        <rect id="Rectangle_400907" data-name="Rectangle 400907" width="88.438" height="88.437" rx="44.218" transform="translate(4.782 4.781)" fill="none"/>
        <g id="Group_1098742" data-name="Group 1098742" transform="translate(0)">
          <g id="Rectangle_400898" data-name="Rectangle 400898" transform="translate(0)" fill="none" stroke="#fff" stroke-width="2" opacity="0.859">
            <rect width="98" height="97.999" rx="48.999" stroke="none"/>
            <rect x="1" y="1" width="96" height="95.999" rx="47.999" fill="none"/>
          </g>
          <g id="Rectangle_400907-2" data-name="Rectangle 400907" transform="translate(0)" fill="none" stroke="#0f1f33" stroke-linecap="round" stroke-width="2">
            <rect width="98" height="97.999" rx="48.999" stroke="none"/>
            <rect x="1" y="1" width="96" height="95.999" rx="47.999" fill="none"/>
          </g>
        </g>
      </g>
    </g>
    <g id="Mask_Group_1099499" data-name="Mask Group 1099499" clip-path="url(#clip-path)">
      <g id="optimize_4335873" transform="translate(-8111.879 -6656.549)">
        <g id="Group_1206551" data-name="Group 1206551">
          <g id="Group_1206542" data-name="Group 1206542">
            <path id="Path_1277486" data-name="Path 1277486" d="M33.968,51.387H2.613A1.747,1.747,0,0,1,.871,49.645v-20.9A10.449,10.449,0,0,0,11.323,39.194h3.484v.871a.874.874,0,0,0,.871.871H20.9a.874.874,0,0,0,.871-.871v-.871h3.484a10.41,10.41,0,0,0,5.748-1.725,3.784,3.784,0,0,1-2.064,1.655l-.2.07v3.484l.192.061a3.859,3.859,0,0,1,2.352,2.195,3.808,3.808,0,0,1,.3,1.481,3.862,3.862,0,0,1-.409,1.725l-.087.192,2.456,2.456.183-.087a3.756,3.756,0,0,1,1.864-.4,1.755,1.755,0,0,1-1.62,1.089Z" fill="#cf9e76"/>
          </g>
          <g id="Group_1206543" data-name="Group 1206543">
            <path id="Path_1277487" data-name="Path 1277487" d="M35.71,31.355v.218a2.365,2.365,0,0,1-.253.009,3.862,3.862,0,0,1-1.725-.409l-.192-.087-2.456,2.456.087.183a3.891,3.891,0,0,1,.113,3.223,3.01,3.01,0,0,1-.279.523,10.41,10.41,0,0,1-5.748,1.725H21.774v-.871a.874.874,0,0,0-.871-.871H15.677a.874.874,0,0,0-.871.871v.871H11.323A10.449,10.449,0,0,1,.871,28.742,1.747,1.747,0,0,1,2.613,27H33.968a1.747,1.747,0,0,1,1.742,1.742Z" fill="#d3a06c"/>
          </g>
          <g id="Group_1206544" data-name="Group 1206544">
            <path id="Path_1277488" data-name="Path 1277488" d="M21.774,39.194v.871a.874.874,0,0,1-.871.871H15.677a.874.874,0,0,1-.871-.871V38.323a.874.874,0,0,1,.871-.871H20.9a.874.874,0,0,1,.871.871Z" fill="#ccd1d9"/>
          </g>
          <g id="Group_1206545" data-name="Group 1206545">
            <path id="Path_1277489" data-name="Path 1277489" d="M35.71,31.355V12.194H32.226l8.71-10.452,8.71,10.452H46.161V31.573a3.885,3.885,0,0,1-3.423-2.639l-.061-.192H39.194l-.061.192a3.859,3.859,0,0,1-2.195,2.352,4.582,4.582,0,0,1-1.228.287Z" fill="#ff826e"/>
          </g>
          <g id="Group_1206546" data-name="Group 1206546">
            <path id="Path_1277490" data-name="Path 1277490" d="M31.006,37.469a3.01,3.01,0,0,0,.279-.523,3.891,3.891,0,0,0-.113-3.223l-.087-.183,2.456-2.456.192.087a3.862,3.862,0,0,0,1.725.409,2.365,2.365,0,0,0,.253-.009,4.582,4.582,0,0,0,1.228-.287,3.859,3.859,0,0,0,2.195-2.352l.061-.192h3.484l.061.192a3.868,3.868,0,0,0,5.4,2.238l.192-.087,2.456,2.456-.087.192a3.863,3.863,0,0,0-.409,1.725,3.808,3.808,0,0,0,.3,1.481,3.881,3.881,0,0,0,2.352,2.195l.192.061v3.484l-.192.061a3.859,3.859,0,0,0-2.352,2.195,3.819,3.819,0,0,0,.113,3.205l.087.192L48.33,50.786l-.192-.087a3.862,3.862,0,0,0-1.725-.409,3.808,3.808,0,0,0-1.481.3,3.881,3.881,0,0,0-2.195,2.352l-.061.192H39.194l-.07-.2a3.839,3.839,0,0,0-2.177-2.343,3.689,3.689,0,0,0-1.359-.287,3.756,3.756,0,0,0-1.864.4l-.183.087L31.085,48.33l.087-.192a3.862,3.862,0,0,0,.409-1.725,3.808,3.808,0,0,0-.3-1.481,3.859,3.859,0,0,0-2.352-2.195l-.192-.061V39.194l.2-.07a3.784,3.784,0,0,0,2.064-1.655Zm16.9,3.466A6.968,6.968,0,1,0,40.935,47.9,6.966,6.966,0,0,0,47.9,40.935Z" fill="#ffc729"/>
          </g>
          <g id="Group_1206547" data-name="Group 1206547">
            <path id="Path_1277491" data-name="Path 1277491" d="M40.935,33.968a6.968,6.968,0,1,1-6.968,6.968A6.966,6.966,0,0,1,40.935,33.968Zm3.484,6.968a3.484,3.484,0,1,0-3.484,3.484A3.483,3.483,0,0,0,44.419,40.935Z" fill="#fcd770"/>
          </g>
          <g id="Group_1206548" data-name="Group 1206548">
            <path id="Path_1277492" data-name="Path 1277492" d="M11.323,22.593v4.285A13.937,13.937,0,1,1,31.982,12.2a14.268,14.268,0,0,1,.244,2.6,13.941,13.941,0,0,1-6.968,12.072V22.593a10.335,10.335,0,0,0,3.336-6.045,10.452,10.452,0,1,0-20.607,0A10.335,10.335,0,0,0,11.323,22.593Z" fill="#ccd1d9"/>
          </g>
          <g id="Group_1206549" data-name="Group 1206549">
            <path id="Path_1277493" data-name="Path 1277493" d="M18.29,4.355a10.441,10.441,0,0,0-10.3,12.194,10.335,10.335,0,0,0,3.336,6.045V20.9a.874.874,0,0,1,.871-.871h3.083a3.388,3.388,0,0,1-.47-1.742,3.486,3.486,0,0,1,5.949-2.465,3.68,3.68,0,0,1,.549.723,3.475,3.475,0,0,1,.47,1.742,3.388,3.388,0,0,1-.47,1.742h3.083a.874.874,0,0,1,.871.871v1.69a10.335,10.335,0,0,0,3.336-6.045A10.441,10.441,0,0,0,18.29,4.355Z" fill="#69d6f4"/>
          </g>
          <g id="Group_1206550" data-name="Group 1206550">
            <path id="Path_1277494" data-name="Path 1277494" d="M21.774,18.29a3.388,3.388,0,0,1-.47,1.742H15.277a3.388,3.388,0,0,1-.47-1.742,3.486,3.486,0,0,1,5.949-2.465,3.68,3.68,0,0,1,.549.723A3.475,3.475,0,0,1,21.774,18.29Z" fill="#ff826e"/>
          </g>
        </g>
        <g id="Group_1206552" data-name="Group 1206552">
          <path id="Path_1277495" data-name="Path 1277495" d="M40.935,36.581a4.355,4.355,0,1,0,4.355,4.355A4.36,4.36,0,0,0,40.935,36.581Zm0,6.968a2.613,2.613,0,1,1,2.613-2.613A2.616,2.616,0,0,1,40.935,43.548Z"/>
          <path id="Path_1277496" data-name="Path 1277496" d="M40.935,33.1a7.839,7.839,0,1,0,7.839,7.839A7.847,7.847,0,0,0,40.935,33.1Zm0,13.935a6.1,6.1,0,1,1,6.1-6.1A6.1,6.1,0,0,1,40.935,47.032Z"/>
          <path id="Path_1277497" data-name="Path 1277497" d="M53.213,38.3a3,3,0,0,1-1.736-4.185l.372-.746L48.5,30.022l-.745.373a2.935,2.935,0,0,1-.72.241V13.065h4.472L40.935.381l-8.47,10.164a14.8,14.8,0,1,0-23.7,15.583H2.613A2.616,2.616,0,0,0,0,28.742v20.9a2.616,2.616,0,0,0,2.613,2.613H33.968a2.6,2.6,0,0,0,2.077-1.034,3.013,3.013,0,0,1,.569.167A2.977,2.977,0,0,1,38.3,53.2l.267.8h4.739l.261-.787a3,3,0,0,1,4.185-1.735l.747.37,3.35-3.35-.373-.745a3,3,0,0,1,1.732-4.183L54,43.306V38.566ZM47.786,11.323h-2.5V30.491c-.009,0-.017,0-.025-.008a3,3,0,0,1-1.7-1.821l-.263-.791H38.566l-.262.79a3,3,0,0,1-1.7,1.822c-.009,0-.017,0-.025.008V11.323h-2.5L40.935,3.1ZM8.71,14.806a9.581,9.581,0,1,1,19.161,0c0,.293-.02.583-.046.871h-5.69l3.739-3.739-1.232-1.232-3.954,3.954a4.315,4.315,0,0,0-5.859,1.016H8.757c-.027-.288-.047-.578-.047-.871Zm17.342,5.612a1.738,1.738,0,0,0-1.664-1.257H22.548a4.136,4.136,0,0,0,.01-1.742h4.937a9.594,9.594,0,0,1-1.442,3ZM15.677,18.29a2.613,2.613,0,1,1,5.057.871H15.846A2.6,2.6,0,0,1,15.677,18.29Zm8.71,2.613v1.742H12.194V20.9ZM14.023,17.419a4.136,4.136,0,0,0,.01,1.742H12.194a1.738,1.738,0,0,0-1.664,1.257,9.594,9.594,0,0,1-1.442-3Zm-1.83,6.968H24.387v1.742H12.194ZM32.985,13.065h1.853V26.289a2.583,2.583,0,0,0-.871-.16H27.819a14.649,14.649,0,0,0,5.167-13.065ZM5.226,14.806a13.065,13.065,0,1,1,20.9,10.446v-2.3a11.323,11.323,0,1,0-15.677,0v2.3A13.116,13.116,0,0,1,5.226,14.806ZM2.613,27.871H33.968a.871.871,0,0,1,.871.871v1.893a2.972,2.972,0,0,1-.72-.241l-.745-.373-3.351,3.351.368.739a3.013,3.013,0,0,1,.09,2.5c-.035.085-.088.159-.131.24a9.539,9.539,0,0,1-5.092,1.469H22.645A1.744,1.744,0,0,0,20.9,36.581H15.677a1.744,1.744,0,0,0-1.742,1.742H11.323a9.592,9.592,0,0,1-9.581-9.581.871.871,0,0,1,.871-.871ZM20.9,40.065H15.677V38.323H20.9ZM1.742,49.645v-14.9a11.316,11.316,0,0,0,9.581,5.316h2.613a1.744,1.744,0,0,0,1.742,1.742H20.9a1.744,1.744,0,0,0,1.742-1.742h2.613a11.386,11.386,0,0,0,2.613-.307v3.549l.79.262a3,3,0,0,1,1.733,4.184l-.373.745,2.019,2.019H2.613a.871.871,0,0,1-.871-.871ZM52.258,42.07a4.738,4.738,0,0,0-2.514,6.069l-1.605,1.6a4.738,4.738,0,0,0-6.069,2.514H39.8a4.739,4.739,0,0,0-6.07-2.514l-1.605-1.605a4.738,4.738,0,0,0-2.514-6.069V39.8a4.739,4.739,0,0,0,2.514-6.07l1.605-1.605A4.738,4.738,0,0,0,39.8,29.613h2.269a4.738,4.738,0,0,0,6.069,2.514l1.6,1.6A4.738,4.738,0,0,0,52.256,39.8v2.27Z"/>
          <path id="Path_1277498" data-name="Path 1277498" d="M3.484,47.032H5.226v1.742H3.484Z"/>
          <path id="Path_1277499" data-name="Path 1277499" d="M6.968,47.032H8.71v1.742H6.968Z"/>
        </g>
      </g>
    </g>
  </g>
</svg>
