<svg xmlns="http://www.w3.org/2000/svg" xmlns:xlink="http://www.w3.org/1999/xlink" width="98" height="97.999" viewBox="0 0 98 97.999">
  <defs>
    <clipPath id="clip-path">
      <rect id="Rectangle_412426" data-name="Rectangle 412426" width="56" height="54" transform="translate(-5554.147 -7195.5)" fill="#fff"/>
    </clipPath>
  </defs>
  <g id="Group_1206362" data-name="Group 1206362" transform="translate(5575.417 7217.951)">
    <g id="Group_1205872" data-name="Group 1205872" transform="translate(-6446.529 -7495.115)">
      <g id="Group_1188789" data-name="Group 1188789" transform="translate(871.113 277.164)">
        <path id="Path_1243039" data-name="Path 1243039" d="M41.05,0h0a41.05,41.05,0,0,1,0,82.1h0a41.05,41.05,0,0,1,0-82.1Z" transform="translate(7.951 7.949)" fill="#ffa724"/>
        <rect id="Rectangle_400907" data-name="Rectangle 400907" width="88.438" height="88.437" rx="44.218" transform="translate(4.782 4.781)" fill="none"/>
        <g id="Group_1098742" data-name="Group 1098742" transform="translate(0)">
          <g id="Rectangle_400898" data-name="Rectangle 400898" transform="translate(0)" fill="none" stroke="#fff" stroke-width="2" opacity="0.859">
            <rect width="98" height="97.999" rx="48.999" stroke="none"/>
            <rect x="1" y="1" width="96" height="95.999" rx="47.999" fill="none"/>
          </g>
          <g id="Rectangle_400907-2" data-name="Rectangle 400907" transform="translate(0)" fill="none" stroke="#0f1f33" stroke-linecap="round" stroke-width="2">
            <rect width="98" height="97.999" rx="48.999" stroke="none"/>
            <rect x="1" y="1" width="96" height="95.999" rx="47.999" fill="none"/>
          </g>
        </g>
      </g>
    </g>
    <g id="Mask_Group_1099595" data-name="Mask Group 1099595" clip-path="url(#clip-path)">
      <g id="potential_9464489" transform="translate(-5554.019 -7196.372)">
        <g id="Group_1206324" data-name="Group 1206324">
          <g id="Group_1206315" data-name="Group 1206315">
            <circle id="Ellipse_12473" data-name="Ellipse 12473" cx="22.545" cy="22.545" r="22.545" transform="translate(5.327 5.327)" fill="#fe646f"/>
            <path id="Path_1276626" data-name="Path 1276626" d="M27.871,5.327a22.545,22.545,0,1,1,0,45.089q-.273,0-.544-.007a22.544,22.544,0,0,0,0-45.075C27.508,5.329,27.689,5.327,27.871,5.327Z" fill="#fd4755" fill-rule="evenodd"/>
            <circle id="Ellipse_12474" data-name="Ellipse 12474" cx="19.25" cy="19.25" r="19.25" transform="translate(8.621 8.621)" fill="#eceff1"/>
            <path id="Path_1276627" data-name="Path 1276627" d="M27.871,8.621c.182,0,.364,0,.544.008a19.25,19.25,0,0,0,0,38.484c-.181.005-.362.008-.544.008a19.25,19.25,0,0,1,0-38.5Z" fill="#d1d1d6" fill-rule="evenodd"/>
          </g>
          <g id="Group_1206316" data-name="Group 1206316">
            <path id="Path_1276628" data-name="Path 1276628" d="M16.193,28.822l1.084,2.856a.222.222,0,0,0,.2.145l3.051.149a.226.226,0,0,1,.131.4l-2.381,1.914a.222.222,0,0,0-.076.235l.8,2.948a.226.226,0,0,1-.342.248l-2.556-1.673a.222.222,0,0,0-.247,0L13.3,37.719a.226.226,0,0,1-.342-.248l.8-2.948a.222.222,0,0,0-.076-.235L11.3,32.374a.226.226,0,0,1,.131-.4l3.051-.149a.222.222,0,0,0,.2-.145l1.084-2.856a.226.226,0,0,1,.422,0Z" fill="#ffe177" fill-rule="evenodd"/>
            <path id="Path_1276629" data-name="Path 1276629" d="M19.564,31.925l.964.047a.226.226,0,0,1,.131.4l-2.381,1.914a.221.221,0,0,0-.076.235l.8,2.948a.226.226,0,0,1-.342.248L18,37.286l-.764-2.81a.222.222,0,0,1,.076-.235l2.381-1.914a.226.226,0,0,0-.129-.4Zm-3.371-3.1,1.084,2.856a.222.222,0,0,0,.2.145l-.964-.047a.222.222,0,0,1-.2-.145l-.8-2.117.263-.692a.226.226,0,0,1,.422,0Zm-.088,7.224a.222.222,0,0,0-.247,0L13.3,37.719a.226.226,0,0,1-.342-.248l.069-.252,2.31-1.512a.222.222,0,0,1,.247,0Z" fill="#ffd064" fill-rule="evenodd"/>
          </g>
          <g id="Group_1206317" data-name="Group 1206317">
            <path id="Path_1276630" data-name="Path 1276630" d="M31.262,28.822l1.084,2.856a.222.222,0,0,0,.2.145l3.051.149a.226.226,0,0,1,.131.4l-2.381,1.914a.222.222,0,0,0-.076.235l.8,2.948a.226.226,0,0,1-.342.248l-2.556-1.673a.222.222,0,0,0-.247,0l-2.556,1.673a.226.226,0,0,1-.342-.248l.8-2.948a.222.222,0,0,0-.076-.235l-2.381-1.914a.226.226,0,0,1,.131-.4l3.051-.149a.222.222,0,0,0,.2-.145l1.084-2.856a.226.226,0,0,1,.422,0Z" fill="#ffe177" fill-rule="evenodd"/>
            <path id="Path_1276631" data-name="Path 1276631" d="M34.633,31.925l.964.047a.226.226,0,0,1,.131.4l-2.381,1.914a.221.221,0,0,0-.076.235l.8,2.948a.226.226,0,0,1-.342.248l-.662-.433-.764-2.81a.222.222,0,0,1,.076-.235l2.381-1.914a.226.226,0,0,0-.129-.4Zm-3.371-3.1,1.084,2.856a.222.222,0,0,0,.2.145l-.964-.047a.222.222,0,0,1-.2-.145l-.8-2.117.263-.692A.226.226,0,0,1,31.262,28.822Zm-.087,7.224a.222.222,0,0,0-.247,0l-2.556,1.673a.226.226,0,0,1-.342-.248l.069-.252,2.31-1.512a.222.222,0,0,1,.247,0Z" fill="#ffd064" fill-rule="evenodd"/>
          </g>
          <g id="Group_1206318" data-name="Group 1206318">
            <path id="Path_1276632" data-name="Path 1276632" d="M23.727,37.12l1.084,2.856a.222.222,0,0,0,.2.145l3.051.149a.226.226,0,0,1,.131.4l-2.381,1.914a.222.222,0,0,0-.076.235l.8,2.948a.226.226,0,0,1-.342.248L23.64,44.344a.222.222,0,0,0-.247,0l-2.556,1.673a.226.226,0,0,1-.342-.248l.8-2.948a.222.222,0,0,0-.076-.235l-2.381-1.914a.226.226,0,0,1,.131-.4l3.051-.149a.222.222,0,0,0,.2-.145L23.3,37.12a.226.226,0,0,1,.422,0Z" fill="#ffe177" fill-rule="evenodd"/>
            <path id="Path_1276633" data-name="Path 1276633" d="M27.1,40.223l.964.047a.226.226,0,0,1,.131.4l-2.381,1.914a.221.221,0,0,0-.076.235l.8,2.948a.226.226,0,0,1-.342.248l-.662-.433-.764-2.81a.222.222,0,0,1,.076-.235l2.381-1.914a.226.226,0,0,0-.129-.4Zm-3.371-3.1,1.084,2.856a.222.222,0,0,0,.2.145l-.964-.047a.222.222,0,0,1-.2-.145l-.8-2.117.263-.692A.226.226,0,0,1,23.727,37.12Zm-.088,7.224a.222.222,0,0,0-.247,0l-2.556,1.673a.226.226,0,0,1-.342-.248l.069-.252L22.873,44a.222.222,0,0,1,.247,0Z" fill="#ffd064" fill-rule="evenodd"/>
          </g>
          <g id="Group_1206319" data-name="Group 1206319">
            <path id="Path_1276634" data-name="Path 1276634" d="M12.19,24.813h9.315a.8.8,0,0,0,.764-1.028,5.663,5.663,0,0,0-10.842,0,.8.8,0,0,0,.764,1.028Z" fill="#8ac9fe" fill-rule="evenodd"/>
            <path id="Path_1276635" data-name="Path 1276635" d="M21.505,24.813a.8.8,0,0,0,.764-1.028,5.668,5.668,0,0,0-6.219-3.969,5.668,5.668,0,0,1,4.624,3.969.8.8,0,0,1-.764,1.028Z" fill="#60b7ff" fill-rule="evenodd"/>
            <circle id="Ellipse_12475" data-name="Ellipse 12475" cx="2.862" cy="2.862" r="2.862" transform="translate(12.852 17.554) rotate(-54.196)" fill="#f6dccd"/>
            <path id="Path_1276636" data-name="Path 1276636" d="M16.848,14.036a2.863,2.863,0,1,1,0,5.725,2.9,2.9,0,0,1-.4-.028,2.863,2.863,0,0,0,0-5.67A2.885,2.885,0,0,1,16.848,14.036Z" fill="#f1cbbc" fill-rule="evenodd"/>
          </g>
          <g id="Group_1206320" data-name="Group 1206320">
            <path id="Path_1276637" data-name="Path 1276637" d="M34.237,24.813h9.315a.8.8,0,0,0,.764-1.028,5.663,5.663,0,0,0-10.842,0,.8.8,0,0,0,.764,1.028Z" fill="#8ac9fe" fill-rule="evenodd"/>
            <path id="Path_1276638" data-name="Path 1276638" d="M43.552,24.813a.8.8,0,0,0,.764-1.028A5.668,5.668,0,0,0,38.1,19.817a5.668,5.668,0,0,1,4.624,3.969.8.8,0,0,1-.764,1.028Z" fill="#60b7ff" fill-rule="evenodd"/>
            <circle id="Ellipse_12476" data-name="Ellipse 12476" cx="2.863" cy="2.863" r="2.863" transform="translate(35.378 18.884) rotate(-74.519)" fill="#f6dccd"/>
            <path id="Path_1276639" data-name="Path 1276639" d="M38.894,14.036a2.863,2.863,0,1,1,0,5.725,2.9,2.9,0,0,1-.4-.028,2.863,2.863,0,0,0,0-5.67A2.884,2.884,0,0,1,38.894,14.036Z" fill="#f1cbbc" fill-rule="evenodd"/>
          </g>
          <g id="Group_1206321" data-name="Group 1206321">
            <path id="Path_1276640" data-name="Path 1276640" d="M22.347,26.2H33.4a.946.946,0,0,0,.906-1.219,6.718,6.718,0,0,0-12.86,0,.946.946,0,0,0,.906,1.219Z" fill="#8ac9fe" fill-rule="evenodd"/>
            <path id="Path_1276641" data-name="Path 1276641" d="M33.4,26.2a.946.946,0,0,0,.906-1.219,6.723,6.723,0,0,0-7.376-4.707,6.723,6.723,0,0,1,5.484,4.707A.946.946,0,0,1,31.5,26.2Z" fill="#60b7ff" fill-rule="evenodd"/>
            <circle id="Ellipse_12477" data-name="Ellipse 12477" cx="3.397" cy="3.397" r="3.397" transform="translate(24.302 13.625) rotate(-3.151)" fill="#f6dccd"/>
            <path id="Path_1276642" data-name="Path 1276642" d="M27.871,13.417a3.4,3.4,0,1,1-.473,6.758,3.4,3.4,0,0,0,0-6.725,3.44,3.44,0,0,1,.473-.033Z" fill="#f1cbbc" fill-rule="evenodd"/>
          </g>
          <g id="Group_1206323" data-name="Group 1206323">
            <path id="Path_1276643" data-name="Path 1276643" d="M53.884,42l-1.375,6.149a.786.786,0,0,1-.767.616l-9.5,0a.789.789,0,0,1-.782-.686L39.8,40.645a.786.786,0,0,1,.767-.955v0H52.03A1.9,1.9,0,0,1,53.884,42Z" fill="#a79ba7" fill-rule="evenodd"/>
            <g id="Group_1206322" data-name="Group 1206322">
              <path id="Path_1276644" data-name="Path 1276644" d="M53.884,42l-1.375,6.149a.786.786,0,0,1-.767.616l-9.5,0h-.023l8.331,0a.786.786,0,0,0,.767-.616L52.692,42a1.9,1.9,0,0,0-1.854-2.315H52.03A1.9,1.9,0,0,1,53.884,42Z" fill="#837683" fill-rule="evenodd"/>
              <path id="Path_1276645" data-name="Path 1276645" d="M43.665,50.546a1.96,1.96,0,1,1-1.96,1.96A1.96,1.96,0,0,1,43.665,50.546Z" fill="#837683" fill-rule="evenodd"/>
              <path id="Path_1276646" data-name="Path 1276646" d="M51.416,50.546a1.96,1.96,0,1,1-1.96,1.96A1.96,1.96,0,0,1,51.416,50.546Z" fill="#837683" fill-rule="evenodd"/>
            </g>
          </g>
        </g>
        <path id="Path_1276647" data-name="Path 1276647" d="M25.267,41.907A1.1,1.1,0,0,0,24.9,43.05l.356,1.309-1.134-.743a1.094,1.094,0,0,0-1.2,0l-1.135.743.356-1.309a1.1,1.1,0,0,0-.371-1.143l-1.057-.849,1.353-.066a1.1,1.1,0,0,0,.974-.706l.481-1.268L24,40.285a1.1,1.1,0,0,0,.972.707l1.354.066ZM28.1,39.4l-2.629-.129-.934-2.462a1.1,1.1,0,0,0-2.051,0l-.934,2.462-2.63.129a1.1,1.1,0,0,0-.634,1.95L20.345,43l-.69,2.541a1.1,1.1,0,0,0,1.659,1.205l2.2-1.441,2.2,1.441a1.1,1.1,0,0,0,1.659-1.205L26.688,43l2.051-1.649A1.1,1.1,0,0,0,28.1,39.4ZM52.92,41.393,51.555,47.5h-9.1l-1.37-6.122-.094-.424H52.571a.494.494,0,0,1,.31.167A.28.28,0,0,1,52.92,41.393ZM27.871,49.545a21.5,21.5,0,0,0,12.39-3.89l-1.834-8.2H37.083a.871.871,0,1,1,0-1.742h2.043a.872.872,0,0,1,.85.681l.629,2.818h5.737A21.675,21.675,0,1,0,27.871,49.545Zm23.546,3.584a.624.624,0,1,1,.624-.624A.624.624,0,0,1,51.417,53.129Zm-7.128-.624a.624.624,0,1,1-.624-.624A.624.624,0,0,1,44.289,52.506Zm8.282-13.291H48.359a23.331,23.331,0,0,0,2.911-10.472H54A.871.871,0,1,0,54,27H51.269A23.409,23.409,0,0,0,28.742,4.474V1.742a.871.871,0,0,0-1.742,0V4.474A23.408,23.408,0,0,0,4.474,27H1.742a.871.871,0,0,0,0,1.742H4.474A23.408,23.408,0,0,0,27,51.27V54a.871.871,0,1,0,1.742,0V51.271a23.19,23.19,0,0,0,11.927-3.789l.062.279a2.187,2.187,0,0,0,.662,4.087,2.366,2.366,0,1,0,4.554.034h3.188a2.341,2.341,0,0,0-.084.624,2.366,2.366,0,1,0,2.366-2.366H41.761a.447.447,0,0,1,0-.895H52.253a.871.871,0,0,0,.85-.682l1.518-6.79a2.019,2.019,0,0,0-.381-1.74,2.228,2.228,0,0,0-1.669-.819ZM32.8,33.61a1.093,1.093,0,0,0-.37,1.142l.355,1.308-1.134-.743a1.1,1.1,0,0,0-1.2,0l-1.135.743.355-1.308a1.1,1.1,0,0,0-.371-1.143l-1.056-.849,1.353-.066a1.1,1.1,0,0,0,.972-.706l.481-1.267.481,1.267a1.1,1.1,0,0,0,.972.706l1.354.066ZM34.222,34.7l.691,2.54a1.1,1.1,0,0,1-1.659,1.205l-2.2-1.441-2.2,1.441a1.1,1.1,0,0,1-1.659-1.205l.691-2.54-2.052-1.65a1.1,1.1,0,0,1,.634-1.951l2.629-.128.935-2.461a1.1,1.1,0,0,1,2.05,0l.935,2.461,2.629.128a1.1,1.1,0,0,1,.633,1.951Zm-16.86.049.355,1.308-1.135-.743a1.095,1.095,0,0,0-1.2,0l-1.135.743.356-1.31a1.1,1.1,0,0,0-.372-1.142l-1.056-.849,1.353-.066a1.1,1.1,0,0,0,.972-.706l.481-1.267.481,1.267a1.1,1.1,0,0,0,.972.706l1.354.066-1.056.849a1.094,1.094,0,0,0-.371,1.143Zm1.424,3.877a1.1,1.1,0,0,1-.6-.18l-2.2-1.441-2.2,1.441a1.1,1.1,0,0,1-1.659-1.205l.691-2.54-2.052-1.65a1.1,1.1,0,0,1,.634-1.951l2.629-.128.935-2.461a1.085,1.085,0,0,1,1.024-.707h0a1.085,1.085,0,0,1,1.024.707l.935,2.461,2.629.128a1.1,1.1,0,0,1,.634,1.951L19.153,34.7l.691,2.54a1.1,1.1,0,0,1-1.058,1.386Zm-1.939-18h0a4.824,4.824,0,0,1,4.321,2.724q-.152.286-.28.587h-8.6a4.782,4.782,0,0,1,4.557-3.311ZM14.856,16.9a1.992,1.992,0,1,1,1.992,1.991h0A1.994,1.994,0,0,1,14.856,16.9ZM27.871,21.08A5.831,5.831,0,0,1,33.5,25.33H22.245A5.831,5.831,0,0,1,27.871,21.08Zm0-6.79a2.524,2.524,0,1,1-2.525,2.524,2.527,2.527,0,0,1,2.525-2.524Zm11.022,6.343h0a4.782,4.782,0,0,1,4.558,3.311h-8.6c-.085-.2-.179-.4-.28-.587A4.823,4.823,0,0,1,38.893,20.632ZM36.9,16.9a1.992,1.992,0,1,1,1.992,1.991h0A1.994,1.994,0,0,1,36.9,16.9ZM11.219,25.685a.869.869,0,0,1-.866-.963,6.51,6.51,0,0,1,3.793-5.249,3.734,3.734,0,1,1,5.4.008,6.594,6.594,0,0,1,2.735,2.312,7.564,7.564,0,0,1,2.674-1.872,4.267,4.267,0,1,1,5.84,0,7.573,7.573,0,0,1,2.675,1.872A6.584,6.584,0,0,1,36.2,19.48a3.734,3.734,0,1,1,5.4-.008,6.51,6.51,0,0,1,3.793,5.249.869.869,0,0,1-.865.963H35.355c.023.141.044.281.059.424a.87.87,0,0,1-.865.963H21.194a.87.87,0,0,1-.866-.963c.015-.143.036-.284.059-.424Z" fill-rule="evenodd"/>
      </g>
    </g>
  </g>
</svg>
