<svg xmlns="http://www.w3.org/2000/svg" xmlns:xlink="http://www.w3.org/1999/xlink" width="98" height="97.999" viewBox="0 0 98 97.999">
  <defs>
    <clipPath id="clip-path">
      <rect id="Rectangle_412650" data-name="Rectangle 412650" width="56" height="54" transform="translate(352.915 877.654)" fill="#fff"/>
    </clipPath>
  </defs>
  <g id="Group_1206644" data-name="Group 1206644" transform="translate(-331.646 -855.204)">
    <g id="Group_1206318" data-name="Group 1206318" transform="translate(-539.467 578.04)">
      <g id="Group_1188789" data-name="Group 1188789" transform="translate(871.113 277.164)">
        <path id="Path_1243039" data-name="Path 1243039" d="M41.05,0h0a41.05,41.05,0,0,1,0,82.1h0a41.05,41.05,0,0,1,0-82.1Z" transform="translate(7.951 7.949)" fill="#ffa724"/>
        <rect id="Rectangle_400907" data-name="Rectangle 400907" width="88.438" height="88.437" rx="44.218" transform="translate(4.782 4.781)" fill="none"/>
        <g id="Group_1098742" data-name="Group 1098742" transform="translate(0)">
          <g id="Rectangle_400898" data-name="Rectangle 400898" transform="translate(0)" fill="none" stroke="#fff" stroke-width="2" opacity="0.859">
            <rect width="98" height="97.999" rx="48.999" stroke="none"/>
            <rect x="1" y="1" width="96" height="95.999" rx="47.999" fill="none"/>
          </g>
          <g id="Rectangle_400907-2" data-name="Rectangle 400907" transform="translate(0)" fill="none" stroke="#0f1f33" stroke-linecap="round" stroke-width="2">
            <rect width="98" height="97.999" rx="48.999" stroke="none"/>
            <rect x="1" y="1" width="96" height="95.999" rx="47.999" fill="none"/>
          </g>
        </g>
      </g>
    </g>
    <g id="Mask_Group_1099515" data-name="Mask Group 1099515" clip-path="url(#clip-path)">
      <g id="database_2835247" transform="translate(353.044 876.783)">
        <g id="Group_1206642" data-name="Group 1206642">
          <g id="Group_1206627" data-name="Group 1206627">
            <path id="Path_1277730" data-name="Path 1277730" d="M24.387,15.677v7.839a.874.874,0,0,1-.871.871H2.613a.874.874,0,0,1-.871-.871V8.71H24.387Z" fill="#e6e9ed"/>
          </g>
          <g id="Group_1206628" data-name="Group 1206628">
            <path id="Path_1277731" data-name="Path 1277731" d="M54,12.194V27a.874.874,0,0,1-.871.871h-20.9A.874.874,0,0,1,31.355,27V12.194Z" fill="#e6e9ed"/>
          </g>
          <g id="Group_1206629" data-name="Group 1206629">
            <path id="Path_1277732" data-name="Path 1277732" d="M1.742,8.71v-6.1a.874.874,0,0,1,.871-.871h20.9a.874.874,0,0,1,.871.871v6.1Z" fill="#b4dd7f"/>
          </g>
          <g id="Group_1206630" data-name="Group 1206630">
            <path id="Path_1277733" data-name="Path 1277733" d="M31.355,12.194V6.1a.874.874,0,0,1,.871-.871h20.9A.874.874,0,0,1,54,6.1v6.1Z" fill="#b4dd7f"/>
          </g>
          <g id="Group_1206631" data-name="Group 1206631">
            <path id="Path_1277734" data-name="Path 1277734" d="M5.226,12.194H8.71v5.226H5.226Z" fill="#ff826e"/>
          </g>
          <g id="Group_1206632" data-name="Group 1206632">
            <circle id="Ellipse_12470" data-name="Ellipse 12470" cx="3.484" cy="3.484" r="3.484" transform="translate(41.806 41.806)" fill="#ff826e"/>
          </g>
          <g id="Group_1206633" data-name="Group 1206633">
            <path id="Path_1277735" data-name="Path 1277735" d="M34.839,15.677h3.484V20.9H34.839Z" fill="#fcd770"/>
          </g>
          <g id="Group_1206634" data-name="Group 1206634">
            <path id="Path_1277736" data-name="Path 1277736" d="M36.581,45.29v3.484A5.23,5.23,0,0,1,31.355,54H20.9V51.648a5.182,5.182,0,0,0-1.742-3.893l.009-.009-.009-10.295a7.16,7.16,0,0,0-.052-.862l.052-.009H36.581Z" fill="#e6e9ed"/>
          </g>
          <g id="Group_1206635" data-name="Group 1206635">
            <path id="Path_1277737" data-name="Path 1277737" d="M16.252,31.355H35.71a.874.874,0,0,1,.871.871v4.355H19.161l-.052.009a7.736,7.736,0,0,0-2.247-4.677,6.184,6.184,0,0,0-.618-.549Z" fill="#b4dd7f"/>
          </g>
          <g id="Group_1206636" data-name="Group 1206636">
            <path id="Path_1277738" data-name="Path 1277738" d="M11.323,34.839l-.679.679a6.293,6.293,0,0,1-2.482,1.533,1.75,1.75,0,0,0-1.193,1.655v2.23a3.468,3.468,0,0,0,2.238,3.249v.009l-.061.235a2.6,2.6,0,0,1-2.064,1.925c-.044.009-.1.017-.148.026l-.61.078a5.162,5.162,0,0,0-2.831,1.3l-.009-.009V37.452a7.839,7.839,0,0,1,7.839-7.839,7.745,7.745,0,0,1,4.921,1.751,6.183,6.183,0,0,1,.618.549,7.736,7.736,0,0,1,2.247,4.677,7.159,7.159,0,0,1,.052.862l.009,10.295-.009.009a5.188,5.188,0,0,0-2.839-1.3l-.61-.078c-.052-.009-.1-.017-.148-.026A2.6,2.6,0,0,1,13.5,44.428l-.061-.235v-.009a3.468,3.468,0,0,0,2.238-3.249v-2.23a1.75,1.75,0,0,0-1.193-1.655A6.293,6.293,0,0,1,12,35.518Z" fill="#656d78"/>
          </g>
          <g id="Group_1206637" data-name="Group 1206637">
            <path id="Path_1277739" data-name="Path 1277739" d="M8.9,49.645,11.323,54H1.742V51.648a5.26,5.26,0,0,1,4.581-5.191l.61-.078c.052-.009.1-.017.148-.026v.009Z" fill="#4fc1e9"/>
          </g>
          <g id="Group_1206638" data-name="Group 1206638">
            <path id="Path_1277740" data-name="Path 1277740" d="M15.564,46.362v-.009c.044.009.1.017.148.026l.61.078A5.242,5.242,0,0,1,20.9,51.648V54H11.323l2.421-4.355Z" fill="#4fc1e9"/>
          </g>
          <g id="Group_1206639" data-name="Group 1206639">
            <path id="Path_1277741" data-name="Path 1277741" d="M13.744,49.645,11.323,54,8.9,49.645Z" fill="#ffeaa7"/>
          </g>
          <g id="Group_1206640" data-name="Group 1206640">
            <path id="Path_1277742" data-name="Path 1277742" d="M13.5,44.428a2.6,2.6,0,0,0,2.064,1.925v.009l-1.82,3.284H8.9l-1.82-3.284v-.009a2.6,2.6,0,0,0,2.064-1.925l.061-.235v-.009a3.268,3.268,0,0,0,1.245.235h1.742a3.268,3.268,0,0,0,1.245-.235v.009Z" fill="#f0d0b4"/>
          </g>
          <g id="Group_1206641" data-name="Group 1206641">
            <path id="Path_1277743" data-name="Path 1277743" d="M15.677,38.706v2.23a3.468,3.468,0,0,1-2.238,3.249,3.268,3.268,0,0,1-1.245.235H10.452a3.268,3.268,0,0,1-1.245-.235,3.468,3.468,0,0,1-2.238-3.249v-2.23a1.75,1.75,0,0,1,1.193-1.655,6.293,6.293,0,0,0,2.482-1.533l.679-.679.679.679a6.293,6.293,0,0,0,2.482,1.533A1.75,1.75,0,0,1,15.677,38.706Z" fill="#f0d0b4"/>
          </g>
        </g>
        <g id="Group_1206643" data-name="Group 1206643">
          <path id="Path_1277744" data-name="Path 1277744" d="M4.355,4.355H6.1V6.1H4.355Z"/>
          <path id="Path_1277745" data-name="Path 1277745" d="M7.839,4.355H9.581V6.1H7.839Z"/>
          <path id="Path_1277746" data-name="Path 1277746" d="M4.355,18.29H9.581V11.323H4.355ZM6.1,13.065H7.839v3.484H6.1Z"/>
          <path id="Path_1277747" data-name="Path 1277747" d="M11.323,11.323H21.774v1.742H11.323Z"/>
          <path id="Path_1277748" data-name="Path 1277748" d="M11.323,14.806H21.774v1.742H11.323Z"/>
          <path id="Path_1277749" data-name="Path 1277749" d="M4.355,20.032H6.1v1.742H4.355Z"/>
          <path id="Path_1277750" data-name="Path 1277750" d="M7.839,20.032H9.581v1.742H7.839Z"/>
          <path id="Path_1277751" data-name="Path 1277751" d="M11.323,18.29H21.774v1.742H11.323Z"/>
          <path id="Path_1277752" data-name="Path 1277752" d="M11.323,4.355h1.742V6.1H11.323Z"/>
          <path id="Path_1277753" data-name="Path 1277753" d="M53.129,4.355h-20.9A1.744,1.744,0,0,0,30.484,6.1v8.71H25.258V2.613A1.744,1.744,0,0,0,23.516.871H2.613A1.744,1.744,0,0,0,.871,2.613v20.9a1.744,1.744,0,0,0,1.742,1.742h20.9a1.744,1.744,0,0,0,1.742-1.742V16.548h5.226V27a1.744,1.744,0,0,0,1.742,1.742H44.419V41.023a4.368,4.368,0,0,0-3.4,3.4H37.452V32.226a1.744,1.744,0,0,0-1.742-1.742H16.526A8.693,8.693,0,0,0,2.613,37.452v9.939A6.084,6.084,0,0,0,.871,51.646v3.225H31.355a6.1,6.1,0,0,0,6.1-6.1V46.161h3.572a4.355,4.355,0,1,0,5.138-5.138V28.742h6.968A1.744,1.744,0,0,0,54.871,27V6.1A1.744,1.744,0,0,0,53.129,4.355ZM23.516,2.613V7.839H2.613V2.613Zm-20.9,20.9V9.581h20.9V23.516ZM35.71,35.71H19.856a8.667,8.667,0,0,0-1.583-3.484H35.71Zm-24.453.427.066-.066.066.066a7.234,7.234,0,0,0,2.822,1.744.87.87,0,0,1,.6.827v2.229a2.616,2.616,0,0,1-2.613,2.613H10.452a2.616,2.616,0,0,1-2.613-2.613V38.707a.87.87,0,0,1,.6-.827,7.251,7.251,0,0,0,2.821-1.744ZM9.778,45.222a4.281,4.281,0,0,0,.673.068h1.742a4.3,4.3,0,0,0,.674-.068,3.514,3.514,0,0,0,1.455,1.587L13.23,48.774H9.415L8.323,46.808A3.51,3.51,0,0,0,9.778,45.222Zm2.483,5.294-.939,1.691-.939-1.691ZM16.04,47.3l.178.023a4.36,4.36,0,0,1,3.815,4.321v1.483H12.8ZM11.323,30.484a6.976,6.976,0,0,1,6.968,6.969l.01,8.7a6.045,6.045,0,0,0-1.866-.553l-.614-.077a1.746,1.746,0,0,1-1.308-.911,4.349,4.349,0,0,0,2.035-3.673V38.707a2.609,2.609,0,0,0-1.786-2.479h0A5.5,5.5,0,0,1,12.62,34.9l-.427-.427V32.226H10.452v2.252l-.427.427a5.5,5.5,0,0,1-2.142,1.323A2.61,2.61,0,0,0,6.1,38.707v2.229a4.345,4.345,0,0,0,2.036,3.672,1.746,1.746,0,0,1-1.309.911l-.612.077a6.083,6.083,0,0,0-1.857.55V37.452a6.976,6.976,0,0,1,6.968-6.968ZM2.613,51.646a4.361,4.361,0,0,1,3.816-4.321l.177-.022,3.237,5.826H2.613Zm28.742,1.483H21.774V51.646A6.083,6.083,0,0,0,20.044,47.4l-.011-9.952H35.71V48.774a4.36,4.36,0,0,1-4.355,4.355ZM47.9,45.29a2.613,2.613,0,1,1-2.613-2.613A2.616,2.616,0,0,1,47.9,45.29ZM53.129,6.1v5.226h-20.9V6.1ZM32.226,27V13.065h20.9V27Z"/>
          <path id="Path_1277754" data-name="Path 1277754" d="M33.968,7.839H35.71V9.581H33.968Z"/>
          <path id="Path_1277755" data-name="Path 1277755" d="M37.452,7.839h1.742V9.581H37.452Z"/>
          <path id="Path_1277756" data-name="Path 1277756" d="M33.968,21.774h5.226V14.806H33.968Zm1.742-5.226h1.742v3.484H35.71Z"/>
          <path id="Path_1277757" data-name="Path 1277757" d="M40.935,14.806H51.387v1.742H40.935Z"/>
          <path id="Path_1277758" data-name="Path 1277758" d="M40.935,18.29H51.387v1.742H40.935Z"/>
          <path id="Path_1277759" data-name="Path 1277759" d="M33.968,23.516H35.71v1.742H33.968Z"/>
          <path id="Path_1277760" data-name="Path 1277760" d="M37.452,23.516h1.742v1.742H37.452Z"/>
          <path id="Path_1277761" data-name="Path 1277761" d="M40.935,21.774H51.387v1.742H40.935Z"/>
          <path id="Path_1277762" data-name="Path 1277762" d="M40.935,7.839h1.742V9.581H40.935Z"/>
          <path id="Path_1277763" data-name="Path 1277763" d="M21.774,39.194h3.484v1.742H21.774Z"/>
          <path id="Path_1277764" data-name="Path 1277764" d="M27,39.194h6.968v1.742H27Z"/>
          <path id="Path_1277765" data-name="Path 1277765" d="M21.774,42.677H33.968v1.742H21.774Z"/>
          <path id="Path_1277766" data-name="Path 1277766" d="M21.774,46.161H27V47.9H21.774Z"/>
          <path id="Path_1277767" data-name="Path 1277767" d="M28.742,46.161h5.226V47.9H28.742Z"/>
          <path id="Path_1277768" data-name="Path 1277768" d="M23.516,49.645h1.742v1.742H23.516Z"/>
          <path id="Path_1277769" data-name="Path 1277769" d="M27,49.645h1.742v1.742H27Z"/>
        </g>
      </g>
    </g>
  </g>
</svg>
