<svg xmlns="http://www.w3.org/2000/svg" xmlns:xlink="http://www.w3.org/1999/xlink" width="98" height="97.999" viewBox="0 0 98 97.999">
  <defs>
    <clipPath id="clip-path">
      <rect id="Rectangle_412646" data-name="Rectangle 412646" width="56" height="54" transform="translate(772.27 767.538)" fill="#fff"/>
    </clipPath>
  </defs>
  <g id="Group_1206561" data-name="Group 1206561" transform="translate(-751 -745.088)">
    <g id="Group_1206314" data-name="Group 1206314" transform="translate(-120.112 467.924)">
      <g id="Group_1188789" data-name="Group 1188789" transform="translate(871.113 277.164)">
        <path id="Path_1243039" data-name="Path 1243039" d="M41.05,0h0a41.05,41.05,0,0,1,0,82.1h0a41.05,41.05,0,0,1,0-82.1Z" transform="translate(7.951 7.949)" fill="#ffa724"/>
        <rect id="Rectangle_400907" data-name="Rectangle 400907" width="88.438" height="88.437" rx="44.218" transform="translate(4.782 4.781)" fill="none"/>
        <g id="Group_1098742" data-name="Group 1098742" transform="translate(0)">
          <g id="Rectangle_400898" data-name="Rectangle 400898" transform="translate(0)" fill="none" stroke="#fff" stroke-width="2" opacity="0.859">
            <rect width="98" height="97.999" rx="48.999" stroke="none"/>
            <rect x="1" y="1" width="96" height="95.999" rx="47.999" fill="none"/>
          </g>
          <g id="Rectangle_400907-2" data-name="Rectangle 400907" transform="translate(0)" fill="none" stroke="#0f1f33" stroke-linecap="round" stroke-width="2">
            <rect width="98" height="97.999" rx="48.999" stroke="none"/>
            <rect x="1" y="1" width="96" height="95.999" rx="47.999" fill="none"/>
          </g>
        </g>
      </g>
    </g>
    <g id="Mask_Group_1099502" data-name="Mask Group 1099502" clip-path="url(#clip-path)">
      <g id="Page-1" transform="translate(772.497 766.771)">
        <g id="_048---Ad-Performance" data-name="048---Ad-Performance">
          <path id="Shape" d="M38.607,34.118V41.3H35.913a3.162,3.162,0,0,1-.593-.054,3.591,3.591,0,0,1,.593-7.129Z" fill="#ff9801"/>
          <path id="Shape-2" data-name="Shape" d="M50.279,28.731V46.687A9.568,9.568,0,0,0,42.2,41.3H38.607V34.118H42.2A9.568,9.568,0,0,0,50.279,28.731Z" fill="#ffdc00"/>
          <path id="Shape-3" data-name="Shape" d="M47.585,32.075V43.343a9.731,9.731,0,0,1,2.693,3.344V28.731a9.731,9.731,0,0,1-2.693,3.344Z" fill="#fec108"/>
          <rect id="Rectangle-path" width="3.591" height="25.139" rx="1.796" transform="translate(50.279 25.139)" fill="#ffeb3a"/>
          <path id="Shape-4" data-name="Shape" d="M41.3,47.585v3.591a2.693,2.693,0,0,1-5.387,0V47.585Z" fill="#ff9801"/>
          <path id="Shape-5" data-name="Shape" d="M38.607,47.585v3.591A2.677,2.677,0,0,1,37.26,53.5a2.677,2.677,0,0,0,4.04-2.321V47.585Z" fill="#f57c00"/>
          <path id="Rectangle-path-2" data-name="Rectangle-path" d="M35.913,41.3H41.3v6.285H35.913Z" fill="#ff5722"/>
          <path id="Rectangle-path-3" data-name="Rectangle-path" d="M38.607,41.3H41.3v6.285H38.607Z" fill="#d84315"/>
          <path id="Shape-6" data-name="Shape" d="M44.892,23.344a21.3,21.3,0,0,1-2.9,10.774H35.913a3.591,3.591,0,0,0-.593,7.129,21.542,21.542,0,1,1,9.571-17.9Z" fill="#3f51b5"/>
          <path id="Shape-7" data-name="Shape" d="M35.913,34.118H33.22a3.591,3.591,0,0,0-.593,7.129,21.3,21.3,0,0,1-10.67,3.6c.459.03.92.049,1.386.049a21.338,21.338,0,0,0,11.977-3.645,3.591,3.591,0,0,1,.593-7.129Z" fill="#283593"/>
          <path id="Shape-8" data-name="Shape" d="M23.344,1.8c-.449,0-.9.019-1.347.046a21.552,21.552,0,0,1,20.2,21.5,21.3,21.3,0,0,1-2.9,10.774h2.693a21.3,21.3,0,0,0,2.9-10.774A21.553,21.553,0,0,0,23.344,1.8Z" fill="#283593"/>
          <path id="Shape-9" data-name="Shape" d="M26.019,13.808a1.046,1.046,0,0,1,1.806.808c-.346,3.053-.982,7.6-1.868,9.517a3.208,3.208,0,0,1-4.335,1.594,3.366,3.366,0,0,1-1.552-4.449c.88-1.9,3.871-5.261,5.949-7.47Z" fill="#f44335"/>
          <rect id="Rectangle-path-4" data-name="Rectangle-path" width="10.774" height="5.387" rx="1.796" transform="translate(17.957 31.424)" fill="#cfd8dc"/>
          <path id="Rectangle-path-5" data-name="Rectangle-path" d="M21.548,31.424h3.591v5.387H21.548Z" fill="#f5f5f5"/>
          <path id="Shape-10" data-name="Shape" d="M38.58,8.107,33.489,13.2a14.29,14.29,0,0,0-10.146-4.22V1.8A21.514,21.514,0,0,1,38.58,8.107Z" fill="#ffdc00"/>
          <path id="Shape-11" data-name="Shape" d="M23.344,1.8V1.97A21.532,21.532,0,0,1,35.886,8.107l-3.842,3.842A14.511,14.511,0,0,1,33.489,13.2L38.58,8.107A21.514,21.514,0,0,0,23.344,1.8Z" fill="#fec108"/>
          <path id="Shape-12" data-name="Shape" d="M23.344,1.8V8.978A14.29,14.29,0,0,0,13.2,13.2L8.107,8.107A21.514,21.514,0,0,1,23.344,1.8Z" fill="#ff9801"/>
          <path id="Shape-13" data-name="Shape" d="M13.2,13.2a14.326,14.326,0,0,0-4.13,8.5,1.81,1.81,0,0,1-1.787,1.643H1.8A21.514,21.514,0,0,1,8.107,8.107Z" fill="#f44335"/>
          <path id="Shape-14" data-name="Shape" d="M44.892,23.344H39.406A1.81,1.81,0,0,1,37.619,21.7a14.326,14.326,0,0,0-4.13-8.5L38.58,8.107A21.514,21.514,0,0,1,44.892,23.344Z" fill="#a4c400"/>
          <path id="Shape-15" data-name="Shape" d="M38.58,8.107l-1.41,1.41A21.482,21.482,0,0,1,42.2,23.344h2.694A21.514,21.514,0,0,0,38.58,8.107Z" fill="#90ac00"/>
          <g id="Group_1206560" data-name="Group 1206560">
            <path id="Shape-16" data-name="Shape" d="M52.074,24.241a2.694,2.694,0,0,0-2.693,2.693V28.5a8.619,8.619,0,0,1-5.8,4.532,22.51,22.51,0,1,0-8.562,9.463v8.683a3.591,3.591,0,0,0,7.183,0V42.2a8.619,8.619,0,0,1,7.183,4.722v1.563a2.693,2.693,0,1,0,5.387,0V26.935a2.694,2.694,0,0,0-2.693-2.693ZM11.941,13.21A15.184,15.184,0,0,0,8.179,21.6a.912.912,0,0,1-.9.843H2.716A20.57,20.57,0,0,1,8.129,9.4ZM13.2,11.932l-3.8-3.8A20.57,20.57,0,0,1,22.446,2.716V8.123a15.221,15.221,0,0,0-9.248,3.81ZM24.241,2.716A20.57,20.57,0,0,1,37.289,8.129l-3.8,3.8a15.221,15.221,0,0,0-9.248-3.81ZM38.558,9.4a20.57,20.57,0,0,1,5.413,13.047H39.4a.912.912,0,0,1-.9-.843,15.184,15.184,0,0,0-3.76-8.393ZM2.716,24.241H7.283a2.718,2.718,0,0,0,2.683-2.436,13.467,13.467,0,0,1,26.761,0A2.718,2.718,0,0,0,39.4,24.241h4.56a20.471,20.471,0,0,1-2.508,8.978H35.913a4.484,4.484,0,0,0-2.553,8.17,20.457,20.457,0,0,1-10.016,2.6A20.674,20.674,0,0,1,2.716,24.241ZM40.4,46.687H36.811V42.2H40.4ZM35.913,40.4a2.693,2.693,0,1,1,0-5.387h1.8V40.4Zm2.694,12.57a1.8,1.8,0,0,1-1.8-1.8V48.483H40.4v2.694A1.8,1.8,0,0,1,38.607,52.972ZM42.2,40.4H39.5V35.015H42.2a10.386,10.386,0,0,0,7.183-3.372V43.775A10.386,10.386,0,0,0,42.2,40.4Zm10.774,8.08a.9.9,0,1,1-1.8,0V26.935a.9.9,0,1,1,1.8,0Z"/>
            <path id="Shape-17" data-name="Shape" d="M21.227,26.54a4.04,4.04,0,0,0,3.158.18,4.144,4.144,0,0,0,2.387-2.2c.916-1.987,1.564-6.424,1.946-9.8a1.9,1.9,0,0,0-1.108-1.96,1.929,1.929,0,0,0-2.245.431c-2.284,2.424-5.2,5.736-6.105,7.714A4.267,4.267,0,0,0,21.227,26.54Zm-.342-4.88c.628-1.374,2.688-3.944,5.788-7.237a.144.144,0,0,1,.106-.051.172.172,0,0,1,.075.019.111.111,0,0,1,.079.128c-.52,4.579-1.156,7.865-1.8,9.248a2.369,2.369,0,0,1-1.359,1.257,2.265,2.265,0,0,1-1.77-.1,2.465,2.465,0,0,1-1.124-3.259Z"/>
            <path id="Shape-18" data-name="Shape" d="M26.935,30.526H19.752a2.694,2.694,0,0,0-2.693,2.693v1.8a2.694,2.694,0,0,0,2.693,2.693h7.183a2.694,2.694,0,0,0,2.693-2.693v-1.8A2.694,2.694,0,0,0,26.935,30.526Zm-2.693,1.8v3.591h-1.8V32.322Zm-5.387,2.694v-1.8a.9.9,0,0,1,.9-.9h.9v3.591h-.9A.9.9,0,0,1,18.854,35.015Zm8.978,0a.9.9,0,0,1-.9.9h-.9V32.322h.9a.9.9,0,0,1,.9.9Z"/>
          </g>
        </g>
      </g>
    </g>
  </g>
</svg>
