<svg xmlns="http://www.w3.org/2000/svg" xmlns:xlink="http://www.w3.org/1999/xlink" width="98" height="97.999" viewBox="0 0 98 97.999">
  <defs>
    <clipPath id="clip-path">
      <rect id="Rectangle_412650" data-name="Rectangle 412650" width="56" height="54" transform="translate(773.135 877.654)" fill="#fff"/>
    </clipPath>
  </defs>
  <g id="Group_1206626" data-name="Group 1206626" transform="translate(-751.866 -855.204)">
    <g id="Group_1206625" data-name="Group 1206625">
      <g id="Group_1206318" data-name="Group 1206318" transform="translate(-119.247 578.04)">
        <g id="Group_1188789" data-name="Group 1188789" transform="translate(871.113 277.164)">
          <path id="Path_1243039" data-name="Path 1243039" d="M41.05,0h0a41.05,41.05,0,0,1,0,82.1h0a41.05,41.05,0,0,1,0-82.1Z" transform="translate(7.951 7.949)" fill="#ffa724"/>
          <rect id="Rectangle_400907" data-name="Rectangle 400907" width="88.438" height="88.437" rx="44.218" transform="translate(4.782 4.781)" fill="none"/>
          <g id="Group_1098742" data-name="Group 1098742" transform="translate(0)">
            <g id="Rectangle_400898" data-name="Rectangle 400898" transform="translate(0)" fill="none" stroke="#fff" stroke-width="2" opacity="0.859">
              <rect width="98" height="97.999" rx="48.999" stroke="none"/>
              <rect x="1" y="1" width="96" height="95.999" rx="47.999" fill="none"/>
            </g>
            <g id="Rectangle_400907-2" data-name="Rectangle 400907" transform="translate(0)" fill="none" stroke="#0f1f33" stroke-linecap="round" stroke-width="2">
              <rect width="98" height="97.999" rx="48.999" stroke="none"/>
              <rect x="1" y="1" width="96" height="95.999" rx="47.999" fill="none"/>
            </g>
          </g>
        </g>
      </g>
      <g id="Mask_Group_1099514" data-name="Mask Group 1099514" clip-path="url(#clip-path)">
        <g id="digital-assistant_17756696" transform="translate(771.024 873.409)">
          <g id="Group_1206623" data-name="Group 1206623">
            <path id="Path_1277719" data-name="Path 1277719" d="M5.116,13.322h35.3a2.05,2.05,0,0,1,2.044,2.044V42.074a2.05,2.05,0,0,1-2.044,2.044H5.116a2.05,2.05,0,0,1-2.044-2.044V15.366a2.049,2.049,0,0,1,2.044-2.044Z" fill="#d1e7fe" fill-rule="evenodd"/>
            <path id="Path_1277720" data-name="Path 1277720" d="M7.778,50.955H37.747V56.93H7.778Z" fill="#b3b3b3" fill-rule="evenodd"/>
            <path id="Path_1277721" data-name="Path 1277721" d="M17,44.119H28.53c1.662,2.709,4.974,5.273,9.218,6.836H7.778C12.026,49.392,15.335,46.826,17,44.119Z" fill="gray" fill-rule="evenodd"/>
            <path id="Path_1277722" data-name="Path 1277722" d="M50.614,17.017A2.518,2.518,0,1,1,48.1,19.535,2.515,2.515,0,0,1,50.614,17.017Z" fill="lime" fill-rule="evenodd"/>
            <path id="Path_1277723" data-name="Path 1277723" d="M54.633,26.218a2.518,2.518,0,1,1-2.518,2.518A2.515,2.515,0,0,1,54.633,26.218Z" fill="lime" fill-rule="evenodd"/>
            <path id="Path_1277724" data-name="Path 1277724" d="M50.614,35.422A2.516,2.516,0,1,1,48.1,37.936,2.511,2.511,0,0,1,50.614,35.422Z" fill="lime" fill-rule="evenodd"/>
            <path id="Path_1277725" data-name="Path 1277725" d="M17.037,32.362c1.053-4.1.743-3.832,6.441-6.578,1.894-.91,3.464,1.608,1.676,2.711l-2.947,1.812,5.427-3.386A2.044,2.044,0,0,0,28.459,26l3.212-5.223c1.107-1.8,3.611-1.656,2.95.351-4.956,15.028-4.469,11.422-17.072,18.7l-3.362-5.825Z" fill="#fbd1a2" fill-rule="evenodd"/>
            <path id="Path_1277726" data-name="Path 1277726" d="M14.861,32.1,12.988,33.18a.99.99,0,0,0-.361,1.349l3.6,6.244a.99.99,0,0,0,1.349.361l1.873-1.08a.992.992,0,0,0,.361-1.352l-3.6-6.244a.993.993,0,0,0-1.349-.361Z" fill="#99f" fill-rule="evenodd"/>
            <path id="Path_1277727" data-name="Path 1277727" d="M13.927,5.5H31.6a1.667,1.667,0,0,1,1.734,1.58v8.025a1.667,1.667,0,0,1-1.734,1.58H20.012a10.147,10.147,0,0,1-3.884,5.072,10.074,10.074,0,0,0-.484-5.072H13.927a1.667,1.667,0,0,1-1.734-1.58V7.085A1.668,1.668,0,0,1,13.927,5.5Z" fill="#9f9" fill-rule="evenodd"/>
            <path id="Path_1277728" data-name="Path 1277728" d="M16.581,9.438A1.778,1.778,0,1,1,14.8,11.216,1.78,1.78,0,0,1,16.581,9.438Zm12.451,0a1.778,1.778,0,1,1-1.778,1.778,1.78,1.78,0,0,1,1.778-1.778Zm-6.227,0a1.778,1.778,0,1,1-1.775,1.778A1.778,1.778,0,0,1,22.8,9.438Z" fill="#ff0" fill-rule="evenodd"/>
          </g>
          <path id="Path_1277729" data-name="Path 1277729" d="M16.581,8.506a2.739,2.739,0,1,1-2.739,2.739,2.743,2.743,0,0,1,2.739-2.739Zm.576,2.163a.816.816,0,1,0,0,1.155A.817.817,0,0,0,17.156,10.669ZM29.028,8.506a2.74,2.74,0,1,1-2.739,2.739A2.744,2.744,0,0,1,29.028,8.506Zm.579,2.163a.816.816,0,1,0,0,1.155A.817.817,0,0,0,29.607,10.669ZM22.8,8.506a2.74,2.74,0,1,1-2.739,2.739A2.744,2.744,0,0,1,22.8,8.506Zm.576,2.163a.816.816,0,1,0,0,1.155A.817.817,0,0,0,23.38,10.669Zm-9.456-6.1H31.6a2.631,2.631,0,0,1,2.694,2.542v5.277h6.118a3.013,3.013,0,0,1,3,3V18.6h3.853a3.476,3.476,0,1,1,0,1.921h-3.85V27.8h7.872a3.476,3.476,0,1,1,0,1.921H43.417V37h3.853a3.474,3.474,0,1,1,0,1.925H43.417V42.1a3.011,3.011,0,0,1-3,3H30.435a15.26,15.26,0,0,0,2.391,2.18,20.962,20.962,0,0,0,5.2,2.776.963.963,0,0,1,.681.919v5.975a.959.959,0,0,1-.96.96H7.778a.959.959,0,0,1-.96-.96V50.984a.961.961,0,0,1,.678-.919,19.008,19.008,0,0,0,7.6-4.956H5.116a3.009,3.009,0,0,1-3-3V15.392a3.011,3.011,0,0,1,3-3h6.118V7.112a2.627,2.627,0,0,1,2.691-2.54Zm20.37,9.742v.824A2.631,2.631,0,0,1,31.6,17.682H20.669a11.111,11.111,0,0,1-4,4.9.961.961,0,0,1-1.5-.893,10.1,10.1,0,0,0-.2-4.006H13.925a2.628,2.628,0,0,1-2.691-2.544v-.824H5.116a1.087,1.087,0,0,0-1.083,1.08V42.1a1.088,1.088,0,0,0,1.083,1.083h35.3a1.085,1.085,0,0,0,1.08-1.083V38.926H33.747a.962.962,0,0,1,0-1.924h7.746v-7.28H36.612a.96.96,0,0,1,0-1.92h4.881v-7.28H38.979a.96.96,0,0,1,0-1.92h2.514V15.394a1.085,1.085,0,0,0-1.08-1.08ZM31.6,6.5H13.924a.718.718,0,0,0-.77.616v8.025a.72.72,0,0,0,.77.62h1.72v0a.96.96,0,0,1,.886.589,9.073,9.073,0,0,1,.661,3.26c.18-.2.354-.4.518-.613a9.285,9.285,0,0,0,1.38-2.544.96.96,0,0,1,.923-.695H31.6a.718.718,0,0,0,.77-.62V7.112A.714.714,0,0,0,31.6,6.5ZM15.338,32.956l-1.873,1.08-.011.041,3.624,6.257,1.894-1.08v0l.013-.041v0l-3.624-6.257C15.351,32.953,15.341,32.953,15.338,32.956Zm-2.828-.579,1.884-1.086a1.934,1.934,0,0,1,1.931,0,6.576,6.576,0,0,1,1.513-3.383c.947-.964,2.739-1.764,5.225-2.96h0a2.633,2.633,0,0,1,3.682,1.428c.685-.425.538-.262.9-.848l3.212-5.223c1.124-1.829,3.55-2.313,4.514-.872a2.263,2.263,0,0,1,.167,2.03C31.5,33.688,30.949,33.967,24.4,37.281c-1.015.511-2.176,1.1-3.5,1.809a1.954,1.954,0,0,1-.967,1.823v0c-.624.364-1.261.711-1.877,1.083A1.946,1.946,0,0,1,15.4,41.28l-3.6-6.244a1.943,1.943,0,0,1,.715-2.659Zm5.164.728,2.442,4.231c1.325-.709,2.439-1.274,3.416-1.768,5.893-2.98,6.391-3.233,10.175-14.7a1.044,1.044,0,0,0,.072-.338c-.347-.1-.96.256-1.291.791l-3.266,5.307A2.669,2.669,0,0,1,28.1,27.791l-2.129,1.325a3.27,3.27,0,0,1-.32.225l-2.947,1.816a.961.961,0,0,1-1-1.639l3.106-1.935c.46-.361-.093-1.3-.917-.906a21.589,21.589,0,0,0-4.687,2.579c-.522.528-.715,1.3-1.1,2.828-.031.126-.013.054,0,0a1.857,1.857,0,0,1-.43,1.021Zm.429-1.021C18.114,32.043,18.124,32.012,18.1,32.084Zm33.607,4.783a1.554,1.554,0,1,0,0,2.2A1.555,1.555,0,0,0,51.711,36.866Zm4.02-9.2a1.555,1.555,0,1,0,0,2.2A1.557,1.557,0,0,0,55.73,27.663Zm-4.02-9.2a1.555,1.555,0,1,0,0,2.2A1.557,1.557,0,0,0,51.711,18.461Zm-34.2,26.645a17.282,17.282,0,0,1-5.474,4.915H33.484a17.27,17.27,0,0,1-5.47-4.915ZM8.74,56H36.783V51.943H8.74Z"/>
        </g>
      </g>
    </g>
  </g>
</svg>
