<svg xmlns="http://www.w3.org/2000/svg" xmlns:xlink="http://www.w3.org/1999/xlink" width="98" height="97.999" viewBox="0 0 98 97.999">
  <defs>
    <clipPath id="clip-path">
      <rect id="Rectangle_412650" data-name="Rectangle 412650" width="56" height="54" transform="translate(1193.024 877.654)" fill="#fff"/>
    </clipPath>
  </defs>
  <g id="Group_1206624" data-name="Group 1206624" transform="translate(-1171.755 -855.204)">
    <g id="Group_1206318" data-name="Group 1206318" transform="translate(300.642 578.04)">
      <g id="Group_1188789" data-name="Group 1188789" transform="translate(871.113 277.164)">
        <path id="Path_1243039" data-name="Path 1243039" d="M41.05,0h0a41.05,41.05,0,0,1,0,82.1h0a41.05,41.05,0,0,1,0-82.1Z" transform="translate(7.951 7.949)" fill="#ffa724"/>
        <rect id="Rectangle_400907" data-name="Rectangle 400907" width="88.438" height="88.437" rx="44.218" transform="translate(4.782 4.781)" fill="none"/>
        <g id="Group_1098742" data-name="Group 1098742" transform="translate(0)">
          <g id="Rectangle_400898" data-name="Rectangle 400898" transform="translate(0)" fill="none" stroke="#fff" stroke-width="2" opacity="0.859">
            <rect width="98" height="97.999" rx="48.999" stroke="none"/>
            <rect x="1" y="1" width="96" height="95.999" rx="47.999" fill="none"/>
          </g>
          <g id="Rectangle_400907-2" data-name="Rectangle 400907" transform="translate(0)" fill="none" stroke="#0f1f33" stroke-linecap="round" stroke-width="2">
            <rect width="98" height="97.999" rx="48.999" stroke="none"/>
            <rect x="1" y="1" width="96" height="95.999" rx="47.999" fill="none"/>
          </g>
        </g>
      </g>
    </g>
    <g id="Mask_Group_1099513" data-name="Mask Group 1099513" clip-path="url(#clip-path)">
      <g id="organizational_17929902" transform="translate(1193.971 877.602)">
        <g id="Group_1206622" data-name="Group 1206622">
          <g id="Group_1206604" data-name="Group 1206604">
            <path id="Path_1277699" data-name="Path 1277699" d="M28.646,23.4v1.5a7.61,7.61,0,0,1,2.609,1.081l1.063-1.063a9.3,9.3,0,0,1,2.259,2.259L33.514,28.24A7.643,7.643,0,0,1,34.6,30.849h1.5a9.336,9.336,0,0,1,0,3.2H34.6a7.594,7.594,0,0,1-1.081,2.606l1.063,1.063a9.31,9.31,0,0,1-2.259,2.262l-1.063-1.063a7.726,7.726,0,0,1-2.609,1.081v1.5a9.336,9.336,0,0,1-3.2,0v-1.5a7.713,7.713,0,0,1-2.606-1.081l-1.063,1.063a9.32,9.32,0,0,1-2.262-2.262l1.063-1.063A7.712,7.712,0,0,1,19.5,34.046H18a9.336,9.336,0,0,1,0-3.2h1.5a7.7,7.7,0,0,1,1.081-2.609l-1.063-1.063a9.309,9.309,0,0,1,2.262-2.259l1.063,1.063A7.594,7.594,0,0,1,25.45,24.9V23.4a9.336,9.336,0,0,1,3.2,0Z" fill="#fd4755" fill-rule="evenodd"/>
          </g>
          <g id="Group_1206605" data-name="Group 1206605">
            <path id="Path_1277700" data-name="Path 1277700" d="M27.05,36.879a4.433,4.433,0,1,0-4.433-4.433,4.443,4.443,0,0,0,4.433,4.433Z" fill="#f2fbff" fill-rule="evenodd"/>
          </g>
          <g id="Group_1206606" data-name="Group 1206606">
            <path id="Path_1277701" data-name="Path 1277701" d="M29.914,13.257h-5.73a3.574,3.574,0,0,0-3.565,3.562v4.125h12.86V16.818A3.573,3.573,0,0,0,29.914,13.257Z" fill="#ffca28" fill-rule="evenodd"/>
          </g>
          <g id="Group_1206607" data-name="Group 1206607">
            <path id="Path_1277702" data-name="Path 1277702" d="M26.31,10.45h1.477l.53,5.727L27.05,17.942l-1.27-1.764Z" fill="#fd4755" fill-rule="evenodd"/>
          </g>
          <g id="Group_1206608" data-name="Group 1206608">
            <path id="Path_1277703" data-name="Path 1277703" d="M26.927,2.808c-2.319,0-4.2,2.334-4.2,5.212s1.878,5.212,4.2,5.212,4.2-2.334,4.2-5.212-1.881-5.212-4.2-5.212Z" fill="#ffcebf" fill-rule="evenodd"/>
          </g>
          <g id="Group_1206609" data-name="Group 1206609">
            <path id="Path_1277704" data-name="Path 1277704" d="M14.876,45.677H9.146a3.577,3.577,0,0,0-3.565,3.565v4.125h12.86V49.242A3.575,3.575,0,0,0,14.876,45.677Z" fill="#ffca28" fill-rule="evenodd"/>
          </g>
          <g id="Group_1206610" data-name="Group 1206610">
            <path id="Path_1277705" data-name="Path 1277705" d="M11.272,42.87h1.477l.53,5.73-1.27,1.764L10.742,48.6Z" fill="#fd4755" fill-rule="evenodd"/>
          </g>
          <g id="Group_1206611" data-name="Group 1206611">
            <path id="Path_1277706" data-name="Path 1277706" d="M11.89,35.232c-2.319,0-4.2,2.334-4.2,5.212s1.881,5.212,4.2,5.212,4.2-2.334,4.2-5.212-1.881-5.212-4.2-5.212Z" fill="#ffcebf" fill-rule="evenodd"/>
          </g>
          <g id="Group_1206612" data-name="Group 1206612">
            <path id="Path_1277707" data-name="Path 1277707" d="M44.96,45.677H39.23a3.575,3.575,0,0,0-3.565,3.565v4.125h12.86V49.242A3.577,3.577,0,0,0,44.96,45.677Z" fill="#ffca28" fill-rule="evenodd"/>
          </g>
          <g id="Group_1206613" data-name="Group 1206613">
            <path id="Path_1277708" data-name="Path 1277708" d="M41.356,42.87h1.477l.53,5.73-1.27,1.764L40.823,48.6Z" fill="#fd4755" fill-rule="evenodd"/>
            <path id="Path_1277709" data-name="Path 1277709" d="M42.093,50.383l-.008-.012L40.812,48.6v0l.534-5.74h1.5v.01l.531,5.734,0,0ZM40.834,48.6l1.259,1.749L43.353,48.6l-.529-5.717H41.366Z" fill="#fd4755"/>
          </g>
          <g id="Group_1206614" data-name="Group 1206614">
            <path id="Path_1277710" data-name="Path 1277710" d="M41.974,35.232c-2.319,0-4.2,2.334-4.2,5.212s1.881,5.212,4.2,5.212,4.2-2.334,4.2-5.212S44.292,35.232,41.974,35.232Z" fill="#ffcebf" fill-rule="evenodd"/>
          </g>
          <g id="Group_1206615" data-name="Group 1206615">
            <path id="Path_1277711" data-name="Path 1277711" d="M27.05,28.013a4.433,4.433,0,0,1,0,8.867,4.752,4.752,0,0,1-.509-.027,4.434,4.434,0,0,0,0-8.81,4.72,4.72,0,0,1,.509-.03Z" fill="#cce4ff" fill-rule="evenodd"/>
          </g>
          <g id="Group_1206616" data-name="Group 1206616">
            <path id="Path_1277712" data-name="Path 1277712" d="M26.927,2.808a3.167,3.167,0,0,0-.476.036c2.1.291,3.723,2.5,3.723,5.176s-1.627,4.886-3.723,5.179a3.608,3.608,0,0,0,.476.033c2.319,0,4.2-2.334,4.2-5.212s-1.881-5.212-4.2-5.212Z" fill="#ffb09e" fill-rule="evenodd"/>
          </g>
          <g id="Group_1206617" data-name="Group 1206617">
            <path id="Path_1277713" data-name="Path 1277713" d="M11.89,35.232a3.572,3.572,0,0,0-.476.033c2.1.294,3.723,2.5,3.723,5.179s-1.627,4.886-3.723,5.179a3.572,3.572,0,0,0,.476.033c2.319,0,4.2-2.334,4.2-5.212s-1.881-5.212-4.2-5.212Z" fill="#ffb09e" fill-rule="evenodd"/>
          </g>
          <g id="Group_1206618" data-name="Group 1206618">
            <path id="Path_1277714" data-name="Path 1277714" d="M41.974,35.232a3.572,3.572,0,0,0-.476.033c2.094.294,3.723,2.5,3.723,5.179s-1.63,4.886-3.723,5.179a3.573,3.573,0,0,0,.476.033c2.319,0,4.2-2.334,4.2-5.212s-1.878-5.212-4.2-5.212Z" fill="#ffb09e" fill-rule="evenodd"/>
          </g>
          <g id="Group_1206619" data-name="Group 1206619">
            <path id="Path_1277715" data-name="Path 1277715" d="M31.085,8.763C34.715,5.87,31.822.5,26.735.747c-3.178.159-5.862,2.076-5.26,5.584a4.241,4.241,0,0,0,1.3,2.486c-.063-2.372.413-3.711,1.186-4.49,2.738,3.121,7.71-.339,7.12,4.436Z" fill="#407093" fill-rule="evenodd"/>
          </g>
          <g id="Group_1206620" data-name="Group 1206620">
            <path id="Path_1277716" data-name="Path 1277716" d="M16.044,41.187c3.634-2.894.74-8.265-4.347-8.016-3.178.156-5.862,2.076-5.26,5.584a4.251,4.251,0,0,0,1.3,2.486c-.063-2.372.413-3.714,1.186-4.49C11.662,39.872,16.638,36.409,16.044,41.187Z" fill="#407093" fill-rule="evenodd"/>
          </g>
          <g id="Group_1206621" data-name="Group 1206621">
            <path id="Path_1277717" data-name="Path 1277717" d="M46.128,41.187c3.634-2.894.74-8.265-4.347-8.016-3.178.156-5.865,2.076-5.263,5.584a4.268,4.268,0,0,0,1.306,2.486c-.066-2.372.413-3.714,1.186-4.49C41.746,39.872,46.721,36.409,46.128,41.187Z" fill="#407093" fill-rule="evenodd"/>
          </g>
        </g>
        <path id="Path_1277718" data-name="Path 1277718" d="M35.085,37.172l-.653-.653a8.322,8.322,0,0,0,.726-1.749h.923a.738.738,0,0,0,.728-.613,10.049,10.049,0,0,0,0-3.442.738.738,0,0,0-.728-.612h-.924a8.381,8.381,0,0,0-.726-1.751l.653-.653a.739.739,0,0,0,.082-.947,9.95,9.95,0,0,0-2.437-2.434.739.739,0,0,0-.947.083l-.65.652a8.312,8.312,0,0,0-1.751-.726V23.4a.739.739,0,0,0-.612-.728,10.1,10.1,0,0,0-3.442,0,.739.739,0,0,0-.612.728v.923a8.306,8.306,0,0,0-1.751.726l-.65-.652a.738.738,0,0,0-.947-.083,9.952,9.952,0,0,0-2.437,2.434.738.738,0,0,0,.082.947l.653.653a8.317,8.317,0,0,0-.727,1.751h-.923a.738.738,0,0,0-.728.612,10.049,10.049,0,0,0,0,3.442.738.738,0,0,0,.728.613h.925a8.389,8.389,0,0,0,.725,1.748l-.653.653a.739.739,0,0,0-.082.947,9.959,9.959,0,0,0,2.437,2.437.738.738,0,0,0,.947-.083l.651-.653a8.432,8.432,0,0,0,1.75.725v.925a.738.738,0,0,0,.612.728,10.057,10.057,0,0,0,3.442,0,.738.738,0,0,0,.612-.728v-.925a8.437,8.437,0,0,0,1.75-.725l.651.653a.738.738,0,0,0,.947.083,9.958,9.958,0,0,0,2.437-2.437.738.738,0,0,0-.082-.947ZM33.858,33.88a6.873,6.873,0,0,1-.975,2.349.738.738,0,0,0,.1.925l.607.607a8.469,8.469,0,0,1-1.212,1.213l-.6-.606a.739.739,0,0,0-.925-.1,6.981,6.981,0,0,1-2.356.976.739.739,0,0,0-.585.722v.857a8.576,8.576,0,0,1-1.713,0v-.857a.739.739,0,0,0-.585-.722,6.978,6.978,0,0,1-2.356-.976.739.739,0,0,0-.925.1l-.6.606a8.468,8.468,0,0,1-1.212-1.213l.607-.607a.738.738,0,0,0,.1-.925,6.934,6.934,0,0,1-.976-2.352.738.738,0,0,0-.722-.585H18.66c-.029-.286-.043-.574-.043-.858s.014-.57.043-.855h.857a.738.738,0,0,0,.723-.587,6.865,6.865,0,0,1,.975-2.352.738.738,0,0,0-.1-.925l-.606-.606a8.463,8.463,0,0,1,1.211-1.21l.6.606a.738.738,0,0,0,.927.1,6.862,6.862,0,0,1,2.352-.975.738.738,0,0,0,.587-.723v-.857a8.568,8.568,0,0,1,1.713,0V24.9a.738.738,0,0,0,.587.723,6.861,6.861,0,0,1,2.352.975.739.739,0,0,0,.927-.1l.6-.606a8.458,8.458,0,0,1,1.211,1.21l-.606.606a.738.738,0,0,0-.1.925A6.931,6.931,0,0,1,33.858,31a.738.738,0,0,0,.722.585h.857c.029.285.043.571.043.855s-.014.571-.043.858h-.857A.738.738,0,0,0,33.858,33.88Zm-6.811-6.608a5.163,5.163,0,1,0,5.166,5.163,5.169,5.169,0,0,0-5.166-5.163Zm0,8.849a3.686,3.686,0,1,1,3.689-3.686A3.69,3.69,0,0,1,27.047,36.122Zm18.116,8.787a6.3,6.3,0,0,0,1.618-3.367,4.664,4.664,0,0,0,1.35-5.257,5.732,5.732,0,0,0-1.409-2.093c.023-.4.035-.787.035-1.159a19.716,19.716,0,0,0-13.329-18.65,4.3,4.3,0,0,0-3.283-1.83A6.3,6.3,0,0,0,31.768,9.18a4.663,4.663,0,0,0,1.349-5.253A6.344,6.344,0,0,0,26.7.063a6.731,6.731,0,0,0-4.983,2.244,5.122,5.122,0,0,0-.96,4.191c0,.016.006.031.01.047A5.332,5.332,0,0,0,22.1,9.233a6.242,6.242,0,0,0,1.611,3.341,4.3,4.3,0,0,0-3.04,1.812A19.715,19.715,0,0,0,7.349,33.033c0,.31.008.629.023.951a5.025,5.025,0,0,0-.661.678,5.123,5.123,0,0,0-.962,4.194c0,.016.006.031.01.047A5.356,5.356,0,0,0,7.085,41.59a6.243,6.243,0,0,0,1.61,3.341A4.3,4.3,0,0,0,4.885,49.2v4.117a.739.739,0,0,0,.738.738H18.458a.739.739,0,0,0,.738-.738V51.108a19.752,19.752,0,0,0,15.713,0v2.207a.739.739,0,0,0,.738.738H48.482a.739.739,0,0,0,.738-.738V49.2A4.3,4.3,0,0,0,45.163,44.909ZM42.57,48.351l-.507.7-.507-.7.184-1.973h.646Zm-4.033-7.194a9.12,9.12,0,0,1,.221-2.453,4.854,4.854,0,0,1,.358-.841,6.975,6.975,0,0,0,4.053,1.161c1.73.107,2.144.228,2.22,1.163,0,.068,0,.147,0,.231a4.435,4.435,0,0,1-2.551,4.309.735.735,0,0,0-.076.025,2.707,2.707,0,0,1-.823.129c-1.671,0-3.13-1.6-3.406-3.724Zm8.162-1.9c-.524-1.525-2.12-1.625-3.438-1.707-1.339-.083-2.723-.169-3.719-1.3a.739.739,0,0,0-1.13.022,6.113,6.113,0,0,0-1.068,2.008c0,.012-.007.024-.01.036-.031.12-.059.244-.085.372-.008-.033-.017-.066-.025-.1a3.635,3.635,0,0,1,.663-3,5.819,5.819,0,0,1,7.562-.554.747.747,0,0,0,.071.06,4.287,4.287,0,0,1,1.229,1.714,3.106,3.106,0,0,1-.049,2.451ZM27.554,15.992l-.507.7-.507-.7.11-1.182c.131,0,.264,0,.4,0s.265,0,.392,0ZM22.869,3.23a5.275,5.275,0,0,1,3.9-1.693,4.874,4.874,0,0,1,4.963,2.91A3.1,3.1,0,0,1,31.683,6.9c-.524-1.525-2.119-1.625-3.436-1.707-1.339-.083-2.724-.17-3.721-1.307a.739.739,0,0,0-.555-.252h-.015a.738.738,0,0,0-.559.274,6.132,6.132,0,0,0-1.068,2.007c0,.012-.008.025-.011.037-.031.12-.059.245-.085.371-.008-.033-.017-.066-.025-.1a3.633,3.633,0,0,1,.661-2.994ZM23.524,8.8a9.172,9.172,0,0,1,.217-2.453,4.934,4.934,0,0,1,.36-.84,6.977,6.977,0,0,0,4.054,1.162c1.728.108,2.143.228,2.218,1.163,0,.074.007.153.007.228a5.749,5.749,0,0,1-.034.622.742.742,0,0,0-.009.08c-.261,2.129-1.69,3.762-3.41,3.762-1.669,0-3.127-1.6-3.4-3.724Zm.665,5.225H25.24l-.2,2.108a.739.739,0,0,0,.136.5l1.268,1.761a.738.738,0,0,0,1.2,0l1.268-1.761a.738.738,0,0,0,.136-.5l-.194-2.109h1.052a2.82,2.82,0,0,1,2.386,1.32.751.751,0,0,0,.046.076,2.8,2.8,0,0,1,.386,1.42v3.378H21.37V16.839a2.8,2.8,0,0,1,.391-1.428c.011-.016.02-.033.03-.049A2.82,2.82,0,0,1,24.189,14.023ZM7.863,35.586a5.268,5.268,0,0,1,3.9-1.69,4.873,4.873,0,0,1,4.962,2.911,3.1,3.1,0,0,1-.051,2.45c-.524-1.526-2.121-1.627-3.439-1.708-1.339-.083-2.723-.169-3.719-1.3a.738.738,0,0,0-.555-.252H8.948a.738.738,0,0,0-.56.274A6.113,6.113,0,0,0,7.32,38.275c0,.012-.007.024-.01.036-.031.12-.059.245-.085.372-.008-.033-.017-.065-.025-.1a3.634,3.634,0,0,1,.663-3Zm.651,5.571a9.244,9.244,0,0,1,.22-2.454,4.858,4.858,0,0,1,.358-.841,6.975,6.975,0,0,0,4.053,1.161c1.73.107,2.144.228,2.22,1.163,0,.068,0,.147,0,.232a4.435,4.435,0,0,1-2.551,4.309.718.718,0,0,0-.075.025,2.709,2.709,0,0,1-.824.13c-1.67,0-3.13-1.6-3.406-3.723Zm4.033,7.193-.507.7-.507-.7.184-1.973h.646Zm5.173,4.225H6.362V49.2a2.822,2.822,0,0,1,2.819-2.819h1.052l-.2,2.111a.739.739,0,0,0,.136.5L11.44,50.75a.738.738,0,0,0,1.2,0l1.268-1.761a.739.739,0,0,0,.136-.5l-.2-2.111H14.9A2.822,2.822,0,0,1,17.719,49.2v3.378Zm9.333-1.315A18.009,18.009,0,0,1,19.2,49.483V49.2a4.3,4.3,0,0,0-4.058-4.289,6.3,6.3,0,0,0,1.618-3.367,4.663,4.663,0,0,0,1.352-5.255,6.344,6.344,0,0,0-6.416-3.865,8,8,0,0,0-2.866.657c0-.015,0-.03,0-.045A18.191,18.191,0,0,1,19.935,16.245a4.3,4.3,0,0,0-.042.594v4.117a.739.739,0,0,0,.738.738H33.465a.739.739,0,0,0,.738-.738V16.839a4.294,4.294,0,0,0-.042-.6A18.189,18.189,0,0,1,45.28,33.033c0,.042,0,.085,0,.128a6.925,6.925,0,0,0-3.563-.74,6.724,6.724,0,0,0-4.982,2.241,5.123,5.123,0,0,0-.962,4.194c0,.016.006.031.01.047a5.356,5.356,0,0,0,1.327,2.686,6.243,6.243,0,0,0,1.61,3.341A4.3,4.3,0,0,0,34.909,49.2v.285a18.011,18.011,0,0,1-7.857,1.778Zm20.691,1.315H36.386V49.2a2.822,2.822,0,0,1,2.819-2.819h1.052l-.2,2.111a.739.739,0,0,0,.136.5l1.268,1.761a.738.738,0,0,0,1.2,0L43.93,48.99a.739.739,0,0,0,.136-.5l-.2-2.111h1.054A2.822,2.822,0,0,1,47.743,49.2v3.378Z"/>
      </g>
    </g>
  </g>
</svg>
