<svg xmlns="http://www.w3.org/2000/svg" xmlns:xlink="http://www.w3.org/1999/xlink" width="98" height="97.999" viewBox="0 0 98 97.999">
  <defs>
    <clipPath id="clip-path">
      <rect id="Rectangle_412524" data-name="Rectangle 412524" width="56" height="54" transform="translate(1139.903 921.538)" fill="#fff"/>
    </clipPath>
  </defs>
  <g id="Group_1206479" data-name="Group 1206479" transform="translate(-1118.634 -899.088)">
    <g id="Group_1206203" data-name="Group 1206203" transform="translate(247.521 621.924)">
      <g id="Group_1188789" data-name="Group 1188789" transform="translate(871.113 277.164)">
        <path id="Path_1243039" data-name="Path 1243039" d="M41.05,0h0a41.05,41.05,0,0,1,0,82.1h0a41.05,41.05,0,0,1,0-82.1Z" transform="translate(7.951 7.949)" fill="#ffa724"/>
        <rect id="Rectangle_400907" data-name="Rectangle 400907" width="88.438" height="88.437" rx="44.218" transform="translate(4.782 4.781)" fill="none"/>
        <g id="Group_1098742" data-name="Group 1098742" transform="translate(0)">
          <g id="Rectangle_400898" data-name="Rectangle 400898" transform="translate(0)" fill="none" stroke="#fff" stroke-width="2" opacity="0.859">
            <rect width="98" height="97.999" rx="48.999" stroke="none"/>
            <rect x="1" y="1" width="96" height="95.999" rx="47.999" fill="none"/>
          </g>
          <g id="Rectangle_400907-2" data-name="Rectangle 400907" transform="translate(0)" fill="none" stroke="#0f1f33" stroke-linecap="round" stroke-width="2">
            <rect width="98" height="97.999" rx="48.999" stroke="none"/>
            <rect x="1" y="1" width="96" height="95.999" rx="47.999" fill="none"/>
          </g>
        </g>
      </g>
    </g>
    <g id="Mask_Group_1099489" data-name="Mask Group 1099489" clip-path="url(#clip-path)">
      <g id="advertising_2090618" transform="translate(1139.104 919.738)">
        <path id="Path_1277309" data-name="Path 1277309" d="M47,45.832,50.4,54.9H46.8L45,51.3H12.6l-1.8,3.6H7.2l3.4-9.068Z" fill="#ccdce5"/>
        <rect id="Rectangle_412719" data-name="Rectangle 412719" width="52.2" height="33.3" rx="2.7" transform="translate(2.7 14.4)" fill="#0093ba"/>
        <g id="Group_1206478" data-name="Group 1206478">
          <path id="Path_1277310" data-name="Path 1277310" d="M9,39.6h3.6v3.6H9Z" fill="#ffc119"/>
          <path id="Path_1277311" data-name="Path 1277311" d="M16.2,39.6h3.6v3.6H16.2Z" fill="#ffc119"/>
          <path id="Path_1277312" data-name="Path 1277312" d="M23.4,39.6H27v3.6H23.4Z" fill="#ffc119"/>
          <path id="Path_1277313" data-name="Path 1277313" d="M30.6,39.6h3.6v3.6H30.6Z" fill="#ffc119"/>
          <path id="Path_1277314" data-name="Path 1277314" d="M37.8,39.6h3.6v3.6H37.8Z" fill="#ffc119"/>
          <path id="Path_1277315" data-name="Path 1277315" d="M45,39.6h3.6v3.6H45Z" fill="#ffc119"/>
        </g>
        <path id="Path_1277316" data-name="Path 1277316" d="M27.9,2.7H48.6V18.9h-18l-2.7-2.7Z" fill="#88bf40"/>
        <path id="Path_1277317" data-name="Path 1277317" d="M27.9,23.4H48.6V36h-18l-2.7-2.7Z" fill="#88bf40"/>
        <path id="Path_1277318" data-name="Path 1277318" d="M9.9,21.6h3.6v7.2H9.9a3.6,3.6,0,1,1,0-7.2Z" fill="#ef5249"/>
        <path id="Path_1277319" data-name="Path 1277319" d="M19.8,30.6l-6.3-1.8V21.6l6.3-1.8Z" fill="#ccdce5"/>
        <path id="Path_1277320" data-name="Path 1277320" d="M9.9,28.8h3.6v5.4a1.8,1.8,0,0,1-3.6,0Z" fill="#ccdce5"/>
        <rect id="Rectangle_412720" data-name="Rectangle 412720" width="3.6" height="14.4" rx="1.8" transform="translate(19.8 18)" fill="#ef5249"/>
        <path id="Path_1277321" data-name="Path 1277321" d="M48.375,49.5H9.225L9.9,47.7H47.7Z" fill="#abbac2"/>
        <path id="Path_1277322" data-name="Path 1277322" d="M52.2,13.5h-.9v1.8h.9A1.8,1.8,0,0,1,54,17.1V45a1.8,1.8,0,0,1-1.8,1.8H5.4A1.8,1.8,0,0,1,3.6,45V17.1a1.8,1.8,0,0,1,1.8-1.8H25.2V13.5H5.4a3.6,3.6,0,0,0-3.6,3.6V45a3.6,3.6,0,0,0,3.6,3.6H8.6L6.357,54.584A.9.9,0,0,0,7.2,55.8h3.6a.9.9,0,0,0,.8-.5l1.551-3.1H44.444L46,55.3a.9.9,0,0,0,.8.5h3.6a.9.9,0,0,0,.843-1.216L49,48.6h3.2A3.6,3.6,0,0,0,55.8,45V17.1a3.6,3.6,0,0,0-3.6-3.6ZM49.1,54H47.356L45.8,50.9a.9.9,0,0,0-.8-.5H12.6a.9.9,0,0,0-.8.5L10.244,54H8.5l2.025-5.4H47.076Z"/>
        <path id="Path_1277323" data-name="Path 1277323" d="M9,38.7a.9.9,0,0,0-.9.9v3.6a.9.9,0,0,0,.9.9h3.6a.9.9,0,0,0,.9-.9V39.6a.9.9,0,0,0-.9-.9Zm2.7,3.6H9.9V40.5h1.8Z"/>
        <path id="Path_1277324" data-name="Path 1277324" d="M16.2,38.7a.9.9,0,0,0-.9.9v3.6a.9.9,0,0,0,.9.9h3.6a.9.9,0,0,0,.9-.9V39.6a.9.9,0,0,0-.9-.9Zm2.7,3.6H17.1V40.5h1.8Z"/>
        <path id="Path_1277325" data-name="Path 1277325" d="M22.5,39.6v3.6a.9.9,0,0,0,.9.9H27a.9.9,0,0,0,.9-.9V39.6a.9.9,0,0,0-.9-.9H23.4A.9.9,0,0,0,22.5,39.6Zm1.8.9h1.8v1.8H24.3Z"/>
        <path id="Path_1277326" data-name="Path 1277326" d="M30.6,38.7a.9.9,0,0,0-.9.9v3.6a.9.9,0,0,0,.9.9h3.6a.9.9,0,0,0,.9-.9V39.6a.9.9,0,0,0-.9-.9Zm2.7,3.6H31.5V40.5h1.8Z"/>
        <path id="Path_1277327" data-name="Path 1277327" d="M37.8,38.7a.9.9,0,0,0-.9.9v3.6a.9.9,0,0,0,.9.9h3.6a.9.9,0,0,0,.9-.9V39.6a.9.9,0,0,0-.9-.9Zm2.7,3.6H38.7V40.5h1.8Z"/>
        <path id="Path_1277328" data-name="Path 1277328" d="M48.6,38.7H45a.9.9,0,0,0-.9.9v3.6a.9.9,0,0,0,.9.9h3.6a.9.9,0,0,0,.9-.9V39.6A.9.9,0,0,0,48.6,38.7Zm-.9,3.6H45.9V40.5h1.8Z"/>
        <path id="Path_1277329" data-name="Path 1277329" d="M29.964,19.536a.9.9,0,0,0,.636.264h18a.9.9,0,0,0,.9-.9V2.7a.9.9,0,0,0-.9-.9H27.9a.9.9,0,0,0-.9.9V16.2a.9.9,0,0,0,.264.636ZM28.8,3.6H47.7V18H30.973L28.8,15.827Z"/>
        <path id="Path_1277330" data-name="Path 1277330" d="M34.2,6.3H36V8.1H34.2Z"/>
        <path id="Path_1277331" data-name="Path 1277331" d="M37.8,6.3H45V8.1H37.8Z"/>
        <path id="Path_1277332" data-name="Path 1277332" d="M32.4,9.9H45v1.8H32.4Z"/>
        <path id="Path_1277333" data-name="Path 1277333" d="M32.4,13.5H43.2v1.8H32.4Z"/>
        <path id="Path_1277334" data-name="Path 1277334" d="M29.964,36.636a.9.9,0,0,0,.636.264h18a.9.9,0,0,0,.9-.9V23.4a.9.9,0,0,0-.9-.9H27.9a.9.9,0,0,0-.9.9v9.9a.9.9,0,0,0,.264.636ZM28.8,24.3H47.7V35.1H30.973L28.8,32.927Z"/>
        <path id="Path_1277335" data-name="Path 1277335" d="M34.2,27H36v1.8H34.2Z"/>
        <path id="Path_1277336" data-name="Path 1277336" d="M37.8,27H45v1.8H37.8Z"/>
        <path id="Path_1277337" data-name="Path 1277337" d="M32.4,30.6H45v1.8H32.4Z"/>
        <path id="Path_1277338" data-name="Path 1277338" d="M24.3,30.6V19.8a2.7,2.7,0,0,0-5.306-.706L13.374,20.7H9.9A4.5,4.5,0,0,0,9,29.61V34.2a2.7,2.7,0,1,0,5.4,0V29.993l4.594,1.313A2.7,2.7,0,0,0,24.3,30.6ZM7.2,25.2a2.7,2.7,0,0,1,2.7-2.7h2.7v5.4H9.9a2.7,2.7,0,0,1-2.7-2.7Zm5.4,9a.9.9,0,1,1-1.8,0V29.7h1.8Zm1.8-11.921,4.5-1.286v8.414l-4.5-1.286ZM20.7,30.6V19.8a.9.9,0,1,1,1.8,0V30.6a.9.9,0,0,1-1.8,0Z"/>
      </g>
    </g>
  </g>
</svg>
