<svg xmlns="http://www.w3.org/2000/svg" xmlns:xlink="http://www.w3.org/1999/xlink" width="98" height="97.999" viewBox="0 0 98 97.999">
  <defs>
    <clipPath id="clip-path">
      <rect id="Rectangle_412542" data-name="Rectangle 412542" width="56" height="54" transform="translate(1137.108 2657.872)" fill="#fff"/>
    </clipPath>
  </defs>
  <g id="Group_1206562" data-name="Group 1206562" transform="translate(-1115.839 -2635.422)">
    <g id="Group_1206221" data-name="Group 1206221" transform="translate(244.727 2358.258)">
      <g id="Group_1188789" data-name="Group 1188789" transform="translate(871.113 277.164)">
        <path id="Path_1243039" data-name="Path 1243039" d="M41.05,0h0a41.05,41.05,0,0,1,0,82.1h0a41.05,41.05,0,0,1,0-82.1Z" transform="translate(7.951 7.949)" fill="#ffa724"/>
        <rect id="Rectangle_400907" data-name="Rectangle 400907" width="88.438" height="88.437" rx="44.218" transform="translate(4.782 4.781)" fill="none"/>
        <g id="Group_1098742" data-name="Group 1098742" transform="translate(0)">
          <g id="Rectangle_400898" data-name="Rectangle 400898" transform="translate(0)" fill="none" stroke="#fff" stroke-width="2" opacity="0.859">
            <rect width="98" height="97.999" rx="48.999" stroke="none"/>
            <rect x="1" y="1" width="96" height="95.999" rx="47.999" fill="none"/>
          </g>
          <g id="Rectangle_400907-2" data-name="Rectangle 400907" transform="translate(0)" fill="none" stroke="#0f1f33" stroke-linecap="round" stroke-width="2">
            <rect width="98" height="97.999" rx="48.999" stroke="none"/>
            <rect x="1" y="1" width="96" height="95.999" rx="47.999" fill="none"/>
          </g>
        </g>
      </g>
    </g>
    <g id="Mask_Group_1099621" data-name="Mask Group 1099621" clip-path="url(#clip-path)">
      <g id="public-relation_15385188" transform="translate(1134.093 2653.824)">
        <g id="Group_1206561" data-name="Group 1206561">
          <path id="Path_1277188" data-name="Path 1277188" d="M9.678,17.245l7.562-4.393v16L9.678,24.46Z" fill="#68bdc8" fill-rule="evenodd"/>
          <path id="Path_1277189" data-name="Path 1277189" d="M6.026,17.245H9.678V24.46H6.026a2.054,2.054,0,0,1-2.05-2.048V19.292a2.054,2.054,0,0,1,2.05-2.046Z" fill="#fbb13c" fill-rule="evenodd"/>
          <path id="Path_1277190" data-name="Path 1277190" d="M27.814,29.706a10.08,10.08,0,1,1-10.08,10.08,10.078,10.078,0,0,1,10.08-10.08Z" fill="#ffb703" fill-rule="evenodd"/>
          <path id="Path_1277191" data-name="Path 1277191" d="M29.415,38.12h-3.2A4.122,4.122,0,0,0,22.1,42.229v1.833H33.522V42.229A4.12,4.12,0,0,0,29.415,38.12Z" fill="#cc4242" fill-rule="evenodd"/>
          <path id="Path_1277192" data-name="Path 1277192" d="M27.814,32.734a2.834,2.834,0,1,0,2.834,2.834A2.833,2.833,0,0,0,27.814,32.734Z" fill="#fbd1a2" fill-rule="evenodd"/>
          <path id="Path_1277193" data-name="Path 1277193" d="M47.973,29.706a10.08,10.08,0,1,0,10.08,10.08,10.078,10.078,0,0,0-10.08-10.08Z" fill="#ffb703" fill-rule="evenodd"/>
          <path id="Path_1277194" data-name="Path 1277194" d="M46.376,38.12h3.2a4.122,4.122,0,0,1,4.109,4.109v1.833H42.263V42.229A4.122,4.122,0,0,1,46.376,38.12Z" fill="#cc4242" fill-rule="evenodd"/>
          <path id="Path_1277195" data-name="Path 1277195" d="M47.973,32.734a2.834,2.834,0,1,1-2.834,2.834A2.833,2.833,0,0,1,47.973,32.734Z" fill="#fbd1a2" fill-rule="evenodd"/>
          <path id="Path_1277196" data-name="Path 1277196" d="M37.893,12.228a10.08,10.08,0,1,0,10.08,10.08,10.081,10.081,0,0,0-10.08-10.08Z" fill="#ffb703" fill-rule="evenodd"/>
          <path id="Path_1277197" data-name="Path 1277197" d="M36.292,20.645h3.2A4.122,4.122,0,0,1,43.6,24.754v1.829H32.185V24.754A4.121,4.121,0,0,1,36.292,20.645Z" fill="#cc4242" fill-rule="evenodd"/>
          <path id="Path_1277198" data-name="Path 1277198" d="M37.893,15.26a2.834,2.834,0,1,1-2.834,2.834,2.831,2.831,0,0,1,2.834-2.834Z" fill="#fbd1a2" fill-rule="evenodd"/>
        </g>
        <path id="Path_1277199" data-name="Path 1277199" d="M37.893,14.3a3.8,3.8,0,0,1,3.3,5.678,5.084,5.084,0,0,1,3.372,4.776v1.829a.962.962,0,0,1-.96.964H32.184a.962.962,0,0,1-.96-.964V24.752A5.083,5.083,0,0,1,34.6,19.977a3.8,3.8,0,0,1,3.3-5.678Zm1.444,7.307a3.835,3.835,0,0,1-2.889,0h-.156a3.16,3.16,0,0,0-3.147,3.147v.869h9.5v-.869a3.157,3.157,0,0,0-3.147-3.147Zm-.119-4.838a1.874,1.874,0,1,0,0,2.651A1.876,1.876,0,0,0,39.218,16.768Zm-1.325-3.576a9.117,9.117,0,1,0,9.118,9.116,9.118,9.118,0,0,0-9.118-9.116ZM30.086,14.5A11.043,11.043,0,0,1,46.824,28.8,11.041,11.041,0,1,1,37.892,44.3,11.041,11.041,0,1,1,28.96,28.8a11.047,11.047,0,0,1,1.126-14.3Zm8.959,18.788a11.305,11.305,0,0,1-2.3,0,11.162,11.162,0,0,1,1.148,1.983,11.18,11.18,0,0,1,1.151-1.983Zm8.929-1.515a3.8,3.8,0,0,1,3.3,5.678,5.083,5.083,0,0,1,3.372,4.776V44.06a.961.961,0,0,1-.96.96H42.263a.961.961,0,0,1-.96-.96V42.227a5.087,5.087,0,0,1,3.372-4.776,3.8,3.8,0,0,1,3.3-5.678Zm1.444,7.306a3.79,3.79,0,0,1-2.889,0h-.154a3.163,3.163,0,0,0-3.151,3.147V43.1h9.5v-.869a3.16,3.16,0,0,0-3.147-3.147ZM49.3,34.243a1.874,1.874,0,1,0,0,2.651A1.877,1.877,0,0,0,49.3,34.243Zm-1.325-3.576a9.117,9.117,0,1,0,9.118,9.118,9.118,9.118,0,0,0-9.118-9.118ZM27.814,33.7a1.874,1.874,0,1,0,1.873,1.873A1.876,1.876,0,0,0,27.814,33.7Zm-2.685-.811a3.8,3.8,0,0,1,5.981,4.568,5.086,5.086,0,0,1,3.372,4.776V44.06a.961.961,0,0,1-.96.96H22.1a.961.961,0,0,1-.96-.96V42.227a5.087,5.087,0,0,1,3.372-4.776A3.8,3.8,0,0,1,25.13,32.884Zm4.129,6.2a3.79,3.79,0,0,1-2.889,0h-.156a3.162,3.162,0,0,0-3.147,3.147V43.1h9.5v-.869a3.157,3.157,0,0,0-3.147-3.147Zm5-5.743a9.118,9.118,0,1,0,0,12.893A9.116,9.116,0,0,0,34.263,33.337ZM8.1,25.421v3.638a.962.962,0,0,1-1.924,0V25.421H6.026a3.016,3.016,0,0,1-3.011-3.008V19.292a3.017,3.017,0,0,1,3.011-3.011h3.4l7.334-4.261a.961.961,0,0,1,1.441.832h0v16a.963.963,0,0,1-1.5.8L9.426,25.419H8.1Zm14.447-3.463a.962.962,0,0,1,0-1.924h1.734a.962.962,0,0,1,0,1.924ZM21.972,17.6a.958.958,0,1,1-1.3-1.41l1.062-.984a.959.959,0,0,1,1.3,1.413Zm-1.3,8.192a.958.958,0,1,1,1.3-1.41l1.062.981a.958.958,0,1,1-1.3,1.41ZM8.718,18.207H6.026A1.091,1.091,0,0,0,4.94,19.293v3.121A1.091,1.091,0,0,0,6.026,23.5H8.717V18.207Zm7.562-3.689-5.637,3.277v6.118l5.637,3.273Z"/>
      </g>
    </g>
  </g>
</svg>
