<svg xmlns="http://www.w3.org/2000/svg" xmlns:xlink="http://www.w3.org/1999/xlink" width="98" height="97.998" viewBox="0 0 98 97.998">
  <defs>
    <clipPath id="clip-path">
      <rect id="Rectangle_412650" data-name="Rectangle 412650" width="56" height="54" transform="translate(-3235.531 -10847.549)" fill="#fff"/>
    </clipPath>
  </defs>
  <g id="Group_1206579" data-name="Group 1206579" transform="translate(3256.801 10869.999)">
    <g id="Group_1206578" data-name="Group 1206578">
      <g id="Group_1206318" data-name="Group 1206318" transform="translate(-4127.913 -11147.163)">
        <g id="Group_1188789" data-name="Group 1188789" transform="translate(871.113 277.164)">
          <path id="Path_1243039" data-name="Path 1243039" d="M41.05,0h0a41.05,41.05,0,0,1,0,82.1h0a41.05,41.05,0,0,1,0-82.1Z" transform="translate(7.951 7.949)" fill="#ffa724"/>
          <rect id="Rectangle_400907" data-name="Rectangle 400907" width="88.438" height="88.437" rx="44.218" transform="translate(4.782 4.781)" fill="none"/>
          <g id="Group_1098742" data-name="Group 1098742" transform="translate(0)">
            <g id="Rectangle_400898" data-name="Rectangle 400898" transform="translate(0)" fill="none" stroke="#fff" stroke-width="2" opacity="0.859">
              <rect width="98" height="97.999" rx="48.999" stroke="none"/>
              <rect x="1" y="1" width="96" height="95.999" rx="47.999" fill="none"/>
            </g>
            <g id="Rectangle_400907-2" data-name="Rectangle 400907" transform="translate(0)" fill="none" stroke="#0f1f33" stroke-linecap="round" stroke-width="2">
              <rect width="98" height="97.999" rx="48.999" stroke="none"/>
              <rect x="1" y="1" width="96" height="95.999" rx="47.999" fill="none"/>
            </g>
          </g>
        </g>
      </g>
      <g id="Mask_Group_1099506" data-name="Mask Group 1099506" clip-path="url(#clip-path)">
        <g id="filled_colour_outline_create" data-name="filled colour outline create" transform="translate(-3235.859 -10849.319)">
          <path id="Path_1277585" data-name="Path 1277585" d="M36.3,54H25.672a.885.885,0,0,1-.885-.885V45.148H35.41v7.967A.885.885,0,0,0,36.3,54Z" fill="#5b5b5b"/>
          <path id="Path_1277586" data-name="Path 1277586" d="M6.2,13.279H9.738A3.541,3.541,0,0,0,6.2,16.82V41.607a3.541,3.541,0,0,0,3.541,3.541H6.2a3.541,3.541,0,0,1-3.541-3.541V16.82A3.541,3.541,0,0,1,6.2,13.279Z" fill="#5b5b5b"/>
          <path id="Path_1277587" data-name="Path 1277587" d="M54,41.607a3.541,3.541,0,0,1-3.541,3.541H9.738A3.541,3.541,0,0,1,6.2,41.607v-1.77H54Z" fill="#ababab"/>
          <path id="Path_1277588" data-name="Path 1277588" d="M54,16.82V39.836H6.2V16.82a3.541,3.541,0,0,1,3.541-3.541H50.459A3.541,3.541,0,0,1,54,16.82Z" fill="#1b79dc"/>
          <g id="Group_1206577" data-name="Group 1206577">
            <circle id="Ellipse_12463" data-name="Ellipse 12463" cx="1.77" cy="1.77" r="1.77" transform="translate(10.623 24.787)" fill="#0057b8"/>
            <rect id="Rectangle_412722" data-name="Rectangle 412722" width="3.541" height="5.311" rx="1.77" transform="translate(10.623 17.705)" fill="#0057b8"/>
            <path id="Path_1277589" data-name="Path 1277589" d="M54,16.82V39.836H38.951l7.967-26.557h3.541A3.541,3.541,0,0,1,54,16.82Z" fill="#0057b8"/>
          </g>
          <path id="Path_1277590" data-name="Path 1277590" d="M31.869,32.754H35.41V36.3H31.869Z" fill="#f8bf3c"/>
          <path id="Path_1277591" data-name="Path 1277591" d="M38.951,30.1h3.541v6.2H38.951Z" fill="#6a8e4e"/>
          <path id="Path_1277592" data-name="Path 1277592" d="M46.033,28.328h3.541V36.3H46.033Z" fill="#b40c35"/>
          <circle id="Ellipse_12464" data-name="Ellipse 12464" cx="10.623" cy="10.623" r="10.623" transform="translate(8.852 10.623)" fill="#6f6f6f"/>
          <circle id="Ellipse_12465" data-name="Ellipse 12465" cx="7.082" cy="7.082" r="7.082" transform="translate(12.393 14.164)" fill="#008de9"/>
          <path id="Path_1277593" data-name="Path 1277593" d="M22.751,14.975,17.019,27.88a7.075,7.075,0,0,0,5.732-12.905Z" fill="#0057b8"/>
          <path id="Path_1277594" data-name="Path 1277594" d="M17.7,36.3h3.541V52.23a1.77,1.77,0,1,1-3.541,0Z" fill="#502e2d"/>
          <path id="Path_1277595" data-name="Path 1277595" d="M20.361,31.869l.885,4.426H17.7l.885-4.426Z" fill="#ababab"/>
          <path id="Path_1277596" data-name="Path 1277596" d="M54,12.393v3.541H51.167a8.7,8.7,0,0,1-1.292,3.107l2.01,2.01-2.505,2.505-2.01-2.01a8.7,8.7,0,0,1-3.107,1.292v2.833H40.721V22.839a8.7,8.7,0,0,1-3.107-1.292l-2.01,2.01L33.1,21.051l2.01-2.01a8.7,8.7,0,0,1-1.292-3.107H30.984V12.393h2.833a8.7,8.7,0,0,1,1.292-3.107L33.1,7.277,35.6,4.771l2.01,2.01a8.7,8.7,0,0,1,3.107-1.292V2.656h3.541V5.489A8.7,8.7,0,0,1,47.37,6.781l2.01-2.01,2.505,2.505-2.01,2.01a8.7,8.7,0,0,1,1.292,3.107Zm-6.2,1.77a5.311,5.311,0,1,0-5.311,5.311A5.311,5.311,0,0,0,47.8,14.164Z" fill="#f4a000"/>
          <path id="Path_1277597" data-name="Path 1277597" d="M53.115,38.951H22.131v-.885h.885V36.3H21.972l-.567-2.833a11.508,11.508,0,1,0-3.86,0L16.979,36.3H15.934v1.77h.885v.885H7.082V16.82a2.656,2.656,0,0,1,2.656-2.656v-1.77H6.2A4.432,4.432,0,0,0,1.77,16.82V41.607A4.432,4.432,0,0,0,6.2,46.033H16.82v7.082a2.656,2.656,0,1,0,5.311,0V46.033H23.9v7.082a1.77,1.77,0,0,0,1.77,1.77H40.721v-1.77H36.3V46.033H50.459a4.432,4.432,0,0,0,4.426-4.426V18.59h-1.77ZM9.738,22.131a9.738,9.738,0,1,1,9.738,9.738,9.738,9.738,0,0,1-9.738-9.738Zm9.9,11.508.531,2.656H18.785l.531-2.656ZM3.541,41.607V16.82A2.656,2.656,0,0,1,6.2,14.164H6.22a4.38,4.38,0,0,0-.908,2.656V41.607a4.38,4.38,0,0,0,.908,2.656H6.2a2.656,2.656,0,0,1-2.656-2.656Zm6.2,2.656a2.656,2.656,0,0,1-2.656-2.656v-.885H16.82v3.541Zm10.623,8.852a.885.885,0,1,1-1.77,0V38.066h1.77Zm14.164,0H25.672V46.033h8.852Zm15.934-8.852H22.131V40.721H53.115v.885a2.656,2.656,0,0,1-2.656,2.656Z"/>
          <path id="Path_1277598" data-name="Path 1277598" d="M15.934,1.77h3.541v1.77H15.934Z"/>
          <path id="Path_1277599" data-name="Path 1277599" d="M18.59,5.311h1.77v1.77H18.59Z"/>
          <path id="Path_1277600" data-name="Path 1277600" d="M11.508,7.082h2.656v1.77H11.508Z"/>
          <path id="Path_1277601" data-name="Path 1277601" d="M7.967,7.082h1.77v1.77H7.967Z"/>
          <path id="Path_1277602" data-name="Path 1277602" d="M23.9,6.2h3.541v1.77H23.9Z"/>
          <path id="Path_1277603" data-name="Path 1277603" d="M12.393,1.77h1.77v1.77h-1.77Z"/>
          <path id="Path_1277604" data-name="Path 1277604" d="M31.869,37.18H35.41A.885.885,0,0,0,36.3,36.3V32.754a.885.885,0,0,0-.885-.885H31.869a.885.885,0,0,0-.885.885V36.3A.885.885,0,0,0,31.869,37.18Zm.885-3.541h1.77v1.77h-1.77Z"/>
          <path id="Path_1277605" data-name="Path 1277605" d="M42.492,37.18a.885.885,0,0,0,.885-.885V30.1a.885.885,0,0,0-.885-.885H38.951a.885.885,0,0,0-.885.885v6.2a.885.885,0,0,0,.885.885Zm-2.656-6.2h1.77V35.41h-1.77Z"/>
          <path id="Path_1277606" data-name="Path 1277606" d="M49.574,37.18a.885.885,0,0,0,.885-.885V28.328a.885.885,0,0,0-.885-.885H46.033a.885.885,0,0,0-.885.885V36.3a.885.885,0,0,0,.885.885Zm-2.656-7.967h1.77v6.2h-1.77Z"/>
          <path id="Path_1277607" data-name="Path 1277607" d="M27.443,22.131A7.967,7.967,0,1,0,19.475,30.1,7.967,7.967,0,0,0,27.443,22.131Zm-14.164,0a6.2,6.2,0,1,1,6.2,6.2,6.2,6.2,0,0,1-6.2-6.2Z"/>
          <path id="Path_1277608" data-name="Path 1277608" d="M54,11.508H51.862a9.663,9.663,0,0,0-.868-2.09L52.507,7.9a.885.885,0,0,0,0-1.252L50,4.149a.885.885,0,0,0-1.252,0L47.238,5.666a9.662,9.662,0,0,0-2.09-.872V2.656a.885.885,0,0,0-.885-.885H40.721a.885.885,0,0,0-.885.885V4.794a9.663,9.663,0,0,0-2.09.868L36.232,4.149a.885.885,0,0,0-1.252,0l-2.5,2.5a.885.885,0,0,0,0,1.252L33.99,9.418a9.663,9.663,0,0,0-.868,2.09H30.984a.885.885,0,0,0-.885.885v3.541a.885.885,0,0,0,.885.885h2.138a9.663,9.663,0,0,0,.868,2.09l-1.513,1.514a.885.885,0,0,0,0,1.252l2.5,2.5a.885.885,0,0,0,1.252,0l1.514-1.513a9.662,9.662,0,0,0,2.09.868v2.138a.885.885,0,0,0,.885.885h3.541a.885.885,0,0,0,.885-.885V23.534a9.662,9.662,0,0,0,2.09-.868l1.514,1.513a.885.885,0,0,0,1.252,0l2.5-2.5a.885.885,0,0,0,0-1.252L50.99,18.91a9.662,9.662,0,0,0,.872-2.09H54a.885.885,0,0,0,.885-.885V12.393A.885.885,0,0,0,54,11.508Zm-.885,3.541H51.167a.885.885,0,0,0-.868.708,7.864,7.864,0,0,1-1.162,2.8.885.885,0,0,0,.112,1.115l1.38,1.38L49.378,22.3,48,20.92a.885.885,0,0,0-1.115-.112,7.864,7.864,0,0,1-2.8,1.163.885.885,0,0,0-.708.868v1.948h-1.77V22.839a.885.885,0,0,0-.708-.868,7.864,7.864,0,0,1-2.8-1.162.885.885,0,0,0-1.115.112l-1.38,1.38L34.356,21.05l1.38-1.38a.885.885,0,0,0,.112-1.115,7.864,7.864,0,0,1-1.163-2.8.885.885,0,0,0-.868-.708H31.869v-1.77h1.948a.885.885,0,0,0,.868-.708,7.864,7.864,0,0,1,1.162-2.8.885.885,0,0,0-.112-1.115L34.355,7.278l1.252-1.252,1.38,1.38a.885.885,0,0,0,1.115.112,7.864,7.864,0,0,1,2.8-1.162.885.885,0,0,0,.708-.868V3.541h1.77V5.489a.885.885,0,0,0,.708.868,7.864,7.864,0,0,1,2.8,1.162A.885.885,0,0,0,48,7.406l1.38-1.38,1.252,1.252L49.249,8.659a.885.885,0,0,0-.112,1.115,7.864,7.864,0,0,1,1.162,2.8.885.885,0,0,0,.868.708h1.948Z"/>
          <path id="Path_1277609" data-name="Path 1277609" d="M42.492,7.967a6.2,6.2,0,1,0,6.2,6.2A6.2,6.2,0,0,0,42.492,7.967Zm0,10.623a4.426,4.426,0,1,1,4.426-4.426,4.426,4.426,0,0,1-4.426,4.426Z"/>
        </g>
      </g>
    </g>
  </g>
</svg>
