<svg xmlns="http://www.w3.org/2000/svg" xmlns:xlink="http://www.w3.org/1999/xlink" width="98" height="97.998" viewBox="0 0 98 97.998">
  <defs>
    <clipPath id="clip-path">
      <rect id="Rectangle_412652" data-name="Rectangle 412652" width="56" height="54" transform="translate(-2913.781 -10847.549)" fill="#fff"/>
    </clipPath>
  </defs>
  <g id="Group_1206576" data-name="Group 1206576" transform="translate(2935.051 10869.999)">
    <g id="Group_1206319" data-name="Group 1206319" transform="translate(-3806.163 -11147.163)">
      <g id="Group_1188789" data-name="Group 1188789" transform="translate(871.113 277.164)">
        <path id="Path_1243039" data-name="Path 1243039" d="M41.05,0h0a41.05,41.05,0,0,1,0,82.1h0a41.05,41.05,0,0,1,0-82.1Z" transform="translate(7.951 7.949)" fill="#ffa724"/>
        <rect id="Rectangle_400907" data-name="Rectangle 400907" width="88.438" height="88.437" rx="44.218" transform="translate(4.782 4.781)" fill="none"/>
        <g id="Group_1098742" data-name="Group 1098742" transform="translate(0)">
          <g id="Rectangle_400898" data-name="Rectangle 400898" transform="translate(0)" fill="none" stroke="#fff" stroke-width="2" opacity="0.859">
            <rect width="98" height="97.999" rx="48.999" stroke="none"/>
            <rect x="1" y="1" width="96" height="95.999" rx="47.999" fill="none"/>
          </g>
          <g id="Rectangle_400907-2" data-name="Rectangle 400907" transform="translate(0)" fill="none" stroke="#0f1f33" stroke-linecap="round" stroke-width="2">
            <rect width="98" height="97.999" rx="48.999" stroke="none"/>
            <rect x="1" y="1" width="96" height="95.999" rx="47.999" fill="none"/>
          </g>
        </g>
      </g>
    </g>
    <g id="Mask_Group_1099505" data-name="Mask Group 1099505" clip-path="url(#clip-path)">
      <g id="timeline_16090818" transform="translate(-2914.685 -10849.452)">
        <path id="Path_1277575" data-name="Path 1277575" d="M40.481,9.058H55.323V16.6H40.481Z" fill="#6cf5c2"/>
        <path id="Path_1277576" data-name="Path 1277576" d="M40.481,25.131H55.323v7.541H40.481Z" fill="#ffe177"/>
        <path id="Path_1277577" data-name="Path 1277577" d="M40.481,41.208H55.323v7.541H40.481Z" fill="#8ac9fe"/>
        <path id="Path_1277578" data-name="Path 1277578" d="M14.016,20.151A8.752,8.752,0,1,0,22.77,28.9a8.762,8.762,0,0,0-8.754-8.751Z" fill="#eceff1"/>
        <path id="Path_1277579" data-name="Path 1277579" d="M14.016,15.789A13.114,13.114,0,1,0,27.128,28.9,13.127,13.127,0,0,0,14.016,15.789Zm0,24.648A11.533,11.533,0,1,1,25.548,28.9,11.547,11.547,0,0,1,14.016,40.437Zm0-21.866A10.333,10.333,0,1,0,24.35,28.9,10.345,10.345,0,0,0,14.016,18.57Zm0,19.085A8.752,8.752,0,1,1,22.77,28.9a8.764,8.764,0,0,1-8.754,8.754Zm4.15-5.718-2.241-2.244a2.062,2.062,0,0,0-1.119-2.7v-2.44a.79.79,0,0,0-1.581,0v2.44a2.065,2.065,0,1,0,1.581,3.816l2.241,2.243a.79.79,0,0,0,1.118-1.117ZM13.529,28.9a.487.487,0,1,1,.832.342h0l0,0a.486.486,0,0,1-.829-.345Zm-.3-7.285a.791.791,0,1,1,.791.787A.792.792,0,0,1,13.225,21.617ZM9.42,23.192a.79.79,0,1,1-1.117,0A.786.786,0,0,1,9.42,23.192Zm-1.9,5.71a.791.791,0,1,1-.791-.787A.79.79,0,0,1,7.519,28.9Zm1.9,4.6a.79.79,0,1,1-1.117,0A.786.786,0,0,1,9.42,33.5Zm5.386,2.692a.791.791,0,1,1-.791-.791A.79.79,0,0,1,14.806,36.189ZM19.726,33.5a.79.79,0,1,1-1.117,0A.786.786,0,0,1,19.726,33.5Zm.787-4.6a.791.791,0,1,1,.791.791.788.788,0,0,1-.791-.791Zm-.787-5.71a.79.79,0,1,1-1.117,0A.786.786,0,0,1,19.726,23.192ZM43.266,11.4a.79.79,0,0,1,.79-.79h.694a.79.79,0,0,1,0,1.581h-.694A.79.79,0,0,1,43.266,11.4Zm9.291,0a.79.79,0,0,1-.79.79H47.817a.79.79,0,0,1,0-1.581h3.949A.79.79,0,0,1,52.557,11.4Zm0,2.849a.79.79,0,0,1-.79.79H44.037a.79.79,0,0,1,0-1.581h7.729A.79.79,0,0,1,52.557,14.252ZM39.691,18.179H56.113a.79.79,0,0,0,.79-.79V8.267a.79.79,0,0,0-.79-.79H39.691a.79.79,0,0,0-.79.79v3.771H35.79A2.9,2.9,0,0,0,33.8,10.052v-5.4a.79.79,0,0,0-1.581,0v5.4a2.885,2.885,0,0,0,0,5.548V26.129a2.885,2.885,0,0,0,0,5.548V42.205a2.885,2.885,0,0,0,0,5.548v5.4a.79.79,0,0,0,1.581,0v-5.4a2.9,2.9,0,0,0,1.985-1.986H38.9v3.771a.79.79,0,0,0,.79.79H56.113a.79.79,0,0,0,.79-.79V40.417a.79.79,0,0,0-.79-.79H39.691a.79.79,0,0,0-.79.79v3.771H35.79A2.9,2.9,0,0,0,33.8,42.205V31.677a2.9,2.9,0,0,0,1.985-1.986H38.9v3.771a.79.79,0,0,0,.79.79H56.113a.79.79,0,0,0,.79-.79V24.341a.79.79,0,0,0-.79-.79H39.691a.79.79,0,0,0-.79.79v3.771H35.79A2.9,2.9,0,0,0,33.8,26.129V15.6a2.9,2.9,0,0,0,1.985-1.982H38.9v3.771a.79.79,0,0,0,.79.79Zm.79-9.122H55.323V16.6H40.481Zm0,32.15H55.323v7.541H40.481Zm0-16.077H55.323v7.541H40.481ZM34.32,44.978a1.3,1.3,0,1,1-1.306-1.3A1.308,1.308,0,0,1,34.32,44.978Zm0-16.077a1.3,1.3,0,1,1-1.306-1.3A1.308,1.308,0,0,1,34.32,28.9Zm-1.306-14.77a1.3,1.3,0,1,1,1.306-1.3A1.3,1.3,0,0,1,33.014,14.131ZM43.266,27.477a.79.79,0,0,1,.79-.79h.694a.79.79,0,0,1,0,1.581h-.694A.79.79,0,0,1,43.266,27.477Zm9.291,0a.79.79,0,0,1-.79.79H47.817a.79.79,0,0,1,0-1.581h3.949A.79.79,0,0,1,52.557,27.477Zm0,2.852a.79.79,0,0,1-.79.79H44.037a.79.79,0,0,1,0-1.581h7.729A.79.79,0,0,1,52.557,30.329ZM43.266,43.554a.79.79,0,0,1,.79-.79h.694a.79.79,0,0,1,0,1.581h-.694A.79.79,0,0,1,43.266,43.554Zm9.291,0a.79.79,0,0,1-.79.79H47.817a.79.79,0,0,1,0-1.581h3.949A.79.79,0,0,1,52.557,43.554Zm0,2.848a.79.79,0,0,1-.79.79H44.037a.79.79,0,0,1,0-1.581h7.729A.79.79,0,0,1,52.557,46.4Z"/>
        <path id="Path_1277580" data-name="Path 1277580" d="M33.014,11.522a1.3,1.3,0,1,0,1.306,1.306A1.306,1.306,0,0,0,33.014,11.522Z" fill="#6cf5c2"/>
        <path id="Path_1277581" data-name="Path 1277581" d="M31.711,44.978a1.3,1.3,0,1,0,1.3-1.3A1.306,1.306,0,0,0,31.711,44.978Z" fill="#8ac9fe"/>
        <path id="Path_1277582" data-name="Path 1277582" d="M31.711,28.9a1.3,1.3,0,1,0,1.3-1.3A1.306,1.306,0,0,0,31.711,28.9Z" fill="#ffe177"/>
        <g id="Group_1206575" data-name="Group 1206575">
          <path id="Path_1277583" data-name="Path 1277583" d="M14.016,17.37A11.533,11.533,0,1,0,25.548,28.9,11.545,11.545,0,0,0,14.016,17.37Zm0,21.866A10.333,10.333,0,1,1,24.35,28.9,10.346,10.346,0,0,1,14.016,39.236Z" fill="#fe646f"/>
          <path id="Path_1277584" data-name="Path 1277584" d="M14.016,28.418a.485.485,0,1,0,.342.829l0,0h0a.484.484,0,0,0-.345-.826Z" fill="#fe646f"/>
        </g>
      </g>
    </g>
  </g>
</svg>
