<svg xmlns="http://www.w3.org/2000/svg" xmlns:xlink="http://www.w3.org/1999/xlink" width="98" height="97.998" viewBox="0 0 98 97.998">
  <defs>
    <clipPath id="clip-path">
      <rect id="Rectangle_412528" data-name="Rectangle 412528" width="56" height="54" transform="translate(-8113.147 -10696.222)" fill="#fff"/>
    </clipPath>
  </defs>
  <g id="Group_1206475" data-name="Group 1206475" transform="translate(8134.417 10718.672)">
    <g id="Group_1206205" data-name="Group 1206205" transform="translate(-9005.529 -10995.836)">
      <g id="Group_1188789" data-name="Group 1188789" transform="translate(871.113 277.164)">
        <path id="Path_1243039" data-name="Path 1243039" d="M41.05,0h0a41.05,41.05,0,0,1,0,82.1h0a41.05,41.05,0,0,1,0-82.1Z" transform="translate(7.951 7.949)" fill="#ffa724"/>
        <rect id="Rectangle_400907" data-name="Rectangle 400907" width="88.438" height="88.437" rx="44.218" transform="translate(4.782 4.781)" fill="none"/>
        <g id="Group_1098742" data-name="Group 1098742" transform="translate(0)">
          <g id="Rectangle_400898" data-name="Rectangle 400898" transform="translate(0)" fill="none" stroke="#fff" stroke-width="2" opacity="0.859">
            <rect width="98" height="97.999" rx="48.999" stroke="none"/>
            <rect x="1" y="1" width="96" height="95.999" rx="47.999" fill="none"/>
          </g>
          <g id="Rectangle_400907-2" data-name="Rectangle 400907" transform="translate(0)" fill="none" stroke="#0f1f33" stroke-linecap="round" stroke-width="2">
            <rect width="98" height="97.999" rx="48.999" stroke="none"/>
            <rect x="1" y="1" width="96" height="95.999" rx="47.999" fill="none"/>
          </g>
        </g>
      </g>
    </g>
    <g id="Mask_Group_1099487" data-name="Mask Group 1099487" clip-path="url(#clip-path)">
      <g id="job_2245175" transform="translate(-8113.013 -10696.763)">
        <g id="Group_1206474" data-name="Group 1206474">
          <path id="Path_1277275" data-name="Path 1277275" d="M1.731,36.361H5.194V50.212H1.731Z" fill="#e6e9ed"/>
          <path id="Path_1277276" data-name="Path 1277276" d="M8.657,38.092V48.481a1.737,1.737,0,0,1-1.731,1.731H5.194V36.361H6.926A1.737,1.737,0,0,1,8.657,38.092Z" fill="#e6e9ed"/>
          <path id="Path_1277277" data-name="Path 1277277" d="M53.675,34.811V51.944a1.737,1.737,0,0,1-1.731,1.731H25.972a1.737,1.737,0,0,1-1.731-1.731V48.481a1.737,1.737,0,0,0,1.731-1.731v-6.5a9.131,9.131,0,0,0,5.3,4.06,18.722,18.722,0,0,0,5.091.71v1.731a1.737,1.737,0,0,0,1.731,1.731h1.731a1.737,1.737,0,0,0,1.731-1.731V45.018a18.722,18.722,0,0,0,5.091-.71,9.172,9.172,0,0,0,3.117-1.593,8.989,8.989,0,0,0,2.286-2.649l.424-.745a9.045,9.045,0,0,0,1.2-4.51Z" fill="#d3a06c"/>
          <path id="Path_1277278" data-name="Path 1277278" d="M53.675,34.629v.182a9.045,9.045,0,0,1-1.2,4.51l-.424.745a8.989,8.989,0,0,1-2.286,2.649,9.172,9.172,0,0,1-3.117,1.593,18.722,18.722,0,0,1-5.091.71V43.287a1.737,1.737,0,0,0-1.731-1.731H38.092a1.737,1.737,0,0,0-1.731,1.731v1.731a18.722,18.722,0,0,1-5.091-.71,9.131,9.131,0,0,1-5.3-4.06v-.424a1.737,1.737,0,0,0-1.731-1.731,1.744,1.744,0,0,0,1.731-1.731,1.737,1.737,0,0,0-1.731-1.731A1.737,1.737,0,0,1,25.972,32.9H51.944A1.737,1.737,0,0,1,53.675,34.629Z" fill="#b27946"/>
          <path id="Path_1277279" data-name="Path 1277279" d="M41.555,45.018V46.75a1.737,1.737,0,0,1-1.731,1.731H38.092a1.737,1.737,0,0,1-1.731-1.731V45.018Z" fill="#fcd770"/>
          <path id="Path_1277280" data-name="Path 1277280" d="M41.555,43.287v1.731H36.361V43.287a1.737,1.737,0,0,1,1.731-1.731h1.731A1.737,1.737,0,0,1,41.555,43.287Z" fill="#fcd770"/>
          <path id="Path_1277281" data-name="Path 1277281" d="M15.583,39.391v9.09H8.657V38.092L10.345,36.4a6.061,6.061,0,0,1,4.285-1.775h9.61a1.737,1.737,0,0,1,1.731,1.731,1.744,1.744,0,0,1-1.731,1.731H18.007A2.908,2.908,0,0,0,15.583,39.391Z" fill="#f0d0b4"/>
          <path id="Path_1277282" data-name="Path 1277282" d="M25.972,40.248v6.5a1.737,1.737,0,0,1-1.731,1.731H20.778a1.737,1.737,0,0,1-1.731-1.731V39.824a1.737,1.737,0,0,1,1.731-1.731H24.24a1.737,1.737,0,0,1,1.731,1.731Z" fill="#f0d0b4"/>
          <path id="Path_1277283" data-name="Path 1277283" d="M20.778,30.941v3.688H15.583v-3.7a14.546,14.546,0,0,0,5.194,0Z" fill="#969faa"/>
          <path id="Path_1277284" data-name="Path 1277284" d="M20.778,48.481v3.463a1.737,1.737,0,0,1-1.731,1.731H17.315a1.737,1.737,0,0,1-1.731-1.731V39.391a2.908,2.908,0,0,1,2.424-1.3h2.77a1.737,1.737,0,0,0-1.731,1.731V46.75A1.737,1.737,0,0,0,20.778,48.481Z" fill="#969faa"/>
          <path id="Path_1277285" data-name="Path 1277285" d="M32.318,12.354a14.537,14.537,0,0,1,.58,4.095,14.706,14.706,0,0,1-12.12,14.484,14.546,14.546,0,0,1-5.194,0A14.716,14.716,0,1,1,27.755,5.272a4.311,4.311,0,0,0-2.935,2.086,11.257,11.257,0,1,0,4.614,9.09,10.954,10.954,0,0,0-.312-2.632v-.009a4.309,4.309,0,0,0,2.909-1.688l.294.225Z" fill="#fcd770"/>
          <path id="Path_1277286" data-name="Path 1277286" d="M29.123,13.817a10.954,10.954,0,0,1,.312,2.632,11.248,11.248,0,1,1-4.614-9.09,4.328,4.328,0,0,0,.286,4.762,4.337,4.337,0,0,0,3.463,1.731,2.931,2.931,0,0,0,.554-.043Z" fill="#69d6f4"/>
          <g id="Group_1206473" data-name="Group 1206473">
            <path id="Path_1277287" data-name="Path 1277287" d="M53.675,1.731,51.944,8.657l-2.6-2.6-2.6-2.6Z" fill="#ff826e"/>
            <path id="Path_1277288" data-name="Path 1277288" d="M36.361,16.449a2.6,2.6,0,1,1,2.6,2.6A2.594,2.594,0,0,1,36.361,16.449Z" fill="#ff826e"/>
            <path id="Path_1277289" data-name="Path 1277289" d="M32.9,9.523a4.315,4.315,0,0,1-3.775,4.285,2.931,2.931,0,0,1-.554.043,4.337,4.337,0,0,1-3.463-1.731,4.328,4.328,0,0,1,2.649-6.848,4.25,4.25,0,0,1,.814-.078A4.33,4.33,0,0,1,32.9,9.523Z" fill="#ff826e"/>
            <path id="Path_1277290" data-name="Path 1277290" d="M19.756,17.47a1.725,1.725,0,1,1-.71-.156A1.637,1.637,0,0,1,19.756,17.47Z" fill="#ff826e"/>
          </g>
        </g>
        <path id="Path_1277291" data-name="Path 1277291" d="M51.944,32.032h-6.06v-.866a4.334,4.334,0,0,0-4.329-4.329H36.361a4.334,4.334,0,0,0-4.329,4.329v.866h-6.06a2.594,2.594,0,0,0-2.438,1.731H21.643V31.63a15.6,15.6,0,0,0,12.12-15.181,15.821,15.821,0,0,0-.132-2l1.916,1.483a3.457,3.457,0,1,0,6.874.513A3.417,3.417,0,0,0,41.93,14.7l7.417-7.417,3.066,3.066L54.865.541,45.056,2.994,48.123,6.06l-7.417,7.417a3.4,3.4,0,0,0-4.442.823l-3.086-2.389A5.18,5.18,0,0,0,28,4.362,15.573,15.573,0,1,0,14.717,31.63v2.133H14.63a6.877,6.877,0,0,0-4.9,2.028l-.743.743a2.584,2.584,0,0,0-2.065-1.04H.866V51.078h6.06a2.594,2.594,0,0,0,2.438-1.731h5.354v2.6a2.6,2.6,0,0,0,2.6,2.6h1.731a2.6,2.6,0,0,0,2.6-2.6v-2.6h1.731v2.6a2.6,2.6,0,0,0,2.6,2.6H51.944a2.6,2.6,0,0,0,2.6-2.6V34.629a2.6,2.6,0,0,0-2.6-2.6Zm.542-29.11L51.475,6.964,48.443,3.932Zm-13.528,11.8a1.731,1.731,0,1,1-1.731,1.731A1.733,1.733,0,0,1,38.958,14.717ZM33.764,31.166a2.6,2.6,0,0,1,2.6-2.6h5.194a2.6,2.6,0,0,1,2.6,2.6v.866H33.764Zm-8.657,8.657V46.75a.866.866,0,0,1-.866.866H20.778a.866.866,0,0,1-.866-.866V39.824a.866.866,0,0,1,.866-.866H24.24A.866.866,0,0,1,25.106,39.824Zm6.926-30.3A3.463,3.463,0,1,1,28.569,6.06,3.466,3.466,0,0,1,32.032,9.523Zm-3.463,6.926a10.4,10.4,0,1,1-4.845-8.783A5.159,5.159,0,0,0,24,12l-4.5,4.5a2.594,2.594,0,1,0,2.137,2.55,2.573,2.573,0,0,0-.6-1.64l4.042-4.042a5.173,5.173,0,0,0,3.321,1.344,10.552,10.552,0,0,1,.162,1.74Zm-8.657,2.6a.866.866,0,1,1-.866-.866A.867.867,0,0,1,19.912,19.046Zm-15.583-2.6A13.84,13.84,0,0,1,25.991,5.02,5.247,5.247,0,0,0,24.6,6.173a12.119,12.119,0,1,0,5.7,10.276,12.276,12.276,0,0,0-.179-1.969,5.185,5.185,0,0,0,1.62-.853A13.851,13.851,0,1,1,4.329,16.449ZM16.449,31.93a14.724,14.724,0,0,0,3.463,0v1.834H16.449ZM2.6,37.226H4.329v12.12H2.6ZM7.792,48.481a.866.866,0,0,1-.866.866H6.06V37.226h.866a.866.866,0,0,1,.866.866Zm1.731-.866V38.451l1.435-1.435a5.16,5.16,0,0,1,3.672-1.521h9.61a.866.866,0,0,1,0,1.731H18.01a3.778,3.778,0,0,0-3.147,1.684,2.047,2.047,0,0,1-1.706.913h-.171v1.731h.171a3.779,3.779,0,0,0,1.561-.344v6.4Zm9.523,5.194H17.315a.866.866,0,0,1-.866-.866V39.7a2.035,2.035,0,0,1,1.561-.745h.331a2.547,2.547,0,0,0-.16.866V46.75a2.594,2.594,0,0,0,1.731,2.438v2.756A.866.866,0,0,1,19.046,52.81Zm32.9,0H25.972a.866.866,0,0,1-.866-.866V49.187a2.594,2.594,0,0,0,1.731-2.438V42.71a9.934,9.934,0,0,0,4.191,2.428,19.381,19.381,0,0,0,4.466.717v.9a2.6,2.6,0,0,0,2.6,2.6h1.731a2.6,2.6,0,0,0,2.6-2.6v-.9a19.374,19.374,0,0,0,4.466-.717A9.916,9.916,0,0,0,52.8,40.5l.007-.011V51.944A.866.866,0,0,1,51.944,52.81ZM37.226,45.884h3.463v.866a.866.866,0,0,1-.866.866H38.092a.866.866,0,0,1-.866-.866Zm3.463-1.731H37.226v-.866a.866.866,0,0,1,.866-.866h1.731a.866.866,0,0,1,.866.866ZM51.725,38.9l-.425.745a8.2,8.2,0,0,1-4.888,3.832,17.632,17.632,0,0,1-3.991.65v-.835a2.6,2.6,0,0,0-2.6-2.6H38.092a2.6,2.6,0,0,0-2.6,2.6v.835a17.729,17.729,0,0,1-3.991-.65,8.2,8.2,0,0,1-4.666-3.481v-.167a2.58,2.58,0,0,0-.675-1.731,2.572,2.572,0,0,0-.808-4.067.86.86,0,0,1,.617-.261H51.944a.866.866,0,0,1,.866.866v.18A8.263,8.263,0,0,1,51.725,38.9Z"/>
      </g>
    </g>
  </g>
</svg>
