<svg xmlns="http://www.w3.org/2000/svg" xmlns:xlink="http://www.w3.org/1999/xlink" width="98" height="97.998" viewBox="0 0 98 97.998">
  <defs>
    <clipPath id="clip-path">
      <rect id="Rectangle_412649" data-name="Rectangle 412649" width="56" height="54" transform="translate(-2592.031 -10847.549)" fill="#fff"/>
    </clipPath>
  </defs>
  <g id="Group_1206574" data-name="Group 1206574" transform="translate(2613.301 10869.999)">
    <g id="Group_1206317" data-name="Group 1206317" transform="translate(-3484.413 -11147.163)">
      <g id="Group_1188789" data-name="Group 1188789" transform="translate(871.113 277.164)">
        <path id="Path_1243039" data-name="Path 1243039" d="M41.05,0h0a41.05,41.05,0,0,1,0,82.1h0a41.05,41.05,0,0,1,0-82.1Z" transform="translate(7.951 7.949)" fill="#ffa724"/>
        <rect id="Rectangle_400907" data-name="Rectangle 400907" width="88.438" height="88.437" rx="44.218" transform="translate(4.782 4.781)" fill="none"/>
        <g id="Group_1098742" data-name="Group 1098742" transform="translate(0)">
          <g id="Rectangle_400898" data-name="Rectangle 400898" transform="translate(0)" fill="none" stroke="#fff" stroke-width="2" opacity="0.859">
            <rect width="98" height="97.999" rx="48.999" stroke="none"/>
            <rect x="1" y="1" width="96" height="95.999" rx="47.999" fill="none"/>
          </g>
          <g id="Rectangle_400907-2" data-name="Rectangle 400907" transform="translate(0)" fill="none" stroke="#0f1f33" stroke-linecap="round" stroke-width="2">
            <rect width="98" height="97.999" rx="48.999" stroke="none"/>
            <rect x="1" y="1" width="96" height="95.999" rx="47.999" fill="none"/>
          </g>
        </g>
      </g>
    </g>
    <g id="Mask_Group_1099504" data-name="Mask Group 1099504" clip-path="url(#clip-path)">
      <g id="trend_17571989" transform="translate(-2592.833 -10849.349)">
        <path id="Path_1277565" data-name="Path 1277565" d="M7.978,2.459H27.289a5.534,5.534,0,0,1,5.518,5.518V49.625a5.534,5.534,0,0,1-5.518,5.518H7.978a5.534,5.534,0,0,1-5.518-5.518V7.978A5.534,5.534,0,0,1,7.978,2.459Z" fill="#897e8b" fill-rule="evenodd"/>
        <path id="Path_1277566" data-name="Path 1277566" d="M7.978,3.777a4.218,4.218,0,0,0-4.2,4.2V49.626a4.218,4.218,0,0,0,4.2,4.2H27.289a4.218,4.218,0,0,0,4.2-4.2V7.978a4.218,4.218,0,0,0-4.2-4.2H7.978Z" fill="#9dc6fb" fill-rule="evenodd"/>
        <path id="Path_1277567" data-name="Path 1277567" d="M13.741,48.139h7.783a1.787,1.787,0,1,1,0,3.573H13.741a1.787,1.787,0,0,1,0-3.573Z" fill="#685e67" fill-rule="evenodd"/>
        <path id="Path_1277568" data-name="Path 1277568" d="M27.416,7.673,31.34,9.939c-5.431,6.693-15.777,12.314-25,12.838,12.024,3.087,24.2-1.475,30.5-9.663l3.924,2.266L39.3,2.5Z" fill="#c7e0ec" fill-rule="evenodd"/>
        <path id="Path_1277569" data-name="Path 1277569" d="M6.336,34.755h2.9v8.7h-2.9Z" fill="#f76c82" fill-rule="evenodd"/>
        <path id="Path_1277570" data-name="Path 1277570" d="M13.067,31.142h2.9V43.454h-2.9Z" fill="#fdcd56" fill-rule="evenodd"/>
        <path id="Path_1277571" data-name="Path 1277571" d="M19.8,27.75h2.9v15.7H19.8Z" fill="#c6ea94" fill-rule="evenodd"/>
        <path id="Path_1277572" data-name="Path 1277572" d="M26.53,24.193h2.9V43.454h-2.9Z" fill="#66d4f1" fill-rule="evenodd"/>
        <path id="Path_1277573" data-name="Path 1277573" d="M42.439,24.135a13.882,13.882,0,0,1,6.056,3.5L50.5,26.476a1.891,1.891,0,0,1,2.576.691l1.814,3.142a1.892,1.892,0,0,1-.69,2.576l-2,1.157a14,14,0,0,1,0,7l2,1.157a1.892,1.892,0,0,1,.691,2.576l-1.814,3.142a1.893,1.893,0,0,1-2.576.691L48.5,47.447a13.882,13.882,0,0,1-6.056,3.5V53.26a1.891,1.891,0,0,1-1.886,1.886H36.926a1.891,1.891,0,0,1-1.886-1.886V50.948a13.882,13.882,0,0,1-6.056-3.5L26.977,48.6a1.891,1.891,0,0,1-2.576-.691l-1.814-3.142a1.892,1.892,0,0,1,.69-2.576l2-1.157a14,14,0,0,1,0-7l-2-1.155a1.891,1.891,0,0,1-.691-2.576L24.4,27.164a1.893,1.893,0,0,1,2.576-.691l2.006,1.159a13.882,13.882,0,0,1,6.056-3.5V21.819a1.891,1.891,0,0,1,1.886-1.886h3.628a1.891,1.891,0,0,1,1.886,1.886v2.315Z" fill="#636c77" fill-rule="evenodd"/>
        <circle id="Ellipse_12462" data-name="Ellipse 12462" cx="8.87" cy="8.87" r="8.87" transform="translate(26.188 37.539) rotate(-45)" fill="#fff"/>
        <path id="Path_1277574" data-name="Path 1277574" d="M13.726,31.8h1.583v11H13.726Zm-.659,12.311h2.9a.658.658,0,0,0,.658-.658V31.142a.658.658,0,0,0-.658-.658h-2.9a.659.659,0,0,0-.658.658V43.455A.657.657,0,0,0,13.066,44.112ZM8.577,42.8H6.994V35.414H8.577Zm.657-8.7h-2.9a.658.658,0,0,0-.658.658v8.7a.658.658,0,0,0,.658.658h2.9a.659.659,0,0,0,.659-.658v-8.7A.658.658,0,0,0,9.234,34.1Zm3.1-26.119a.658.658,0,0,1,.658-.658h9.278a.658.658,0,0,1,0,1.316H12.993a.658.658,0,0,1-.658-.658Zm9.189,43.076H13.74a1.128,1.128,0,0,1,0-2.257h7.784a1.128,1.128,0,0,1,0,2.257Zm0-3.573H13.74a2.446,2.446,0,0,0,0,4.892h7.784a2.446,2.446,0,1,0,0-4.892Zm17.214-1.728a8.213,8.213,0,1,1,8.213-8.213A8.222,8.222,0,0,1,38.739,45.752Zm0-17.742a9.53,9.53,0,1,0,9.53,9.529A9.54,9.54,0,0,0,38.739,28.01ZM54.321,44.44l-1.815,3.142a1.232,1.232,0,0,1-1.676.45l-2.006-1.159a.66.66,0,0,0-.792.1,13.261,13.261,0,0,1-5.769,3.335.659.659,0,0,0-.484.635v2.313a1.228,1.228,0,0,1-1.227,1.226H36.924A1.229,1.229,0,0,1,35.7,53.256V50.943a.659.659,0,0,0-.484-.635,13.268,13.268,0,0,1-5.769-3.335.66.66,0,0,0-.791-.1l-2.006,1.159a1.231,1.231,0,0,1-1.677-.45L23.156,44.44a1.18,1.18,0,0,1,.449-1.676l2-1.157a.658.658,0,0,0,.308-.736,13.342,13.342,0,0,1,0-6.666.66.66,0,0,0-.308-.736l-2-1.157a1.232,1.232,0,0,1-.449-1.676L24.969,27.5a1.229,1.229,0,0,1,1.677-.45L28.653,28.2a.659.659,0,0,0,.791-.1,13.266,13.266,0,0,1,5.769-3.334.66.66,0,0,0,.484-.635V21.821a1.229,1.229,0,0,1,1.227-1.227h3.627a1.228,1.228,0,0,1,1.227,1.227v2.312a.657.657,0,0,0,.484.635A13.283,13.283,0,0,1,48.032,28.1a.658.658,0,0,0,.792.1l2.006-1.159a1.229,1.229,0,0,1,1.676.45l1.815,3.142a1.231,1.231,0,0,1-.449,1.676l-2,1.157a.658.658,0,0,0-.308.736,13.3,13.3,0,0,1,0,6.665.66.66,0,0,0,.308.737l2,1.157a1.232,1.232,0,0,1,.449,1.676ZM22.048,42.8H20.457V28.41H22.04v1.532l-.023.038a2.491,2.491,0,0,0,.023,2.558V42.717a.62.62,0,0,0,.007.079Zm2.476-2.081a14.713,14.713,0,0,1,0-6.349l-1.169-.674v7.7ZM28.77,26.751v-1.9H27.187v.995c.039.02.079.037.118.061ZM27.289,54.484a4.894,4.894,0,0,0,4.781-4,14.629,14.629,0,0,1-3.184-2.222l-1.58.912a2.548,2.548,0,0,1-3.476-.933L22.017,45.1a2.513,2.513,0,0,1-.315-.988H19.8a.658.658,0,0,1-.658-.658V27.75a.658.658,0,0,1,.658-.658h2.9a.657.657,0,0,1,.651.582l.483-.836a2.539,2.539,0,0,1,2.04-1.265v-1.38a.659.659,0,0,1,.659-.658h2.9a.66.66,0,0,1,.658.658V25.83a14.473,14.473,0,0,1,2.062-1.275V18.562a31.163,31.163,0,0,1-18.26,5.82,31.074,31.074,0,0,1-7.718-.966A.658.658,0,0,1,6.3,22.121c8.439-.479,18.408-5.485,24.034-12L27.088,8.244a.659.659,0,0,1,.066-1.175L31.31,5.26a4.9,4.9,0,0,0-4.02-2.14H7.978a4.865,4.865,0,0,0-4.86,4.86V49.626a4.865,4.865,0,0,0,4.86,4.86H27.289ZM39.962,14.155,38.75,3.455l-9.873,4.3L31.67,9.367a.66.66,0,0,1,.182.986C26.979,16.358,18.508,21.234,10.53,22.878c9.922,1.115,20.1-2.774,25.786-10.166a.659.659,0,0,1,.851-.169ZM54.53,41.623l-1.576-.909a14.666,14.666,0,0,0,0-6.349l1.576-.91a2.546,2.546,0,0,0,.93-3.475l-1.814-3.142a2.546,2.546,0,0,0-3.475-.932l-1.58.912A14.594,14.594,0,0,0,43.1,23.642V21.823a2.547,2.547,0,0,0-2.545-2.545H36.925a2.546,2.546,0,0,0-2.544,2.545v1.82c-.309.1-.614.207-.916.325V17.536A25.532,25.532,0,0,0,37,13.97l3.43,1.98a.659.659,0,0,0,.983-.644L39.957,2.421a.659.659,0,0,0-.917-.53l-6.51,2.835A6.228,6.228,0,0,0,27.289,1.8H7.978A6.183,6.183,0,0,0,1.8,7.977V49.622A6.183,6.183,0,0,0,7.978,55.8H27.289a6.222,6.222,0,0,0,6-4.759c.358.145.719.279,1.088.4v1.819A2.546,2.546,0,0,0,36.925,55.8h3.627A2.547,2.547,0,0,0,43.1,53.256V51.437a14.592,14.592,0,0,0,5.495-3.176l1.58.912a2.548,2.548,0,0,0,3.475-.933L55.46,45.1a2.547,2.547,0,0,0-.93-3.476Z" fill-rule="evenodd"/>
      </g>
    </g>
  </g>
</svg>
