<svg xmlns="http://www.w3.org/2000/svg" xmlns:xlink="http://www.w3.org/1999/xlink" width="98" height="97.998" viewBox="0 0 98 97.998">
  <defs>
    <clipPath id="clip-path">
      <rect id="Rectangle_412492" data-name="Rectangle 412492" width="56" height="54" transform="translate(18506.928 -9012.101)" fill="#fff"/>
    </clipPath>
  </defs>
  <g id="Group_1206460" data-name="Group 1206460" transform="translate(-18485.658 9034.551)">
    <g id="Group_1206114" data-name="Group 1206114" transform="translate(17614.545 -9311.715)">
      <g id="Group_1188789" data-name="Group 1188789" transform="translate(871.113 277.164)">
        <path id="Path_1243039" data-name="Path 1243039" d="M41.05,0h0a41.05,41.05,0,0,1,0,82.1h0a41.05,41.05,0,0,1,0-82.1Z" transform="translate(7.951 7.949)" fill="#ffa724"/>
        <rect id="Rectangle_400907" data-name="Rectangle 400907" width="88.438" height="88.437" rx="44.218" transform="translate(4.782 4.781)" fill="none"/>
        <g id="Group_1098742" data-name="Group 1098742" transform="translate(0)">
          <g id="Rectangle_400898" data-name="Rectangle 400898" transform="translate(0)" fill="none" stroke="#fff" stroke-width="2" opacity="0.859">
            <rect width="98" height="97.999" rx="48.999" stroke="none"/>
            <rect x="1" y="1" width="96" height="95.999" rx="47.999" fill="none"/>
          </g>
          <g id="Rectangle_400907-2" data-name="Rectangle 400907" transform="translate(0)" fill="none" stroke="#0f1f33" stroke-linecap="round" stroke-width="2">
            <rect width="98" height="97.999" rx="48.999" stroke="none"/>
            <rect x="1" y="1" width="96" height="95.999" rx="47.999" fill="none"/>
          </g>
        </g>
      </g>
    </g>
    <g id="Mask_Group_1099618" data-name="Mask Group 1099618" clip-path="url(#clip-path)">
      <g id="goal_12073569" transform="translate(18507.822 -9012.206)">
        <g id="Group_1206459" data-name="Group 1206459">
          <g id="Group_1206457" data-name="Group 1206457">
            <path id="Path_1277117" data-name="Path 1277117" d="M20.025,5.081h3.127V6.65A7.909,7.909,0,0,1,26,7.829l1.11-1.11L29.318,8.93l-1.11,1.11a7.91,7.91,0,0,1,1.179,2.846h1.569v3.127H29.387a7.911,7.911,0,0,1-1.179,2.846l1.11,1.11-2.211,2.211L26,21.069a7.908,7.908,0,0,1-2.846,1.18v1.569H20.024V22.249a7.911,7.911,0,0,1-2.846-1.179l-1.11,1.11-2.211-2.211,1.11-1.11a7.91,7.91,0,0,1-1.18-2.846H12.219V12.886h1.569a7.91,7.91,0,0,1,1.18-2.846l-1.11-1.11,2.211-2.211,1.11,1.11A7.908,7.908,0,0,1,20.024,6.65V5.081Z" fill="#ffda2d" fill-rule="evenodd"/>
            <circle id="Ellipse_12541" data-name="Ellipse 12541" cx="4.855" cy="4.855" r="4.855" transform="translate(16.733 9.594)" fill="#eff4f7"/>
            <path id="Path_1277118" data-name="Path 1277118" d="M11.641,22.9l8.453-8.453a1.057,1.057,0,0,1,1.494,1.494L13.135,24.4,12.9,27.349a.337.337,0,0,1-.1.219L7.882,32.481a.175.175,0,0,1-.3-.112L7.338,28.7l-3.669-.245a.175.175,0,0,1-.112-.3L8.47,23.243a.337.337,0,0,1,.219-.1Z" fill="#da8c36" fill-rule="evenodd"/>
          </g>
          <g id="Group_1206458" data-name="Group 1206458">
            <path id="Path_1277119" data-name="Path 1277119" d="M19.812,44.515h4.2a.412.412,0,0,1,.411.411v7.919a.412.412,0,0,1-.411.411h-4.2a.412.412,0,0,1-.411-.411V44.926A.412.412,0,0,1,19.812,44.515Z" fill="#fc685b" fill-rule="evenodd"/>
            <path id="Path_1277120" data-name="Path 1277120" d="M28.575,34.827h4.2a.412.412,0,0,1,.411.411V52.846a.412.412,0,0,1-.411.411h-4.2a.412.412,0,0,1-.411-.411V35.239a.412.412,0,0,1,.411-.411Z" fill="#72d561" fill-rule="evenodd"/>
            <path id="Path_1277121" data-name="Path 1277121" d="M37.339,38.994h4.2a.412.412,0,0,1,.411.411V52.846a.412.412,0,0,1-.411.411h-4.2a.412.412,0,0,1-.411-.411V39.4A.412.412,0,0,1,37.339,38.994Z" fill="#ffda2d" fill-rule="evenodd"/>
            <path id="Path_1277122" data-name="Path 1277122" d="M46.1,30.9h4.2a.412.412,0,0,1,.411.411V52.846a.412.412,0,0,1-.411.411H46.1a.412.412,0,0,1-.411-.411V31.313A.412.412,0,0,1,46.1,30.9Z" fill="#64b5f6" fill-rule="evenodd"/>
          </g>
        </g>
        <path id="Path_1277123" data-name="Path 1277123" d="M7.24,14.452a14.257,14.257,0,0,1,3.148-8.966l-.6.047a.847.847,0,0,1-.136-1.689l2.755-.222a.849.849,0,0,1,.912.913L13.1,7.29a.846.846,0,0,1-.843.779l-.069,0a.848.848,0,0,1-.777-.912l.021-.255a12.659,12.659,0,0,0-1.2,13.153.847.847,0,0,1-1.518.752A14.2,14.2,0,0,1,7.24,14.452ZM12.065,27.1l.224-2.77a.848.848,0,0,1,.246-.53l8.453-8.454a.206.206,0,0,0-.019-.314.162.162,0,0,0-.116-.047.217.217,0,0,0-.162.065L12.238,23.5a.848.848,0,0,1-.53.245l-2.771.226L5.2,27.711l2.192.146a.846.846,0,0,1,.788.789l.147,2.191ZM22.2,13.871a1.846,1.846,0,0,0-1.325-.58,1.919,1.919,0,0,0-1.386.561L17.747,15.6a4.008,4.008,0,1,1,2.691,2.692l1.747-1.746a1.89,1.89,0,0,0,.018-2.674Zm-7.586,1.977a6.991,6.991,0,0,0,.782,2.1l1.04-1.04A5.7,5.7,0,1,1,19.131,19.6l-1.04,1.04a7.018,7.018,0,0,0,2.1.781.848.848,0,0,1,.682.831v.721H22.3v-.721a.847.847,0,0,1,.681-.831,7.021,7.021,0,0,0,2.541-1.054.848.848,0,0,1,1.07.106l.511.51,1.012-1.012-.51-.511a.846.846,0,0,1-.106-1.069,7.042,7.042,0,0,0,1.054-2.543.848.848,0,0,1,.831-.681h.721V13.735h-.722a.847.847,0,0,1-.83-.681A7.025,7.025,0,0,0,27.5,10.513a.847.847,0,0,1,.106-1.069l.51-.512L27.105,7.92l-.511.51a.847.847,0,0,1-1.07.106,7.029,7.029,0,0,0-2.541-1.054.848.848,0,0,1-.681-.831V5.93H20.87v.721a.848.848,0,0,1-.682.831,7.038,7.038,0,0,0-2.541,1.054.847.847,0,0,1-1.069-.106l-.511-.51L15.054,8.932l.511.512a.846.846,0,0,1,.106,1.068,7.028,7.028,0,0,0-1.054,2.541.847.847,0,0,1-.831.682h-.721v1.432h.721a.847.847,0,0,1,.831.681ZM21.586,28.8a14.2,14.2,0,0,0,6.353-1.481.847.847,0,1,0-.75-1.518,12.657,12.657,0,0,1-13.1-1.156l2.769-2.769a8.739,8.739,0,0,0,2.318,1.045v.9a.848.848,0,0,0,.847.847H23.15A.847.847,0,0,0,24,23.82v-.9a8.752,8.752,0,0,0,1.871-.775l.639.638a.846.846,0,0,0,1.2,0l2.211-2.211a.845.845,0,0,0,0-1.2l-.639-.639a8.7,8.7,0,0,0,.776-1.871h.9a.847.847,0,0,0,.847-.847V12.889a.847.847,0,0,0-.847-.847h-.9a8.7,8.7,0,0,0-.776-1.871l.639-.639a.845.845,0,0,0,0-1.2L27.7,6.123a.846.846,0,0,0-1.2,0l-.639.64A8.678,8.678,0,0,0,24,5.986v-.9a.847.847,0,0,0-.847-.847H20.023a.847.847,0,0,0-.847.847v.9a8.745,8.745,0,0,0-1.871.775l-.639-.639a.848.848,0,0,0-1.2,0L13.257,8.334a.848.848,0,0,0,0,1.2l.639.639a8.668,8.668,0,0,0-.775,1.871h-.9a.847.847,0,0,0-.847.847v3.127a.847.847,0,0,0,.847.847h.9a8.7,8.7,0,0,0,1.045,2.319l-2.906,2.9L8.618,22.3a1.189,1.189,0,0,0-.749.347L2.957,27.558A1.022,1.022,0,0,0,3.611,29.3l2.93.2.2,2.929a1.021,1.021,0,0,0,.661.888,1,1,0,0,0,.358.066,1.027,1.027,0,0,0,.724-.3l4.913-4.914a1.177,1.177,0,0,0,.346-.748l.073-.91A14.175,14.175,0,0,0,21.586,28.8ZM32.932,8.85A.847.847,0,0,1,34.451,8.1a14.353,14.353,0,0,1-1.667,15.319l.6-.047a.847.847,0,0,1,.135,1.689l-2.755.221a.633.633,0,0,1-.068,0,.847.847,0,0,1-.844-.914l.221-2.755a.847.847,0,1,1,1.689.135l-.02.254a12.659,12.659,0,0,0,1.2-13.152ZM14.85,2.722a.847.847,0,0,1,.383-1.135A14.35,14.35,0,0,1,30.552,3.254l-.047-.6a.847.847,0,0,1,1.689-.136l.221,2.755a.847.847,0,0,1-.845.915q-.033,0-.067,0l-2.754-.221a.847.847,0,1,1,.136-1.688l.254.02a12.658,12.658,0,0,0-13.153-1.2.847.847,0,0,1-1.135-.384ZM39.352,31.9l7.037-6.5-1.547-.073a.847.847,0,0,1,.039-1.693h.04l3.693.174a.846.846,0,0,1,.794,1l-.659,3.639a.847.847,0,0,1-.834.7.806.806,0,0,1-.15-.013.85.85,0,0,1-.684-.985l.235-1.294L40.01,33.6a.847.847,0,0,1-1.046.081l-8.1-5.43L22.58,39.012a.847.847,0,0,1-1.343-1.033L30,26.584a.849.849,0,0,1,1.143-.188ZM49.862,52.412V31.751H46.538V52.412Zm.844-22.355H45.691a.848.848,0,0,0-.847.847V53.259a.847.847,0,0,0,.847.847h5.016a.847.847,0,0,0,.849-.847V30.9A.848.848,0,0,0,50.706,30.057ZM23.571,52.412H20.246V45.364h3.325Zm.847-8.742H19.4a.847.847,0,0,0-.847.847v8.742a.847.847,0,0,0,.847.847h5.019a.848.848,0,0,0,.847-.847V44.517A.848.848,0,0,0,24.418,43.67Zm7.916,8.742V35.677H29.01V52.412Zm.847-18.429H28.163a.847.847,0,0,0-.847.847V53.259a.847.847,0,0,0,.847.847h5.018a.847.847,0,0,0,.847-.847V34.83A.848.848,0,0,0,33.181,33.983ZM41.1,52.412H37.774V39.842H41.1Zm.847-14.263H36.927A.848.848,0,0,0,36.08,39V53.259a.847.847,0,0,0,.847.847h5.018a.847.847,0,0,0,.847-.847V39A.848.848,0,0,0,41.945,38.148Z" fill-rule="evenodd"/>
      </g>
    </g>
  </g>
</svg>
