<svg xmlns="http://www.w3.org/2000/svg" xmlns:xlink="http://www.w3.org/1999/xlink" width="98" height="97.999" viewBox="0 0 98 97.999">
  <defs>
    <clipPath id="clip-path">
      <rect id="Rectangle_412604" data-name="Rectangle 412604" width="56" height="54" transform="translate(404.52 2266.538)" fill="#fff"/>
    </clipPath>
    <clipPath id="clip-path-2">
      <path id="path4917" d="M0-52.244H52.244V0H0Z"/>
    </clipPath>
  </defs>
  <g id="Group_1206520" data-name="Group 1206520" transform="translate(-383.25 -2244.088)">
    <g id="Group_1206211" data-name="Group 1206211" transform="translate(-487.862 1966.924)">
      <g id="Group_1188789" data-name="Group 1188789" transform="translate(871.113 277.164)">
        <path id="Path_1243039" data-name="Path 1243039" d="M41.05,0h0a41.05,41.05,0,0,1,0,82.1h0a41.05,41.05,0,0,1,0-82.1Z" transform="translate(7.951 7.949)" fill="#ffa724"/>
        <rect id="Rectangle_400907" data-name="Rectangle 400907" width="88.438" height="88.437" rx="44.218" transform="translate(4.782 4.781)" fill="none"/>
        <g id="Group_1098742" data-name="Group 1098742" transform="translate(0)">
          <g id="Rectangle_400898" data-name="Rectangle 400898" transform="translate(0)" fill="none" stroke="#fff" stroke-width="2" opacity="0.859">
            <rect width="98" height="97.999" rx="48.999" stroke="none"/>
            <rect x="1" y="1" width="96" height="95.999" rx="47.999" fill="none"/>
          </g>
          <g id="Rectangle_400907-2" data-name="Rectangle 400907" transform="translate(0)" fill="none" stroke="#0f1f33" stroke-linecap="round" stroke-width="2">
            <rect width="98" height="97.999" rx="48.999" stroke="none"/>
            <rect x="1" y="1" width="96" height="95.999" rx="47.999" fill="none"/>
          </g>
        </g>
      </g>
    </g>
    <g id="Mask_Group_1099495" data-name="Mask Group 1099495" clip-path="url(#clip-path)">
      <g id="g4911" transform="translate(406.397 2320.729)">
        <g id="g4913">
          <g id="g4915" clip-path="url(#clip-path-2)">
            <g id="g4921" transform="translate(15.918 -44.79)">
              <path id="path4923" d="M0,0H33.452A1.745,1.745,0,0,1,35.2,1.745v28.2a1.745,1.745,0,0,1-1.745,1.745H1.667l-3.931,5.057a1.745,1.745,0,0,1-2.822-.093l-3.359-4.964H-12.8a1.745,1.745,0,0,1-1.745-1.745V1.745A1.745,1.745,0,0,1-12.8,0h4.618" fill="#d7d6d8" stroke="#000" stroke-linecap="round" stroke-linejoin="round" stroke-miterlimit="10" stroke-width="2.041"/>
            </g>
            <g id="g4925" transform="translate(26.831 -36.214)">
              <path id="path4927" d="M0,0H0A5.655,5.655,0,0,0-8,0l-.723.723L-9.445,0a5.655,5.655,0,0,0-8,0h0a5.655,5.655,0,0,0,0,8l.745.745L-9.136,16.3q.2.2.415.376.214-.176.415-.376L-.745,8.743,0,8A5.655,5.655,0,0,0,0,0" fill="#ff6977"/>
            </g>
            <g id="g4929" transform="translate(26.831 -36.214)">
              <path id="path4931" d="M0,0H0A5.655,5.655,0,0,0-8,0l-.723.723L-9.445,0a5.655,5.655,0,0,0-8,0h0a5.655,5.655,0,0,0,0,8l.745.745L-9.136,16.3q.2.2.415.376.214-.176.415-.376L-.745,8.743,0,8A5.655,5.655,0,0,0,0,0Z" fill="none" stroke="#000" stroke-linecap="round" stroke-linejoin="round" stroke-miterlimit="10" stroke-width="2.041"/>
            </g>
          </g>
        </g>
        <text id="text4935" transform="translate(33.373 -24.383)" font-size="28" font-family="SegoeUI-Semibold, Segoe UI" font-weight="600"><tspan x="0" y="0">3</tspan></text>
        <g id="g4937">
          <g id="g4939" clip-path="url(#clip-path-2)">
            <g id="g4945" transform="translate(35.594 -19.995)">
              <path id="path4947" d="M0,0A6.033,6.033,0,0,0,4.333,1.44,6.381,6.381,0,0,0,8.666.014a5.572,5.572,0,0,0,1.646-4.443V-4.95a4.276,4.276,0,0,0-2.8-4.361,3.427,3.427,0,0,0,1.618-1.667,6.473,6.473,0,0,0,.6-2.925q0-4.87-5.238-4.87a7.322,7.322,0,0,0-2.729.466A4.112,4.112,0,0,0,.027-17.113,5.17,5.17,0,0,0-.809-15.66a4.168,4.168,0,0,0-.261,1.412,1.381,1.381,0,0,0,.233.932,1.371,1.371,0,0,0,.974.247q1.1,0,1.1-1.007a2.6,2.6,0,0,1,.727-1.837,3.3,3.3,0,0,1,2.482-.776q3.071,0,3.072,3.2a3.346,3.346,0,0,1-.8,2.567,3.489,3.489,0,0,1-2.386.71q-.8,0-.8.96t.8.96q3.675,0,3.675,3.346v.521q0,3.785-3.675,3.785a3.784,3.784,0,0,1-2.7-.85A2.567,2.567,0,0,1,.74-3.387.848.848,0,0,0,.48-4.073a1.455,1.455,0,0,0-.919-.219,1.225,1.225,0,0,0-.837.219,1.168,1.168,0,0,0-.233.85A4.368,4.368,0,0,0,0,0Z" fill="none" stroke="#000" stroke-miterlimit="10" stroke-width="0.102"/>
            </g>
            <g id="g4949" transform="translate(11.871 -44.79)">
              <path id="path4951" d="M0,0H0" fill="none" stroke="#000" stroke-linecap="round" stroke-linejoin="round" stroke-miterlimit="10" stroke-width="2.041"/>
            </g>
          </g>
        </g>
      </g>
    </g>
  </g>
</svg>
