<svg xmlns="http://www.w3.org/2000/svg" xmlns:xlink="http://www.w3.org/1999/xlink" width="98" height="97.999" viewBox="0 0 98 97.999">
  <defs>
    <clipPath id="clip-path">
      <rect id="Rectangle_412606" data-name="Rectangle 412606" width="56" height="54" transform="translate(772.27 2266.538)" fill="#fff"/>
    </clipPath>
    <clipPath id="clip-path-2">
      <path id="path897" d="M0-52.29H52.29V0H0Z"/>
    </clipPath>
  </defs>
  <g id="Group_1206519" data-name="Group 1206519" transform="translate(-751 -2244.088)">
    <g id="Group_1206212" data-name="Group 1206212" transform="translate(-120.112 1966.924)">
      <g id="Group_1188789" data-name="Group 1188789" transform="translate(871.113 277.164)">
        <path id="Path_1243039" data-name="Path 1243039" d="M41.05,0h0a41.05,41.05,0,0,1,0,82.1h0a41.05,41.05,0,0,1,0-82.1Z" transform="translate(7.951 7.949)" fill="#ffa724"/>
        <rect id="Rectangle_400907" data-name="Rectangle 400907" width="88.438" height="88.437" rx="44.218" transform="translate(4.782 4.781)" fill="none"/>
        <g id="Group_1098742" data-name="Group 1098742" transform="translate(0)">
          <g id="Rectangle_400898" data-name="Rectangle 400898" transform="translate(0)" fill="none" stroke="#fff" stroke-width="2" opacity="0.859">
            <rect width="98" height="97.999" rx="48.999" stroke="none"/>
            <rect x="1" y="1" width="96" height="95.999" rx="47.999" fill="none"/>
          </g>
          <g id="Rectangle_400907-2" data-name="Rectangle 400907" transform="translate(0)" fill="none" stroke="#0f1f33" stroke-linecap="round" stroke-width="2">
            <rect width="98" height="97.999" rx="48.999" stroke="none"/>
            <rect x="1" y="1" width="96" height="95.999" rx="47.999" fill="none"/>
          </g>
        </g>
      </g>
    </g>
    <g id="Mask_Group_1099494" data-name="Mask Group 1099494" clip-path="url(#clip-path)">
      <g id="g891" transform="translate(774.125 2320.717)">
        <g id="g893">
          <g id="g895" clip-path="url(#clip-path-2)">
            <g id="g901" transform="translate(15.725 -44.781)">
              <path id="path903" d="M0,0H33.482a1.746,1.746,0,0,1,1.746,1.746V29.974a1.746,1.746,0,0,1-1.746,1.746H1.668l-3.935,5.061a1.746,1.746,0,0,1-2.825-.093L-8.453,31.72h-4.362a1.746,1.746,0,0,1-1.746-1.746V1.746A1.746,1.746,0,0,1-12.815,0h4.622" fill="#d7d6d8" stroke="#000" stroke-linecap="round" stroke-linejoin="round" stroke-miterlimit="10" stroke-width="2.043"/>
            </g>
            <g id="g905" transform="translate(11.674 -44.781)">
              <path id="path907" d="M0,0H0" fill="none" stroke="#000" stroke-linecap="round" stroke-linejoin="round" stroke-miterlimit="10" stroke-width="2.043"/>
            </g>
          </g>
        </g>
        <text id="text911" transform="translate(32.863 -24.357)" font-size="28" font-family="SegoeUI-Semibold, Segoe UI" font-weight="600"><tspan x="0" y="0">3</tspan></text>
        <g id="g913">
          <g id="g915" clip-path="url(#clip-path-2)">
            <g id="g921" transform="translate(35.086 -19.965)">
              <path id="path923" d="M0,0A6.038,6.038,0,0,0,4.337,1.441,6.387,6.387,0,0,0,8.674.014a5.577,5.577,0,0,0,1.647-4.447v-.522a4.279,4.279,0,0,0-2.8-4.364,3.43,3.43,0,0,0,1.619-1.669,6.479,6.479,0,0,0,.6-2.927q0-4.874-5.243-4.874a7.329,7.329,0,0,0-2.731.467A4.115,4.115,0,0,0,.027-17.129,5.174,5.174,0,0,0-.81-15.674a4.172,4.172,0,0,0-.261,1.414,1.382,1.382,0,0,0,.233.933,1.372,1.372,0,0,0,.974.247q1.1,0,1.1-1.008a2.6,2.6,0,0,1,.727-1.839A3.3,3.3,0,0,1,4.447-16.7q3.074,0,3.074,3.2a3.349,3.349,0,0,1-.8,2.57,3.492,3.492,0,0,1-2.388.711q-.8,0-.8.961t.8.961q3.678,0,3.678,3.349v.522q0,3.788-3.678,3.788a3.787,3.787,0,0,1-2.7-.851A2.57,2.57,0,0,1,.741-3.39.849.849,0,0,0,.48-4.076a1.456,1.456,0,0,0-.92-.22,1.226,1.226,0,0,0-.837.22,1.169,1.169,0,0,0-.233.851A4.372,4.372,0,0,0,0,0Z" fill="none" stroke="#000" stroke-miterlimit="10" stroke-width="0.102"/>
            </g>
            <g id="g925" transform="translate(19.022 -37.803)">
              <path id="path927" d="M0,0A9.169,9.169,0,0,0-9.169,9.169,9.227,9.227,0,0,0-9.041,10.7l-1.74,5.651,5.461.286A9.128,9.128,0,0,0,0,18.339,9.169,9.169,0,0,0,9.169,9.169,9.169,9.169,0,0,0,0,0" fill="#ff6977"/>
            </g>
            <g id="g929" transform="translate(19.022 -37.803)">
              <path id="path931" d="M0,0A9.169,9.169,0,0,0-9.169,9.169,9.227,9.227,0,0,0-9.041,10.7l-1.74,5.651,5.461.286A9.128,9.128,0,0,0,0,18.339,9.169,9.169,0,0,0,9.169,9.169,9.169,9.169,0,0,0,0,0Z" fill="none" stroke="#000" stroke-linecap="round" stroke-linejoin="round" stroke-miterlimit="10" stroke-width="2.043"/>
            </g>
            <g id="g933" transform="translate(15.61 -28.369)">
              <path id="path935" d="M0,0H0" fill="none" stroke="#000" stroke-linecap="round" stroke-linejoin="round" stroke-miterlimit="10" stroke-width="2.043"/>
            </g>
            <g id="g937" transform="translate(19.306 -28.369)">
              <path id="path939" d="M0,0H0" fill="none" stroke="#000" stroke-linecap="round" stroke-linejoin="round" stroke-miterlimit="10" stroke-width="2.043"/>
            </g>
            <g id="g941" transform="translate(23.001 -28.369)">
              <path id="path943" d="M0,0H0" fill="none" stroke="#000" stroke-linecap="round" stroke-linejoin="round" stroke-miterlimit="10" stroke-width="2.043"/>
            </g>
          </g>
        </g>
        <g id="g945">
          <g id="g947" clip-path="url(#clip-path-2)">
            <text id="text955" transform="translate(-22.367 -24.696)" font-size="28" font-family="SegoeUI-Semibold, Segoe UI" font-weight="600"><tspan x="0" y="0">3</tspan></text>
            <g id="g957" transform="translate(-20.143 -20.304)">
              <path id="path959" d="M0,0A6.038,6.038,0,0,0,4.337,1.441,6.387,6.387,0,0,0,8.674.014a5.577,5.577,0,0,0,1.647-4.447v-.522a4.279,4.279,0,0,0-2.8-4.364,3.43,3.43,0,0,0,1.619-1.669,6.479,6.479,0,0,0,.6-2.927q0-4.874-5.243-4.874a7.329,7.329,0,0,0-2.731.467A4.115,4.115,0,0,0,.027-17.129,5.174,5.174,0,0,0-.81-15.674a4.172,4.172,0,0,0-.261,1.414,1.382,1.382,0,0,0,.233.933,1.372,1.372,0,0,0,.974.247q1.1,0,1.1-1.008a2.6,2.6,0,0,1,.727-1.839A3.3,3.3,0,0,1,4.447-16.7q3.074,0,3.074,3.2a3.349,3.349,0,0,1-.8,2.57,3.492,3.492,0,0,1-2.388.711q-.8,0-.8.961t.8.961q3.678,0,3.678,3.349v.522q0,3.788-3.678,3.788a3.787,3.787,0,0,1-2.7-.851A2.57,2.57,0,0,1,.741-3.39.849.849,0,0,0,.48-4.076a1.456,1.456,0,0,0-.92-.22,1.226,1.226,0,0,0-.837.22,1.169,1.169,0,0,0-.233.851A4.372,4.372,0,0,0,0,0Z" fill="none" stroke="#000" stroke-miterlimit="10" stroke-width="0.102"/>
            </g>
          </g>
        </g>
      </g>
    </g>
  </g>
</svg>
