<svg xmlns="http://www.w3.org/2000/svg" xmlns:xlink="http://www.w3.org/1999/xlink" width="98" height="97.999" viewBox="0 0 98 97.999">
  <defs>
    <clipPath id="clip-path">
      <rect id="Rectangle_412633" data-name="Rectangle 412633" width="56" height="54" transform="translate(-8427.48 -6656.549)" fill="#fff"/>
    </clipPath>
  </defs>
  <g id="Group_1206541" data-name="Group 1206541" transform="translate(8448.75 6678.999)">
    <g id="Group_1206308" data-name="Group 1206308" transform="translate(-9319.862 -6956.163)">
      <g id="Group_1188789" data-name="Group 1188789" transform="translate(871.113 277.164)">
        <path id="Path_1243039" data-name="Path 1243039" d="M41.05,0h0a41.05,41.05,0,0,1,0,82.1h0a41.05,41.05,0,0,1,0-82.1Z" transform="translate(7.951 7.949)" fill="#ffa724"/>
        <rect id="Rectangle_400907" data-name="Rectangle 400907" width="88.438" height="88.437" rx="44.218" transform="translate(4.782 4.781)" fill="none"/>
        <g id="Group_1098742" data-name="Group 1098742" transform="translate(0)">
          <g id="Rectangle_400898" data-name="Rectangle 400898" transform="translate(0)" fill="none" stroke="#fff" stroke-width="2" opacity="0.859">
            <rect width="98" height="97.999" rx="48.999" stroke="none"/>
            <rect x="1" y="1" width="96" height="95.999" rx="47.999" fill="none"/>
          </g>
          <g id="Rectangle_400907-2" data-name="Rectangle 400907" transform="translate(0)" fill="none" stroke="#0f1f33" stroke-linecap="round" stroke-width="2">
            <rect width="98" height="97.999" rx="48.999" stroke="none"/>
            <rect x="1" y="1" width="96" height="95.999" rx="47.999" fill="none"/>
          </g>
        </g>
      </g>
    </g>
    <g id="Mask_Group_1099496" data-name="Mask Group 1099496" clip-path="url(#clip-path)">
      <g id="compare_15692040" transform="translate(-8428.719 -6658.703)">
        <path id="Path_1277401" data-name="Path 1277401" d="M45.343,20.329h1.871v4.084H45.343Z" fill="#29ce69"/>
        <path id="Path_1277402" data-name="Path 1277402" d="M32.348,38.776A3.047,3.047,0,1,1,29.3,35.731,3.052,3.052,0,0,1,32.348,38.776ZM29.3,32.292a2.033,2.033,0,0,0-1.794,1.187L20.1,47.913a2.743,2.743,0,0,0,.09,2.671,1.993,1.993,0,0,0,1.7,1.02H36.7a1.986,1.986,0,0,0,1.707-1.023,2.745,2.745,0,0,0,.09-2.668L31.1,33.479a2.031,2.031,0,0,0-1.8-1.187Z" fill="#a65826"/>
        <path id="Path_1277403" data-name="Path 1277403" d="M35.813,39.673H55.87V37.879H34.894Z" fill="#c76d33"/>
        <path id="Path_1277404" data-name="Path 1277404" d="M39.959,22.368H41.83v1.981H39.959Z" fill="#fd7a6e"/>
        <path id="Path_1277405" data-name="Path 1277405" d="M52.218,7.711v2.813h2.723Z" fill="#ccc4cc"/>
        <path id="Path_1277406" data-name="Path 1277406" d="M50.731,18.29H52.6v6.185H50.731Z" fill="#00aede"/>
        <path id="Path_1277407" data-name="Path 1277407" d="M53.967,17.877v7.007a1,1,0,0,1-1.061.958H50.425a1,1,0,0,1-1.061-.958V17.877a1,1,0,0,1,1.061-.955h2.481A1,1,0,0,1,53.967,17.877Zm-.684,9.959H52.044a.684.684,0,1,1,0-1.368h1.239a.684.684,0,1,1,0,1.368Zm0,2.31H52.044a.684.684,0,1,1,0-1.368h1.239a.684.684,0,1,1,0,1.368ZM49.1,27.836H47.86a.684.684,0,0,1,0-1.368H49.1a.684.684,0,1,1,0,1.368Zm0,2.31H47.86a.684.684,0,0,1,0-1.368H49.1a.684.684,0,1,1,0,1.368Zm-4.184-2.31H39.482a.684.684,0,1,1,0-1.368h5.433a.684.684,0,0,1,0,1.368Zm-.129,2.31H39.353a.684.684,0,0,1,0-1.368h5.433a.684.684,0,0,1,0,1.368Zm-6.194-8.085A1.064,1.064,0,0,1,39.653,21h2.484A1.062,1.062,0,0,1,43.2,22.061v2.594a1.06,1.06,0,0,1-1.061,1.061H39.653a1.062,1.062,0,0,1-1.061-1.061Zm9.991-2.145v4.907a1,1,0,0,1-1.061.958H45.037a1,1,0,0,1-1.061-.958V19.916a1,1,0,0,1,1.061-.955h2.484A1,1,0,0,1,48.583,19.916Zm-9.633-1.578,7.417-4.013a.684.684,0,0,1,.548-1.236l1.423.381,0,0a.622.622,0,0,1,.116.042s.006,0,.01.006a.621.621,0,0,1,.106.065s0,0,.006,0a.584.584,0,0,1,.09.087s0,0,.006.006a.556.556,0,0,1,.071.1l.006.006a.012.012,0,0,0,0,.01s0,0,.006.006.006.016.01.023a.338.338,0,0,1,.013.032c.006.01.01.023.016.032l.01.029.01.039a.062.062,0,0,1,.006.026.164.164,0,0,1,.006.039.081.081,0,0,1,0,.026.187.187,0,0,1,0,.042c0,.01,0,.016,0,.026v.039a.09.09,0,0,0,0,.029c0,.013,0,.026,0,.036a.09.09,0,0,0,0,.029l-.01.039a.041.041,0,0,1,0,.019l-.381,1.419a.682.682,0,0,1-.661.506.681.681,0,0,1-.681-.752l-7.5,4.059a.7.7,0,0,1-.326.081.684.684,0,0,1-.326-1.284Zm.532-7.214H45.7a.684.684,0,1,1,0,1.368H39.482a.684.684,0,1,1,0-1.368Zm0-1.942h3.652a.684.684,0,1,1,0,1.368H39.482a.684.684,0,1,1,0-1.368Zm11.369,1.507V6.7H37.417a.73.73,0,0,0-.726.729V31.895a.727.727,0,0,0,.726.726H55.141a.728.728,0,0,0,.729-.726v-20H52.054a1.2,1.2,0,0,1-1.2-1.2Z" fill="#e8ecf9"/>
        <path id="Path_1277408" data-name="Path 1277408" d="M27.622,38.776A1.679,1.679,0,1,0,29.3,37.1a1.681,1.681,0,0,0-1.678,1.678Z" fill="#e8ecf9"/>
        <path id="Path_1277409" data-name="Path 1277409" d="M18.134,7.711v2.813h2.723Z" fill="#ccc4cc"/>
        <path id="Path_1277410" data-name="Path 1277410" d="M5.878,22.368H7.746v1.981H5.878Z" fill="#fd7a6e"/>
        <path id="Path_1277411" data-name="Path 1277411" d="M11.262,20.329h1.871v4.084H11.262Z" fill="#29ce69"/>
        <path id="Path_1277412" data-name="Path 1277412" d="M4.868,18.338l7.417-4.013a.684.684,0,0,1,.548-1.236l1.419.381a.01.01,0,0,0,.006,0,.184.184,0,0,1,.039.013l.029.01.032.013a.116.116,0,0,0,.029.013.132.132,0,0,0,.029.016l.029.019c.01,0,.016.013.026.019a.08.08,0,0,1,.026.019.179.179,0,0,1,.029.023c.006.006.016.013.023.019a.158.158,0,0,1,.023.026.15.15,0,0,1,.023.023.182.182,0,0,0,.019.026.173.173,0,0,1,.023.029.183.183,0,0,1,.016.026.286.286,0,0,1,.019.032l.006.006c0,.006,0,.013.006.019a.172.172,0,0,1,.016.036.112.112,0,0,1,.013.029.338.338,0,0,1,.013.032.116.116,0,0,1,.006.032.12.12,0,0,1,.01.032c0,.01,0,.023.006.032s0,.023,0,.032,0,.023.006.036v.068a.09.09,0,0,1,0,.029c0,.013,0,.026,0,.036s0,.023,0,.032l-.01.039a.041.041,0,0,1,0,.019l-.381,1.419a.682.682,0,0,1-.661.506.681.681,0,0,1-.681-.752L5.519,19.541a.7.7,0,0,1-.326.081.684.684,0,0,1-.326-1.284ZM5.4,11.125h6.21a.684.684,0,0,1,0,1.368H5.4a.684.684,0,0,1,0-1.368Zm0-1.942H9.052a.684.684,0,0,1,0,1.368H5.4a.684.684,0,0,1,0-1.368Zm10.3,17.97a.684.684,0,0,1-.684.684H13.775a.684.684,0,0,1,0-1.368h1.242A.684.684,0,0,1,15.7,27.152Zm-.423-9.275a1,1,0,0,1,1.061-.955h2.484a1,1,0,0,1,1.061.955v7.007a1,1,0,0,1-1.061.958H16.34a1,1,0,0,1-1.061-.958ZM19.2,27.836H17.96a.684.684,0,0,1,0-1.368H19.2a.684.684,0,0,1,0,1.368Zm0,2.31H17.96a.684.684,0,0,1,0-1.368H19.2a.684.684,0,0,1,0,1.368Zm-4.184,0H13.775a.684.684,0,0,1,0-1.368h1.242a.684.684,0,0,1,0,1.368ZM9.894,24.823V19.916a1,1,0,0,1,1.061-.955H13.44a1,1,0,0,1,1.061.955v4.907a1,1,0,0,1-1.061.958H10.956a1,1,0,0,1-1.061-.958Zm.939,3.013H5.4a.684.684,0,0,1,0-1.368h5.433a.684.684,0,0,1,0,1.368ZM4.51,24.656V22.062A1.064,1.064,0,0,1,5.571,21H8.052a1.064,1.064,0,0,1,1.061,1.061v2.594a1.062,1.062,0,0,1-1.061,1.061H5.571A1.062,1.062,0,0,1,4.51,24.656ZM10.7,30.147H5.271a.684.684,0,1,1,0-1.368H10.7a.684.684,0,1,1,0,1.368ZM3.336,32.621H21.06a.727.727,0,0,0,.726-.726v-20H17.969a1.2,1.2,0,0,1-1.2-1.2V6.7H3.335a.732.732,0,0,0-.729.729V31.895a.73.73,0,0,0,.729.726Z" fill="#e8ecf9"/>
        <path id="Path_1277413" data-name="Path 1277413" d="M23.712,37.879H2.732v1.794H22.789Z" fill="#c76d33"/>
        <path id="Path_1277414" data-name="Path 1277414" d="M16.647,18.29h1.871v6.185H16.647Z" fill="#00aede"/>
        <g id="Group_1206521" data-name="Group 1206521">
          <path id="Path_1277415" data-name="Path 1277415" d="M47.215,24.413H45.343V20.329h1.871Zm.306-5.452H45.037a1,1,0,0,0-1.061.955v4.907a1,1,0,0,0,1.061.958h2.484a1,1,0,0,0,1.061-.958V19.916A1,1,0,0,0,47.521,18.961Z" fill="#030403"/>
          <path id="Path_1277416" data-name="Path 1277416" d="M39.275,19.623a.7.7,0,0,0,.326-.081l7.5-4.059a.684.684,0,0,0,1.342.245l.381-1.419a.042.042,0,0,0,0-.019l.01-.039a.09.09,0,0,1,0-.029c0-.01,0-.023,0-.036a.09.09,0,0,1,0-.029v-.039c0-.01,0-.016,0-.026a.187.187,0,0,0,0-.042.081.081,0,0,0,0-.026.158.158,0,0,0-.006-.039.06.06,0,0,0-.006-.026l-.01-.039-.01-.029c-.006-.01-.01-.023-.016-.032a.326.326,0,0,0-.013-.032c0-.006-.006-.016-.01-.023s-.006,0-.006-.006a.012.012,0,0,1,0-.01l-.006-.006a.556.556,0,0,0-.071-.1s0-.006-.006-.006a.574.574,0,0,0-.09-.087s-.006,0-.006,0a.63.63,0,0,0-.106-.065s-.006,0-.01-.006a.614.614,0,0,0-.116-.042l0,0-1.423-.381a.684.684,0,0,0-.548,1.236l-7.417,4.013a.684.684,0,0,0,.326,1.284Z" fill="#030403"/>
          <path id="Path_1277417" data-name="Path 1277417" d="M39.959,22.368H41.83v1.981H39.959Zm-.306,3.349h2.484A1.06,1.06,0,0,0,43.2,24.655V22.062A1.062,1.062,0,0,0,42.137,21H39.652a1.064,1.064,0,0,0-1.061,1.061v2.594A1.062,1.062,0,0,0,39.652,25.717Z" fill="#030403"/>
          <path id="Path_1277418" data-name="Path 1277418" d="M50.731,18.29H52.6v6.185H50.731Zm-1.368-.413v7.007a1,1,0,0,0,1.061.958h2.481a1,1,0,0,0,1.061-.958V17.877a1,1,0,0,0-1.061-.955H50.425A1,1,0,0,0,49.363,17.877Z" fill="#030403"/>
          <path id="Path_1277419" data-name="Path 1277419" d="M39.482,12.493H45.7a.684.684,0,1,0,0-1.368H39.482a.684.684,0,1,0,0,1.368Z" fill="#030403"/>
          <path id="Path_1277420" data-name="Path 1277420" d="M44.785,28.778H39.352a.684.684,0,0,0,0,1.368h5.433a.684.684,0,0,0,0-1.368Z" fill="#030403"/>
          <path id="Path_1277421" data-name="Path 1277421" d="M44.914,26.468H39.482a.684.684,0,1,0,0,1.368h5.433a.684.684,0,0,0,0-1.368Z" fill="#030403"/>
          <path id="Path_1277422" data-name="Path 1277422" d="M5.4,12.493h6.21a.684.684,0,0,0,0-1.368H5.4a.684.684,0,0,0,0,1.368Z" fill="#030403"/>
          <path id="Path_1277423" data-name="Path 1277423" d="M5.194,19.623a.7.7,0,0,0,.326-.081l7.494-4.059a.684.684,0,0,0,1.342.245l.381-1.419a.042.042,0,0,0,0-.019l.01-.039c0-.01,0-.019,0-.032s0-.023,0-.036a.09.09,0,0,0,0-.029v-.068c0-.013,0-.023-.006-.036s0-.023,0-.032,0-.023-.006-.032a.12.12,0,0,0-.01-.032.112.112,0,0,0-.006-.032.326.326,0,0,0-.013-.032.116.116,0,0,0-.013-.029.169.169,0,0,0-.016-.036c0-.006,0-.013-.006-.019l-.006-.006a.277.277,0,0,0-.019-.032.183.183,0,0,0-.016-.026.179.179,0,0,0-.023-.029.181.181,0,0,1-.019-.026.145.145,0,0,0-.023-.023.163.163,0,0,0-.023-.026c-.006-.006-.016-.013-.023-.019A.173.173,0,0,0,14.5,13.6a.077.077,0,0,0-.026-.019c-.01-.006-.016-.016-.026-.019l-.029-.019a.128.128,0,0,1-.029-.016.116.116,0,0,1-.029-.013l-.032-.013-.029-.01a.177.177,0,0,0-.039-.013.01.01,0,0,1-.006,0l-1.419-.381a.684.684,0,0,0-.548,1.236L4.868,18.339a.684.684,0,0,0,.326,1.284Z" fill="#030403"/>
          <path id="Path_1277424" data-name="Path 1277424" d="M5.4,10.551H9.052a.684.684,0,0,0,0-1.368H5.4a.684.684,0,0,0,0,1.368Z" fill="#030403"/>
          <path id="Path_1277425" data-name="Path 1277425" d="M30.981,38.776A1.679,1.679,0,1,1,29.3,37.1,1.684,1.684,0,0,1,30.981,38.776Zm-4.726,0A3.047,3.047,0,1,0,29.3,35.731a3.052,3.052,0,0,0-3.046,3.046Z" fill="#030403"/>
          <path id="Path_1277426" data-name="Path 1277426" d="M55.87,39.673H35.813l-.919-1.794H55.87ZM38.5,47.913a2.745,2.745,0,0,1-.09,2.668A1.986,1.986,0,0,1,36.7,51.6H21.9a1.993,1.993,0,0,1-1.7-1.02,2.743,2.743,0,0,1-.09-2.671l7.4-14.434a1.951,1.951,0,0,1,3.591,0l7.4,14.434ZM2.732,39.673V37.879h20.98l-.923,1.794Zm53.177-3.162H34.191l-1.874-3.659a3.318,3.318,0,0,0-6.026,0l-1.878,3.659H2.69a1.331,1.331,0,0,0-1.326,1.329v1.874A1.328,1.328,0,0,0,2.69,41.041h19.4l-3.207,6.246a4.134,4.134,0,0,0,.142,4.01A3.334,3.334,0,0,0,21.9,52.971H36.7a3.328,3.328,0,0,0,2.875-1.678,4.127,4.127,0,0,0,.139-4.007l-3.2-6.246h19.4a1.329,1.329,0,0,0,1.329-1.326V37.841a1.331,1.331,0,0,0-1.329-1.329Z" fill="#030403"/>
          <path id="Path_1277427" data-name="Path 1277427" d="M2.606,7.434A.732.732,0,0,1,3.335,6.7H16.766v3.984a1.2,1.2,0,0,0,1.2,1.2h3.817v20a.727.727,0,0,1-.726.726H3.335a.73.73,0,0,1-.729-.726Zm15.528.277,2.723,2.813H18.134ZM3.335,33.989H21.06a2.1,2.1,0,0,0,2.094-2.094V11.209a.6.6,0,0,0-.01-.11v-.016a1.168,1.168,0,0,0-.032-.113s0-.01-.006-.013a.548.548,0,0,0-.055-.106.017.017,0,0,0-.006-.013.755.755,0,0,0-.077-.1s0,0-.006,0L17.94,5.547v0a.6.6,0,0,0-.1-.084.009.009,0,0,0-.006,0,.783.783,0,0,0-.113-.065h0a.716.716,0,0,0-.126-.039.758.758,0,0,0-.123-.016H3.335a2.1,2.1,0,0,0-2.1,2.1V31.895a2.1,2.1,0,0,0,2.1,2.094Z" fill="#030403"/>
          <path id="Path_1277428" data-name="Path 1277428" d="M39.482,10.551h3.652a.684.684,0,1,0,0-1.368H39.482a.684.684,0,1,0,0,1.368Z" fill="#030403"/>
          <path id="Path_1277429" data-name="Path 1277429" d="M15.017,28.778H13.775a.684.684,0,0,0,0,1.368h1.242a.684.684,0,0,0,0-1.368Z" fill="#030403"/>
          <path id="Path_1277430" data-name="Path 1277430" d="M10.833,26.468H5.4a.684.684,0,0,0,0,1.368h5.433a.684.684,0,0,0,0-1.368Z" fill="#030403"/>
          <path id="Path_1277431" data-name="Path 1277431" d="M19.2,28.778H17.96a.684.684,0,0,0,0,1.368H19.2a.684.684,0,0,0,0-1.368Z" fill="#030403"/>
          <path id="Path_1277432" data-name="Path 1277432" d="M11.262,20.329h1.871v4.084H11.262Zm2.178,5.452a1,1,0,0,0,1.061-.958V19.916a1,1,0,0,0-1.061-.955H10.956a1,1,0,0,0-1.061.955v4.907a1,1,0,0,0,1.061.958Z" fill="#030403"/>
          <path id="Path_1277433" data-name="Path 1277433" d="M19.2,26.468H17.96a.684.684,0,0,0,0,1.368H19.2a.684.684,0,0,0,0-1.368Z" fill="#030403"/>
          <path id="Path_1277434" data-name="Path 1277434" d="M13.091,27.152a.684.684,0,0,0,.684.684h1.242a.684.684,0,0,0,0-1.368H13.775a.684.684,0,0,0-.684.684Z" fill="#030403"/>
          <path id="Path_1277435" data-name="Path 1277435" d="M16.647,18.29h1.871v6.185H16.647Zm-.306,7.552h2.484a1,1,0,0,0,1.061-.958V17.877a1,1,0,0,0-1.061-.955H16.34a1,1,0,0,0-1.061.955v7.007A1,1,0,0,0,16.34,25.843Z" fill="#030403"/>
          <path id="Path_1277436" data-name="Path 1277436" d="M53.283,26.468H52.044a.684.684,0,1,0,0,1.368h1.239a.684.684,0,1,0,0-1.368Z" fill="#030403"/>
          <path id="Path_1277437" data-name="Path 1277437" d="M49.1,28.778H47.86a.684.684,0,0,0,0,1.368H49.1a.684.684,0,1,0,0-1.368Z" fill="#030403"/>
          <path id="Path_1277438" data-name="Path 1277438" d="M55.87,31.895a.728.728,0,0,1-.729.726H37.417a.727.727,0,0,1-.726-.726V7.434a.73.73,0,0,1,.726-.729H50.851v3.984a1.2,1.2,0,0,0,1.2,1.2h3.817v20ZM52.218,7.711l2.723,2.813H52.218Zm5.007,3.371a.652.652,0,0,0-.029-.113s0-.01-.006-.013a.548.548,0,0,0-.055-.106.017.017,0,0,0-.006-.013.754.754,0,0,0-.077-.1s0,0-.006,0l-5.02-5.188v0a.6.6,0,0,0-.1-.084.009.009,0,0,0-.006,0,.783.783,0,0,0-.113-.065h0a.714.714,0,0,0-.126-.039.758.758,0,0,0-.123-.016H37.417a2.1,2.1,0,0,0-2.094,2.1V31.895a2.1,2.1,0,0,0,2.094,2.094H55.141a2.1,2.1,0,0,0,2.1-2.094V11.209a.6.6,0,0,0-.01-.11.029.029,0,0,0,0-.016Z" fill="#030403"/>
          <path id="Path_1277439" data-name="Path 1277439" d="M53.283,28.778H52.044a.684.684,0,1,0,0,1.368h1.239a.684.684,0,1,0,0-1.368Z" fill="#030403"/>
          <path id="Path_1277440" data-name="Path 1277440" d="M49.1,26.468H47.86a.684.684,0,0,0,0,1.368H49.1a.684.684,0,1,0,0-1.368Z" fill="#030403"/>
          <path id="Path_1277441" data-name="Path 1277441" d="M5.878,22.368H7.746v1.981H5.878Zm-.306,3.349H8.052a1.062,1.062,0,0,0,1.061-1.061V22.062A1.064,1.064,0,0,0,8.052,21H5.571A1.064,1.064,0,0,0,4.51,22.062v2.594A1.062,1.062,0,0,0,5.571,25.717Z" fill="#030403"/>
          <path id="Path_1277442" data-name="Path 1277442" d="M10.7,28.778H5.271a.684.684,0,1,0,0,1.368H10.7a.684.684,0,1,0,0-1.368Z" fill="#030403"/>
        </g>
      </g>
    </g>
  </g>
</svg>
