<svg xmlns="http://www.w3.org/2000/svg" xmlns:xlink="http://www.w3.org/1999/xlink" width="98" height="97.999" viewBox="0 0 98 97.999">
  <defs>
    <clipPath id="clip-path">
      <rect id="Rectangle_412629" data-name="Rectangle 412629" width="56" height="54" transform="translate(825.302 4967.538)" fill="#fff"/>
    </clipPath>
  </defs>
  <g id="Group_1206539" data-name="Group 1206539" transform="translate(-804.032 -4945.088)">
    <g id="Group_1206306" data-name="Group 1206306" transform="translate(-67.08 4667.924)">
      <g id="Group_1188789" data-name="Group 1188789" transform="translate(871.113 277.164)">
        <path id="Path_1243039" data-name="Path 1243039" d="M41.05,0h0a41.05,41.05,0,0,1,0,82.1h0a41.05,41.05,0,0,1,0-82.1Z" transform="translate(7.951 7.949)" fill="#ffa724"/>
        <rect id="Rectangle_400907" data-name="Rectangle 400907" width="88.438" height="88.437" rx="44.218" transform="translate(4.782 4.781)" fill="none"/>
        <g id="Group_1098742" data-name="Group 1098742" transform="translate(0)">
          <g id="Rectangle_400898" data-name="Rectangle 400898" transform="translate(0)" fill="none" stroke="#fff" stroke-width="2" opacity="0.859">
            <rect width="98" height="97.999" rx="48.999" stroke="none"/>
            <rect x="1" y="1" width="96" height="95.999" rx="47.999" fill="none"/>
          </g>
          <g id="Rectangle_400907-2" data-name="Rectangle 400907" transform="translate(0)" fill="none" stroke="#0f1f33" stroke-linecap="round" stroke-width="2">
            <rect width="98" height="97.999" rx="48.999" stroke="none"/>
            <rect x="1" y="1" width="96" height="95.999" rx="47.999" fill="none"/>
          </g>
        </g>
      </g>
    </g>
    <g id="Mask_Group_1099498" data-name="Mask Group 1099498" clip-path="url(#clip-path)">
      <g id="analytics_4703103" transform="translate(824.398 4965.635)">
        <g id="Group_1206537" data-name="Group 1206537">
          <path id="Path_1277471" data-name="Path 1277471" d="M23.484,44.258H56V8.129H10.839V32.065" fill="#e0e0e2"/>
          <g id="Group_1206536" data-name="Group 1206536">
            <path id="Path_1277472" data-name="Path 1277472" d="M21.677,42.452a1.806,1.806,0,1,1,0,3.613H19.871a1.806,1.806,0,0,1,0,3.613H9.935L8.129,47.871H5.419V37.032h2.71l1.806-1.806.9-3.161a2.258,2.258,0,0,1,4.516,0v3.161h6.323a1.806,1.806,0,1,1,0,3.613,1.806,1.806,0,1,1,0,3.613Z" fill="#ffdaaa"/>
            <path id="Path_1277473" data-name="Path 1277473" d="M1.806,35.226H5.419V49.677H1.806Z" fill="#006df0"/>
          </g>
          <path id="Path_1277474" data-name="Path 1277474" d="M42.452,20.774a6.323,6.323,0,1,1-6.323-6.323v6.323Z" fill="#006df0"/>
          <path id="Path_1277475" data-name="Path 1277475" d="M45.161,18.065H38.839V11.742a6.323,6.323,0,0,1,6.323,6.323Z" fill="#ff9811"/>
        </g>
        <g id="Group_1206538" data-name="Group 1206538">
          <path id="Path_1277476" data-name="Path 1277476" d="M56,7.226H10.839a.9.9,0,0,0-.9.9V31.938l-.8,2.815L7.755,36.129H6.323v-.9a.9.9,0,0,0-.9-.9H1.806a.9.9,0,0,0-.9.9V49.677a.9.9,0,0,0,.9.9H5.419a.9.9,0,0,0,.9-.9v-.9H7.755L9.3,50.316a.9.9,0,0,0,.639.264h9.935a2.709,2.709,0,0,0,2.519-3.708,2.722,2.722,0,0,0,1.841-1.712H56a.9.9,0,0,0,.9-.9V8.129A.9.9,0,0,0,56,7.226ZM4.516,48.774H2.71V36.129H4.516Zm14.452-9.032h2.71a.9.9,0,1,1,0,1.806h-2.71a.9.9,0,1,0,0,1.806h2.71a.9.9,0,1,1,0,1.806h-2.71a.9.9,0,0,0,0,1.806h.9a.9.9,0,0,1,0,1.806H10.309L8.768,47.232a.9.9,0,0,0-.639-.264H6.323V37.935H8.129a.9.9,0,0,0,.639-.264l1.806-1.806a.9.9,0,0,0,.229-.391l.9-3.161,0-.014a.861.861,0,0,0,.019-.094.226.226,0,0,0,0-.027.951.951,0,0,0,.008-.114,1.355,1.355,0,0,1,2.71,0v3.161a.9.9,0,0,0,.9.9h6.323a.9.9,0,1,1,0,1.806h-2.71a.9.9,0,0,0,0,1.806ZM55.1,43.355H24.231a2.718,2.718,0,0,0-.534-.9,2.71,2.71,0,0,0,0-3.613,2.709,2.709,0,0,0-2.02-4.515H16.258V32.065a3.16,3.16,0,0,0-4.516-2.855V9.032H55.1Z"/>
          <path id="Path_1277477" data-name="Path 1277477" d="M36.129,28a7.234,7.234,0,0,0,7.226-7.226.9.9,0,0,0-.9-.9H37.032V14.452a.9.9,0,0,0-.9-.9,7.226,7.226,0,1,0,0,14.452Zm-.9-12.57v5.344a.9.9,0,0,0,.9.9h5.344a5.419,5.419,0,1,1-6.247-6.247Z"/>
          <path id="Path_1277478" data-name="Path 1277478" d="M38.839,18.968h6.323a.9.9,0,0,0,.9-.9,7.234,7.234,0,0,0-7.226-7.226.9.9,0,0,0-.9.9v6.323A.9.9,0,0,0,38.839,18.968Zm.9-6.247a5.433,5.433,0,0,1,4.441,4.441H39.742Z"/>
          <path id="Path_1277479" data-name="Path 1277479" d="M15.355,12.645h8.658l2.9,2.9a.9.9,0,0,0,1.277-1.277L25.026,11.1a.9.9,0,0,0-.639-.265H15.355a.9.9,0,1,0,0,1.806Z"/>
          <path id="Path_1277480" data-name="Path 1277480" d="M42.716,26.458a.9.9,0,0,0,0,1.277l2.71,2.71a.9.9,0,0,0,.639.265h5.419a.9.9,0,1,0,0-1.806H46.439l-2.445-2.445a.9.9,0,0,0-1.277,0Z"/>
          <path id="Path_1277481" data-name="Path 1277481" d="M15.355,15.355h5.419a.9.9,0,0,0,0-1.806H15.355a.9.9,0,0,0,0,1.806Z"/>
          <path id="Path_1277482" data-name="Path 1277482" d="M15.355,18.065h5.419a.9.9,0,0,0,0-1.806H15.355a.9.9,0,1,0,0,1.806Z"/>
          <path id="Path_1277483" data-name="Path 1277483" d="M51.484,31.613H46.065a.9.9,0,0,0,0,1.806h5.419a.9.9,0,1,0,0-1.806Z"/>
          <path id="Path_1277484" data-name="Path 1277484" d="M51.484,34.323H46.065a.9.9,0,0,0,0,1.806h5.419a.9.9,0,1,0,0-1.806Z"/>
          <path id="Path_1277485" data-name="Path 1277485" d="M35.49,30.071l-4.251,4.252H27.1a.9.9,0,0,0,0,1.806h4.516a.9.9,0,0,0,.639-.265l4.516-4.516a.9.9,0,1,0-1.277-1.277Z"/>
        </g>
      </g>
    </g>
  </g>
</svg>
