<svg xmlns="http://www.w3.org/2000/svg" xmlns:xlink="http://www.w3.org/1999/xlink" width="98" height="97.999" viewBox="0 0 98 97.999">
  <defs>
    <clipPath id="clip-path">
      <rect id="Rectangle_412525" data-name="Rectangle 412525" width="56" height="54" transform="translate(825.302 921.538)" fill="#fff"/>
    </clipPath>
  </defs>
  <g id="Group_1206494" data-name="Group 1206494" transform="translate(-804.032 -899.088)">
    <g id="Group_1206204" data-name="Group 1206204" transform="translate(-67.08 621.924)">
      <g id="Group_1188789" data-name="Group 1188789" transform="translate(871.113 277.164)">
        <path id="Path_1243039" data-name="Path 1243039" d="M41.05,0h0a41.05,41.05,0,0,1,0,82.1h0a41.05,41.05,0,0,1,0-82.1Z" transform="translate(7.951 7.949)" fill="#ffa724"/>
        <rect id="Rectangle_400907" data-name="Rectangle 400907" width="88.438" height="88.437" rx="44.218" transform="translate(4.782 4.781)" fill="none"/>
        <g id="Group_1098742" data-name="Group 1098742" transform="translate(0)">
          <g id="Rectangle_400898" data-name="Rectangle 400898" transform="translate(0)" fill="none" stroke="#fff" stroke-width="2" opacity="0.859">
            <rect width="98" height="97.999" rx="48.999" stroke="none"/>
            <rect x="1" y="1" width="96" height="95.999" rx="47.999" fill="none"/>
          </g>
          <g id="Rectangle_400907-2" data-name="Rectangle 400907" transform="translate(0)" fill="none" stroke="#0f1f33" stroke-linecap="round" stroke-width="2">
            <rect width="98" height="97.999" rx="48.999" stroke="none"/>
            <rect x="1" y="1" width="96" height="95.999" rx="47.999" fill="none"/>
          </g>
        </g>
      </g>
    </g>
    <g id="Mask_Group_1099490" data-name="Mask Group 1099490" clip-path="url(#clip-path)">
      <g id="key-performance-indicator_4335864" transform="translate(826.302 921.538)">
        <g id="Group_1206492" data-name="Group 1206492">
          <g id="Group_1206480" data-name="Group 1206480">
            <path id="Path_1277339" data-name="Path 1277339" d="M46.161,31.459v21.67a22.59,22.59,0,0,0-8.623-17.776l.392-1.559a15.187,15.187,0,0,0,1.664-.331l1.176,1.585,3.214-1.333L43.7,31.764a15.143,15.143,0,0,0,1.4-.941Z" fill="#e6e9ed"/>
          </g>
          <g id="Group_1206481" data-name="Group 1206481">
            <path id="Path_1277340" data-name="Path 1277340" d="M18.29,16.548v3.484l1.916.479a15.187,15.187,0,0,0,.331,1.664l-1.585,1.176,1.333,3.214,1.951-.287a15.144,15.144,0,0,0,.941,1.4l-1.019,1.7,1.106,1.106A22.642,22.642,0,0,0,.871,53.129V11.323H19.745l-.793,1.907,1.585,1.176a15.187,15.187,0,0,0-.331,1.664Z" fill="#e6e9ed"/>
          </g>
          <g id="Group_1206482" data-name="Group 1206482">
            <path id="Path_1277341" data-name="Path 1277341" d="M28.742,47.9c0-2.508-1.2-6.611-2.456-10.208h.009a15.688,15.688,0,0,1,12.9,15.434H23.516A5.23,5.23,0,0,0,28.742,47.9Z" fill="#4fc1e9"/>
          </g>
          <g id="Group_1206483" data-name="Group 1206483">
            <path id="Path_1277342" data-name="Path 1277342" d="M20.746,37.7c-1.254,3.588-2.456,7.7-2.456,10.208a5.23,5.23,0,0,0,5.226,5.226H7.839A15.688,15.688,0,0,1,20.738,37.7Z" fill="#4fc1e9"/>
          </g>
          <g id="Group_1206484" data-name="Group 1206484">
            <path id="Path_1277343" data-name="Path 1277343" d="M27.435,33.715l3.214,1.333,1.176-1.585a15.187,15.187,0,0,0,1.664.331l.479,1.916h3.484l.087-.357a22.59,22.59,0,0,1,8.623,17.776H39.194A15.688,15.688,0,0,0,26.295,37.7h-.009c-1.054-3.057-2.151-5.74-2.578-6.767l.915.915,1.7-1.019a15.144,15.144,0,0,0,1.4.941Z" fill="#69d6f4"/>
          </g>
          <g id="Group_1206485" data-name="Group 1206485">
            <path id="Path_1277344" data-name="Path 1277344" d="M23.446,30.667c-.314.74-1.533,3.658-2.7,7.029h-.009a15.688,15.688,0,0,0-12.9,15.434H.871A22.642,22.642,0,0,1,23.264,30.484Z" fill="#69d6f4"/>
          </g>
          <g id="Group_1206486" data-name="Group 1206486">
            <path id="Path_1277345" data-name="Path 1277345" d="M23.446,30.667l.261.261c.427,1.028,1.524,3.71,2.578,6.767,1.254,3.6,2.456,7.7,2.456,10.208a5.226,5.226,0,1,1-10.452,0c0-2.508,1.2-6.619,2.456-10.208C21.914,34.325,23.133,31.407,23.446,30.667Z" fill="#ccd1d9"/>
          </g>
          <g id="Group_1206487" data-name="Group 1206487">
            <circle id="Ellipse_12451" data-name="Ellipse 12451" cx="1.742" cy="1.742" r="1.742" transform="translate(21.774 46.161)" fill="#ff826e"/>
          </g>
          <g id="Group_1206488" data-name="Group 1206488">
            <path id="Path_1277346" data-name="Path 1277346" d="M4.355,14.806H15.677v5.226H4.355Z" fill="#ff826e"/>
          </g>
          <g id="Group_1206489" data-name="Group 1206489">
            <path id="Path_1277347" data-name="Path 1277347" d="M.871,4.355H27.653l.07.462a15.144,15.144,0,0,0-1.4.941l-1.7-1.019L22.157,7.2l1.019,1.7a15.144,15.144,0,0,0-.941,1.4l-1.951-.287-.54,1.306H.871Z" fill="#b4dd7f"/>
          </g>
          <g id="Group_1206490" data-name="Group 1206490">
            <path id="Path_1277348" data-name="Path 1277348" d="M23.708,30.928l-.261-.261-.183-.183-1.106-1.106,1.019-1.7a15.143,15.143,0,0,1-.941-1.4l-1.951.287-1.333-3.214,1.585-1.176a15.187,15.187,0,0,1-.331-1.664l-1.916-.479V16.548l1.916-.479a15.187,15.187,0,0,1,.331-1.664L18.952,13.23l.793-1.907.54-1.306,1.951.287a15.143,15.143,0,0,1,.941-1.4L22.157,7.2l2.465-2.465,1.7,1.019a15.144,15.144,0,0,1,1.4-.941l-.07-.462-.218-1.489,3.214-1.333,1.176,1.585a15.187,15.187,0,0,1,1.664-.331L33.968.871h3.484l.479,1.916a15.187,15.187,0,0,1,1.664.331L40.77,1.533l3.214,1.333L43.7,4.816a15.144,15.144,0,0,1,1.4.941l1.7-1.019L49.262,7.2,48.243,8.9a15.144,15.144,0,0,1,.941,1.4l1.951-.287,1.333,3.214-1.585,1.176a15.187,15.187,0,0,1,.331,1.664l1.916.479v3.484l-1.916.479a15.187,15.187,0,0,1-.331,1.664l1.585,1.176-1.333,3.214-1.951-.287a15.143,15.143,0,0,1-.941,1.4l1.019,1.7L46.8,31.843l-.636-.383L45.1,30.824a15.144,15.144,0,0,1-1.4.941l.287,1.951L40.77,35.048l-1.176-1.585a15.187,15.187,0,0,1-1.664.331l-.392,1.559-.087.357H33.968l-.479-1.916a15.187,15.187,0,0,1-1.664-.331l-1.176,1.585-3.214-1.333.287-1.951a15.143,15.143,0,0,1-1.4-.941l-1.7,1.019Z" fill="#fcd770"/>
          </g>
          <g id="Group_1206491" data-name="Group 1206491">
            <path id="Path_1277349" data-name="Path 1277349" d="M23.516,18.29A12.194,12.194,0,1,1,35.71,30.484,12.2,12.2,0,0,1,23.516,18.29Z" fill="#ffeaa7"/>
          </g>
        </g>
        <g id="Group_1206493" data-name="Group 1206493">
          <path id="Path_1277350" data-name="Path 1277350" d="M35.71,13.935H33.1v8.71h1.742V19.161h.871a2.613,2.613,0,0,0,0-5.226Zm0,3.484h-.871V15.677h.871a.871.871,0,1,1,0,1.742Z"/>
          <path id="Path_1277351" data-name="Path 1277351" d="M29.613,14.806a2.609,2.609,0,0,1-1.742,2.453V13.935H26.129v8.71h1.742V19.322a2.609,2.609,0,0,1,1.742,2.453v.871h1.742v-.871a4.339,4.339,0,0,0-1.769-3.484,4.339,4.339,0,0,0,1.769-3.484v-.871H29.613Z"/>
          <path id="Path_1277352" data-name="Path 1277352" d="M40.065,15.677h1.742V20.9H40.065v1.742H45.29V20.9H43.548V15.677H45.29V13.935H40.065Z"/>
          <path id="Path_1277353" data-name="Path 1277353" d="M35.71,5.226A13.065,13.065,0,1,0,48.774,18.29,13.079,13.079,0,0,0,35.71,5.226Zm0,24.387A11.323,11.323,0,1,1,47.032,18.29,11.336,11.336,0,0,1,35.71,29.613Z"/>
          <path id="Path_1277354" data-name="Path 1277354" d="M54,20.712V15.869l-2.02-.505c-.036-.2-.075-.4-.118-.6l1.672-1.239L51.681,9.052l-2.058.307c-.109-.17-.222-.339-.338-.505l1.07-1.785L46.931,3.643,45.146,4.715q-.25-.174-.505-.339l.307-2.057L40.471.464,39.233,2.136c-.2-.043-.4-.083-.6-.118L38.132,0H33.288l-.505,2.019c-.2.036-.4.076-.6.118L30.948.465,26.472,2.319l.174,1.164H0V54H47.032V32.835l3.323-3.324-1.07-1.785c.116-.166.229-.335.338-.505l2.058.306,1.853-4.475-1.672-1.239q.064-.3.118-.6ZM22.907,5.226,21.064,7.07l1.07,1.785c-.116.166-.229.335-.338.505l-2.058-.307-.58,1.4H1.742V5.226ZM1.742,12.194h16.7l-.553,1.335,1.672,1.239q-.064.3-.118.6l-2.02.505v4.843l2.02.505c.036.2.075.4.118.6l-1.672,1.239,1.853,4.475,2.058-.306c.109.17.222.339.338.505l-1.07,1.785.215.215A23.628,23.628,0,0,0,1.742,44.288ZM29.815,35.646l-.78,1.885a16.666,16.666,0,0,0-2.079-.577c-.6-1.692-1.194-3.25-1.686-4.486l1.005-.6q.25.174.505.339l-.307,2.057Zm7.841.935q.317.272.624.553l-3.7,3.7a16.434,16.434,0,0,0-3.936-2.643L32.2,34.446c.194.042.389.081.585.116l.5,2.019Zm1.459,11.03,4.84-2a21.755,21.755,0,0,1,1.311,6.652h-5.24A16.553,16.553,0,0,0,39.115,47.611ZM38.454,46a16.513,16.513,0,0,0-2.64-3.935l3.7-3.7A21.625,21.625,0,0,1,43.287,44Zm-14.938,6.26A4.36,4.36,0,0,1,19.161,47.9c0-3.773,2.92-11.539,4.355-15.127,1.429,3.574,4.355,11.35,4.355,15.127A4.36,4.36,0,0,1,23.516,52.258ZM3.092,45.612l4.825,2a16.553,16.553,0,0,0-.911,4.647H1.764a21.538,21.538,0,0,1,1.328-6.646ZM8.578,46,3.765,44a21.948,21.948,0,0,1,3.774-5.621l3.679,3.679A16.535,16.535,0,0,0,8.578,46Zm3.871-5.168-3.68-3.681a21.916,21.916,0,0,1,5.624-3.771l1.992,4.808a16.445,16.445,0,0,0-3.936,2.644ZM18,37.531,16,32.7a21.546,21.546,0,0,1,6.2-1.308c-.523,1.281-1.322,3.3-2.118,5.559A16.723,16.723,0,0,0,18,37.531ZM8.748,52.258A14.768,14.768,0,0,1,19.41,38.905c-1.074,3.272-1.99,6.725-1.99,9a6.074,6.074,0,0,0,1.839,4.355ZM29.613,47.9c0-2.272-.914-5.718-1.993-9A14.767,14.767,0,0,1,38.284,52.258H27.774A6.074,6.074,0,0,0,29.613,47.9Zm8.907-12.872.118-.469c.2-.036.4-.076.6-.118l1.239,1.672,4.476-1.854L44.641,32.2c.17-.11.339-.223.505-.339l.145.087V44.223a23.458,23.458,0,0,0-6.772-9.192ZM50.433,19.809l-.083.58a14.743,14.743,0,0,1-.31,1.567l-.145.566,1.51,1.119L50.592,25.6l-1.859-.276-.3.5a14.691,14.691,0,0,1-.889,1.327l-.352.469.969,1.614-1.5,1.5-1.615-.969-.469.352a14.886,14.886,0,0,1-1.327.89l-.5.3.276,1.858-1.962.813-1.119-1.51-.567.145a14.808,14.808,0,0,1-1.566.31l-.581.083-.456,1.826H34.648l-.456-1.826-.581-.083a14.766,14.766,0,0,1-1.566-.31l-.567-.145-1.119,1.51L28.4,33.172l.276-1.858-.5-.3a14.95,14.95,0,0,1-1.327-.89l-.469-.352-1.615.969-1.5-1.5.969-1.614-.352-.469a14.632,14.632,0,0,1-.889-1.327l-.3-.5-1.859.276-.813-1.962,1.51-1.119-.145-.566a14.7,14.7,0,0,1-.31-1.567l-.083-.58-1.826-.456V17.228l1.826-.456.083-.58a14.743,14.743,0,0,1,.31-1.567l.145-.566-1.51-1.119.813-1.962,1.859.276.3-.5a14.692,14.692,0,0,1,.889-1.327l.352-.469-.969-1.614,1.5-1.5,1.615.969.469-.352a14.887,14.887,0,0,1,1.327-.89l.5-.3L28.4,3.408l1.962-.813L31.478,4.1l.567-.145a14.809,14.809,0,0,1,1.566-.31l.581-.083.456-1.826h2.123l.456,1.826.581.083a14.766,14.766,0,0,1,1.566.31l.567.145L41.061,2.6l1.962.813-.276,1.857.5.3a14.948,14.948,0,0,1,1.327.89l.469.352,1.615-.969,1.5,1.5-.969,1.614.352.469a14.631,14.631,0,0,1,.889,1.327l.3.5,1.859-.276.813,1.962-1.51,1.119.145.566a14.7,14.7,0,0,1,.31,1.567l.083.58,1.826.456v2.124Z"/>
          <path id="Path_1277355" data-name="Path 1277355" d="M23.516,45.29A2.613,2.613,0,1,0,26.129,47.9,2.616,2.616,0,0,0,23.516,45.29Zm0,3.484a.871.871,0,1,1,.871-.871A.872.872,0,0,1,23.516,48.774Z"/>
          <path id="Path_1277356" data-name="Path 1277356" d="M3.484,6.968H5.226V8.71H3.484Z"/>
          <path id="Path_1277357" data-name="Path 1277357" d="M6.968,6.968H8.71V8.71H6.968Z"/>
          <path id="Path_1277358" data-name="Path 1277358" d="M10.452,6.968h1.742V8.71H10.452Z"/>
          <path id="Path_1277359" data-name="Path 1277359" d="M15.677,19.161H5.226V15.677H15.677V13.935H3.484V20.9H15.677Z"/>
          <path id="Path_1277360" data-name="Path 1277360" d="M3.484,22.645H5.226v1.742H3.484Z"/>
          <path id="Path_1277361" data-name="Path 1277361" d="M6.968,22.645h8.71v1.742H6.968Z"/>
          <path id="Path_1277362" data-name="Path 1277362" d="M3.484,26.129H5.226v1.742H3.484Z"/>
          <path id="Path_1277363" data-name="Path 1277363" d="M6.968,26.129h8.71v1.742H6.968Z"/>
          <path id="Path_1277364" data-name="Path 1277364" d="M3.484,29.613H5.226v1.742H3.484Z"/>
          <path id="Path_1277365" data-name="Path 1277365" d="M6.968,29.613h5.226v1.742H6.968Z"/>
        </g>
      </g>
    </g>
  </g>
</svg>
