<svg xmlns="http://www.w3.org/2000/svg" xmlns:xlink="http://www.w3.org/1999/xlink" width="98" height="97.998" viewBox="0 0 98 97.998">
  <defs>
    <clipPath id="clip-path">
      <rect id="Rectangle_412529" data-name="Rectangle 412529" width="56" height="54" transform="translate(-8427.749 -10696.222)" fill="#fff"/>
    </clipPath>
  </defs>
  <g id="Group_1206477" data-name="Group 1206477" transform="translate(8449.019 10718.672)">
    <g id="Group_1206206" data-name="Group 1206206" transform="translate(-9320.131 -10995.836)">
      <g id="Group_1188789" data-name="Group 1188789" transform="translate(871.113 277.164)">
        <path id="Path_1243039" data-name="Path 1243039" d="M41.05,0h0a41.05,41.05,0,0,1,0,82.1h0a41.05,41.05,0,0,1,0-82.1Z" transform="translate(7.951 7.949)" fill="#ffa724"/>
        <rect id="Rectangle_400907" data-name="Rectangle 400907" width="88.438" height="88.437" rx="44.218" transform="translate(4.782 4.781)" fill="none"/>
        <g id="Group_1098742" data-name="Group 1098742" transform="translate(0)">
          <g id="Rectangle_400898" data-name="Rectangle 400898" transform="translate(0)" fill="none" stroke="#fff" stroke-width="2" opacity="0.859">
            <rect width="98" height="97.999" rx="48.999" stroke="none"/>
            <rect x="1" y="1" width="96" height="95.999" rx="47.999" fill="none"/>
          </g>
          <g id="Rectangle_400907-2" data-name="Rectangle 400907" transform="translate(0)" fill="none" stroke="#0f1f33" stroke-linecap="round" stroke-width="2">
            <rect width="98" height="97.999" rx="48.999" stroke="none"/>
            <rect x="1" y="1" width="96" height="95.999" rx="47.999" fill="none"/>
          </g>
        </g>
      </g>
    </g>
    <g id="Mask_Group_1099488" data-name="Mask Group 1099488" clip-path="url(#clip-path)">
      <g id="success_18427088" transform="translate(-8428.08 -10697.553)">
        <g id="Group_1206476" data-name="Group 1206476">
          <path id="Path_1277292" data-name="Path 1277292" d="M41.176,43.981h7.532v1.1H41.176Z" fill="#8b9ba9"/>
          <path id="Path_1277293" data-name="Path 1277293" d="M39.407,43.093a.883.883,0,0,1,.885-.881h9.3a.883.883,0,0,1,.885.881v2.874a.886.886,0,0,1-.885.885h-9.3a.886.886,0,0,1-.885-.885ZM14.768,46.851a2.32,2.32,0,1,1,2.321-2.318A2.323,2.323,0,0,1,14.768,46.851Zm-6.1,0a2.32,2.32,0,1,1,2.321-2.318A2.321,2.321,0,0,1,8.67,46.851Zm26.656-3.739a.886.886,0,0,1-.885.885H22.222a.886.886,0,0,1-.885-.885V41.69H2.1v2.842a2.847,2.847,0,0,0,2.842,2.839H51.72a2.847,2.847,0,0,0,2.842-2.839V41.69H35.325Z" fill="#8b9ba9"/>
          <path id="Path_1277294" data-name="Path 1277294" d="M14.768,43.981a.551.551,0,1,0,.552.552A.556.556,0,0,0,14.768,43.981Z" fill="#8b9ba9"/>
        </g>
        <path id="Path_1277295" data-name="Path 1277295" d="M5.4,23.6a.882.882,0,0,1,1.249.013l1.672,1.707,4.4-4.847a.885.885,0,0,1,1.311,1.189L9.005,27.207a.873.873,0,0,1-.64.289.024.024,0,0,1-.016,0,.9.9,0,0,1-.634-.267L5.391,24.854A.883.883,0,0,1,5.4,23.6ZM9.877,31.47a7.615,7.615,0,1,0-5.43-2.117,7.576,7.576,0,0,0,5.43,2.117Z" fill="#58b78c"/>
        <path id="Path_1277296" data-name="Path 1277296" d="M11.822,33v2.732h3.912V31.056A9.3,9.3,0,0,1,11.822,33Z" fill="#ff4f6c"/>
        <path id="Path_1277297" data-name="Path 1277297" d="M8.67,43.981a.551.551,0,1,0,.552.552A.552.552,0,0,0,8.67,43.981Z" fill="#8b9ba9"/>
        <path id="Path_1277298" data-name="Path 1277298" d="M19.756,19.085a.884.884,0,0,1,.885-.885h5.681a.884.884,0,0,1,.885.885V36.624a.886.886,0,0,1-.885.885H20.641a.886.886,0,0,1-.885-.885Zm9.7-5.342a.883.883,0,0,1,.885-.881h5.681a.883.883,0,0,1,.885.881V36.624a.886.886,0,0,1-.885.885H30.341a.886.886,0,0,1-.885-.885ZM16.214,17.08A9.4,9.4,0,0,1,17.5,29.092v7.532a.886.886,0,0,1-.885.885H10.938a.886.886,0,0,1-.885-.885V33.233c-.047,0-.091.006-.138.006-.069,0-.135,0-.2,0a9.343,9.343,0,0,1-3.623-.728v7.41H22.222a.884.884,0,0,1,.885.885v1.415h10.45V40.809a.886.886,0,0,1,.885-.885H50.575V13.7a2.191,2.191,0,0,0-2.186-2.19H46.61V36.624a.886.886,0,0,1-.885.885H40.044a.886.886,0,0,1-.885-.885V11.506H8.274A2.191,2.191,0,0,0,6.088,13.7V15.2A9.4,9.4,0,0,1,16.214,17.08Z" fill="#f7f7f7"/>
        <path id="Path_1277299" data-name="Path 1277299" d="M40.928,9.288H44.84V35.736H40.928Z" fill="#70c1ff"/>
        <path id="Path_1277300" data-name="Path 1277300" d="M31.225,14.63h3.912V35.736H31.225Z" fill="#58b78c"/>
        <path id="Path_1277301" data-name="Path 1277301" d="M21.525,19.969h3.912V35.736H21.525Z" fill="#fadc60"/>
        <path id="Path_1277302" data-name="Path 1277302" d="M21.525,19.969h3.912V35.736H21.525Zm-.885,17.539h5.681a.886.886,0,0,0,.885-.885V19.085a.884.884,0,0,0-.885-.885H20.641a.884.884,0,0,0-.885.885V36.624A.886.886,0,0,0,20.641,37.509Z"/>
        <path id="Path_1277303" data-name="Path 1277303" d="M7.716,27.232a.9.9,0,0,0,.634.267.024.024,0,0,0,.016,0,.873.873,0,0,0,.64-.289l5.032-5.543a.885.885,0,0,0-1.311-1.189l-4.4,4.847L6.653,23.615a.884.884,0,1,0-1.261,1.239l2.325,2.378Z"/>
        <path id="Path_1277304" data-name="Path 1277304" d="M31.225,14.63h3.912V35.736H31.225Zm-.885,22.879h5.681a.886.886,0,0,0,.885-.885V13.742a.883.883,0,0,0-.885-.881H30.341a.883.883,0,0,0-.885.881V36.624A.886.886,0,0,0,30.341,37.509Z"/>
        <path id="Path_1277305" data-name="Path 1277305" d="M8.67,45.082a.551.551,0,1,1,.552-.549A.552.552,0,0,1,8.67,45.082Zm0-2.87a2.32,2.32,0,1,0,2.321,2.321A2.32,2.32,0,0,0,8.67,42.211Z"/>
        <path id="Path_1277306" data-name="Path 1277306" d="M54.562,44.533a2.847,2.847,0,0,1-2.842,2.839H4.943A2.847,2.847,0,0,1,2.1,44.533V41.69H21.337v1.421a.886.886,0,0,0,.885.885H34.441a.886.886,0,0,0,.885-.885V41.69H54.562v2.842ZM4.221,18.586a7.615,7.615,0,1,1,.226,10.766,7.591,7.591,0,0,1-.226-10.766Zm7.6,17.15V33a9.3,9.3,0,0,0,3.912-1.948v4.681ZM6.088,13.7a2.191,2.191,0,0,1,2.186-2.19H39.159V36.624a.886.886,0,0,0,.885.885h5.681a.886.886,0,0,0,.885-.885V11.506h1.779a2.191,2.191,0,0,1,2.186,2.19V39.924H34.441a.886.886,0,0,0-.885.885v1.415H23.106V40.809a.884.884,0,0,0-.885-.885H6.088v-7.41a9.341,9.341,0,0,0,3.623.728c.069,0,.135,0,.2,0,.047,0,.091,0,.138-.006v3.391a.886.886,0,0,0,.885.885h5.681a.886.886,0,0,0,.885-.885V29.092A9.383,9.383,0,0,0,6.088,15.2V13.7Zm34.84-4.408H44.84V35.736H40.928ZM55.447,39.924h-3.1V13.7a3.96,3.96,0,0,0-3.956-3.956H46.609V8.406a.884.884,0,0,0-.885-.885H40.043a.884.884,0,0,0-.885.885V9.739H8.274A3.96,3.96,0,0,0,4.319,13.7V16.18a9.394,9.394,0,0,0,0,15.353v8.392h-3.1a.884.884,0,0,0-.885.885v3.724a4.614,4.614,0,0,0,4.611,4.608H51.72a4.614,4.614,0,0,0,4.611-4.608V40.809a.884.884,0,0,0-.885-.885Z"/>
        <path id="Path_1277307" data-name="Path 1277307" d="M14.768,45.082a.551.551,0,1,1,.552-.549A.552.552,0,0,1,14.768,45.082Zm0-2.87a2.32,2.32,0,1,0,2.321,2.321A2.322,2.322,0,0,0,14.768,42.211Z"/>
        <path id="Path_1277308" data-name="Path 1277308" d="M41.176,43.981h7.532v1.1H41.176Zm-.885,2.87h9.3a.886.886,0,0,0,.885-.885V43.093a.883.883,0,0,0-.885-.881h-9.3a.883.883,0,0,0-.885.881v2.874A.886.886,0,0,0,40.291,46.851Z"/>
      </g>
    </g>
  </g>
</svg>
