<svg xmlns="http://www.w3.org/2000/svg" xmlns:xlink="http://www.w3.org/1999/xlink" width="98" height="97.998" viewBox="0 0 98 97.998">
  <defs>
    <clipPath id="clip-path">
      <rect id="Rectangle_412533" data-name="Rectangle 412533" width="56" height="54" transform="translate(-7798.546 -10696.222)" fill="#fff"/>
    </clipPath>
  </defs>
  <g id="Group_1206472" data-name="Group 1206472" transform="translate(7819.815 10718.672)">
    <g id="Group_1206208" data-name="Group 1206208" transform="translate(-8690.928 -10995.836)">
      <g id="Group_1188789" data-name="Group 1188789" transform="translate(871.113 277.164)">
        <path id="Path_1243039" data-name="Path 1243039" d="M41.05,0h0a41.05,41.05,0,0,1,0,82.1h0a41.05,41.05,0,0,1,0-82.1Z" transform="translate(7.951 7.949)" fill="#ffa724"/>
        <rect id="Rectangle_400907" data-name="Rectangle 400907" width="88.438" height="88.437" rx="44.218" transform="translate(4.782 4.781)" fill="none"/>
        <g id="Group_1098742" data-name="Group 1098742" transform="translate(0)">
          <g id="Rectangle_400898" data-name="Rectangle 400898" transform="translate(0)" fill="none" stroke="#fff" stroke-width="2" opacity="0.859">
            <rect width="98" height="97.999" rx="48.999" stroke="none"/>
            <rect x="1" y="1" width="96" height="95.999" rx="47.999" fill="none"/>
          </g>
          <g id="Rectangle_400907-2" data-name="Rectangle 400907" transform="translate(0)" fill="none" stroke="#0f1f33" stroke-linecap="round" stroke-width="2">
            <rect width="98" height="97.999" rx="48.999" stroke="none"/>
            <rect x="1" y="1" width="96" height="95.999" rx="47.999" fill="none"/>
          </g>
        </g>
      </g>
    </g>
    <g id="Mask_Group_1099486" data-name="Mask Group 1099486" clip-path="url(#clip-path)">
      <g id="decision-making_18091921" transform="translate(-7801.68 -10700.339)">
        <g id="Group_1206471" data-name="Group 1206471">
          <path id="Path_1277250" data-name="Path 1277250" d="M22.764,37.921l-3.185,5.221-3.545-5.4c-1.331-2.032-5.1.558-3.345,2.254l6.072,8.481a2.022,2.022,0,0,0,.5.342A1.92,1.92,0,0,0,21.789,48l2.279-4.423v10.79c0,.6.574.832,1.136,1.095H36.448a1.117,1.117,0,0,0,1.132-1.095V43.573L39.862,48a1.918,1.918,0,0,0,2.532.821,2,2,0,0,0,.492-.342l5.4-8.152c1.755-1.7-1.5-4.7-2.676-2.583L42.068,44.1l-3.181-6.176c-.541-1.046-4.3-1.574-8.063-1.574s-7.522.527-8.06,1.574Z" fill="#b39ccb" fill-rule="evenodd"/>
          <path id="Path_1277251" data-name="Path 1277251" d="M37.605,28.2l1.218.065c.671.034.972.6.671,1.255L38.9,30.826a2.016,2.016,0,0,1-1.762,1.128l-1.218-.069Z" fill="#f598a2" fill-rule="evenodd"/>
          <path id="Path_1277252" data-name="Path 1277252" d="M38.888,37.921,42.069,44.1l3.545-6.357a1.15,1.15,0,0,1,.647-.41,9.493,9.493,0,0,1,1.714,3.295l-5.087,7.852A1.925,1.925,0,0,1,39.863,48l-2.282-4.423v6.213c-.157-.028-.319-.058-.476-.089-7.2-1.427-13.038-6.541-13.038-11.42a5.571,5.571,0,0,1,.13-1.211c3.838-1.189,13.786-.905,14.69.853Z" fill="#d0c3e1" fill-rule="evenodd"/>
          <path id="Path_1277253" data-name="Path 1277253" d="M27.971,34.1h5.672v2.518c0,1.382.39,2-.9,2.514a4.218,4.218,0,0,1-3.787,0c-1.211-.667-.985-1.132-.985-2.514Z" fill="#f598a2" fill-rule="evenodd"/>
          <path id="Path_1277254" data-name="Path 1277254" d="M25.9,42.238l.634-5.244,4.513,3.161Z" fill="#43b3e6" fill-rule="evenodd"/>
          <path id="Path_1277255" data-name="Path 1277255" d="M36.192,42.238l-.636-5.289-4.505,3.205Z" fill="#43b3e6" fill-rule="evenodd"/>
          <path id="Path_1277256" data-name="Path 1277256" d="M29.63,39.523h2.594l.964,10.318h-.013L32.052,51.6l-1.125,1.758L29.8,51.6l-1.122-1.758h-.013Z" fill="#43b3e6" fill-rule="evenodd"/>
          <path id="Path_1277257" data-name="Path 1277257" d="M31.416,39.523h.807l.964,10.318h-.013L32.052,51.6l-.112.177-.322-.506-1.125-1.758h-.014Z" fill="#83d4f7" fill-rule="evenodd"/>
          <path id="Path_1277258" data-name="Path 1277258" d="M30.387,38.017h1.078a.917.917,0,0,1,.917.917v2a.919.919,0,0,1-.917.917H30.387a.921.921,0,0,1-.917-.917v-2a.92.92,0,0,1,.917-.917Z" fill="#43b3e6" fill-rule="evenodd"/>
          <path id="Path_1277259" data-name="Path 1277259" d="M31,22.493A5.5,5.5,0,0,1,36.5,28c0,3.038-2.463,7.054-5.5,7.054s-5.5-4.016-5.5-7.054A5.5,5.5,0,0,1,31,22.493Z" fill="#f598a2" fill-rule="evenodd"/>
          <path id="Path_1277260" data-name="Path 1277260" d="M31,22.493A5.5,5.5,0,0,1,36.5,28a8.37,8.37,0,0,1-3,6.124c-.054,0-.11,0-.164,0-3.038,0-5.5-4.017-5.5-7.054a5.5,5.5,0,0,1,2.361-4.52,5.677,5.677,0,0,1,.8-.058Z" fill="#f9b5b2" fill-rule="evenodd"/>
          <path id="Path_1277261" data-name="Path 1277261" d="M10.619,36.34h4.14a1.827,1.827,0,0,1,0,3.654h-4.14a1.827,1.827,0,1,1,0-3.654Z" fill="#f598a2" fill-rule="evenodd"/>
          <path id="Path_1277262" data-name="Path 1277262" d="M51.145,37.039h-4.14a1.829,1.829,0,1,0,0,3.658h4.14a1.829,1.829,0,0,0,0-3.658Z" fill="#f598a2" fill-rule="evenodd"/>
          <path id="Path_1277263" data-name="Path 1277263" d="M36.606,28.6a4.626,4.626,0,0,1-1.464-1.967,5.448,5.448,0,0,1-5.993-.476,1.458,1.458,0,0,0-1.492-.212,4.254,4.254,0,0,0-2.6,3.263c-.845-1.8-1.587-8.615,1.956-7.533,1.156-4.457,12.606-2.631,9.592,6.925Z" fill="#6dcff1" fill-rule="evenodd"/>
          <path id="Path_1277264" data-name="Path 1277264" d="M36.22,28.29a6.3,6.3,0,0,1-1.078-1.659,5.448,5.448,0,0,1-5.993-.476,1.458,1.458,0,0,0-1.492-.212A4.264,4.264,0,0,0,25.666,27.6c-.171-2.422.321-5.059,2.627-4.358C29,20.5,33.62,20.138,36.356,22.5a7.584,7.584,0,0,1,.257,6.079c-.065-.119-.13-.246-.192-.377-.069.031-.136.059-.2.089Z" fill="#3ab6e9" fill-rule="evenodd"/>
          <path id="Path_1277265" data-name="Path 1277265" d="M53.127,31.436a13.9,13.9,0,0,1,5.162-6.5,31.367,31.367,0,0,1-6.678-5.447s-.093,1.194-.278,3.582a10.005,10.005,0,0,0-9.077,12.21,12.512,12.512,0,0,1,9.89-7.886Q53.128,31.436,53.127,31.436Z" fill="#43b649" fill-rule="evenodd"/>
          <path id="Path_1277266" data-name="Path 1277266" d="M53.127,31.436a16.318,16.318,0,0,1,5.162-6.5c-1.6-1.139-3.709-2.206-5.324-3.89t-.278,3.578a9.995,9.995,0,0,0-9.169,8.221,12.51,12.51,0,0,1,8.628-5.45Q53.128,31.436,53.127,31.436Z" fill="#5fbb46" fill-rule="evenodd"/>
          <path id="Path_1277267" data-name="Path 1277267" d="M18.18,6.769a6.136,6.136,0,1,1-6.135,6.137A6.136,6.136,0,0,1,18.18,6.769Z" fill="#fed733" fill-rule="evenodd"/>
          <path id="Path_1277268" data-name="Path 1277268" d="M23.257,9.462a6.136,6.136,0,0,1-7.749,8.967,6.137,6.137,0,0,1,7.749-8.967Z" fill="#feea3a" fill-rule="evenodd"/>
          <path id="Path_1277269" data-name="Path 1277269" d="M43.069,6.8a6.12,6.12,0,1,1-6.12,6.12,6.12,6.12,0,0,1,6.12-6.12Z" fill="#fed733" fill-rule="evenodd"/>
          <path id="Path_1277270" data-name="Path 1277270" d="M46.349,18.086a6.12,6.12,0,0,1-8.8-7.806,6.12,6.12,0,0,1,8.8,7.806Z" fill="#feea3a" fill-rule="evenodd"/>
          <path id="Path_1277271" data-name="Path 1277271" d="M9.142,31.436a13.949,13.949,0,0,0-5.162-6.5,31.367,31.367,0,0,0,6.678-5.447s.093,1.194.278,3.582a10,10,0,0,1,9.073,12.21,12.507,12.507,0,0,0-9.887-7.886q-.983,4.044-.98,4.044Z" fill="#43b649" fill-rule="evenodd"/>
          <path id="Path_1277272" data-name="Path 1277272" d="M9.142,31.436a16.318,16.318,0,0,0-5.162-6.5c1.594-1.139,3.705-2.206,5.324-3.89t.274,3.578a10.006,10.006,0,0,1,9.172,8.221,12.51,12.51,0,0,0-8.628-5.45Q9.139,31.436,9.142,31.436Z" fill="#5fbb46" fill-rule="evenodd"/>
          <path id="Path_1277273" data-name="Path 1277273" d="M24.711,28.2l-1.218.065c-.671.034-.975.6-.673,1.255l.6,1.307a2.009,2.009,0,0,0,1.762,1.128l1.218-.069Z" fill="#f598a2" fill-rule="evenodd"/>
        </g>
        <path id="Path_1277274" data-name="Path 1277274" d="M24.183,29.071l-.626.034.623,1.372a1.2,1.2,0,0,0,.938.636Zm-.735-1.65.25-.013c-.259-1.594-.349-3.886.427-5.324a2.383,2.383,0,0,1,2.357-1.361c2.271-4.389,12.949-2.238,11.3,6.64l1.078.058a1.641,1.641,0,0,1,1.4,2.45l-.595,1.307A2.861,2.861,0,0,1,37.092,32.8l-1.229-.065a8.43,8.43,0,0,1-1.376,1.659v1.29c1.622.161,4.475.548,5.149,1.857L42.1,42.314l2.337-4.19a2.681,2.681,0,0,1,.681-1.143,2.649,2.649,0,0,1,1.889-.787h4.14a2.674,2.674,0,0,1,0,5.348H48.494l-4.9,7.4a2.463,2.463,0,0,1-.832.636,2.762,2.762,0,0,1-3.647-1.194l-.688-1.331v7.311a1.969,1.969,0,0,1-1.977,1.943H25.2a.95.95,0,0,1-.455-.127c-.776-.362-1.522-.712-1.522-1.816V47.053l-.688,1.331a2.767,2.767,0,0,1-4.02.975,2.069,2.069,0,0,1-.442-.39l-5.823-8.125H10.619a2.673,2.673,0,0,1,0-5.346h4.14a2.678,2.678,0,0,1,2.672,2.672c0,.052,0,.1,0,.154l2.128,3.247,2.477-4.065c.742-1.287,3.452-1.652,5.1-1.82l0-1.663a8.725,8.725,0,0,1-.988-1.276,3.4,3.4,0,0,1-2.435-.386,2.862,2.862,0,0,1-1.057-1.18l-.6-1.307a1.641,1.641,0,0,1,1.4-2.452ZM8.355,31.74a13.136,13.136,0,0,0-4.831-6.1.84.84,0,0,1,.072-1.46A25.534,25.534,0,0,0,6.772,21.95a36.477,36.477,0,0,0,3.28-3.045.844.844,0,0,1,1.447.524v0l.222,2.877a10.857,10.857,0,0,1,9.111,13.165.844.844,0,0,1-1.628.062,11.666,11.666,0,0,0-8.449-7.164L9.96,31.635a.843.843,0,0,1-1.605.1ZM7.585,27.1a15.768,15.768,0,0,1,1.279,1.889l.425-1.751a.842.842,0,0,1,.951-.681,13.337,13.337,0,0,1,9.145,5.721A9.15,9.15,0,0,0,10.9,23.914a.843.843,0,0,1-.807-.783L9.957,21.38a32.007,32.007,0,0,1-4.468,3.61,13.269,13.269,0,0,1,2.1,2.114Zm32.5-12.98a.843.843,0,1,1,1.064-1.307l1.5,1.229,2.234-4.013a.842.842,0,0,1,1.471.818l-2.8,5.016a.845.845,0,0,1-1.188.119Zm2.987-8.169A6.965,6.965,0,1,1,36.1,12.92,6.964,6.964,0,0,1,43.069,5.955ZM46.8,9.192a5.276,5.276,0,1,0,0,7.461A5.278,5.278,0,0,0,46.8,9.192ZM19.648,10.2a.845.845,0,1,1,1.194,1.2l-1.468,1.468,1.56,1.557a.845.845,0,1,1-1.2,1.194L18.18,14.055l-1.56,1.557a.844.844,0,0,1-1.194-1.194l1.56-1.557-1.468-1.468a.845.845,0,0,1,1.194-1.2l1.468,1.468ZM18.18,5.927A6.979,6.979,0,1,1,11.2,12.906,6.978,6.978,0,0,1,18.18,5.927Zm3.739,3.237a5.289,5.289,0,1,0,0,7.481A5.293,5.293,0,0,0,21.919,9.164ZM53.4,28.993a14.22,14.22,0,0,1,3.377-4.006,32.344,32.344,0,0,1-4.468-3.61l-.134,1.751a.845.845,0,0,1-.811.783,9.151,9.151,0,0,0-8.481,8.367,13.326,13.326,0,0,1,9.145-5.721.839.839,0,0,1,.947.681Zm2.6-.839a15.536,15.536,0,0,0-2.087,3.586.843.843,0,0,1-1.6-.106l-.794-3.271a11.666,11.666,0,0,0-8.449,7.164.844.844,0,0,1-1.628-.062A10.855,10.855,0,0,1,50.549,22.3l.222-2.877v0a.844.844,0,0,1,1.447-.524A36.626,36.626,0,0,0,55.5,21.948a25.623,25.623,0,0,0,3.175,2.234.842.842,0,0,1,.075,1.46A11.314,11.314,0,0,0,56,28.154Zm-27.933-6.8a5.011,5.011,0,0,1,1.984,4.417,4.731,4.731,0,0,0,4.748.093.846.846,0,0,1,1.1.4c.089.188.181.36.267.517,1.007-6.638-6.514-7.839-8.1-5.43Zm.612,5.5a.69.69,0,0,0-.366-.177c-.393-.058-1.081.438-1.344.673a3.59,3.59,0,0,0-.63.763,7.659,7.659,0,0,0,1.615,4.28c1.656,2.12,3.9,2.614,5.928.188a7.915,7.915,0,0,0,1.7-3.735,5.674,5.674,0,0,1-.835-1.153,6.08,6.08,0,0,1-6.072-.839Zm-.317-1.868a3.457,3.457,0,0,0-.3-1.061,3.346,3.346,0,0,0-1.365-1.471,1.429,1.429,0,0,0-.455-.052c-.766.054-.968,1.423-1.016,2.141a11.452,11.452,0,0,0,.075,2.131,4.232,4.232,0,0,1,3.065-1.688ZM51.145,37.884h-4.14a.984.984,0,0,0,0,1.967h4.14a.984.984,0,0,0,0-1.967ZM46.5,41.493a2.682,2.682,0,0,1-1.522-.882l-2.172,3.9a.842.842,0,0,1-1.484-.024L38.14,38.311c-.119-.233-1.115-.507-1.643-.623l.537,4.455a.848.848,0,0,1-1.156.879L33.3,41.978l.729,7.787a.856.856,0,0,1-.209.636l-2.182,3.411a.841.841,0,0,1-1.427-.013l-2.163-3.383a.82.82,0,0,1-.212-.725l.712-7.608-2.327.941a.845.845,0,0,1-1.153-.879l.548-4.546c-.541.1-1.95.421-2.1.714-.013.021-.024.041-.037.058L20.3,43.584a.843.843,0,0,1-1.423.024L16.59,40.119a2.672,2.672,0,0,1-1.827.725h-.427l5.07,7.075a1.1,1.1,0,0,0,1.639-.308l2.279-4.42a.845.845,0,0,1,1.594.386V54.365a1.951,1.951,0,0,0,.472.253H36.453a.272.272,0,0,0,.287-.253V43.578a.845.845,0,0,1,1.622-.332l2.254,4.365a1.076,1.076,0,0,0,1.563.362.428.428,0,0,0,.069-.052ZM14.759,37.186h-4.14a.984.984,0,0,0,0,1.967h4.14a.983.983,0,0,0,.694-1.676A.963.963,0,0,0,14.759,37.186ZM32.8,35.516a4.467,4.467,0,0,1-3.983-.185L28.8,37.552l.284.2a1.752,1.752,0,0,1,1.3-.582h1.078a1.755,1.755,0,0,1,1.382.671l.01,0L32.8,36.614v-1.1Zm.427,4.126v.486l1.96.794-.3-2.463ZM31.672,42.69H30.18l-.651,6.924,1.4,2.183,1.4-2.183Zm-3.047-2.462v-.739l-1.419-1-.291,2.429Zm2.84-1.365H30.387l-.072.072v2l.072.072h1.078l.072-.072V38.934Zm7.29-9.758-.623-.034L37.2,31.113a1.193,1.193,0,0,0,.934-.636Z"/>
      </g>
    </g>
  </g>
</svg>
