<svg xmlns="http://www.w3.org/2000/svg" xmlns:xlink="http://www.w3.org/1999/xlink" width="98" height="97.998" viewBox="0 0 98 97.998">
  <defs>
    <clipPath id="clip-path">
      <rect id="Rectangle_412532" data-name="Rectangle 412532" width="56" height="54" transform="translate(-7483.944 -10696.222)" fill="#fff"/>
    </clipPath>
  </defs>
  <g id="Group_1206470" data-name="Group 1206470" transform="translate(7505.214 10718.672)">
    <g id="Group_1206207" data-name="Group 1206207" transform="translate(-8376.326 -10995.836)">
      <g id="Group_1188789" data-name="Group 1188789" transform="translate(871.113 277.164)">
        <path id="Path_1243039" data-name="Path 1243039" d="M41.05,0h0a41.05,41.05,0,0,1,0,82.1h0a41.05,41.05,0,0,1,0-82.1Z" transform="translate(7.951 7.949)" fill="#ffa724"/>
        <rect id="Rectangle_400907" data-name="Rectangle 400907" width="88.438" height="88.437" rx="44.218" transform="translate(4.782 4.781)" fill="none"/>
        <g id="Group_1098742" data-name="Group 1098742" transform="translate(0)">
          <g id="Rectangle_400898" data-name="Rectangle 400898" transform="translate(0)" fill="none" stroke="#fff" stroke-width="2" opacity="0.859">
            <rect width="98" height="97.999" rx="48.999" stroke="none"/>
            <rect x="1" y="1" width="96" height="95.999" rx="47.999" fill="none"/>
          </g>
          <g id="Rectangle_400907-2" data-name="Rectangle 400907" transform="translate(0)" fill="none" stroke="#0f1f33" stroke-linecap="round" stroke-width="2">
            <rect width="98" height="97.999" rx="48.999" stroke="none"/>
            <rect x="1" y="1" width="96" height="95.999" rx="47.999" fill="none"/>
          </g>
        </g>
      </g>
    </g>
    <g id="Mask_Group_1099485" data-name="Mask Group 1099485" clip-path="url(#clip-path)">
      <g id="productivity_12282181" transform="translate(-7484.988 -10698.264)">
        <path id="Path_1277242" data-name="Path 1277242" d="M21.623,16.616h4.636V18.87a12.115,12.115,0,0,1,4.5,1.864l1.594-1.594,3.279,3.279-1.594,1.594a12.113,12.113,0,0,1,1.864,4.5h2.254v4.636H35.9a12.114,12.114,0,0,1-1.864,4.5l1.594,1.594-3.279,3.279-1.594-1.594a12.113,12.113,0,0,1-4.5,1.863v2.254H21.623V42.787a12.115,12.115,0,0,1-4.5-1.863l-1.594,1.594-3.279-3.279,1.594-1.594a12.112,12.112,0,0,1-1.864-4.5H9.729V28.51h2.254a12.116,12.116,0,0,1,1.864-4.5l-1.594-1.594,3.279-3.279,1.594,1.594a12.113,12.113,0,0,1,4.5-1.864V16.616Zm2.318,7a7.216,7.216,0,1,0,7.216,7.216,7.216,7.216,0,0,0-7.216-7.216Z" fill="#b47316" fill-rule="evenodd"/>
        <path id="Path_1277243" data-name="Path 1277243" d="M23.414,3.769a25.825,25.825,0,0,1,4.864-.818V8.791a21.043,21.043,0,0,0-7.362.382L18.793,5.494a25.825,25.825,0,0,1,4.621-1.725ZM17.437,10.3A21.147,21.147,0,0,0,5.105,34.719,25.713,25.713,0,0,1,15.7,7.281ZM31.855,2.95A25.675,25.675,0,0,1,41.338,5.5l-3.885,6.728a21.251,21.251,0,0,0-5.6-2.669Zm12.58,4.337-4.16,7.205a21.014,21.014,0,0,1,4.593,6.436l8.86-2.374A25.6,25.6,0,0,0,44.434,7.287Z" fill="#ffb229" fill-rule="evenodd"/>
        <path id="Path_1277244" data-name="Path 1277244" d="M30.558,46.3h5.033v8.832H30.558Z" fill="#6a8a1c"/>
        <path id="Path_1277245" data-name="Path 1277245" d="M39.561,40.444h5.033v14.69H39.561Z" fill="#80b918"/>
        <path id="Path_1277246" data-name="Path 1277246" d="M21.556,50.1h5.033v5.033H21.556Z" fill="#80b918"/>
        <path id="Path_1277247" data-name="Path 1277247" d="M48.564,30.341H53.6V55.135H48.564Z" fill="#6a8a1c"/>
        <g id="Group_1206469" data-name="Group 1206469">
          <path id="Path_1277248" data-name="Path 1277248" d="M27.669,32.981a4.3,4.3,0,1,1-1.575-5.88l19.883-2.177Zm-3.728-3.967a1.815,1.815,0,1,0,1.815,1.815,1.815,1.815,0,0,0-1.815-1.815Z" fill="#ffb229" fill-rule="evenodd"/>
          <path id="Path_1277249" data-name="Path 1277249" d="M40.225,26.465,26.189,28v0a.9.9,0,0,1-.546-.115,3.4,3.4,0,1,0,1.211,4.7.9.9,0,0,1,.449-.431l12.921-5.686ZM23.941,28.106a2.723,2.723,0,1,1-2.723,2.723,2.723,2.723,0,0,1,2.723-2.723Zm0,1.815a.908.908,0,1,1-.908.908A.908.908,0,0,1,23.941,29.921Zm15.12-.963v4.189a.908.908,0,0,1-.908.908H36.625a13.143,13.143,0,0,1-1.434,3.462L36.272,38.6a.908.908,0,0,1,0,1.283l-3.279,3.279a.908.908,0,0,1-1.283,0l-1.081-1.081a13.14,13.14,0,0,1-3.462,1.434v1.529a.908.908,0,0,1-.908.908H21.623a.908.908,0,0,1-.908-.908V43.512a13.144,13.144,0,0,1-3.462-1.434l-1.081,1.081a.908.908,0,0,1-1.283,0L11.61,39.88a.908.908,0,0,1,0-1.283l1.081-1.081a13.137,13.137,0,0,1-1.434-3.463H9.729a.908.908,0,0,1-.908-.908V28.51a.908.908,0,0,1,.908-.908h1.529a13.146,13.146,0,0,1,1.434-3.462L11.61,23.06a.908.908,0,0,1,0-1.283L14.889,18.5a.908.908,0,0,1,1.283,0l1.081,1.081a13.146,13.146,0,0,1,3.462-1.434V16.616a.908.908,0,0,1,.908-.908h4.636a.908.908,0,0,1,.908.908v1.529a13.14,13.14,0,0,1,3.462,1.434L31.71,18.5a.908.908,0,0,1,1.283,0l3.279,3.279a.908.908,0,0,1,0,1.283l-1.081,1.081.534.995,10.156-1.112a.907.907,0,0,1,.461,1.729l-7.28,3.2ZM33.8,25.347l-3.528.386a8.122,8.122,0,1,0,1.7,6.346l5.277-2.322v2.483H35.9a.908.908,0,0,0-.9.788,11.127,11.127,0,0,1-1.716,4.111.907.907,0,0,0,.11,1.148l.952.952-1.995,1.995-.952-.952a.908.908,0,0,0-1.183-.087,11.123,11.123,0,0,1-4.127,1.7.906.906,0,0,0-.736.89h0v1.346H22.53V42.787a.908.908,0,0,0-.788-.9,11.127,11.127,0,0,1-4.111-1.715.907.907,0,0,0-1.148.11l-.952.952-1.995-1.995.952-.952a.908.908,0,0,0,.087-1.183,11.121,11.121,0,0,1-1.7-4.127.906.906,0,0,0-.89-.736v0H10.636V29.418h1.346a.908.908,0,0,0,.9-.788A11.123,11.123,0,0,1,14.6,24.519a.907.907,0,0,0-.11-1.148h0l-.952-.952,2-1.995.952.952a.908.908,0,0,0,1.183.087,11.116,11.116,0,0,1,4.127-1.7.906.906,0,0,0,.736-.89h0V17.524h2.821V18.87a.908.908,0,0,0,.788.9,11.123,11.123,0,0,1,4.111,1.715.907.907,0,0,0,1.148-.11h0l.952-.952,1.995,1.995-.952.952a.908.908,0,0,0-.087,1.183q.264.393.488.794ZM28.286,33.7l1.58-.7a6.311,6.311,0,1,1-1.883-7.021l-1.712.187A5.209,5.209,0,1,0,28.286,33.7Zm21.185-2.45V54.227h3.218V31.249ZM47.656,55.134V30.341a.908.908,0,0,1,.908-.908H53.6a.908.908,0,0,1,.908.908V55.134a.908.908,0,0,1-.908.908H48.563A.908.908,0,0,1,47.656,55.134Zm-26.1-5.94h5.033a.908.908,0,0,1,.908.908v5.033a.908.908,0,0,1-.908.908H21.555a.908.908,0,0,1-.908-.908V50.1A.908.908,0,0,1,21.555,49.194Zm4.125,1.815H22.463v3.218h3.218V51.009Zm13.88-11.472a.908.908,0,0,0-.908.908v14.69a.908.908,0,0,0,.908.908h5.033a.908.908,0,0,0,.908-.908V40.444a.908.908,0,0,0-.908-.908Zm4.125,1.815H40.468V54.227h3.218ZM30.558,45.394a.908.908,0,0,0-.908.908v8.832a.908.908,0,0,0,.908.908h5.033a.908.908,0,0,0,.908-.908V46.3a.908.908,0,0,0-.908-.908Zm4.125,1.815v7.017H31.466V47.21ZM23.18,2.894a26.861,26.861,0,0,1,5.034-.846.908.908,0,0,1,.97.9h0V8.791a.908.908,0,0,1-1.049.9,20.061,20.061,0,0,0-7.019.368.906.906,0,0,1-1-.451l-2.11-3.655A.906.906,0,0,1,18.4,4.68h0A27.271,27.271,0,0,1,23.18,2.893Zm2.8,1.243A24.987,24.987,0,0,0,20.073,5.9l1.3,2.248a22.056,22.056,0,0,1,6-.361V3.943q-.7.077-1.391.193ZM17.787,11.13a.9.9,0,0,0,.433-1.283L16.514,6.893a.9.9,0,0,0-1.327-.364A26.625,26.625,0,0,0,4.225,34.935h0A.9.9,0,1,0,5.982,34.5h0A20.245,20.245,0,0,1,17.787,11.13ZM9.419,14.866a24.8,24.8,0,0,1,5.989-6.275l.746,1.292a21.926,21.926,0,0,0-6.735,4.983ZM31.973,2.05a26.58,26.58,0,0,1,9.762,2.634A.905.905,0,0,1,42.094,6l-3.858,6.683a.9.9,0,0,1-1.32.276,20.565,20.565,0,0,0-5.328-2.533.905.905,0,0,1-.639-.865h0V2.95a.908.908,0,0,1,1.026-.9ZM36.478,4.64a24.7,24.7,0,0,0-3.716-.7V8.9a21.85,21.85,0,0,1,4.38,2.053L40.058,5.9a24.812,24.812,0,0,0-3.58-1.264Zm8.463,1.895h0a.906.906,0,0,0-1.29.3l-4.16,7.206a.906.906,0,0,0,.16,1.11,20.125,20.125,0,0,1,4.37,6.1A.906.906,0,0,0,45.1,21.8l8.86-2.374v0a.908.908,0,0,0,.6-1.224,26.538,26.538,0,0,0-9.62-11.668Zm4.269,6.292A24.776,24.776,0,0,0,44.723,8.6l-3.315,5.742a21.89,21.89,0,0,1,3.949,5.52l7.111-1.906a24.608,24.608,0,0,0-3.258-5.126Z" fill-rule="evenodd"/>
        </g>
      </g>
    </g>
  </g>
</svg>
